<?xml version="1.0" encoding="UTF-8"?> <svg xmlns="http://www.w3.org/2000/svg" xmlns:xlink="http://www.w3.org/1999/xlink" version="1.1" id="layer" x="0px" y="0px" viewBox="20.100000381469727 283.8999938964844 600.1000366210938 76.80001831054688" style="enable-background:new 0 0 652 652;" xml:space="preserve"> <rect x="355.7" y="283.9" width="45.9" height="3.9"></rect> <polygon points="247,360.6 267.2,290 286.8,360.6 291.3,360.6 313.1,283.9 309.2,283.9 289.1,353.9 269.4,283.9 264.4,283.9 244.8,353.9 225.2,283.9 220.7,283.9 242.6,360.6 "></polygon> <rect x="355.7" y="320.3" width="45.9" height="3.9"></rect> <path d="M447,283.9v76.8h3.9v-32.5h23.5c0.6,0,1.1,0,1.1,0l20.7,32.5h4.5l-20.7-33.1c9.5-2.2,16.8-11.2,16.8-21.3 c0-12.3-10.1-22.4-22.4-22.4H451C451,283.9,447,283.9,447,283.9z M493,305.7c0,10.1-8.4,18.5-18.5,18.5H451v-36.4h23.5 C484.6,287.8,493,296.2,493,305.7"></path> <rect x="355.7" y="356.7" width="45.9" height="3.9"></rect> <polygon points="30.2,360.6 52.6,297.3 75.1,360.6 85.7,360.6 58.2,283.9 47.6,283.9 20.1,360.6 "></polygon> <polygon points="620.2,290.6 613.4,283.9 582.1,314.7 551.2,283.9 544,290.6 575.3,322 544,352.8 551.2,360.1 582.1,328.7 613.4,360.1 620.2,352.8 589.3,322 "></polygon> <polygon points="138.9,360.6 138.9,327.6 177,327.6 177,319.7 138.9,319.7 138.9,291.7 177,291.7 177,283.9 131.1,283.9 131.1,360.6 "></polygon> </svg> 