<?xml version="1.0" encoding="UTF-8"?> <!-- Generator: Adobe Illustrator 13.0.0, SVG Export Plug-In . SVG Version: 6.00 Build 14948) --> <svg xmlns="http://www.w3.org/2000/svg" xmlns:xlink="http://www.w3.org/1999/xlink" version="1.1" x="0px" y="0px" width="712px" height="720px" viewBox="0 0 711.445 720" xml:space="preserve"> <g id="Guides"> </g> <g id="Layer_1"> <path fill="#FFD520" stroke="#000000" stroke-width="0.9658" d="M638.332,74.33l-1.464,2.17 c-56.106,65.132-55.938,170.969-31.759,250.61c6.771-12.575,19.994-19.668,32.247-24.183c11.929-2.9,22.57,1.29,30.952,8.705 c11.286,13.221,9.673,32.891,16.445,48.687c6.451,18.38,17.413,34.503,26.118,51.916c0.646,7.091-2.258,12.895-6.127,18.376 c-7.094,8.708-17.412,9.029-27.084,11.61c7.093,37.724-9.026,71.58-30.957,99.953c-52.555,62.231-132.201,68.679-197.332,106.082 c-31.922,17.735-65.133,41.27-92.863,71.26h-2.257c-54.815-59.007-125.752-93.184-197.979-116.074 c-55.461-19.995-117.69-71.585-124.785-134.781c-0.322-9.353,0.322-18.381,2.258-27.087c-13.221-1.934-29.343-6.447-33.213-21.601 c-0.966-16.769,12.575-27.406,18.702-40.949c17.882-21.762,4.514-74.807,47.076-77.386c16.767,0.322,31.923,11.285,40.306,25.472 c22.57-80.286,25.062-187.511-30.075-253.932l0,0l74.555-72.598l410.485-0.098L638.332,74.33z"></path> <path fill="#2E347E" stroke="#000000" stroke-width="0.9658" stroke-linecap="square" stroke-miterlimit="2" d="M550.421,13.673 c20.959,18.701,48.242,42.269,66.298,62.582c-53.202,68.68-52.881,170.568-30.311,253.112 c18.055,47.722,4.514,105.435-33.212,141.551c-39.659,34.82-92.758,37.06-136.393,62.871c-20.795,12.309-41.271,25.474-60.94,40.95 c-17.733-9.992-34.178-23.535-51.913-33.208c-38.371-24.186-76.304-30.626-120.485-51.173 c-43.53-27.082-69.434-76.515-65.887-127.779c17.734-70.938,35.791-160.575,8.385-232.155 c-7.095-19.346-17.902-38.624-29.188-56.035l2.102-2.649c21.604-19.344,42.786-42.286,62.065-57.882L550.421,13.673z"></path> <path fill="#FFFFFF" stroke="#000000" stroke-width="0.9658" stroke-linecap="square" stroke-miterlimit="2" d="M87.913,324.853 c17.413,19.025,5.806,42.239,10.32,65.775c3.547,44.818,29.664,86.09,69.646,110.599c33.212,19.989,84.196,29.71,108.438,43.538 c27.057,15.432,53.771,31.008,79.887,49.714c46.757-31.599,90.587-63.589,145.08-76.163c48.688-10.642,96.733-55.46,108.34-104.472 c14.509-34.82-14.188-90.604,36.439-98.342c5.802,0.322,13.538,3.869,16.119,10.64c2.258,9.351,3.225,19.023-3.872,26.439 l-16.118-25.472c-6.452-1.29-11.93,7.416-15.479,12.253c-20.634,54.166,53.205,82.222,38.693,137.679 c-17.413,71.907-95.768,111.241-160.253,127.04c-54.493,23.216-105.117,51.592-150.259,94.477 c-37.081-34.357-112.527-82.349-157.84-95.539c-39.515-11.504-131.714-52.138-150.093-122.751 c-18.699-58.684,65.133-89.96,34.181-147.03c-3.226-3.228-6.127-7.096-10.966-7.096l-16.121,25.795 c-5.158-1.934-5.158-10.316-7.094-15.477c0.645-8.382,3.871-17.411,12.574-20.312C69.213,314.212,81.144,315.502,87.913,324.853z"></path> <path fill="#FFFFFF" stroke="#000000" stroke-width="0.9658" stroke-linecap="square" stroke-miterlimit="2" d="M72.436,358.708 l-6.77-0.645l6.77-13.866C73.727,348.391,77.273,355.484,72.436,358.708z"></path> <path fill="#FFFFFF" stroke="#000000" stroke-width="0.9658" stroke-linecap="square" stroke-miterlimit="2" d="M646.064,358.708 h-8.708c-1.615-4.19-0.796-8.776,1.611-13.22C642.513,348.714,644.771,353.872,646.064,358.708z"></path> <path fill="#FFFFFF" stroke="#000000" stroke-width="0.9658" stroke-linecap="square" stroke-miterlimit="2" d="M71.148,372.574 c-5.481,18.703-19.669,33.856-29.666,50.3c-5.804,3.224-14.188,5.805-20.636,2.581c-19.024-10.963,2.833-24.225,6.772-34.178 c4.462-11.289,11.606-21.604,13.218-34.181C47.287,367.414,60.185,371.285,71.148,372.574z"></path> <path fill="#FFFFFF" stroke="#000000" stroke-width="0.9658" stroke-linecap="square" stroke-miterlimit="2" d="M697.009,417.712 c-1.614,4.516-6.45,7.742-10.641,9.03c-22.573,4.193-29.289-27.709-34.081-32.479l-11.708-20.722 c10.963-2.903,23.861-4.839,30.311-15.479C673.791,380.311,688.301,397.724,697.009,417.712z"></path> <g> <path fill="#B75C27" d="M437.312,351.154c0.085,2.431-0.124,5.69-0.394,5.675c-8.043-0.441-15.668,0.59-22.53,4.389 c-6.215,3.438-12.335,9.404-11.226,16.687c1.422,9.353,5.462,17.386,7.216,26.865c0.091,0.522-0.496,1.355-0.867,1.975 c-2.428,4.038-7.494,3.145-11.128,5.251c4.862,23.466,10.935,46.141,16.615,69.872c0.744,3.132-4.362,2.547-7.201,3.299 c-2.428,0.64-4.871-0.669-5.834-3.062c-11.123,0.652-22.787,3.466-33.646-0.829c-0.532-0.212-0.548-1.167-0.935-1.526 c-2.075-1.936-5.42,0.609-6.072,2.498c-0.354,1.019-8.951,0.579-13.972,0.045c-1.405-0.149-1.111-2.373-1.989-2.217 c-2.953,0.537-6.011,1.52-8.523-0.307c-1.684-1.227-0.068-5.297-1.309-5.213c-12.376,0.801-25.362,3.022-38.027,5.256 c-1.516,5.682-1.167,12.991-6.021,16.415c-4.567,3.214-10.902,3.844-16.274,1.773c-2.97-1.147-5.552-3.16-7.519-6.009 c-3.606-5.228-1.563-11.118,0.935-16.152c-0.663-0.191-0.563-1.062-0.596-1.329c-0.235-2.053,3.184-4.579,2.128-4.934 c-3.835-1.282-8.393-2.184-12.722-3.506c-3.199-6.298-5.779-11.935-8.736-19.076c8.612-2.267,17.987-5.039,25.589-7.676 c0,0,0.264-2.747,0.4-5.806c0.058-1.312,9.95-1.718,10.042-3.672c0.212-4.494,1.209-9.762,2.252-14.382 c0.17-0.756,1.415-0.677,1.529-1.264c1.65-8.495,1.795-16.567,4.099-24.984c0.456-1.666,2.477-1.754,3.634-2.679 c2.371-1.901,3.502-4.991,4.42-7.829c0.954-2.97,0.91-6.293,2.116-9.145c0.481-1.138,1.636-2.384,1.748-3.462 c0.718-6.974,4.145-13.546,3.021-20.847c-0.411-2.671,2.407-4.787,2.856-7.171c0.857-4.521,3.634-9.855,2.574-14.602 c-0.396,0.679-1.075,1.3-2.133,2.206c-2.267,1.938-3.557-0.766-4.592-0.092c-3.968,2.58-4.86,8.146-6.7,12.266 c-7.271,16.301-13.789,32.467-20.458,49.066c-0.448,1.111-2.699,1.74-3.383,1.007c-3.503-3.776-7.772-5.668-11.366-9.199 c-0.726-0.711-0.745-1.996-0.297-2.845c10.059-19.097,23.421-35.23,33.785-54.142c2.034-3.712,2.655-7.849,5.312-11.679 c0.628-0.905,0.937-1.408,1.48-2.438c0.321-0.608,1.029-1.355,1.372-2.065c0.188-0.386-0.058-0.709-0.392-0.822 c-1.4-0.488-2.212,0.917-2.786,1.144c-0.622,0.245-1.66,0.677-3.181-0.606c-0.896-0.755,1.663-0.262,2.436-0.862 c1.058-0.822-0.163-2.074-0.656-2.245c-0.977-0.34-2.675,1.468-3.847,1.275c-0.563-0.094-1.077-1.118-0.194-1.437 c1.594-0.572,0.248-2.045,0.694-2.488c2.052-2.034,4.039-3.849,6.35-5.693c1.446-1.155,3.616,0.819,5.55,0.503 c0.781-0.128,1.733-0.472,2.868-0.565c0.261-0.018,0.602-0.353,0.402-0.73c-0.187-0.352-0.574-0.563-0.762-0.916 c-0.199-0.376,0.091-0.711,0.434-0.773c0.713-0.125,1.45-1.053,2.123,0.026c0.306-0.196,0.623-0.441,0.422-0.822 c-0.185-0.351-0.557-0.826-0.766-0.781c-3.228,0.686-6.856-0.235-7.719-3.049c-0.272-0.885-0.428-1.75-0.485-2.595l98.125,3.353 c-0.398,2.835-1.104,5.649-2.224,8.44c-0.513,1.272-4.448,0.633-4.565,2.311c-0.048,0.717-0.277,4.337,0.007,4.263 c1.499-0.39,4.628-2.726,5.39-2.857l6.739,1.741l2.595,9.972l0.104,0.158c-5.565,2.089-11.834,4.401-17.241,6.562 c-1.484,7.599-3.013,15.997-3.587,23.722c-4.018,2.69-2.181,8.207-3.906,12.212c-0.217,0.513-0.805,0.856-1.243,1.268 c2.263,1.685,5.482,0.983,7.57,3.241c1.721,1.859,2.921,3.934,4.058,6.117c7.317-11.968,21.994-15.856,35.081-15.237 L437.312,351.154z"></path> <path fill="#B75C27" d="M452.06,133.733c-18.966,24.263-37.116,48.138-56.432,71.63c1.839,17.02,3.144,33.393,6.062,50.965 c1.763,10.608,4.324,21.01,2.912,31.147l-98.125-3.353c-0.478-7.235,6.369-12.972,9.647-19.284 c0.241-0.462-0.625-1.485-1.421-2.045c-13.835-9.723-26.627-18.781-34.526-33.723c-0.945-1.79-0.035-4.014-0.596-5.835 c-0.646-2.109-3.563-2.435-4.714-4.523c-0.595-1.083-0.568-2.238-0.275-3.387c0.892-3.482,1.297-6.371,1.884-9.719 c0.531-3.015,1.944-5.828,5.435-6.689c2.111-7.22,3.835-14.523,6.841-21.479c3.404-7.874,7.509-15.103,12.077-22.482 c2.261-3.651,4.814-7.105,8.648-9.52c3.983-2.507,8.353-2.546,12.771-3.677c0.881-0.225,1.968-0.817,2.026-1.571 c0.222-2.889,1.476-5.354,2.164-8.027c-4.007-2.352-3.303-7.377-2.605-11.183c-4.333-2.526-9.809-4.935-10.242-10.601 c-0.427-5.593,1.622-10.567,3.571-15.619c0.847-2.195,2.301-4.097,3.308-6.23c1.951-4.12,4.798-7.611,8.717-10.405 c3.674-2.62,6.852-5.572,11.309-6.236c5.056-0.754,9.893-1.421,14.922-1.035c7.477,0.575,15.863,0.938,21.147,6.27 c5.867,5.921,14.435,11.127,13.812,20.085c-0.349,5.031-1.846,11.44-6.979,13.645c-3.227,1.388-7.731,1.893-8.899,4.803 c-0.768,1.905-0.121,4.285-0.007,6.67c0.093,1.902,0.413,3.855,0.181,5.928c-0.236,2.109-2.105,3.222-4.153,4.012 c-2.774,1.066-6.127,1.75-7.86,4.612c-0.742,1.229-1.19,3.043-0.791,4.041c1.193,2.972,5.253,3.085,7.707,5.415 c3.789,3.598,5.601,8.729,9.957,11.182c4.935,2.783,8.798,6.774,10.855,11.858c3.021,7.459,2.62,15.295,3.55,23.132 c19.305-24.915,39.449-47.232,58.578-74.145c0.299-0.419-0.933-1.653-0.9-2.829c0.943,0.262,1.755,0.762,2.515,1.363 c1.863-3.321,4.999-1.457,6.018,0.808c0.543,1.218,0.994,2.264,0.599,3.935C460.553,122.449,453.577,131.79,452.06,133.733z"></path> </g> <path fill="#FFFFFF" d="M356.72,81.413c4.891,0.98,10.462,3.782,14.794,6.94c0.111,0.082-0.659-1.765-0.863-2.032 c-1.42-1.886-3.311-3.17-5.766-5.332c3.698,0.746,6.807,1.915,11.135,4.978c-0.294-0.216-0.521-1.116-0.991-2.073 c4.604,2.574,7.749,6.551,11.732,10.061c0.229,0.2,0.427-0.702,0.27-1.083c-2.489-5.979-7.306-9.906-12.388-13.936 c-3.943-3.125-8.677-4.631-13.373-4.939c-7.896-0.522-16.271-1.37-23.864,1.963c-2.203,0.965-4.897,2.8-10.616,8.688 c-2.522,2.598-4.662,5.652-5.185,9.085c-0.062,0.411-0.532,2.775-0.473,2.691c3.091-4.443,7.764-9.205,12.533-11.222 c2.127-0.898,4.977-1.768,8.625-1.572c-1.242-1.375-3.999-1.471-6.446-1.927C342.484,78.31,349.728,80.011,356.72,81.413z"></path> <path fill="#FFFFFF" d="M364.169,90.681c-3.042-1.443-7.246-2.098-8.807,1.18c-0.506,1.067-1.014,2.401-2.054,3.241 c0.71,0.857,1.7,0.322,2.543,0.513c-0.676,2.892-5.147,2.586-5.758,5.008c-0.146,0.576,2.241-0.517,2.283,0.029 c0.141,1.917-1.407,4.062-3.045,5.127c-0.903,0.589-2.729,0.106-3.1,1.494c-0.197,0.729,0.345,1.633,0.173,2.529 c-2.072-1.329-3.844-2.716-4.722-5.203c-0.088-0.246-1.659-0.226-1.688-0.094c-1.028,4.618,3.539,10.151,8.453,7.926 c1.936,4.599,4.349,9.267,8.706,11.979c3.649,2.272,14.989,2.513,15.534-0.175c0.598-2.953-3.94-1.658-5.984-2.06 c0.003-0.827,1.134-0.995,2.418-1.904c1.062-0.75,2.394-0.366,2.832-0.356c0.65,0.016,1.068-1.577,0.165-1.877 c-0.902-0.297-1.977-0.35-2.921-0.115c-0.632,0.156-1.324,0.587-2.036,0.947c-1.029,0.517-2.113,0.886-3.146,0.066 c1.345-0.857,2.028-1.646,2.438-1.879c1.932-1.11,2.695-0.755,5.331-0.571c0.226,0.018,1.153-0.427,0.818-1.058 c-1.033-1.936-3.777-1.196-4.79-2.873c-0.606-1.011,0.191-3.994,2.072-3.433c0.144,0.041-0.223,1.363,0.394,1.411 c2.271,0.184,7.167,0.593,6.353-1.327c-0.953-2.245-3.14-5.362-4.658-6.87c-1.728-1.72-2.754,4.722-7.032,2.901 c-1.302-0.554-2.308-1.896-3.46-2.33c-1.381-0.519-2.852-0.671-3.613-2.139c-0.174-0.339-0.174-0.95,0.052-1.178 c3.104-3.135,8.122-5.144,12.442-2.299c0.125,0.083,0.583-0.354,0.352-0.718C369.023,93.923,366.965,92.01,364.169,90.681z"></path> <g> <path fill="#FFFFFF" d="M365.828,99.041c0.883,0.132,1.098-0.974,1.013-1.049c-1.227-1.104-5.394,1.172-6.243,2.129 C362.629,102.078,362.439,98.536,365.828,99.041z"></path> </g> <path fill="#FFFFFF" d="M343.06,122.591c-3.173,2.238-0.472,6.758-0.851,10.108c4.308,3.092,8.705,6.401,13.552,7.997 c0.86,0.285,2.209-3.354,1.657-4.162c-3.597-5.276-6.445-10.485-10.839-14.912C346.115,121.154,344.164,121.813,343.06,122.591z"></path> <path fill="#FFFFFF" d="M343.321,136.637c-2.897-1.904-6.08-3.487-9.139-2.2c-3.011,1.266-5.493,3.583-7.607,6.265 c2.787,2.392,6.53,2.269,9.641,3.837c2.224,1.122,4.224,3.326,6.351,3.528c2.778,0.265,5.343-3.923,8.047-3.065 c1.176,0.376,0.188,3.811,1.143,4.758c1.707,1.689,5.594-0.27,8.258-1.089C354.768,144.214,349.25,140.537,343.321,136.637z"></path> <path fill="#FFFFFF" d="M321.138,231.281c-1.942-3.629-2.794-7.486-3.896-11.455c-0.725-2.614-3.143-4.268-5.188-6.13 c-0.488-0.446-0.874,0.38-1.16,0.769c-1.411,1.914,0.219,3.94-0.36,5.891c-0.59,1.978-0.769,0.818-1.969,2.396 c-0.295,0.389-0.279,1.238-0.005,1.609c4.568,6.192,7.288,13.002,12.503,18.425C325.171,240.04,323.49,235.675,321.138,231.281z"></path> <path fill="#FFFFFF" d="M354.479,173.235c6.659,6.884,11.17,14.923,16.293,22.745c1.293-6.336-1.031-12.83-1.051-19.239 c2.94,4.211,3.28,9.524,5.931,13.857c1.229-5.055,0.391-10.617-1.18-15.402c-1.178,0.621-0.238,2.549-1.809,2.926 c-0.077-4.653,1.894-10.82-2.297-13.853c-5.518-3.991-10.699-7.334-15.682-11.845c-0.916-0.828-2.38-0.392-3.43-0.108 c-1.42,0.382-0.544-2.953-1.911-2.883c-2.224,0.111-4.181,2.883-6.416,2.187c-4.677-1.454-9.157-3.082-13.592-5.211 c-0.373-0.181-1.273-0.008-1.105,0.179c3.148,3.507,4.625,7.661,4.612,11.836c-0.034,10.88-2.943,21.318-5.075,32.3 c-1.408,7.264-0.822,14.474,0.196,21.717c4.29,3.148,10.229,2.377,14.303,6.034c-4.979,0.414-9.963,0.196-14.948,0.344 c2.222,4.189,4.038,9.299,8.572,11.388c-2.021,1.089-5.47,0.197-5.967,2.048c-0.96,3.571-0.741,7.7,0.812,11.434 c5.702-6.062,10.405-12.944,16.014-19.084c-3.323-10.735-8.834-20.442-10.271-31.955c-0.597-4.773-1.267-9.351-0.957-14.09 c1.811,5.891,3.089,11.913,5.554,17.603c3.173,7.33,6.555,14.384,11.053,20.945c4.097-3.628,7.562-7.832,11.078-11.997 c-11.464-7.457-21.194-19.288-23.189-33.224c0.648,1.102,0.977,2.328,1.695,3.397c3.578,5.351,7.178,9.929,11.587,14.303 c3.095,3.068,4.241,7.607,8.407,9.499c-0.51-6.296-6.049-10.27-6.974-16.481c-0.007-0.041,0.496,0.171,0.692,0.476 c0.306-0.195,0.64-0.446,0.417-0.813c-5.523-9.075-12.307-16.015-18.342-24.122C343.847,162.404,349.088,167.659,354.479,173.235z"></path> <path fill="#FFFFFF" d="M326.031,160.247c1.259-5.035-1.677-10.968-6.922-12.635c-0.076-0.025-0.088-0.622,0.04-0.689 c1.863-0.976,4.423-0.629,5.476-2.507c0.062-0.109-0.48-0.747-0.685-0.701c-3.946,0.864-7.639,0.979-11.581,1.759 c-5.045,0.996-6.374,6.085-9.555,9.514c-1.701,1.834-1.498,4.819-2.883,6.779c-6.322,8.964-7.025,18.362-10.257,28.084 c-0.113,0.344,0.668,1.027,1.49,0.85c-1.379,2.868-3.223,5.483-4.555,8.377c3.616,0.981,7.457,0.451,11.039,1.658 c-5.597,2.628-11.896,0.819-17.593,2.813c0.578,0.588,1.446,0.865,2.078,0.77c1.481-0.229,2.925-0.656,4.273-0.36 c5.071,1.102,9.609-1.365,14.542-0.431c2.146,0.406,4.429,2.597,6.797,1.394c-1.752-2.244-4.336-3.619-7.115-4.083 c0.439-1.376,2.111-1.756,2.519-2.945c0.165-0.476-0.749-0.543-1.066-0.335c-2.004,1.316-4.084,2.057-6.052,0.562 c0.677-0.749,1.329-1.665,2.239-1.938c3.176-0.959,8.005,0.433,9.412-2.552c3.654-7.746,2.646-16.775,3.573-25.279 c0.201-1.844,0.342-3.729,0.916-5.524c0.267,2.121-0.82,6.026,0.519,5.785c5.407-0.979,2.29-8.975,3.594-13.752 c0.9,0.489,0.062,2.156,0.687,1.916c1.763-0.688,1.117-3.779,3.253-4.77c-3.277,11.379-3.068,23.334-5.883,34.791 c0.042-3.713,0.603-7.444-0.475-11.11c-2.679,9.88-3.211,20.031-3.919,30.167c-0.019,0.272,0.473,0.794,0.71,0.764 c0.877-0.116,1.689-0.74,2.154-1.552c2.219-3.872,3.66-7.932,4.451-12.236c1.229-6.669,2.752-13.173,2.515-19.947 c-0.139-3.958,0.312-8.052,1.846-11.866c0.577,2.973-0.544,6.124,0.972,8.995c0.978-2.606,0.818-5.335,1.23-8.055 c0.164-1.08,0.688,0.411,1.193,0.051C325.655,161.547,325.937,160.623,326.031,160.247z"></path> <path fill="#FFFFFF" d="M330.998,159.638c-0.411-2.954-0.437-5.936-2.657-8.208c-0.25,3.851,0.436,7.569,1.856,11.114 c0.104,0.255,0.642-0.034,0.714-0.366C331.091,161.331,331.118,160.495,330.998,159.638z"></path> <path fill="#FFFFFF" d="M372.888,161.876c0.502,1.488,0.146,4.456,1.814,4.062c2.396-0.563,2.435-4.048,4.541-5.516 c-2.946-2.899-5.02-6.417-8.296-9.151c-0.61-0.513-1.546,0.264-1.47,0.669C370.13,155.476,371.752,158.519,372.888,161.876z"></path> <path fill="#FFFFFF" d="M380.157,170.276c1.358,5.85,0.409,11.268-0.999,16.933c-1.333,5.357-4.144,10.024-7.896,14.184 c-9.805,10.874-18.537,20.975-28.082,32.168c-4.775,5.603-9.254,10.699-13.036,16.969c-0.373,0.613,0.515,0.808,0.743,1.271 c16.017-16.623,30.241-33.493,45.197-52.31c4.127-5.185,6.48-10.832,7.749-17.182c1.267-6.344-1.074-12.394-2.574-18.402 C377.708,164.492,379.667,168.16,380.157,170.276z"></path> <path fill="#FFFFFF" d="M376.528,174.059c0.999,1.703,0.762,3.764,1.63,5.53c0.665-2.403,0.454-3.563,0.471-5.096 c0.021-2.027-0.215-3.801-1.013-5.869C376.895,166.756,375.146,171.696,376.528,174.059z"></path> <path fill="#FFFFFF" d="M388.696,170.988c-0.97-2.73-1.776-5.873-4.454-7.38c-0.373-0.21-0.847,0.1-0.771,0.361 c1.75,6.324,3.012,11.108,2.373,17.648c-0.248,2.547-0.722,5.227-1.79,7.737c-0.484,1.133-0.567,2.233-0.152,3.128 c1.214,2.613,0.535,7.042,2.991,7.256c1.582,0.138,3.678-2.986,4.087-5.25c0.757-4.196,0.013-8.416-0.466-12.779 C390.106,178.019,389.938,174.486,388.696,170.988z"></path> <path fill="#FFFFFF" d="M446.042,133.464c1.345-1.479,2.523-1.864,4.184-1.009c0.165,0.083,0.623-0.491,0.354-0.656 c-1.283-0.794-2.249-3.25-2.963-2.442c-17.201,19.584-31.908,39.24-49.005,59.791c-2.804,3.37-5.479,6.219-8.152,9.749 c-3.822,5.054-7.183,9.461-11.151,14.237c-12.952,15.589-24.54,29.15-36.873,45.645c-0.535,0.716,1.162,1.513,1.785,2.438 c20.873-26.145,40.209-51.767,62.176-78.724c2.998-3.678,5.476-7.221,8.493-10.896C425.707,158.43,434.677,146,446.042,133.464z"></path> <path fill="#FFFFFF" d="M302.717,240.552c2.729,2.544,5.235,5.057,8.371,6.957c3.899,2.366,7.35,4.945,11.257,7.238 c1.479,0.867,2.944,1.765,4.388,2.666c1.982,1.239,4.454,3.703,2.895,6.291c3.576,2.361,6.487,5.463,9.526,8.434 c0.246-0.888,2.319-0.008,1.542-1.071c-2.551-3.506-5.157-6.558-7.948-9.861c-0.255-0.299,0.096-0.726,0.406-0.73 c3.743-0.062,4.817,5.314,8.357,6.465c0.823,0.267,2.251-0.443,2.299-1.055c0.256-3.305-3.869-5.909-6.8-7.798 c-1.022-0.659-2.307,0.667-3.287,0.086c-3.933-2.336-6.992-5.446-10.913-7.896c-4.378-2.736-6.97-6.431-9.724-10.7 c-3.039-4.709-5.885-8.716-8.482-13.514c-0.421-0.776,0.247-2.339-0.218-2.662c-5.548-3.88-12.97-4.734-18.918-1.622 c-0.184,0.098-0.319,0.951,0.328,1.127c3.003,0.815,6.046,0.417,8.896,1.626c-1.296,1.357-4.594,0.747-4.236,1.79 C292.48,232.217,297.958,236.115,302.717,240.552z"></path> <path fill="#FFFFFF" d="M299.432,210.617c2.176,0.557,4.177,1.19,6.382,0.639c-4.493-2.428-9.542-2.535-14.477-3.917 c-3.68-1.029-7.499-1.312-11.369-1.587c-0.291-0.021-0.661,0.443-0.396,0.714c1.172,1.204,2.899,0.079,4.133,0.739 c0.168,0.089,0.167,0.919-0.05,1.061c-2.491,1.635-5.033,2.861-6.446,5.463c-0.194,0.356-0.116,1.282,0.222,1.09 c3.345-1.878,5.848-5.239,9.612-4.719c0.836,0.116,1.938,1.128,2.981,1.86c0.353,0.248,0.706-0.035,0.798-0.373 c0.229-0.839-1.178-1.814-0.726-1.83C293.139,209.656,296.254,209.803,299.432,210.617z"></path> <path fill="#FFFFFF" d="M302.53,208.449c1.206,0.342,2.512,0.591,3.787,0.23c0.338-0.097,0.648-0.413,0.429-0.781 c-0.316-0.528-0.746-1.152-1.215-1.219c-4.152-0.574-7.968-2.319-12.293-1.774c-0.334,0.044-0.674,0.539-0.409,0.694 C295.823,207.359,299.189,207.502,302.53,208.449z"></path> <path fill="#FFFFFF" d="M291.713,235.976c0.867,1.063,1.886,1.955,2.994,2.486c0.404,0.194,0.526-0.808,0.312-1.032 c-2.899-3.07-4.627-6.65-8.162-9.286c-0.345-0.255-0.806,0.119-0.742,0.33C287.052,231.616,289.68,233.485,291.713,235.976z"></path> <path fill="#FFFFFF" d="M322.417,262.596c0.89,0.777,2.26,1.513,3.388,0.552c-2.228-1.453-3.836-3.462-5.864-5.238 c-0.264-0.229-1.238-0.155-1.063,0.229C319.654,259.838,320.918,261.285,322.417,262.596z"></path> <path fill="#FFFFFF" d="M325.108,273.343c0.211,0.882,0.819,1.975,1.564,2.021c0.767,0.047,1.3-1.23,1.596-1.957 c0.389-0.951-1.387-3-0.146-2.978c3.397,0.056,5.457,3.981,8.43,5.705c0.901,0.521,1.567-1.105,1.151-1.856 c-2.073-3.731-6.561-4.829-8.975-7.708c-0.901-1.077-3.754,1.359-5.665-0.441c-0.066-0.06-0.494,0.335-0.366,0.748 c0.331,1.065,1.854,1.45,1.826,2.199C324.467,270.611,324.732,271.786,325.108,273.343z"></path> <path fill="#FFFFFF" d="M333.659,279.24c2.655-0.787-1.756-2.875-3.178-3.943c-0.341-0.257-0.763,0.062-0.765,0.357 C329.685,277.955,332.314,279.64,333.659,279.24z"></path> <path fill="#FFFFFF" d="M327.183,285.389c0.748-1.184,2.172-2.026,2.337-3.205c0,0-1.803-1.642-2.991-2.797 c-2.349,2.932-4.665,6.014-7.085,9.323c-0.492,0.675,2.174,4.471,2.174,4.471C324.391,290.069,325.402,288.208,327.183,285.389z"></path> <path fill="#FFFFFF" d="M345.606,269.818c0.649,1.024,1.881,1.077,2.013,0.034c0.137-1.091-0.472-2.225-1.485-2.981 c-0.344-0.257-0.729,0.04-0.783,0.364C345.206,268.092,345.044,268.928,345.606,269.818z"></path> <path fill="#FFFFFF" d="M353.11,277.177c2.727,1.081,5.704,1.308,8.399,2.552c6.428-9.952,9.586-21.153,13.317-32.452 c1.091-3.308,1.549-6.69,2.068-10.14c0.341-2.243,1.613-4.478,0.385-6.799c-9.19,11.85-19.735,22.486-27.076,35.865 c-1.123,2.046,1.453,4.066,0.798,6.315c-0.359,1.226-2.124,1.888-2.191,2.535C348.6,277.036,351.523,276.552,353.11,277.177z"></path> <path fill="#FFFFFF" d="M384.152,241.646c1.465,0.203,3.324,1.235,3.969,0.704c1.659-1.366-0.229-5.038-1.755-6.893 c-0.205-0.25-1.201-0.475-1.554,0.275c-0.112,0.24-0.053,0.552-0.063,0.837c-2.795-0.609-5.172,0.566-7.265,2.39 c-0.222,0.195-0.248,0.911-0.037,1.126C379.281,241.94,381.832,241.324,384.152,241.646z"></path> <path fill="#FFFFFF" d="M385.784,232.313c-0.928-1.483-2.456-1.574-2.854-0.037c-0.312,1.222,1.013,2.717,2.262,2.068 C385.821,234.016,386.428,233.344,385.784,232.313z"></path> <path fill="#FFFFFF" d="M378.351,247.342c1.056-0.527,1.815-1.542,2.699-2.365c-0.963-0.882-2.875-1.711-3.652-0.451 c-0.821,1.328-1.869,3.275-1.279,4.359C376.755,250.057,377.384,247.828,378.351,247.342z"></path> <path fill="#FFFFFF" d="M385.664,247.27c0.417-0.103,0.641,0.148,0.837,0.455c0.814-0.554,0.604-1.531,0.364-2.053 c-0.43-0.923-1.546-0.813-2.422-0.152C384.923,246.052,385.508,246.51,385.664,247.27z"></path> <path fill="#FFFFFF" d="M393.151,253.919c1.88,12.527,1.471,25.173,7.694,36.115c1.026-6.454,0.854-12.991-0.062-19.579 c-0.125-0.872-2.692-0.948-2.69-1.433c0.054-3.755,2.319-7.221,1.476-11.504c-0.747-3.798-1.274-7.324-1.755-11.143 c-0.62-4.917-0.049-9.663-1.159-14.466c-0.194-0.845-0.284-1.921-0.984-2.649c-1.409,4.831,1.373,9.812-0.333,14.409 c-0.589,1.584,0.788,3.653-1.179,4.742c-0.48-12.277-0.264-24.58-2.157-36.772c-0.493,0.776-1.549,1.554-1.508,2.051 C391.622,227.283,391.083,240.135,393.151,253.919z"></path> <path fill="#FFFFFF" d="M388.603,267.141c-0.204,1.231-1.193,2.043-1.52,3.336c-0.329,1.296-1.779,1.889-2.417,2.995 c-1.229,2.132-2.347,4.206-3.908,6.073c-3.261,3.901-6.815,6.789-9.924,10.954c-0.081,0.107-0.046-1.11,0.044-0.979 c0.695,1.009-1.908,2.412-0.854,2.383c5.231-0.153,9.16-5.103,14.342-6.7c-5.438,5.226-13.422,8.218-16.741,14.978 c-0.452,0.923-1.179,2.228-0.765,3.56c0.41,1.322,2.317,1.169,3.622,0.619c-1.463,1.851-4.378,2.284-5.061,4.578 c-1.496,5.037-3.025,9.933-2.868,15.208c4.73-4.321,10.303-7.495,15.325-11.427c-2.674,5.663-8.804,7.753-12.586,12.531 c-1.562,1.971-3.678,4.813-2.604,7.434c7.553-4.903,16.614-10.321,25.835-6.799c3.673-7.938,4.229-16.938,2.489-25.396 c-0.228-1.115-3.507,1.544-3.662,0.507c-0.462-3.14,5.052-1.839,4.413-5.636c-0.057-0.344-0.425-0.661-0.756-0.418 c-6.156,4.51-9.771,10.505-17.173,11.238c5.481-5.962,12.881-9.501,18.047-15.915c1.074-1.334,0.943-3.415-0.633-5.317 c-5.276,5.464-9.955,12.342-18.019,13.956c8.944-7.123,16.79-16.857,17.756-21.6C391.739,273.59,391.794,270.417,388.603,267.141z"></path> <path fill="#FFFFFF" d="M384.433,268.954c1.413-2.199,2.99-4.291,3.431-6.714c0.32-1.764-0.062-3.865-1.241-5.55 c-3.373,4.163-5.162,9.204-7.729,13.816c0.81-6.342,5.03-11.198,6.883-17.289c0.179-0.589-0.992-0.188-1.14-0.862 c-4.641,4.673-5.626,11.379-9.108,16.759c1.374-6.157,3.587-11.904,6.076-17.747c0.834-1.965-1.717-2.166-2.74-1.583 c-1.713,0.973-2.706,2.881-3.128,4.853c-2.142,9.996-4.306,19.33-5.305,29.245c-0.028,0.265,0.552,0.807,0.669,0.754 C377.61,281.583,380.645,274.846,384.433,268.954z"></path> <path fill="#FFFFFF" d="M337.991,305.031c-2.281-1.284-4.561-3.772-6.974-2.585c-4.873,2.398-8.617,6.712-10.805,11.463 c-2.476,5.38-2.977,11.583-3.146,17.642c2.962,0.75,7.629,0.956,7.835,3.743c0.127,1.716-3.388-0.542-5.011,1.048 c3.139,2.236,6.948,5.421,6.438,9.603c-0.038,0.318-0.583,0.63-0.708,0.359c-1.591-3.35-4.575-5.04-7.635-6.425 c-1.011-0.458-2.681-0.779-3.371,0.978c4.684,1.436,9.063,4.039,9.925,9.301c-3.096-2.778-6.684-6.485-11.324-4.558 c-1.227,0.51,0.298,1.008,0.396,1.044c5.355,1.884,12.011,4.818,13.236,10.847c-1.131-0.319-1.028-1.872-2.079-2.116 c-1.479-0.345-2.837,0.115-4.302,0.501c-3.106,0.817-6.188-1.028-9.348-0.203c3.011,2.511,6.82,3.875,9.586,6.731 c-3.259,0.083-6.672-1.139-9.832,0.515c2.926,1.572,6.297,1.699,9.369,3.099c1.724,0.786,4.67,1.982,5.404,0.595 c1.001-1.894-0.002-5.012-1.78-7.153c-0.208-0.253-0.046-0.791-0.031-1.218c1.711,0.185,2.871,1.375,4.191,2.276 c3.462-7.681,2.155-16.356,5.09-24.148c0.953,3.229,0.7,6.673,1.798,9.875c3.076-9.288,5.015-18.553,7.139-28.387 c0.646-2.982,2.166-6.154,1.007-8.698C342.269,307.423,339.97,306.144,337.991,305.031z"></path> <path fill="#FFFFFF" d="M310.429,315.425c-0.472-0.307-1.812-0.846-2.075-0.549c-1.299,1.471-0.486,3.157,0.861,4.375 c1.098,0.988,3.5,2.584,3.979-0.261C313.576,316.724,313.063,317.142,310.429,315.425z"></path> <path fill="#FFFFFF" d="M309.24,323.832c2.216,0.173,2.989-1.618,3.256-2.836c-3.238,2.619-5.289-2.305-6.389-0.794 C305,321.724,307.998,323.738,309.24,323.832z"></path> <path fill="#FFFFFF" d="M286.261,359.526c4.862-11.838,11.321-24.893,16.932-36.396c0.097-0.194-0.652-0.798-1.063-1.238 c-11.547,15.428-20.168,33.208-31.664,49.875c-1.11,1.609-2.744,3.855-1.369,5.139c2.923,2.732,3.478,2.977,6.285,5.772 C278.985,374.657,282.955,367.583,286.261,359.526z"></path> <path fill="#FFFFFF" d="M314.991,366.553c-1.686-0.625-3.334-1.709-4.98-0.944c-1.476,0.685-1.637,2.415-1.5,4.057 c-0.881-0.167-1.809-0.066-2.065,0.808c-0.258,0.867,1.073,1.635,0.583,2.509c-1.455,2.595-2.957,5.432-2.326,7.957 c0.656,2.625,4.415,2.605,6.822,4.427c1.095,0.829,0.291-1.288,1.194-1.475c-1.306-1.432-1.411-3.295-1.529-5.17 c1.074,0.844,3.044,2.218,3.71,0.514c0.035-0.092-0.4-0.694-0.296-0.688c1.882,0.116,3.379,2.822,5.506,1.328 c-2.017-1.804-4.531-2.873-6.674-4.492c2.804-1.072,5.648,1.207,8.493,1.081c0.315-0.013,0.649-0.393,0.417-0.749 c-1.415-2.155-4.501-0.544-5.838-2.788c0.409,0.131,0.824-0.13,0.773-0.38c-0.517-2.667-3.503-1.543-5.361-2.762 c1.99-0.25,5.104,1.167,5.685-0.745C317.911,368.028,316.235,367.015,314.991,366.553z"></path> <path fill="#FFFFFF" d="M370.609,342.674c-2.79,1.199-6.278,2.132-7.819,5.039c-1.139,2.152-2.166,5.023-1.632,6.952 c0.432,1.577,3.714-0.64,5.385-1.596c4.935-2.831,8.864-6.588,12.877-10.426C377.138,340.473,373.073,341.621,370.609,342.674z"></path> <path fill="#FFFFFF" d="M378.448,347.83c-2.882,1.586-6.149,2.136-8.331,4.737c0.905,0.568,1.865,0.963,2.956,0.955 c-3.851,2.866-9.545,1.71-12.569,5.036c-1.406,1.547-2.936,5.26-0.81,6.961c1.688,1.352,4.517,1.115,6.961,1.01 c-2.679,2.854-7.134,2.883-9.598,6.074c4.765,3.104,9.479-2.943,14.273-3.998c1.49-0.327,3.197-0.083,4.597-0.627 c0.719-0.283,1.362-1.161,1.988-1.763c0.772-0.74,2.094,0.661,3.222,0.313c0.877-0.269,1.196-1.188,0.877-2.003 c-0.204-0.527-0.696-1.137-1.187-1.231c-6.479-1.239-12.78,0.543-19.176-0.35c4.568-3.442,10.914-3.21,15.004-7.339 c0.287-0.29,0.572-1.479,0.857-1.761c2.871-2.862,6.224-5.5,7.7-9.337c0.063-0.165-0.569-0.764-0.638-0.721 C382.405,345.158,380.689,346.598,378.448,347.83z"></path> <path fill="#2E347E" stroke="#000000" stroke-width="0.9658" stroke-linecap="square" stroke-miterlimit="2" d="M353.947,363.11 c0.396-4.974-0.771-9.825,0.789-14.954c0.543-1.778,0.059-3.608-0.252-5.558c-0.333-2.074-0.242-4.174,0.154-6.385 c0.898-5.011-0.771-9.92-0.948-14.933c-5.893,10.861-7.823,23.11-13.693,34.232c-1.607,3.045-1.991,6.673-3.297,9.953 c-1.16,2.911-2.196,5.722-4.627,8.201c-1.193,1.216-0.931,3.574-1.841,5.194c-3.158,5.638-5.994,11.396-6.205,17.789 c-0.005,0.171-0.075,1.109,0.587,1.303c-3.875,11.994-9.949,22.949-12.566,35.519c-0.107,0.517,2.869-0.552,4.257-0.94 c10.427-2.928,20.112-5.37,30.466-8.644c0.985-10.627-3.467-22.464,3.18-32.623c2.957-4.518,0.229-10.597,2.36-15.818 c0.431-1.055,1.334-1.766,2.176-2.501C351.29,370.427,353.686,366.345,353.947,363.11z"></path> <path fill="#FFFFFF" d="M381.377,361.25c2.559,0.469,2.657-4.067,1.879-6.101c-3.545,3.021-8.748,2.632-12.062,6.073 c-0.451,0.466,0.546,1.079,0.688,1.055C375.062,361.681,378.019,360.636,381.377,361.25z"></path> <path fill="#FFFFFF" d="M385.439,366.748c0.323-2.05,0.981-4.031-0.24-5.982c-1.191,4.501-2.614,8.881-2.928,13.543 c-0.128,1.851-3.683-0.359-4.315,2.023c-0.056,0.213,0.659,0.652,0.594,0.805c-0.802,1.905-3.313,0.747-4.646,2.017 c3.359,1.808,6.646,0.791,8.854-1.964c1.65-2.064,0.729-4.562,1.079-7.058c0.09-0.63,1.078-1.332,1.487-2.136 C385.501,367.648,385.373,367.176,385.439,366.748z"></path> <path fill="#FFFFFF" d="M371.07,373.79c1.189-0.194,3.182,0.241,3.194-1.016c0.016-1.628-2.322-0.455-3.636-1.174 c-0.429-0.233-1.518,0.399-2.449,0.577c-0.661,0.125-0.604,0.852-0.394,1.16C368.582,374.514,369.978,373.965,371.07,373.79z"></path> <path fill="#FFFFFF" d="M371.406,377.389c1.556,0,3.3,0.264,4.19-1.227c0.058-0.101-0.472-0.742-0.687-0.701 c-5.654,1.147-10.822-1.315-16.235-0.24C362.768,376.881,366.995,377.376,371.406,377.389z"></path> <path fill="#FFFFFF" d="M393.067,373.75c1.236,3.217,2.089,6.561,3.734,9.6c1.173-4.385-1.118-8.143-1.889-12.399 c-0.29-1.604-1.665-2.695-3.129-3.533c-0.368-0.214-0.764,0.069-0.784,0.375C390.841,369.99,392.318,371.794,393.067,373.75z"></path> <path fill="#FFFFFF" d="M403.816,366.083c0.25,0.26,0.505,0.678,0.756,0.41c1.846-1.948,3.345-3.965,5.432-5.67 c7.078-5.799,21.675-6.221,23.402-6.406c0.16-0.017,0.777-3.504-0.067-3.547c-10.921-0.583-25.339,2.514-31.744,12.747 C400.928,364.678,402.663,364.88,403.816,366.083z"></path> <path fill="#FFFFFF" d="M372.576,380.652c-5.624-0.282-10.766-3.604-16.518-3.196c-0.062,0.003-0.191,1.27-0.001,1.349 c6.045,2.551,12.467,2.729,18.984,3.945c0.062,0.011,0.042,0.982-0.042,0.995c-7.041,1.094-13.113-3.537-19.919-2.099 c-0.145,0.028,0.107,0.863-0.505,1.114c2.352,1.888,5.391,1.855,8.055,2.105c4.912,0.461,10.872,2.978,14.465-0.899 C379.052,381.857,375.083,380.776,372.576,380.652z"></path> <path fill="#FFFFFF" d="M380.897,382.726c-0.062-0.837,0.053-1.859-0.624-2.592c-1.623,1.689,0.062,4.253-1.546,5.858 c-1.499,1.498-3.596-1.21-4.53,0.811c-0.23,0.508,0.789,0.345,1.214,0.74c0.673,0.628,1.922-1.065,2.373,0.223 c0.541,1.554-1.854,1.382-1.818,2.007c0.145,2.59-1.593,6.552,1.599,6.499c1.048-0.021,0.211-2.143,0.24-3.425 C377.88,389.223,381.168,386.437,380.897,382.726z"></path> <path fill="#FFFFFF" d="M367.025,393.37c1.106,0.211,2.32,0.416,3.002-0.691c-4.212-2.073-8.557-4.693-13.053-4.687 c-1.725,0.005-3.312,3.621-2.35,5.866c1.791-1.495,3.763,1.257,5.556-0.236c-0.596-0.291-0.368-0.829-0.382-1.293 C362.165,392.967,364.569,392.905,367.025,393.37z"></path> <path fill="#FFFFFF" d="M370.13,388.501c0.963,0.465,1.721,0.66,2.601,0c-0.963-0.881-2.822-1.717-3.67-0.454 C368.891,388.3,369.745,388.316,370.13,388.501z"></path> <path fill="#FFFFFF" d="M371.726,393.228c0.396-0.064,0.762-0.157,0.797-0.47c0.224-1.963-2.559-3.927-3.345-2.104 C368.889,391.316,369.784,393.545,371.726,393.228z"></path> <path fill="#FFFFFF" d="M363.434,396.974c-3.784-0.806-7.836-2.589-11.323-0.432c-0.122,0.077-0.848,1.101-0.517,1.34 c2.26,1.627,1.788,4.181,1.171,6.086c-0.148,0.454,0.085-0.999-0.577-0.764c-0.778,0.276-0.499,1.071-0.444,1.644 c0.032,0.326,0.364,0.562,0.782,0.461c0.215,1.125-1.229,1.49-1.135,2.048c0.382,2.236-0.46,4.695,1.347,6.408 c0.244,0.231,1.009,0.34,1.168-0.312c0.331-1.357,0.296-2.759,0.703-3.912c0.646-1.827,0.961-4.177,0.409-6.238 c-0.232-0.874-0.529-1.85-0.451-2.609c0.051-0.505,0.353-1.742,1.12-1.531c6.387,1.754,12.528,2.634,18.599,4.899 c0.11,0.042,0.229,0.948-0.427,1.081c-5.416,1.07-10.352-0.854-15.752,0.085c-0.064,0.014-0.266,0.97,0.366,1.072 c3.346,0.536,6.526,1.24,9.735,2.104c-4.226,1.33-8.776,1.227-12.903,2.976c3.218,3.218,8.179,1.945,12.289,2.553 c-1.675,1.703-4.083,1.037-6.115,1.687c-2.236,0.717-5.476-0.521-6.823,1.15c-1.199,1.486-0.921,5.522,0.425,5.911 c5.543,1.59,11.719,0.393,17.396-1.755c-0.735-1.311-2.324-1.048-3.352-1.821c2.073-1.709,2.845-4.537,2.743-7.156 c-0.011-0.316-0.381-0.628-0.76-0.424c-0.582,0.318-1.103,0.799-1.74,0.696c-0.633-0.105-0.534-0.968-0.313-1.116 c1.04-0.724,2.13-1.174,2.935-2.173c0.264-0.327-0.062-0.619-0.354-0.835c0.978-0.469,2.012-0.797,3.024-1.177 c0.028,4.47-1.533,8.76-1.612,13.18c-0.018,0.937-0.524,2.144-0.739,3.369c-0.059,0.323-0.637,0.518-0.734,0.857 c-0.23,0.819-0.125,1.687-0.152,2.54c-0.411-0.132-0.791,0.1-0.8,0.397c-0.013,0.302,0.352,0.556,0.768,0.454 c-0.003,2.359,0.227,5.386-2.023,6.596c-0.363,0.194,0.781-0.891-0.287-1.169c-3.069-0.79-6.837,0.25-8.885-2.397 c3.147-1.415,6.696-1.002,9.889-2.223c-0.196-0.306-0.418-0.557-0.84-0.455c0.013-0.282-0.064-0.694,0.076-0.78 c0.315-0.195,0.818,0.035,1.224-0.066c0.34-0.086,0.608-0.393,0.447-0.791c-0.139-0.333-0.431-0.649-0.797-0.426 c-0.3,0.189-0.514,0.568-0.867,0.324c-0.504-0.353-0.825-1.12-1.267-1.15c-4.292-0.307-8.981-0.739-12.539,1.588 c-0.555,0.362,0.055,3.039,1.349,4.177c1.03,0.903,3.007,0.118,3.679,1.951c-1.837,0.585-3.044,2.011-4.381,3.264 c2.637,1.537,6.942-1.437,10.183,0.053c0.049,0.021,0.158,0.65,0.461,0.672c1.024,0.066,2.245-1.109,2.838-0.514 c0.795,0.802,1.27,2.886-0.056,3.425c-0.481,0.198-1.494-0.514-2.419-0.742c-1.096-0.273,0.286-2.508-1.137-1.93 c-0.739,0.299-1.949-0.386-2.137,0.595c-0.118,0.602,1.609,0.786,1.019,1.026c-2.417,0.981-6.062-0.306-8.046,1.705 c2.761,0.585,0.751,4.449,0.312,6.856c-0.102,0.561,0.735,0.534,1.117,0.381c4.096-1.691,7.729-4.162,11.753-5.933 c0.248,1.756-0.147,4.17-0.89,4.648c-3.897,2.517-9.303,2.408-12.425,6.204c-1.382,1.687-0.001,4.627,1.747,4.93 c2.353,0.406,4.65-2.495,7.668-1.783c0.336,0.079,0.618,0.439,0.373,0.788c-0.352,0.509-0.789,1.032-1.311,1.171 c-3.239,0.854-7.091,2.173-8.27,5.083c-1.079,2.674,0.201,7.195,3.602,7.255c0.978,0.02,2.871-1.322,3.225-2.551 c0.591-2.057,1.02-4.232,2.687-5.735c2.199-1.984,5.553-1.54,7.731-3.655c-2.07-1.818-5.582-0.818-7.129-3.656 c2.631-0.305,4.28,2.316,6.745,2.3c0.308-0.003,0.673-0.462,0.402-0.712c-1.291-1.18-1.66-2.822-2.796-3.999 c-0.889,2.106-3.345,1.047-5.159,1.03c-0.295,0-0.618-0.434-0.357-0.76c1.12-1.392,3.489-1.087,5.089-0.282 c0.31-4.117,0.504-8.256,0.607-12.355c0.026-0.876-0.36-2.086-0.323-3.001c0.079-1.901,1.981-3.528,1.967-5.472 c-0.007-0.971-1.263-1.911-0.898-2.993c0.204-0.604,0.843-1.215,1.064-1.763c1.853-4.576,1.723-9.436,3.006-14.394 c0.873-3.382-0.312-6.944,1.529-10.075c0.502-0.852,0.497-1.903,1.246-2.583c-0.636-0.595-0.57-1.579-1.204-2.176 c-1.052,1.9-0.896,4.379-2.814,5.804c-0.277,0.209-0.798,0.046-1.227,0.032c0.13-0.408-0.105-0.652-0.397-0.866 c1.18-0.727,2.492-1.066,3.071-2.456c-2.353-0.86-5.005,0.074-7.136-0.888C367.508,397.946,365.466,397.408,363.434,396.974z"></path> <path fill="#FFFFFF" d="M404.169,392.564c-1.069-2.615-1.603-5.392-3.146-7.788c-0.503,4.672-0.523,9.377-0.727,14.058 c-0.04,0.916,0.882,2.535,0.453,2.692c-3.117,1.146-2.804-3.501-3.312-5.829c-0.671-3.071,1.437-6.296-0.311-9.347 c-2.436,5.666-4.629,12.483-2.245,18.034c1.695,3.946,8.788,3.059,11.043-0.485C408.075,400.527,405.685,396.262,404.169,392.564z"></path> <path fill="#FFFFFF" d="M389.23,402.722c0.036-3.129,0.941-6.267-0.021-9.389c-1.546,5.812-4.766,11.598-4.022,17.784 C390.458,411.784,389.19,406.099,389.23,402.722z"></path> <path fill="#FFFFFF" d="M392.512,421.097c-0.694,0.083-1.095,0.608-1.159,0.92c-1.251,6.242-1.922,11.959-3.43,18.275 c-0.926,3.882,1.101,7.505,1.565,11.49c0.061,0.496,0.964,1.022,1.484,0.814c4.154-1.678,8.34-3.15,12.184-5.445 c-2.221-8.77-3.956-17.419-6.279-26.314C396.488,419.342,393.754,420.939,392.512,421.097z"></path> <path fill="#FFFFFF" d="M383.444,425.181c-0.86,0.316-1.929,0.826-2.038,1.614c-0.467,3.416,0.446,6.799,0.651,10.257 c0.181,2.99-0.903,6.291,0.214,8.759c2.305,5.083,2.264,10.218,2.725,15.625c0.073,0.879,2.453,1.403,2.486,0.118 c0.104-4.391,0.36-9.062-1.279-13.157c-0.955-2.392-2.151-4.423-2.37-7.038c-0.481-5.812,2.782-11.391,1.479-16.934 C385.197,423.932,384.166,424.915,383.444,425.181z"></path> <path fill="#FFFFFF" d="M270.646,453.277c3.525-2.941,9.652-1.945,10.872-5.928c1.096-3.57,1.772-10.165,2.084-14.386 c0.04-0.566-4.711,1.085-6.329,1.247c-0.559,0.056,0.236,5.981-0.868,6.411c-8.083,3.151-16.167,5.805-24.354,7.766 c2.791,5.752,5.079,10.629,8.066,16.418c0.305,0.593,1.306-0.162,1.467-0.402C264.33,460.271,266.823,456.468,270.646,453.277z"></path> <path fill="#FFFFFF" d="M319.167,469.857c5.665-0.738,11.158-1.146,16.713-1.964c1.445-4.856,2.48-10.157,3.826-15.257 c0.169-0.642,0.838-2.016,0.073-1.898c-9.337,1.396-19.749,3.279-28.975,4.777c-1.986,5.054-3.835,9.669-6.295,15.065 c-0.326,0.712-0.62,1.278-0.682,1.767C308.223,471.75,313.811,470.554,319.167,469.857z"></path> <path fill="#FFFFFF" d="M340.815,444.141c1.515-5.791,2.609-10.398,3.896-15.977l-3.736,1.23 c-2.147,5.316-4.043,10.798-6.139,15.792L340.815,444.141z"></path> <path fill="#FFFFFF" d="M344.529,443.031c0.262-1.822,0.494-3.893,0.708-6.297c0.022-0.273-0.466-1.482-0.533-1.187 c-0.609,2.703-1.245,5.671-1.762,8.169C342.942,443.716,344.415,443.827,344.529,443.031z"></path> <path fill="#FFFFFF" d="M352.623,425.33c0.482-0.838,1.271-1.741,1.217-2.456c-0.156-2.008,0.528-5.554-1.242-5.445 c-2.586,0.16-0.694,5.01-1.021,7.917C351.499,426.038,352.389,425.744,352.623,425.33z"></path> <path fill="#FFFFFF" d="M352.124,429.173c-0.789,0.569-1.512,1.924-0.446,2.453c0.933,0.461,2.444,0.299,2.792-0.7 c0.327-0.939,0.484-2.674-1.024-2.82C353.044,428.068,352.626,428.806,352.124,429.173z"></path> <path fill="#FFFFFF" d="M352.859,433.086c-0.425,0.019-0.682-0.398-0.817-0.373c-1.076,0.218-1.234,1.519-0.84,2.359 c0.648,1.376,2.446,1.899,3.534,1.237C356.043,435.519,354.506,433.003,352.859,433.086z"></path> <path fill="#FFFFFF" d="M353.52,438.627c-0.129,0.409,0.085,0.687,0.409,0.847c0.383,0.191,0.766-0.072,0.794-0.385 c0.065-0.697,0.579-1.776-0.324-2.005c-1.195-0.303-3.194-0.729-3.188,1.027C351.214,439.019,352.691,438.371,353.52,438.627z"></path> <path fill="#FFFFFF" d="M352.995,441.594c0.953-1.165-0.737-1.059-0.797-1.731c-1.521,1.287-2.607,3.58-1.592,4.822 c0.76,0.927,0.834,3.374,2.541,2.717c0.939-0.362,1.756-2.429,0.523-3.046c-0.547-0.275-1.227-0.917-2.027-0.673 C351.431,442.559,352.444,442.266,352.995,441.594z"></path> <path fill="#FFFFFF" d="M355.074,442.517c-0.047,1.245-0.13,2.456,0.758,3.444c1.351-1.443-0.162-3.414,1.244-5.235 c0.211-0.273-0.943-0.382-1.457-0.236C354.441,440.824,355.115,441.476,355.074,442.517z"></path> <path fill="#FFFFFF" d="M353.544,450.578c0.939-1.124,2.345-1.716,2.969-2.941c0.062-0.124-0.436-0.53-0.711-0.824 c-1.615,2.889-6.365,2.288-6.959,6.174c-0.04,0.271,0.366,0.618,0.737,0.406C351.036,452.557,352.43,451.912,353.544,450.578z"></path> <path fill="#FFFFFF" d="M351.856,459.998c2.635-0.56,1.494-4.998,0.128-6.762c-0.574-0.736-1.678,0.485-1.793,1.096 C349.817,456.31,348.775,460.654,351.856,459.998z"></path> <path fill="#FFFFFF" d="M353.249,462.951c-0.267,2.698-1.829,5.4-0.678,7.999c0.104,0.229,1.077-0.069,1.486,0.219 c1.594,1.106,3.615,2.959,5.547,1.807c-1.532-1.921-4.495-2.938-4.94-4.978c-0.49-2.245-0.412-5.312,1.792-7.239 c0.729-0.641-0.776-1.271-0.955-2.037c-0.628-2.696,1.341-5.318,0.151-8.065c-0.143-0.333-0.567-0.677-0.729-0.406 C352.493,454.225,353.668,458.676,353.249,462.951z"></path> <path fill="#FFFFFF" d="M349.697,470.554c1.442-0.607,3.471-4.079,2.292-5.322c-0.654-0.69-2.533-0.498-3.091,0.617 C348.191,467.262,347.354,471.546,349.697,470.554z"></path> <path fill="#FFFFFF" d="M344.095,472.913c-1.777-7.448,0.262-14.599-0.815-21.834c-1.5,1.842-1.596,4.173-2.112,6.377 c-1.421,6.076-2.492,11.73-3.33,17.769c-0.625,4.494,4.64,3.879,6.948,2.559C346.9,476.576,344.524,474.71,344.095,472.913z"></path> <path fill="#FFFFFF" d="M377.775,467.751c3.7-1.806,7.537-1.854,11.529-2.301c-3.847-1.559-8.118-1.263-11.788-3.854 c-0.604-0.429-0.572-1.574-1.252-1.581c-3.848-0.041-7.311,1.908-9.86,4.753c-0.77,0.853-0.177,2.209-0.437,3.26 c-0.374,1.527-2.394,2.442-2.629,3.831c-0.125,0.729,1.45,0.517,2.233,0.343c0.618-0.136,1.262-0.731,1.832-0.94 C370.885,469.986,374.342,469.431,377.775,467.751z"></path> <path fill="#FFFFFF" d="M382.213,473.689c4.836,1.785,9.919,1.868,14.815,1.417c2.852-0.261,6.585,2.089,8.382-1.124 c0.367-0.656-1.068-1.689-1.859-1.856c-5.73-1.193-10.102-5.269-15.993-4.396c-3.393,0.501-8.29,0.467-9.102,3.849 C378.189,472.702,380.711,473.135,382.213,473.689z"></path> <path fill="#FFFFFF" d="M398.979,467.658c3.838,1.675,8.09,3.004,9.419,7.761c0.121,0.436,1.398-0.323,1.309-0.68 c-1.437-5.764-3.129-11.247-4.78-16.86c-4.186,1.443-8.765,3.648-12.338,5.126C394.274,464.782,396.815,466.718,398.979,467.658z"></path> <path fill="#FFFFFF" d="M406.681,481.406c-0.298,0.287-0.587,0.551-0.881,0.826c1.942,1.064,4.959,0.909,5.772-0.758 c0.44-0.902-0.372-2.656-1.382-2.677C408.859,478.77,407.797,480.336,406.681,481.406z"></path> <path fill="#FFFFFF" d="M293.082,457.792c2.018-0.704,3.614-2.169,5.234-3.608c0.282-0.253-0.189-0.78-0.275-0.715 c-2.818,2.099-6.243,2.766-9.485,1.938c-1.027-0.262-2.821-0.74-2.521-2.444c2.322,1.05,5.286,2.564,7.577,0.597 c0.228-0.194,0.331-1.017-0.313-1.143c-2.929-0.588-6.015-2.427-8.251-1.54c-2.384,0.947-0.127,5.194,2.174,6.718 C289.05,458.811,291.175,458.458,293.082,457.792z"></path> <path fill="#FFFFFF" d="M295.541,450.378c0.332-0.108,0.816-0.282,0.741-0.424c-0.922-1.711-2.935-1.701-4.537-1.766 c-0.241-0.01-1.198,0.467-0.805,1.037C291.91,450.626,293.947,450.906,295.541,450.378z"></path> <path fill="#FFFFFF" d="M289.945,448.276c0.46-0.303,1.364-0.021,1.309-0.673c-0.026-0.319-0.508-0.819-0.715-0.771 c-1.902,0.419-4.298-0.129-5.212,1.839C286.922,449.094,288.577,449.171,289.945,448.276z"></path> <path fill="#FFFFFF" d="M296.515,445.087c2.313-0.44,3.772-2.356,5.697-3.521c-2.133-0.867-3.375,1.108-5.184,1.484 c-1.982,0.416-3.804-0.288-5.427-1.135c-1.164-0.606-2.405-1.104-3.453-2.063c-0.295-0.271-0.726,0.041-0.767,0.36 c-0.394,2.983,2.638,3.618,4.265,4.968C292.72,446.073,294.811,445.411,296.515,445.087z"></path> <path fill="#FFFFFF" d="M297.181,438.819c2.15-0.423,4.416-0.06,6.045-1.912c-3.255-0.738-6.208-0.322-9.409-1.834 c-0.26-0.122-1.159,0.724-0.745,1.441C293.934,438.013,295.346,439.18,297.181,438.819z"></path> <path fill="#FFFFFF" d="M298.201,434.184c1.877-0.677,4.266,0.221,5.609-1.951c-3.575-1.22-7.941,0.522-10.824-2.285 c-0.448-0.438,1.759-0.132,1.519-1.437c-0.123-0.659-0.847-0.6-1.161-0.391c-1.29,0.852-2.61,0.491-3.92,0.389 c-0.765-0.058-1.204,1.108-0.822,1.876c0.524,1.059,1.607,1.013,2.467,0.136C291.668,433.406,295.608,435.117,298.201,434.184z"></path> <path fill="#FFFFFF" d="M296.757,427.183c0.203,0.062,0.774-0.568,0.732-0.632c-1.629-2.554-4.458-3.302-6.644-5.297 c-0.86-0.781-1.526,0.759-1.14,1.491C291.162,425.51,293.952,426.357,296.757,427.183z"></path> <path fill="#FFFFFF" d="M300.924,416.74c-3.435,0.209-5.922-1.941-7.951-4.505c-1.086,1.675-1.515,3.829-1.126,5.411 c0.229,0.939,2.083,1.559,3.456,1.813c0.238,0.043,0.565-0.442,0.861-0.714c-0.292-0.218-0.511-0.734-0.406-0.729 c2.926,0.194,5.405,4.19,8.432,3.136c-0.691-0.894-1.569-1.578-2.483-2.219c2.546-0.886,5.755-0.146,7.76-2.297 C306.747,415.551,303.736,416.568,300.924,416.74z"></path> <path fill="#FFFFFF" d="M305.168,392.187c2.294,1.457,4.497,2.403,7.181,1.842c0.696-0.144,0.654-0.737,0.062-1.187 c1.752-0.244,3.312,0.832,5.093,0.552c0.34-0.056,0.68-0.485,0.407-0.727c-4.262-3.787-9.659-4.519-14.264-8.117 c-0.344-0.265-1.574-0.347-1.429,0.199c0.755,2.825,4.942,3.176,5.562,6.226c-2.293-1.103-4.289-2.743-6.739-3.525 c-0.188-0.064-0.776,0.555-0.728,0.644C301.378,390.032,303.297,391,305.168,392.187z"></path> <path fill="#FFFFFF" d="M303.749,395.262c-2.216-0.734-5.388-6.368-6.696-2.518c5.537,5.742,14.964,10.317,22.857,5.473 c-2.942-1.346-5.945,0.546-8.937-0.352C308.46,397.112,306.205,396.073,303.749,395.262z"></path> <path fill="#FFFFFF" d="M303.554,402.105c-3.914-0.302-5.159-3.269-8.073-5.34c-1.083-0.771-1.401,1.537-1.325,1.734 c1.488,3.924,5.37,7.176,9.7,7.629c0.282,0.031,0.555-0.337,0.443-0.763c-0.175-0.668-1.155-0.569-1.233-1.32 c3.785,1.112,7.773,0.717,11.524-0.035C311.054,402.572,307.255,402.392,303.554,402.105z"></path> <path fill="#FFFFFF" d="M297.544,405.472c-1.023-0.87-2.271-2.248-2.927-2.174c-2.236,0.254-0.337,3.45-1.515,5.102 c1.402,0.947,3.2,3.12,5.058,1.878c-0.938-0.606-0.861-1.592-0.766-2.585c1.565,0.947,3.279,1.418,5.074,1.793 c0.262,0.055,0.653-0.447,0.382-0.692C301.255,407.35,299.179,406.857,297.544,405.472z"></path> <path fill="#FFFFFF" d="M288.679,463.272c0.381,0.198,0.827-0.208,0.758-0.305c-0.943-1.357-2.488-1.947-4.101-1.835 c-0.314,0.023-0.824,0.54-0.772,0.699C285.197,463.726,287.321,462.569,288.679,463.272z"></path> <path fill="#FFFFFF" d="M283.323,458.01c0.25-0.261,0.578-0.452,0.415-0.848c-0.139-0.333-0.442-0.659-0.789-0.422 c-0.547,0.375-0.925,0.98-0.88,1.629c0.018,0.319,0.397,0.652,0.749,0.416C283.064,458.621,283.105,458.235,283.323,458.01z"></path> <path fill="#FFFFFF" d="M284.82,465.555c-3.773-1.696-5.024,2.091-7.145,4.084c-0.72,0.68-2.103-0.139-2.761,0.225 c-1.317,0.729-3.691,1.841-2.913,3.355c1.517,2.962,5.374,3.274,8.569,3.988c4.957,1.104,11.442,3.137,15.146-1.03 c0.201-0.225-0.933-0.93-1.498-1.022c-2.529-0.411-5.287-1.041-7.011-3.057c-0.35-0.41-0.285-1.651,0.052-1.849 c2.175-1.253,3.829,2.094,6.247,1.318C291.13,468.841,288.1,467.029,284.82,465.555z"></path> <path fill="#FFFFFF" d="M287.885,437.716c-0.279,0.255,0.044,0.721,0.354,0.752c1.129,0.104,2.226,1.346,3.405,0.178 C290.579,437.916,288.986,436.722,287.885,437.716z"></path> <path fill="#FFFFFF" d="M284.758,491.04c5.009-0.76,10.059-4.628,8.427-10.096c-3.921,1.295-8.188,0.039-11.85,1.256 c-2.729,0.909-0.534,7.788-4.547,6.445c-2.794-0.939-5.874-4.225-4.559-6.959c0.327-0.68,2.41,0.595,3.841,0.733 c0.285,0.027,0.662-0.507,0.393-0.678c-1.863-1.184-4.06-3.027-5.66-2.417c-2.394,0.914-1.473,4.523-0.487,6.639 C272.669,491.014,279.062,491.904,284.758,491.04z"></path> <path fill="#FFFFFF" d="M283.868,493.124c-2.548,1.156-8.602-1.325-7.248,1.479c1.766,3.662,7.557,1.521,11.347,0.539 c1.582-0.414,2.699-1.709,3.536-3.176c0.213-0.368-0.168-0.826-0.326-0.751C288.765,492.333,286.165,492.084,283.868,493.124z"></path> <path fill="#FFFFFF" d="M282.917,479.824c-0.279-0.229-1.227-0.201-1.079,0.253c0.447,1.364,2.512,1.753,3.017,0.5 C285.089,479.991,283.624,480.407,282.917,479.824z"></path> <path fill="#FFFFFF" d="M371.794,214.39c0.508,1.186,0.376,3.494,1.506,3.069c5.21-1.976,2.852-8.65,1.887-13.223 c-1.707,1.934-3.83,3.971-4.12,6.295C370.945,211.529,371.25,213.108,371.794,214.39z"></path> <path fill="#FFFFFF" d="M369.592,216.431c-0.159-1.229,0.514-3.001-1.135-3.297c-0.367-0.065-1.176,0.692-1.127,1.049 c0.566,4.112-1.654,7.62-0.808,11.476c0.273,1.244,0.9-0.265,0.977-0.411c1.024-2.038,0.617-4.496,1.223-6.721 c0.769,0.529,0.782,1.281,0.86,2.152c0.033,0.32,0.471,0.594,0.742,0.889C371.544,219.967,369.817,218.163,369.592,216.431z"></path> <path fill="#FFFFFF" d="M363.553,224.387c1.332-2.919,2.819-5.636,2.713-8.932c-11.291,12.422-22.888,23.926-32.512,38.382 c-0.382,0.572,2.119,1.064,2.832,0.496c7.553-6.045,13.576-12.725,19.956-20.104C359.243,231.107,361.812,228.2,363.553,224.387z"></path> <path fill="#B75C27" d="M302.722,178.741c-1.354,3.576-2.647,7.073-4.441,10.405c-0.947,1.763-3.448,1.693-5.039,2.904 c6.858-13.14,13.823-26.202,20.549-39.411c0.021,1.227-0.704,2.251-1.113,3.328c-0.846,2.246-2.522,4.145-3.28,6.398 C307.475,168.095,304.837,173.154,302.722,178.741z"></path> <path fill="#B75C27" d="M299.114,170.933c-1.264,1.991-1.666,4.356-3.644,5.83c2.147-6.376,5.239-12.324,8.229-18.335 c1.388-2.787,3.623-6.953,7.151-7.17C306.381,157.487,303.327,164.29,299.114,170.933z"></path> <path fill="#B75C27" d="M368.327,254.81c-1.118-0.446-2.483,0.552-2.519,1.446c-0.043,1.084,1.99,2.347,3.294,1.115 c0.129,1.303-0.699,1.779-1.728,2.077c-1.254,0.361-2.836-0.782-3.066-1.825c-0.429-1.915,0.527-4.233,2.419-4.44 c0.911-0.1,3.527,0.045,2.736,2.014C369.368,255.436,368.75,254.98,368.327,254.81z"></path> <path fill="#B75C27" d="M361.741,272.376c-2.261,0.135-2.892-3.893-1.085-4.998c1.36-0.831,2.307-0.649,3.756,0.422 c0.279,0.208-0.193,0.999-0.485,0.872c-1.506-0.655-3.136-0.581-2.572,1.313c0.29,0.971,1.066,1.401,2.782,0.387 C363.968,272.043,363.115,272.294,361.741,272.376z"></path> <path fill="#FFFFFF" d="M352.332,90.513c0.239-0.484,1.925-1.212,0.567-1.639c-5.913-1.855-13.025-0.337-17.377,4.219 c1.323,0.655,2.333-0.658,3.471-0.546c3.777,0.372,7.236,3.082,11.026,1.284C351.237,93.255,351.749,91.698,352.332,90.513z"></path> <path fill="#FFFFFF" d="M345.003,96.513c-4.296-0.67-9.175-2.227-12.663,1.122c-0.25,0.242,0.101,0.709,0.287,0.65 c4.314-1.331,8.369,0.614,12.677-0.017c0.957-0.141,2.616-0.364,2.493-1.255C347.661,96.014,346.039,96.676,345.003,96.513z"></path> <path fill="#FFFFFF" d="M332.984,102.321c1.195-0.9,2.443-1.649,3.325-2.778c0.19-0.244-0.65-0.417-0.952-0.238 c-1.943,1.145-3.83,2.139-5.09,4.031c-0.074,0.114,0.316,0.516,0.647,0.321C331.646,103.23,332.306,102.833,332.984,102.321z"></path> <path fill="#FFFFFF" d="M333.572,106.196c1.007-0.25,3.65-3.406,4.024-3.986c0.076-0.118-0.351-0.538-0.636-0.312 c-1.049,0.838-4.88,3.633-5.98,4.298c-2.421,1.458-5.18,4.508-3.851,7.733C328.927,110.983,329.776,107.144,333.572,106.196z"></path> <path fill="#FFFFFF" d="M335.17,114.185c1.409-1.089,3.479-1.679,3.466-3.698c-0.003-0.236-0.453-1.091-0.928-0.725 c-1.975,1.537-4.142,2.695-5.48,4.799c-0.922,1.45-1.848,3.579-1.074,5.267C332.453,117.919,333.187,115.711,335.17,114.185z"></path> <path fill="#FFFFFF" d="M338.182,115.917c1.277-0.558,2.369-1.451,3.075-2.604c0.051-0.085-0.393-0.469-0.64-0.731 c-0.957,1.259-3.369,0.974-3.468,2.953C337.128,116.01,337.768,116.098,338.182,115.917z"></path> <path fill="#FFFFFF" d="M333.299,108.33c-0.133,0.38-0.24,0.017-0.427,0.562c-0.188,0.547-0.617,1.203-0.792,1.39 c-0.174,0.186-0.845,0.858-0.906,1.265c-0.062,0.407-1.026,1.189-1.062,1.55c-0.035,0.356-0.367,0.923,0.501,0.136 c0.84-0.765,1.055-0.707,1.9-1.567c0.936-0.951,0.848-0.93,0.944-1.671c0.099-0.741,0.158-1.124,0.657-1.611 c0.496-0.486,0.583-0.914,0.616-1.204C334.765,106.892,333.299,108.33,333.299,108.33z"></path> <polygon fill="#FFFFFF" points="408.837,302.668 410.808,310.698 403.673,308.749 398.317,310.965 398.417,309.583 403.562,307.303 403.294,301.106 "></polygon> <path fill="#B75C27" d="M344.771,91.45c-1.556,0.929-2.648,0.486-4.195-0.105c1.817-1.906,4.465-0.687,6.679-1.938 c0.688-0.391,1.744-0.239,2.58,0.03c0.069,0.021,0.044,0.592-0.018,0.604C348.012,90.403,346.405,90.473,344.771,91.45z"></path> <path fill="#B75C27" d="M347.097,92.045c0.791-0.124,1.478-0.682,2.301-0.399c-0.6,1.256-1.754,1.937-3.129,1.759 c-0.283-0.036-0.545-0.557-0.33-0.625C346.472,92.61,346.703,92.107,347.097,92.045z"></path> <path fill="#B75C27" d="M474.12,510.196c-84.441-40.807-127.587-48.036-236.211,0.245c-2.199,0.976,45.677,20.271,57.648,25.889 c16.539,7.764,58.136,35.911,60.577,38.351c-0.862-0.863,28.094-20.517,55.208-36.148 C435.378,524.669,474.12,510.196,474.12,510.196z"></path> <g> <g> <rect x="325.273" y="479.047" fill="#FFFFFF" width="65.43" height="11.06"></rect> <path fill="#FFFFFF" d="M357.987,484.577"></path> </g> </g> <path fill="#FFFFFF" d="M321.451,479.642c-8.307,0-69.195,23.675-53.742,19.053c28.579-8.554,52.303-16.13,53.251-16.367 C321.937,482.082,321.451,479.642,321.451,479.642z"></path> <path fill="#FFFFFF" d="M393.789,479.404c8.303,0,69.189,23.678,53.737,19.053c-28.579-8.548-52.301-16.129-53.252-16.365 C393.297,481.849,393.789,479.404,393.789,479.404z"></path> <g> <path fill="#FFFFFF" d="M193.148,198.701l8.813,25.934l12.773-19.718l-2.5-16.508l15.322-26.178l9.455,29.972l9.911-15.323 c0,0-1.825-47.376,0.916-51.983c2.744-4.61,33.304-75.657,33.304-75.657V48.75c0,0-47.143,61.311-49.831,65.952 c-2.687,4.642-44.946,26.138-44.946,26.138l-8.548,16.121l30.776-6.351l-15.389,26.136l-15.632,5.862l-10.994,20.763l26.871-4.519 L193.148,198.701z"></path> </g> <g> <path fill="#FFFFFF" d="M463.189,312.77l8.816,25.932l12.773-19.718l-2.499-16.508l15.32-26.177l9.456,29.972l9.909-15.324 c0,0-1.825-47.375,0.918-51.983c2.744-4.609,33.304-75.655,33.304-75.655v-0.49c0,0-47.143,61.312-49.833,65.953 c-2.687,4.64-44.946,26.136-44.946,26.136l-8.548,16.124l30.778-6.353l-15.389,26.137l-15.634,5.862l-10.993,20.763l26.869-4.52 L463.189,312.77z"></path> </g> <g> <polygon fill="#2E347E" stroke="#000000" stroke-width="0.9658" stroke-linecap="square" stroke-miterlimit="2" points=" 149.968,504.555 159.251,509.442 146.454,557.081 145.939,561.834 134.215,555.971 138.246,553.162 150.092,515.057 122,543.273 122.124,548.523 111.253,542.906 117.237,540.708 149.968,508.951 "></polygon> <polygon fill="#2E347E" stroke="#000000" stroke-width="0.9658" stroke-linecap="square" stroke-miterlimit="2" points=" 126.397,537.287 141.542,545.592 140.933,549.255 123.221,539.61 "></polygon> </g> <polygon fill="#2E347E" stroke="#000000" stroke-width="0.9658" stroke-linecap="square" stroke-miterlimit="2" points=" 171.1,516.403 182.824,521.773 179.404,523.365 159.498,564.644 160.351,569.287 147.283,562.813 152.657,560.981 172.443,519.824 "></polygon> <path fill="#2E347E" stroke="#000000" stroke-width="0.9658" stroke-linecap="square" stroke-miterlimit="2" d="M582.844,519.017 c5.081,6.644,6.451,17,3.129,25.013c-4.69,8.014-12.898,9.967-19.739,14.265v-5.275l-20.324-34.391 c-1.172-0.979-2.733-1.566-4.1-2.351c6.835-6.642,16.607-10.941,26.963-8.402C574.246,509.636,579.717,513.739,582.844,519.017z"></path> <path fill="#FFFFFF" d="M572.879,519.801c5.472,7.812,10.942,19.146,4.69,28.33l-2.934,2.542 c-7.229-12.505-15.632-24.621-21.689-37.52C560.374,509.442,567.6,514.327,572.879,519.801z"></path> <path fill="#2E347E" stroke="#000000" stroke-width="0.9658" stroke-linecap="square" stroke-miterlimit="2" d="M545.522,526.052 c2.147,4.69,2.539,10.941-0.194,15.438c-1.567,1.757-2.739,3.712-4.69,5.274c8.402,0,13.871,13.093,22.473,6.255 c0.976,3.126,0.194,6.254-2.15,8.402c-2.149,1.759-4.885,2.932-7.621,1.759c-7.429-1.953-11.528-13.682-19.736-11.921 c3.712,6.059,3.712,14.852,11.331,17.588c-4.003,1.783-6.692,3.124-11.331,4.69c-4.106-14.659-10.359-28.336-16.808-41.819 l-4.104-3.515C521.485,523.313,537.314,513.154,545.522,526.052z"></path> <path fill="#2E347E" stroke="#000000" stroke-width="0.9658" stroke-linecap="square" stroke-miterlimit="2" d="M209.009,540.708 c1.174,3.906,0,7.621-1.562,10.941c-4.104,5.863-10.162,8.797-17.198,8.013c2.149,5.668-0.781,14.461,6.254,18.173l3.126,0.783 c-1.173,2.734-4.493,3.128-7.036,3.906c-3.32-0.584-6.643-1.756-8.401-4.884c-3.713-6.447,1.954-15.438-3.519-21.106 c-2.538,5.669-8.401,11.923-5.667,18.955c-4.298-1.366-8.598-3.123-12.506-5.272c1.955-0.784,5.473-3.13,6.253-6.059l15.83-34.394 l0.586-5.862C194.354,526.831,205.103,530.937,209.009,540.708z"></path> <path fill="#FFFFFF" d="M535.752,526.344c3.122,2.54,3.906,6.058,4.49,9.771c0,4.105-2.345,7.817-6.716,10.628l-1.173,0.389 l-9.382-20.322C525.71,523.681,532.624,523.999,535.752,526.344z"></path> <path fill="#FFFFFF" d="M200.413,536.211c1.562,3.323,1.366,7.427,0,10.747c-1.956,4.69-6.842,7.038-11.728,7.038 c-2.147-0.783-6.644-0.393-5.861-3.521l9.77-20.321C195.721,531.132,198.848,533.085,200.413,536.211z"></path> <path fill="#2E347E" stroke="#000000" stroke-width="0.9658" stroke-linecap="square" stroke-miterlimit="2" d="M532.232,574.123 c-3.32,1.761-6.816,3.106-10.675,4.517c1.368-2.54,0.125-4.907-1.248-6.862l-0.976-1.173c-4.908,2.102-10.16,3.933-14.852,6.255 c0.416,3.175,1.956,5.472,3.907,7.038l-8.011,3.317l0.586-8.208l-2.344-40.082c-0.979-1.757-2.858-2.271-4.812-2.664 c2.661-1.173,5.007-2.979,7.94-3.175L532.232,574.123z"></path> <path fill="#2E347E" stroke="#000000" stroke-width="0.9658" stroke-linecap="square" stroke-miterlimit="2" d="M485.333,543.638 l10.747,42.406c-0.589,5.276-5.669,8.01-10.163,9.184c-4.102,0.389-7.814-1.562-9.771-4.886l-11.53-37.91l-2.929-3.519 c3.637-1.49,6.938-2.711,10.158-4.3c0.979,15.243,7.626,28.924,11.336,43.189c1.367,2.345,3.908,2.734,5.864,2.539 c5.667-2.934,1.365-9.381,1.171-13.681l-9.185-31.266l-2.735-3.128c2.662-1.069,5.106-1.683,8.012-2.928L485.333,543.638z"></path> <path fill="#2E347E" stroke="#000000" stroke-width="0.9658" stroke-linecap="square" stroke-miterlimit="2" d="M241.939,548.231 c1.366,11.724,2.539,23.646,4.493,35.175l9.186-28.726c-0.587-1.173-0.587-2.346-0.783-3.519l7.428,2.735l-3.908,4.885 l-13.29,40.062v3.517l-4.69-2.149l-5.471-43.186l-1.367,1.562L221.81,587.9c-0.392,2.541,1.173,4.103,1.759,6.059l-10.555-3.907 c2.542-0.979,6.451-4.496,7.818-8.013l12.703-32.049c0.585-2.149,0.195-4.885-0.392-6.84 C236.27,544.323,240.961,544.516,241.939,548.231z"></path> <path fill="#FFFFFF" d="M517.38,566.99c-3.712,1.758-7.818,3.518-11.92,4.494l-1.762-23.449 C508.784,554.289,513.274,560.54,517.38,566.99z"></path> <path fill="#2E347E" stroke="#000000" stroke-width="0.9658" stroke-linecap="square" stroke-miterlimit="2" d="M455.165,580.279 c4.177-1.467,9.451-3.226,14.339-5.179c-0.759,3.593,3.515,15.07,5.498,22.009c-2.349,5.861-6.625-2.416-10.191,4.765 c-2.928,1.951-4.981,4.177-11.331,3.026c-12.314-7.229-15.635-21.003-14.854-34.88c1.566-7.035,2.934-14.854,10.164-18.371 c3.322-1.173,6.252,0.783,8.791,2.934c1.369-1.173,1.54-3.738,2.126-5.301c1.954,5.35,3.418,12.553,5.229,17.929 c-3.52-4.495-8.722-13.997-16.146-12.044c-5.475,12.509-0.195,26.579,4.101,37.914c1.372,2.536,3.323,5.275,6.06,6.643 c2.346,0.587,4.69-0.589,5.277-2.736l-4.273-14.02L455.165,580.279z"></path> <path fill="#2E347E" stroke="#000000" stroke-width="0.9658" stroke-linecap="square" stroke-miterlimit="2" d="M311.703,580.67 c-0.194,5.469-0.977,11.526-2.149,17.194c-1.564-6.251-0.194-14.459-5.862-17.977l-7.427,42.793l1.76,7.623l-12.312-7.033 c0.784-1.172,3.128-2.934,3.908-4.689l7.035-42.602c-0.977-1.366-2.345-1.366-3.908-1.366l-6.251,9.574 c0-5.278,1.366-11.142,2.734-16.613L311.703,580.67z"></path> <path fill="#2E347E" stroke="#000000" stroke-width="0.9658" stroke-linecap="square" stroke-miterlimit="2" d="M386.744,644.375 l-11.531,8.405c-6.254-8.014-11.139-17.2-17.196-25.603c-0.781,11.338-1.171,23.258-0.978,34.394l2.739,2.929l-8.407,7.036 l1.467-5.642l2.053-43.213c0-2.146-1.173-4.1-3.127-5.272l5.375-4.154c5.839,7.207,10.842,16.976,16.315,24.477 c-0.219-9.575-0.364-21.424-0.757-31.975c-0.583-1.173-2.566-2.026-3.539-3.007l7.812-5.666c0.05,7.622,0.293,33.883,0.784,50.809 l1.075,2.246l1.271-4.004l6.056-47.291c0.195-2.541-1.367-4.885-3.518-5.669l5.862-4.493l2.148,2.343l15.44,37.91 c0.778,0.979,1.76,1.567,2.735,1.762c2.345-3.713,0.388-8.402,0.388-12.509l-4.102-34.781l-3.322-3.127 c3.519-2.542,7.424-5.275,11.336-7.032l-0.977,7.424c2.344,14.068,2.149,29.114,5.47,42.795 c8.405-2.539,9.967-11.529,10.944-18.955v15.827c-9.771,6.058-19.737,11.727-29.896,16.999l0.459-3.441l-1.586-4.642l-11.112,5.128 l-0.61,8.064L386.744,644.375z"></path> <path fill="#2E347E" stroke="#000000" stroke-width="0.9658" stroke-linecap="square" stroke-miterlimit="2" d="M326.359,590.441 c-0.195,1.952-3.712,1.562-3.519,4.104l-4.885,42.598l1.76,5.279c-3.713-1.367-8.207-4.69-12.312-7.425l3.322-3.911l5.471-42.013 l-1.367-5.667L326.359,590.441z"></path> <path fill="#2E347E" stroke="#000000" stroke-width="0.9658" stroke-linecap="square" stroke-miterlimit="2" d="M345.707,602.36 c4.298,14.266,6.446,35.565-4.495,47.291c-2.346,2.345-5.473,3.323-8.404,2.932c-10.748-5.081-9.967-18.369-10.16-28.921 c1.368-11.505,3.565-24.084,14.264-27.359C341.211,596.108,344.167,598.356,345.707,602.36z"></path> <path fill="#FFFFFF" d="M340.43,605.097c1.366,11.333,0.391,24.231-0.393,35.76c-1.172,2.736-0.978,5.863-3.712,7.816 c-2.539,1.173-3.908-1.757-4.689-3.123c-2.346-13.88-1.393-30.952,2.54-41.429C335.617,600.795,339.771,600.675,340.43,605.097z"></path> <path fill="#FFFFFF" d="M395.538,625.419l-9.186,4.298c0.194-7.036,1.172-15.242,2.149-22.86 C391.237,612.913,393.582,619.166,395.538,625.419z"></path> <g> <polygon fill="#2E347E" stroke="#000000" stroke-width="0.9658" stroke-linecap="square" stroke-miterlimit="2" points=" 273.573,559.03 282.918,563.928 281.303,617.086 281.828,621.62 270.085,615.773 273.122,613.199 275.859,570.593 256.488,603.145 257.686,608.924 246.763,603.3 251.679,600.564 274.484,563.873 "></polygon> <polygon fill="#2E347E" stroke="#000000" stroke-width="0.9658" stroke-linecap="square" stroke-miterlimit="2" points=" 258.774,596.234 274.511,604.684 274.723,608.751 256.825,599.042 "></polygon> </g> </g> <g id="Eagle"> </g> </svg> 