<?xml version="1.0" encoding="UTF-8"?> <svg xmlns="http://www.w3.org/2000/svg" xmlns:xlink="http://www.w3.org/1999/xlink" width="623px" height="57px" viewBox="0 0 623 57" version="1.1"><title>bae-systems</title><g id="bae-systems" stroke="none" stroke-width="1" fill="none" fill-rule="evenodd"><path d="M231,0.7 C225.75,0.7 220.1,1.691 215.8,4.7 C211.55,7.71 209.02,12.82 209.02,18 C209.02,30.6 220.82,33.3 230.82,35.2 C233.22,35.664 237.32,36.3 237.32,39.54 C237.32001,42.47 233.14,42.76 231.07,42.76 C226.36,42.76 222.8,41.06 221.41,36.35 L206.31,39.07 L206.591,40.13 L206.935,41.13 L207.31,42.13 L207.716,43.068 L208.154,43.974 L208.623,44.818 L209.154,45.662 L209.685,46.443 L210.279,47.193 L210.873,47.912 L212.183,49.222 L213.623,50.412 L214.373,50.943 L215.154,51.443 L215.935,51.912 L216.779,52.35 L217.623,52.756 L218.498,53.131 L219.373,53.475 L220.279,53.756 L221.217,54.037 L222.155,54.287 L223.093,54.506 L224.093,54.694 L225.062,54.85 L226.062,54.975 L227.092,55.0688 L229.122,55.1938 L230.152,55.1938 C241.152,55.1938 253.752,50.1138 253.752,37.3938 C253.752,31.6038 251.052,26.5938 245.872,23.8938 C241.252,21.5038 235.912,20.6838 230.872,19.6738 C228.872,19.2098 225.032,18.6738 225.032,15.8938 C225.03199,13.1138 228.092,12.4838 230.252,12.4838 C234.342,12.483799 237.282,13.8638 238.812,17.7938 L252.212,13.7338 C248.972,4.5538 240.112,0.7338 230.912,0.7338 L231,0.7 Z M349,0.7 C343.76,0.7 338.1,1.691 333.8,4.7 C329.56,7.71 327.02,12.82 327.02,18 C327.02001,30.6 338.82,33.3 348.82,35.2 C351.21,35.664 355.29,36.3 355.29,39.54 C355.28999,42.47 351.13,42.76 349.04,42.76 C344.34,42.76 340.8,41.06 339.42,36.35 L324.32,39.07 L324.632,40.13 L324.944,41.13 L325.319,42.13 L325.725,43.068 L326.163,43.974 L326.632,44.818 L327.163,45.662 L327.694,46.443 L328.288,47.193 L328.882,47.912 L330.192,49.222 L331.632,50.412 L332.382,50.943 L333.163,51.443 L333.944,51.912 L334.788,52.35 L335.632,52.756 L336.507,53.131 L337.382,53.475 L338.288,53.756 L339.226,54.037 L340.164,54.287 L341.133,54.506 L342.102,54.694 L343.071,54.85 L344.071,54.975 L345.101,55.0688 L347.131,55.1938 L348.191,55.1938 C359.091,55.1938 371.791,50.1138 371.791,37.3938 C371.791,31.6038 369.081,26.5938 363.911,23.8938 C359.291,21.5038 353.951,20.6838 348.911,19.6738 C346.911,19.2098 343.031,18.6738 343.031,15.8938 C343.03101,13.1138 346.121,12.4838 348.281,12.4838 C352.371,12.483799 355.311,13.8638 356.841,17.7938 L370.241,13.7338 C367.001,4.5538 358.141,0.7338 348.941,0.7338 L349,0.7 Z M600,0.7 C594.75,0.7 589.1,1.691 584.8,4.7 C580.56,7.71 578.02,12.82 578.02,18 C578.01998,30.6 589.82,33.3 599.82,35.2 C602.22,35.664 606.32,36.3 606.32,39.54 C606.31999,42.47 602.16,42.76 600.07,42.76 C595.37,42.76 591.8,41.06 590.41,36.35 L575.41,39.07 L575.691,40.13 L576.003,41.13 L576.378,42.13 L576.784,43.068 L577.222,43.974 L577.691,44.818 L578.222,45.662 L578.753,46.443 L579.347,47.193 L579.941,47.912 L581.251,49.222 L582.691,50.412 L583.441,50.943 L584.222,51.443 L585.034,51.912 L585.846,52.35 L586.69,52.756 L587.565,53.131 L588.44,53.475 L589.378,53.756 L590.284,54.037 L591.222,54.287 L592.191,54.506 L593.16,54.694 L594.129,54.85 L595.129,54.975 L596.159,55.0688 L597.189,55.1313 L598.189,55.1938 L599.249,55.1938 C610.249,55.1938 622.849,50.1138 622.849,37.3938 C622.849,31.6038 620.169,26.5938 615.009,23.8938 C610.369,21.5038 605.019,20.6838 600.009,19.6738 C597.999,19.2098 594.169,18.6738 594.169,15.8938 C594.169,13.1138 597.259,12.4838 599.419,12.4838 C603.509,12.483799 606.429,13.8638 607.979,17.7938 L621.379,13.7338 C618.139,4.5538 609.279,0.7338 600.079,0.7338 L600,0.7 Z M0,1.481 L0,54.381 L24.2,54.381 C28.98,54.381 34.7,54.316 38.8,51.381 C42.58,48.691 44.21,43.591 44.21,39.081 C44.21,32.751 40.06,28.081 34.01,27.081 C39.41,25.691 42.95,20.981 42.95,15.381 C42.950002,11.061 40.87,6.741 37.33,4.181 C34.01,1.791 29.94,1.491 25.93,1.491 L0.03,1.491 L0,1.481 Z M75.5,1.481 L59.1,54.381 L72.3,54.381 L75.55,43.981 L89.65,43.981 L92.65,54.381 L109.25,54.381 L92.65,1.481 L75.55,1.481 L75.5,1.481 Z M126.4,1.481 L126.4,54.381 L166.2,54.381 L166.2,41.681 L142.4,41.681 L142.4,33.121 L161.7,33.121 L161.7,21.321 L142.4,21.321 L142.4,13.601 L166.2,13.601 L166.2,1.401 L126.4,1.401 L126.4,1.481 Z M265.4,1.481 L283.2,31.981 L283.2,54.381 L298.9,54.381 L298.9,31.981 L315.5,1.481 L301.3,1.481 L292.42,18.881 L283.17,1.481 L265.37,1.481 L265.4,1.481 Z M387.4,1.481 L387.4,14.181 L398.5,14.181 L398.5,54.381 L413.9,54.381 L413.9,14.181 L424.8,14.181 L424.8,1.481 L387.4,1.481 Z M442.6,1.481 L442.6,54.381 L482.3,54.381 L482.3,41.681 L458.5,41.681 L458.5,33.121 L477.8,33.121 L477.8,21.321 L458.5,21.321 L458.5,13.601 L482.3,13.601 L482.3,1.401 L442.6,1.401 L442.6,1.481 Z M502.3,1.481 L502.3,54.381 L514.5,54.381 L514.5,16.581 L524.6,54.381 L534.9,54.381 L544.56,16.581 L544.685,54.381 L559.785,54.381 L559.785,1.481 L538.385,1.481 L531.135,29.581 L523.445,1.481 L502.245,1.481 L502.3,1.481 Z M15.3,12.781 L21.61,12.781 C24.7,12.781 27.95,13.346 27.95,17.281 C27.95,18.511 27.419,19.831 26.42,20.751 C25.26,21.831 23.4,21.751 21.86,21.751 L15.3,21.751 L15.3,12.781 Z M82.9,17.031 L87.21,32.431 L78.55,32.431 L82.89,17.031 L82.9,17.031 Z M15.3,33.031 L21.71,33.031 C23.17,33.031 25.04,33.056 26.43,33.75 C27.97,34.521 28.96,36.13 28.96,37.91 C28.96,39.37 28.179,40.75 27.02,41.6 C25.71,42.68 23.95,42.6 22.33,42.6 L15.3,42.6 L15.3,33.04 L15.3,33.031 Z" id="Shape" fill="#FF0033" fill-rule="nonzero"></path></g></svg> 