<?xml version="1.0" encoding="UTF-8"?> <svg xmlns="http://www.w3.org/2000/svg" xmlns:xlink="http://www.w3.org/1999/xlink" width="166px" height="38px" viewBox="0 0 166 38" version="1.1"><title>boeing</title><g id="Designs" stroke="none" stroke-width="1" fill="none" fill-rule="evenodd"><g id="boeing" fill="#0033A1" fill-rule="nonzero"><path d="M25.2616084,23.0582135 C28.0302004,17.1135634 26.0365448,10.0379589 20.5716363,6.41321861 C22.696321,4.22978693 24.9972467,2.0659376 27.4254577,0 C24.5924933,1.68421764 21.9037964,3.600037 19.3869043,5.72783647 C13.7514326,2.78924095 6.82334254,4.26349664 2.87257842,9.24198524 C-1.0781857,14.2204739 -0.939947069,21.3023346 3.20209462,26.1228508 C0.66618069,31.6156991 0.264742578,36.0217272 2.45796543,37.5099855 C4.85680293,39.1059468 10.0657072,36.2077594 13.2282562,31.498205 C13.2282562,31.498205 8.39141655,35.8552772 5.73800854,34.8565775 C4.10288257,34.2397336 4.10288257,31.7331932 5.44427334,28.1496237 C10.694218,32.0011296 17.9640011,31.4700038 22.5984092,26.8963535 L23.0683856,27.7775591 C28.8451779,27.3075828 46.0874344,26.8473976 46.0874344,26.8473976 C46.0482697,26.0347302 34.6317614,26.8180241 25.2616084,23.0582135 Z M1.58652682,17.4674534 C1.59078109,13.5019973 3.60820974,9.80997759 6.94316049,7.6645256 C10.2781112,5.5190736 14.4742762,5.21374281 18.0846783,6.85382142 C12.3612639,11.8599977 7.58252296,17.8524925 3.97559732,24.5464719 C2.42116837,22.5144051 1.58133226,20.0258743 1.58652682,17.4674534 L1.58652682,17.4674534 Z M13.2478386,29.1287622 C10.6297958,29.1337357 8.08688426,28.2538952 6.03174374,26.6319918 C8.34246068,21.4230875 13.0422239,14.4321897 19.4554426,7.5979506 C24.4406018,10.737035 26.301555,17.1012429 23.7929324,22.4315784 C21.7688182,21.5231529 19.899015,20.3041469 18.2511282,18.8186354 L21.7661595,25.4178863 C19.5661869,27.7854248 16.4797291,29.1299852 13.2478386,29.1287622 L13.2478386,29.1287622 Z" id="Shape"></path><polygon id="Path" points="104.335125 16.2533479 106.489183 13.3845341 98.9695622 13.3845341 100.820094 10.9269496 108.349506 10.9269496 110.513356 8.05813576 95.4936956 8.05813576 85.1640076 21.7657786 100.183668 21.7657786 102.337726 18.8969648 94.8181047 18.8969648 96.8057129 16.2533479 104.335125 16.2533479"></polygon><polygon id="Path" points="114.762725 8.05813576 104.433037 21.7657786 111.933076 21.7657786 122.252973 8.05813576 114.762725 8.05813576"></polygon><polygon id="Path" points="139.730217 8.05813576 134.49194 15.0098689 132.886187 8.05813576 127.031065 8.05813576 116.701377 21.7657786 121.655711 21.7657786 126.845033 14.8825837 128.440994 21.7657786 134.354863 21.7657786 144.684551 8.05813576 139.730217 8.05813576"></polygon><path d="M164.227733,8.05813576 L152.18459,8.05813576 C150.201242,8.05582319 148.332761,8.98824999 147.142136,10.5744673 L140.92474,18.8284266 C140.682029,19.1460675 140.551212,19.5350762 140.552664,19.9348292 C140.552664,20.9476307 141.370838,21.7701825 142.383625,21.7755817 L154.426769,21.7755817 C156.413198,21.7794243 158.285307,20.8469976 159.479014,19.2592382 L160.977064,17.3010035 L162.719893,17.3010035 L164.893533,14.3636515 L155.670248,14.3636515 L152.732896,18.231165 C152.42368,18.6447418 151.937269,18.8879469 151.420878,18.8871736 L149.296194,18.8871736 C149.031226,18.8871736 148.816426,18.6723744 148.816426,18.4074061 C148.815614,18.3043432 148.850174,18.2041193 148.914338,18.1234621 L153.809925,11.5633759 C154.118109,11.1485672 154.605184,10.9050298 155.121942,10.9073672 L157.246627,10.9073672 C157.511595,10.9073672 157.726394,11.1221665 157.726394,11.3871347 C157.723669,11.489588 157.689485,11.5887215 157.628482,11.6710788 L156.825606,12.7383167 L164.306063,12.7383167 L165.627871,10.9759054 C166.049099,10.4205141 166.118425,9.67412035 165.80669,9.0506509 C165.494955,8.42718145 164.856245,8.03480566 164.159195,8.0385268 L164.227733,8.05813576 Z" id="Path"></path><path d="M89.344911,9.89887637 C89.344911,8.88767091 88.5250947,8.06791503 87.5138893,8.06791503 L75.4707459,8.06791503 C73.4843168,8.0640724 71.6122071,8.99649914 70.4185004,10.5842585 L64.2011053,18.8382177 C63.7878192,19.3953834 63.7228742,20.1375826 64.0331125,20.7580592 C64.3433507,21.3785357 64.9760771,21.7718992 65.6697813,21.7755817 L77.7129246,21.7755817 C79.6993537,21.7794243 81.5714635,20.8469976 82.7651701,19.2592382 L88.9825653,11.005279 C89.2211264,10.6860498 89.3483896,10.2973811 89.344911,9.89887637 Z M80.9733854,11.6906611 L76.0777987,18.2409562 C75.7696139,18.6557648 75.2825392,18.8993022 74.7657814,18.8969814 L72.6019321,18.8969814 C72.4219634,18.8951466 72.2581501,18.7927574 72.1776616,18.6317803 C72.0971731,18.4708032 72.1135496,18.278319 72.2200763,18.1332532 L77.115663,11.573167 C77.4268917,11.1620054 77.9120138,10.9194444 78.4276803,10.9171584 L80.5523649,10.9171584 C80.8173332,10.9171584 81.0321324,11.1319576 81.0321324,11.3969259 C81.0294077,11.4993791 80.9952237,11.5985127 80.9342207,11.6808699 L80.9733854,11.6906611 Z" id="Shape"></path><path d="M61.0189739,15.2448571 C62.4743764,14.9148495 63.7652282,14.0785718 64.6612904,12.8851843 L66.0908017,10.9954878 C66.5120299,10.4400965 66.5813555,9.6937027 66.2696208,9.07023325 C65.9578861,8.4467638 65.3191757,8.05438801 64.6221257,8.05810914 L49.4262245,8.05810914 L39.0965365,21.7657905 L54.8211611,21.7657905 C56.8075902,21.7696331 58.6796999,20.8372064 59.8734066,19.249447 L61.3322914,17.2912123 C61.5249001,17.0380119 61.6281933,16.7281323 61.6260266,16.4100067 C61.62526,15.9429223 61.4038184,15.5036692 61.0287651,15.2252747 L61.0189739,15.2448571 Z M54.0672407,17.0268506 L53.1370792,18.2605385 C52.8278633,18.6741153 52.341453,18.9173205 51.825062,18.916549 L48.7604247,18.916549 L50.7186594,16.2729303 L53.6560114,16.2729303 C53.9209797,16.2729303 54.135779,16.4877295 54.135779,16.7526978 C54.135779,16.8556326 54.1013424,16.9556081 54.0378672,17.0366418 L54.0672407,17.0268506 Z M58.0816218,11.7004523 L57.2885368,12.7481078 C56.9762746,13.1567831 56.4908353,13.39588 55.9765196,13.3943328 L52.9118823,13.3943328 L54.762414,10.9367408 L57.6997661,10.9367408 C57.9647344,10.9367408 58.1795336,11.15154 58.1795336,11.4165083 C58.1768089,11.5189615 58.1426249,11.618095 58.0816218,11.7004523 Z" id="Shape"></path></g></g></svg> 