<?xml version="1.0" encoding="UTF-8"?> <svg xmlns="http://www.w3.org/2000/svg" xmlns:xlink="http://www.w3.org/1999/xlink" width="166px" height="19px" viewBox="0 0 166 19" version="1.1"><title>g2902</title><g id="Designs" stroke="none" stroke-width="1" fill="none" fill-rule="evenodd"><g id="Customers" transform="translate(-821.000000, -463.000000)" fill="#202334"><g id="g2902" transform="translate(904.000000, 472.208264) scale(-1, 1) rotate(-180.000000) translate(-904.000000, -472.208264) translate(821.000000, 463.000000)"><path d="M1.44230375,5.09198398 L1.44230375,9.58985593 L4.15878417,9.58985593 C4.83695974,9.58985593 5.60108792,9.58985593 6.11019187,9.16576007 C6.70430389,8.7416642 7.04339167,7.97753602 7.04339167,7.29841591 C7.04339167,6.61929581 6.78931197,6.02518379 6.28020803,5.60108792 C5.77110408,5.17699206 5.0069759,5.09198398 4.32785579,5.09198398 L1.44230375,5.09198398 L1.44230375,5.09198398 Z M1.44230375,10.6930719 L1.44230375,14.6818399 L4.15878417,14.6818399 C4.75289619,14.6818399 5.2610556,14.6818399 5.77110408,14.4268157 C6.3652161,14.0877279 6.70430389,13.4936159 6.70430389,12.8144958 C6.70430389,12.2203837 6.3652161,11.5422082 5.94017571,11.2021758 C5.34606368,10.6930719 4.49787195,10.6930719 3.73374377,10.6930719 L1.44230375,10.6930719 L1.44230375,10.6930719 Z M4.41286387,3.90375993 C5.51607984,3.90375993 6.44927965,3.98876801 7.29841591,4.66788811 C8.14660764,5.34606368 8.48663996,6.19519995 8.48663996,7.21340783 C8.48663996,8.7416642 7.46843207,9.92988825 6.02518379,10.268976 C7.29841591,10.6080638 8.14660764,11.6262717 8.14660764,12.8995038 C8.14660764,13.9177117 7.6375037,14.766848 6.87432005,15.2759519 C6.02518379,15.7850559 5.34606368,15.870064 4.41286387,15.870064 L3.35565964e-15,15.870064 L3.35565964e-15,3.90375993 L4.41286387,3.90375993" id="path26"></path><path d="M11.2871839,8.40163188 C11.2871839,9.16576007 11.372192,10.0139518 11.7112798,10.6080638 C12.1353757,11.372192 12.8995038,11.8812959 13.7486401,11.8812959 C14.5118237,11.8812959 15.2759519,11.4572001 15.7000478,10.8630881 C16.1241437,10.0989599 16.2091517,9.25076815 16.2091517,8.40163188 C16.2091517,7.63844823 16.1241437,6.87432005 15.7850559,6.11019187 C15.36096,5.34606368 14.6818399,4.83695974 13.7486401,4.83695974 C12.8995038,4.83695974 12.1353757,5.26200014 11.7962879,5.94017571 C11.372192,6.70430389 11.2871839,7.63844823 11.2871839,8.40163188 Z M9.75987209,8.40163188 C9.75987209,6.11019187 10.9480961,3.73374377 13.5786239,3.73374377 C16.2941598,3.73374377 17.7364636,5.94017571 17.7364636,8.40163188 C17.7364636,10.6930719 16.464176,12.9845119 13.8336482,12.9845119 C11.2021758,12.9845119 9.75987209,10.8630881 9.75987209,8.40163188" id="path28"></path><path d="M20.5379521,8.40163188 C20.5379521,9.16576007 20.6229601,10.0139518 20.9620479,10.6080638 C21.3011357,11.372192 22.150272,11.8812959 22.9984637,11.8812959 C23.7625919,11.8812959 24.441712,11.4572001 24.8658079,10.8630881 C25.3749118,10.0989599 25.4599199,9.25076815 25.4599199,8.40163188 C25.4599199,7.63844823 25.3749118,6.87432005 25.035824,6.11019187 C24.6107836,5.34606368 23.8476,4.83695974 22.9984637,4.83695974 C22.150272,4.83695974 21.3861438,5.26200014 21.047056,5.94017571 C20.6229601,6.70430389 20.5379521,7.63844823 20.5379521,8.40163188 L20.5379521,8.40163188 Z M19.0096957,8.40163188 C19.0096957,6.11019187 20.1979197,3.73374377 22.8293921,3.73374377 C25.544928,3.73374377 26.9031682,5.94017571 26.9031682,8.40163188 C26.9031682,10.6930719 25.629936,12.9845119 23.0834718,12.9845119 C20.452944,12.9845119 19.0096957,10.8630881 19.0096957,8.40163188" id="path30"></path><polyline id="path32" points="34.2856476 11.966304 29.4486879 5.0069759 34.2856476 5.0069759 34.2856476 3.90375993 27.7513599 3.90375993 27.7513599 5.0069759 32.5042561 11.7112798 28.1754558 11.7112798 28.1754558 12.7304322 34.2856476 12.7304322 34.2856476 11.966304"></polyline><polygon id="path34" fill-rule="nonzero" points="42.0091039 -1.34226386e-14 43.1123199 -1.34226386e-14 43.1123199 18.4165282 42.0091039 18.4165282"></polygon><path d="M56.3518561,8.57164804 L52.7021758,8.57164804 L54.4845119,14.257744 L56.3518561,8.57164804 Z M55.4177117,15.870064 L53.8053918,15.870064 L49.9016319,3.90375993 L51.174864,3.90375993 L52.27808,7.38342399 L56.6909439,7.38342399 L57.8791679,3.90375993 L59.3214717,3.90375993 L55.4177117,15.870064" id="path36"></path><path d="M69.4213761,9.25076815 C69.4213761,10.6080638 70.4395839,11.966304 71.9668958,11.966304 C73.4951521,11.966304 74.428352,10.6930719 74.3433439,9.25076815 L69.4213761,9.25076815 Z M74.428352,6.53428773 C74.0042561,5.51607984 73.1551198,4.83695974 72.0519039,4.83695974 C71.1187041,4.83695974 70.0995516,5.43107176 69.6754558,6.28020803 C69.336368,6.87432005 69.336368,7.55344015 69.336368,8.23161572 L75.7856476,8.23161572 C75.8706557,10.6930719 74.6833762,12.9845119 71.9668958,12.9845119 C69.336368,12.9845119 67.8931197,10.77808 67.8931197,8.3166238 C67.8931197,5.85611216 69.2513599,3.73374377 71.8818877,3.73374377 C73.5792157,3.73374377 75.1074721,4.75195166 75.7015841,6.3652161 L74.428352,6.53428773" id="path38"></path><path d="M79.011232,11.2871839 L79.0962401,11.2871839 C79.5203359,12.2203837 80.6235519,12.9845119 81.811776,12.9845119 C82.9149919,12.9845119 83.7641282,12.5604161 84.3582402,11.6262717 C84.7823361,10.8630881 84.697328,9.67486401 84.697328,8.82572775 L84.697328,3.90375993 L83.3390878,3.90375993 L83.3390878,9.41983977 C83.3390878,9.92988825 83.4240959,10.5240003 83.1700162,11.0321597 C82.8299838,11.5422082 82.2358718,11.7962879 81.6417598,11.7962879 C80.8785761,11.7962879 80.2844641,11.4572001 79.7744156,10.9480961 C79.2653117,10.268976 79.0962401,9.41983977 79.0962401,8.57164804 L79.0962401,3.90375993 L77.7379999,3.90375993 L77.7379999,12.7304322 L79.011232,12.7304322 L79.011232,11.2871839" id="path40"></path><path d="M160.313904,11.2871839 L160.313904,11.2871839 C160.738,12.2203837 161.841216,12.9845119 163.02944,12.9845119 C164.132656,12.9845119 164.980848,12.5604161 165.575904,11.6262717 C166,10.8630881 166,9.67486401 166,8.82572775 L166,3.90375993 L164.64176,3.90375993 L164.64176,9.41983977 C164.64176,9.92988825 164.64176,10.5240003 164.38768,11.0321597 C164.047648,11.5422082 163.453536,11.7962879 162.859424,11.7962879 C162.180304,11.7962879 161.502128,11.4572001 161.078032,10.9480961 C160.48392,10.268976 160.313904,9.41983977 160.313904,8.57164804 L160.313904,3.90375993 L158.955664,3.90375993 L158.955664,12.7304322 L160.313904,12.7304322 L160.313904,11.2871839" id="path42"></path><polygon id="path44" fill-rule="nonzero" points="92.5048479 -1.34226386e-14 93.6080638 -1.34226386e-14 93.6080638 18.4165282 92.5048479 18.4165282"></polygon><polyline id="path46" points="108.969024 3.90375993 108.969024 9.67486401 103.452944 9.67486401 103.452944 3.90375993 102.094704 3.90375993 102.094704 15.870064 103.452944 15.870064 103.452944 10.77808 108.969024 10.77808 108.969024 15.870064 110.411328 15.870064 110.411328 3.90375993 108.969024 3.90375993"></polyline><path d="M118.3048,7.80751986 C118.3048,6.28020803 117.201584,4.83695974 115.589264,4.83695974 C114.485104,4.83695974 113.636912,5.26200014 113.636912,6.3652161 C113.636912,8.14660764 115.589264,8.40163188 117.201584,8.40163188 L118.3048,8.40163188 L118.3048,7.80751986 Z M117.201584,9.41983977 C116.098368,9.41983977 114.825136,9.33577623 113.890992,8.91073583 C112.957792,8.48663996 112.278672,7.46843207 112.278672,6.45022418 C112.278672,4.66788811 113.636912,3.73374377 115.33424,3.73374377 C116.691536,3.73374377 117.710688,4.32785579 118.3048,5.60108792 L118.473872,3.90375993 L119.832112,3.90375993 C119.662096,4.49787195 119.578032,5.17699206 119.578032,5.77110408 L119.578032,9.25076815 C119.578032,10.183968 119.578032,11.372192 118.898912,12.1363202 C118.219792,12.8995038 117.201584,12.9845119 116.26744,12.9845119 C114.65512,12.9845119 112.78872,12.3903999 112.533696,10.5240003 L113.72192,10.3539841 C113.976,11.5422082 115.079216,11.8812959 116.098368,11.8812959 C117.62568,11.8812959 118.3048,11.372192 118.3048,9.75987209 L118.3048,9.41983977 L117.201584,9.41983977" id="path48"></path><path d="M123.226768,12.7304322 L123.226768,11.2021758 C123.650864,12.1363202 124.670016,12.9845119 125.85824,12.9845119 C127.130528,12.9845119 128.148736,12.0513121 128.318752,11.0321597 C128.827856,12.1363202 129.846064,12.9845119 131.204304,12.9845119 C132.137504,12.9845119 132.98664,12.475408 133.410736,11.7112798 C133.834832,10.9480961 133.834832,10.0139518 133.834832,9.16576007 L133.834832,3.90375993 L132.477536,3.90375993 L132.477536,9.16576007 C132.477536,9.75987209 132.477536,10.4389922 132.222512,10.9480961 C131.968432,11.5422082 131.37432,11.8812959 130.780208,11.8812959 C130.101088,11.8812959 129.421968,11.4572001 129.08288,10.8630881 C128.573776,10.183968 128.573776,9.50484785 128.573776,8.65665612 L128.573776,3.90375993 L127.215536,3.90375993 L127.215536,9.50484785 C127.215536,10.0139518 127.215536,10.6080638 126.960512,11.0321597 C126.621424,11.5422082 126.027312,11.8812959 125.4332,11.8812959 C124.839088,11.8812959 124.244976,11.4572001 123.82088,11.0321597 C123.396784,10.4389922 123.311776,9.67486401 123.311776,8.99574391 L123.311776,3.90375993 L121.953536,3.90375993 L121.953536,12.7304322 L123.226768,12.7304322" id="path50"></path><path d="M136.296288,12.7304322 L137.654528,12.7304322 L137.654528,3.90470446 L136.296288,3.90470446 L136.296288,12.7304322 Z M136.21128,15.870064 L137.738592,15.870064 L137.738592,14.3427521 L136.21128,14.3427521 L136.21128,15.870064 Z" id="path52"></path><polygon id="path54" fill-rule="nonzero" points="140.455072 3.90375993 141.728304 3.90375993 141.728304 15.870064 140.455072 15.870064"></polygon><polygon id="path56" fill-rule="nonzero" points="60.6797119 3.90375993 61.952944 3.90375993 61.952944 15.870064 60.6797119 15.870064"></polygon><polygon id="path58" fill-rule="nonzero" points="64.7534879 3.90375993 66.0267201 3.90375993 66.0267201 15.870064 64.7534879 15.870064"></polygon><path d="M148.60168,3.90375993 L147.329392,3.73374377 C145.37704,3.73374377 144.782928,4.92196782 144.782928,6.61929581 L144.782928,11.7112798 L143.255616,11.7112798 L143.255616,12.8144958 L144.782928,12.8144958 L144.782928,15.0209277 L146.141168,15.1059358 L146.141168,12.8144958 L148.092576,12.8144958 L148.092576,11.7112798 L146.141168,11.7112798 L146.141168,6.45022418 C146.141168,5.43107176 146.480256,4.83695974 147.583472,4.83695974 L148.60168,4.92196782 L148.60168,3.90375993" id="path60"></path><path d="M150.809056,8.40163188 C150.809056,9.16576007 150.89312,10.0139518 151.233152,10.6080638 C151.57224,11.372192 152.336368,11.8812959 153.18456,11.8812959 C154.033696,11.8812959 154.712816,11.4572001 155.136912,10.8630881 C155.646016,10.0989599 155.731024,9.25076815 155.731024,8.40163188 C155.731024,7.63844823 155.646016,6.87432005 155.306928,6.11019187 C154.881888,5.34606368 154.118704,4.83695974 153.18456,4.83695974 C152.421376,4.83695974 151.657248,5.26200014 151.31816,5.94017571 C150.89312,6.70430389 150.809056,7.63844823 150.809056,8.40163188 L150.809056,8.40163188 Z M149.2808,8.40163188 C149.2808,6.11019187 150.469024,3.73374377 153.099552,3.73374377 C155.816032,3.73374377 157.173328,5.94017571 157.173328,8.40163188 C157.173328,10.6930719 155.90104,12.9845119 153.354576,12.9845119 C150.63904,12.9845119 149.2808,10.8630881 149.2808,8.40163188" id="path62"></path></g></g></g></svg> 