<?xml version="1.0" encoding="UTF-8"?> <svg xmlns="http://www.w3.org/2000/svg" xmlns:xlink="http://www.w3.org/1999/xlink" width="166px" height="28px" viewBox="0 0 166 28" version="1.1"><title>collins-aerospace-logo-vector</title><g id="Designs" stroke="none" stroke-width="1" fill="none" fill-rule="evenodd"><g id="collins-aerospace-logo-vector" fill="#000000" fill-rule="nonzero"><path d="M163.427429,13.1394768 C163.372105,12.7245459 163.233794,12.4202633 163.012498,12.1713048 C162.791201,11.9500083 162.486919,11.8393601 162.09965,11.8393601 C161.325112,11.8393601 160.854858,12.281953 160.688885,13.1394768 L163.427429,13.1394768 Z M165.944676,17.3164473 C165.557407,17.5654058 165.087152,17.7867022 164.506249,17.9250125 C163.953008,18.0633228 163.372105,18.1463089 162.763539,18.1463089 C162.044326,18.1463089 161.380437,18.0633228 160.799533,17.8696884 C160.21863,17.676054 159.720713,17.3994334 159.333444,17.0398267 C158.918514,16.68022 158.614231,16.2376271 158.392935,15.73971 C158.171638,15.214131 158.06099,14.6608899 158.06099,14.0246626 C158.06099,13.4160973 158.171638,12.8628562 158.365272,12.3372771 C158.558907,11.8393601 158.835527,11.3967672 159.195134,11.0371605 C159.554741,10.6775537 159.997334,10.4009332 160.495251,10.1796367 C160.993168,9.98600233 161.546409,9.87535411 162.154974,9.87535411 C162.735877,9.87535411 163.261456,9.95834028 163.731711,10.1519747 C164.201966,10.3456091 164.616897,10.5945676 164.948842,10.9265122 C165.280787,11.2584569 165.529745,11.6733878 165.723379,12.1436427 C165.889352,12.6138977 166,13.1671388 166,13.775704 C166,14.1353108 165.972338,14.4672555 165.917014,14.716214 L160.799533,14.716214 C161.076154,15.6013998 161.823029,16.0439927 163.067822,16.0439927 C163.399767,16.0439927 163.759373,15.9886686 164.11898,15.9056824 C164.506249,15.8226962 164.838194,15.712048 165.114814,15.6013998 L165.944676,17.3164473 Z M157.701383,17.3994334 C157.341776,17.6207299 156.926846,17.8143643 156.456591,17.9250125 C155.986336,18.0356607 155.488419,18.1186469 155.018164,18.1186469 C154.326612,18.1186469 153.718047,18.0356607 153.192468,17.8420263 C152.666889,17.6483919 152.196634,17.3717714 151.837027,17.0121646 C151.47742,16.6525579 151.173138,16.2376271 150.979503,15.73971 C150.785869,15.241793 150.702883,14.6885519 150.702883,14.0523246 C150.702883,13.4437594 150.813531,12.8905182 151.007165,12.3649392 C151.228462,11.8670222 151.505082,11.4244293 151.892351,11.0648225 C152.27962,10.7052158 152.722213,10.4285952 153.247792,10.2072988 C153.773371,10.0136644 154.354274,9.90301616 154.990502,9.90301616 C155.875687,9.90301616 156.622563,10.0413264 157.203466,10.3456091 L156.843859,12.6415597 C156.650225,12.5309115 156.401266,12.4479253 156.096984,12.3926012 C155.792701,12.3372771 155.543743,12.3096151 155.350108,12.3096151 C154.741543,12.3096151 154.271288,12.4479253 153.911681,12.752208 C153.552075,13.0564906 153.386102,13.4714214 153.386102,13.9970005 C153.386102,14.5225796 153.552075,14.9375104 153.911681,15.241793 C154.271288,15.5460757 154.741543,15.6843859 155.37777,15.6843859 C155.571405,15.6843859 155.792701,15.6567239 156.04166,15.6290618 C156.290618,15.6013998 156.511915,15.5460757 156.705549,15.4630895 L157.701383,17.3994334 Z M145.640727,15.73971 C146.110982,15.73971 146.470588,15.5737377 146.774871,15.2694551 C147.079153,14.9651725 147.217464,14.5502416 147.217464,14.0246626 C147.217464,13.4990835 147.079153,13.0841526 146.774871,12.77987 C146.470588,12.4755874 146.110982,12.3096151 145.640727,12.3096151 C145.170472,12.3096151 144.810865,12.4755874 144.506582,12.77987 C144.2023,13.0841526 144.063989,13.4990835 144.063989,14.0246626 C144.063989,14.5502416 144.2023,14.9651725 144.506582,15.2694551 C144.810865,15.5737377 145.170472,15.73971 145.640727,15.73971 M144.893851,18.1463089 C144.368272,18.1463089 143.898017,18.0356607 143.455424,17.8420263 C143.012831,17.6483919 142.653224,17.3717714 142.348942,16.9845026 C142.044659,16.6248959 141.795701,16.1823029 141.629728,15.6843859 C141.463756,15.1864689 141.353108,14.6332278 141.353108,14.0246626 C141.353108,13.4437594 141.436094,12.8905182 141.629728,12.3649392 C141.823363,11.8670222 142.072321,11.4244293 142.404266,11.0371605 C142.736211,10.6775537 143.123479,10.3732711 143.566072,10.1519747 C144.008665,9.93067822 144.47892,9.84769205 145.004499,9.84769205 C145.474754,9.84769205 145.917347,9.95834028 146.304616,10.1519747 C146.691885,10.3456091 146.996167,10.6222296 147.245126,11.0094984 L147.272788,10.0966506 L149.817697,10.0966506 L149.817697,17.8696884 L147.272788,17.8696884 L147.245126,16.9845026 C147.023829,17.3441093 146.691885,17.6207299 146.304616,17.8143643 C145.862023,18.0356607 145.391768,18.1463089 144.893851,18.1463089 M136.207965,15.73971 C136.67822,15.73971 137.037827,15.5737377 137.34211,15.2694551 C137.646392,14.9651725 137.784703,14.5502416 137.784703,14.0246626 C137.784703,13.4990835 137.646392,13.0841526 137.34211,12.77987 C137.037827,12.4755874 136.67822,12.3096151 136.207965,12.3096151 C135.73771,12.3096151 135.378104,12.4755874 135.073821,12.77987 C134.769538,13.0841526 134.631228,13.4990835 134.631228,14.0246626 C134.631228,14.5502416 134.769538,14.9651725 135.073821,15.2694551 C135.378104,15.5737377 135.73771,15.73971 136.207965,15.73971 M132.086319,10.1243126 L134.631228,10.1243126 L134.65889,11.0094984 C134.880187,10.6498917 135.212131,10.3732711 135.5994,10.1796367 C135.986669,9.98600233 136.456924,9.87535411 136.954841,9.87535411 C137.48042,9.87535411 137.950675,9.98600233 138.393268,10.1796367 C138.835861,10.3732711 139.195467,10.6498917 139.49975,11.0371605 C139.804033,11.3967672 140.052991,11.8393601 140.218964,12.3372771 C140.384936,12.8351941 140.495584,13.3884353 140.495584,13.9970005 C140.495584,14.5779037 140.412598,15.1311448 140.218964,15.6567239 C140.025329,16.1546409 139.776371,16.5972338 139.444426,16.9845026 C139.112481,17.3441093 138.725212,17.6483919 138.28262,17.8696884 C137.840027,18.0909848 137.369772,18.173971 136.844193,18.173971 C136.429262,18.173971 136.014331,18.0909848 135.654724,17.9250125 C135.295117,17.7590402 134.990835,17.5377437 134.769538,17.2334611 L134.769538,21.2997834 L132.058657,21.2997834 L132.058657,10.1243126 L132.086319,10.1243126 Z M127.93701,11.8393601 C127.383769,11.8393601 127.107149,11.9776704 127.107149,12.281953 C127.107149,12.4479253 127.190135,12.5585736 127.356107,12.6692218 C127.52208,12.752208 127.826362,12.8628562 128.268955,12.9735044 C129.209465,13.1948009 129.901016,13.5267455 130.315947,13.9416764 C130.730878,14.3566072 130.952175,14.9375104 130.952175,15.6290618 C130.952175,16.4035994 130.647892,17.0121646 130.039327,17.4547575 C129.430762,17.8973504 128.573238,18.0909848 127.439093,18.0909848 C126.830528,18.0909848 126.249625,18.0356607 125.696384,17.8973504 C125.143143,17.7590402 124.672888,17.5654058 124.340943,17.3441093 L125.226129,15.73971 C125.530412,15.8503583 125.862356,15.9610065 126.249625,16.0163306 C126.609232,16.0993168 126.968839,16.1269788 127.273121,16.1269788 C127.93701,16.1269788 128.241293,15.9610065 128.241293,15.6567239 C128.241293,15.5737377 128.213631,15.5184136 128.185969,15.4354274 C128.158307,15.3524413 128.102983,15.3247792 128.019997,15.2694551 C127.93701,15.214131 127.826362,15.1588069 127.66039,15.1311448 C127.52208,15.0758207 127.328445,15.0204966 127.079487,14.9651725 C126.609232,14.8545242 126.194301,14.716214 125.862356,14.5502416 C125.530412,14.3842693 125.253791,14.1906349 125.032495,13.9970005 C124.811198,13.775704 124.672888,13.5544076 124.56224,13.277787 C124.451591,13.0011665 124.423929,12.6968839 124.423929,12.3372771 C124.423929,11.5627395 124.728212,10.9541743 125.309115,10.5115814 C125.890018,10.0689885 126.71988,9.84769205 127.771038,9.84769205 C128.296617,9.84769205 128.822196,9.90301616 129.320113,10.0136644 C129.81803,10.1243126 130.260623,10.2626229 130.592568,10.4562573 L130.315947,12.3926012 C129.956341,12.1989668 129.569072,12.0606566 129.126479,11.9500083 C128.711548,11.8946842 128.296617,11.8393601 127.93701,11.8393601 M119.223463,15.8780203 C119.749042,15.8780203 120.136311,15.712048 120.440593,15.3801033 C120.744876,15.0481586 120.910848,14.6055657 120.910848,14.0246626 C120.910848,13.4714214 120.744876,13.0288285 120.440593,12.6692218 C120.136311,12.3372771 119.72138,12.1436427 119.223463,12.1436427 C118.697884,12.1436427 118.310615,12.3096151 117.97867,12.6692218 C117.674388,13.0011665 117.508415,13.4714214 117.508415,14.0246626 C117.508415,14.5779037 117.674388,15.0481586 117.97867,15.3801033 C118.310615,15.6843859 118.697884,15.8780203 119.223463,15.8780203 M119.223463,18.1463089 C118.587235,18.1463089 118.033994,18.0356607 117.508415,17.8420263 C116.982836,17.6483919 116.540243,17.3441093 116.152975,16.9845026 C115.765706,16.6248959 115.489085,16.1823029 115.267789,15.6843859 C115.046492,15.1864689 114.935844,14.6332278 114.935844,14.0246626 C114.935844,13.4437594 115.046492,12.8905182 115.267789,12.3926012 C115.489085,11.8946842 115.793368,11.4520913 116.152975,11.0924846 C116.540243,10.7328779 116.982836,10.4285952 117.508415,10.2349608 C118.033994,10.0413264 118.587235,9.93067822 119.223463,9.93067822 C119.832028,9.93067822 120.412931,10.0413264 120.93851,10.2349608 C121.464089,10.4285952 121.906682,10.7328779 122.293951,11.0924846 C122.68122,11.4520913 122.985502,11.8946842 123.179137,12.3926012 C123.400433,12.8905182 123.483419,13.4437594 123.483419,14.0523246 C123.483419,14.6332278 123.372771,15.1864689 123.151475,15.6843859 C122.930178,16.1823029 122.625896,16.6248959 122.266289,16.9845026 C121.87902,17.3441093 121.436427,17.6483919 120.910848,17.8420263 C120.412931,18.0356607 119.832028,18.1463089 119.223463,18.1463089 M108.905516,10.1243126 L111.533411,10.1243126 L111.561073,11.286119 C111.754708,10.8711881 112.003666,10.5392435 112.335611,10.317947 C112.667555,10.0966506 113.054824,9.98600233 113.497417,9.98600233 C113.829362,9.98600233 114.133644,10.0413264 114.382603,10.1519747 L114.161306,12.7245459 C114.022996,12.6692218 113.857024,12.6138977 113.691051,12.5862356 C113.497417,12.5585736 113.331445,12.5309115 113.165472,12.5309115 C112.114314,12.5309115 111.588735,13.2224629 111.588735,14.6055657 L111.588735,17.9526746 L108.877854,17.9526746 L108.877854,10.1243126 L108.905516,10.1243126 Z M105.088152,13.1394768 C105.032828,12.7245459 104.894518,12.4202633 104.673221,12.1713048 C104.451925,11.9500083 104.147642,11.8393601 103.760373,11.8393601 C102.985836,11.8393601 102.515581,12.281953 102.349608,13.1394768 L105.088152,13.1394768 Z M107.605399,17.3164473 C107.21813,17.5654058 106.747875,17.7867022 106.166972,17.9250125 C105.613731,18.0633228 105.032828,18.1463089 104.424263,18.1463089 C103.705049,18.1463089 103.04116,18.0633228 102.460257,17.8696884 C101.879353,17.676054 101.381436,17.3994334 100.994168,17.0398267 C100.579237,16.68022 100.274954,16.2376271 100.053658,15.73971 C99.8323613,15.214131 99.721713,14.6608899 99.721713,14.0246626 C99.721713,13.4160973 99.8323613,12.8628562 100.025996,12.3372771 C100.21963,11.8393601 100.496251,11.3967672 100.855857,11.0371605 C101.215464,10.6775537 101.658057,10.4009332 102.155974,10.1796367 C102.653891,9.98600233 103.207132,9.87535411 103.815697,9.87535411 C104.396601,9.87535411 104.92218,9.95834028 105.392435,10.1519747 C105.86269,10.3456091 106.27762,10.5945676 106.609565,10.9265122 C106.94151,11.2584569 107.190468,11.6733878 107.384103,12.1436427 C107.550075,12.6138977 107.660723,13.1671388 107.660723,13.775704 C107.660723,14.1353108 107.633061,14.4672555 107.577737,14.716214 L102.460257,14.716214 C102.736877,15.6013998 103.483753,16.0439927 104.728545,16.0439927 C105.06049,16.0439927 105.420097,15.9886686 105.779703,15.9056824 C106.166972,15.8226962 106.498917,15.712048 106.775537,15.6013998 L107.605399,17.3164473 Z M94.7148809,12.9458424 L93.4147642,9.04549242 L92.1146476,12.9458424 L94.7148809,12.9458424 Z M91.9486752,6.44525912 L95.0744876,6.44525912 L99.5557407,17.9250125 L96.3746042,17.9250125 L95.4894184,15.2971171 L91.3124479,15.2971171 L90.4272621,17.9250125 L87.412098,17.9250125 L91.9486752,6.44525912 Z M80.9391768,11.8393601 C80.3859357,11.8393601 80.1093151,11.9776704 80.1093151,12.281953 C80.1093151,12.4479253 80.1923013,12.5585736 80.3582736,12.6692218 C80.524246,12.752208 80.8285286,12.8628562 81.2711215,12.9735044 C82.2116314,13.1948009 82.9031828,13.5267455 83.3181136,13.9416764 C83.7330445,14.3566072 83.9543409,14.9375104 83.9543409,15.6290618 C83.9543409,16.4035994 83.6500583,17.0121646 83.0414931,17.4547575 C82.4329278,17.8973504 81.5754041,18.0909848 80.4412598,18.0909848 C79.8326946,18.0909848 79.2517914,18.0356607 78.6985502,17.8973504 C78.1453091,17.7590402 77.6750542,17.5654058 77.3431095,17.3441093 L78.2282953,15.73971 C78.5325779,15.8503583 78.8645226,15.9610065 79.2517914,16.0163306 C79.6113981,16.0993168 79.9710048,16.1269788 80.2752875,16.1269788 C80.9391768,16.1269788 81.2434594,15.9610065 81.2434594,15.6567239 C81.2434594,15.5737377 81.2157974,15.5184136 81.1881353,15.4354274 C81.1604733,15.3801033 81.1051491,15.3247792 81.022163,15.2694551 C80.9391768,15.214131 80.8285286,15.1588069 80.6625562,15.1311448 C80.524246,15.0758207 80.3306116,15.0204966 80.0816531,14.9651725 C79.6113981,14.8545242 79.1964673,14.716214 78.8645226,14.5502416 C78.5325779,14.3842693 78.2559573,14.1906349 78.0346609,13.9970005 C77.8133644,13.775704 77.6750542,13.5544076 77.5644059,13.277787 C77.4537577,13.0011665 77.4260957,12.6968839 77.4260957,12.3372771 C77.4260957,11.5627395 77.7303783,10.9541743 78.3112815,10.5115814 C78.8921846,10.0689885 79.7220463,9.84769205 80.7732045,9.84769205 C81.2987835,9.84769205 81.8243626,9.90301616 82.3222796,10.0136644 C82.8201966,10.1243126 83.2627895,10.2626229 83.5947342,10.4562573 L83.3181136,12.3926012 C82.9585069,12.1989668 82.5712381,12.0606566 82.1286452,11.9500083 C81.7137144,11.8946842 81.3264456,11.8393601 80.9391768,11.8393601 M68.5465756,10.1243126 L71.202133,10.1243126 L71.229795,11.0924846 C71.4234294,10.7052158 71.727712,10.4009332 72.1149808,10.2072988 C72.5022496,9.98600233 72.9448425,9.90301616 73.4704216,9.90301616 C74.3556074,9.90301616 75.0471588,10.1796367 75.4897517,10.7328779 C75.9600067,11.286119 76.1813031,12.1159807 76.1813031,13.1948009 L76.1813031,17.9250125 L73.4704216,17.9250125 L73.4704216,13.6927179 C73.4704216,12.77987 73.1108149,12.3096151 72.4192635,12.3096151 C72.0319947,12.3096151 71.7553741,12.4479253 71.5617397,12.6968839 C71.3681053,12.9458424 71.2574571,13.3331111 71.2574571,13.8033661 L71.2574571,17.9250125 L68.5465756,17.9250125 L68.5465756,10.1243126 Z M64.0653224,10.1243126 L66.776204,10.1243126 L66.776204,17.8973504 L64.0653224,17.8973504 L64.0653224,10.1243126 Z M65.4484253,8.90718214 C65.0058324,8.90718214 64.6462256,8.76887185 64.3696051,8.49225129 C64.0653224,8.21563073 63.9270122,7.88368605 63.9270122,7.46875521 C63.9270122,7.05382436 64.0653224,6.69421763 64.3696051,6.41759707 C64.6738877,6.1409765 65.0334944,6.00266622 65.4484253,6.00266622 C65.8910182,6.00266622 66.2506249,6.1409765 66.5272455,6.41759707 C66.8315281,6.69421763 66.9698384,7.05382436 66.9698384,7.46875521 C66.9698384,7.88368605 66.8315281,8.24329278 66.5272455,8.51991335 C66.2229628,8.76887185 65.8633561,8.90718214 65.4484253,8.90718214 M59.418097,6.44525912 L62.1289785,6.44525912 L62.1289785,17.9250125 L59.418097,17.9250125 L59.418097,6.44525912 Z M54.992168,6.44525912 L57.7030495,6.44525912 L57.7030495,17.9250125 L54.992168,17.9250125 L54.992168,6.44525912 Z M49.5704049,15.8780203 C50.095984,15.8780203 50.4832528,15.712048 50.7875354,15.3801033 C51.091818,15.0481586 51.2577904,14.6055657 51.2577904,14.0246626 C51.2577904,13.4714214 51.091818,13.0288285 50.7875354,12.6692218 C50.4832528,12.3372771 50.0683219,12.1436427 49.5704049,12.1436427 C49.0724879,12.1436427 48.6575571,12.3096151 48.3256124,12.6692218 C48.0213298,13.0011665 47.8553574,13.4714214 47.8553574,14.0246626 C47.8553574,14.5779037 48.0213298,15.0481586 48.3256124,15.3801033 C48.629895,15.6843859 49.0448259,15.8780203 49.5704049,15.8780203 M49.5704049,18.1463089 C48.9341776,18.1463089 48.3809365,18.0356607 47.8553574,17.8143643 C47.3297784,17.5930678 46.8871855,17.2887852 46.4999167,16.9015164 C46.1126479,16.5142476 45.8083653,16.0716547 45.5870688,15.5460757 C45.3657724,15.0204966 45.2551241,14.4672555 45.2551241,13.8586902 C45.2551241,13.277787 45.3657724,12.7245459 45.5870688,12.2266289 C45.8083653,11.7287119 46.1126479,11.313781 46.4999167,10.9818364 C46.8871855,10.6222296 47.3297784,10.3732711 47.8553574,10.1796367 C48.3809365,9.98600233 48.9618397,9.90301616 49.5704049,9.90301616 C50.1789702,9.90301616 50.7598734,10.0136644 51.2854524,10.2072988 C51.8110315,10.4009332 52.2536244,10.7052158 52.6408932,11.0648225 C53.028162,11.4244293 53.3324446,11.8670222 53.526079,12.3649392 C53.7473754,12.8628562 53.8303616,13.4160973 53.8303616,14.0246626 C53.8303616,14.6055657 53.7197134,15.1588069 53.4984169,15.6567239 C53.2771205,16.1546409 52.9728379,16.5972338 52.6132311,16.9568405 C52.2259623,17.3164473 51.7833694,17.6207299 51.2577904,17.8143643 C50.7598734,18.0356607 50.1789702,18.1463089 49.5704049,18.1463089 M44.6188969,16.8185302 C44.0933178,17.2334611 43.4570905,17.5377437 42.737877,17.7590402 C42.0186636,17.9803366 41.271788,18.0633228 40.4695884,18.0633228 C39.5567405,18.0633228 38.7268789,17.9250125 37.9800033,17.676054 C37.2607899,17.4270955 36.6245626,17.0398267 36.1266456,16.5419097 C35.6010665,16.0439927 35.2137977,15.4354274 34.9371771,14.6885519 C34.6605566,13.9693384 34.5222463,13.1394768 34.5222463,12.1989668 C34.5222463,11.313781 34.6882186,10.5115814 34.9925012,9.79236794 C35.2967839,9.07315447 35.7393768,8.43692718 36.2926179,7.91134811 C36.845859,7.38576904 37.5097484,6.97083819 38.284286,6.69421763 C39.0588235,6.38993501 39.8886852,6.25162473 40.8291951,6.25162473 C41.1611398,6.25162473 41.4930845,6.27928679 41.8526912,6.30694884 C42.212298,6.36227295 42.5442426,6.41759707 42.8761873,6.50058324 C43.208132,6.58356941 43.5124146,6.69421763 43.8166972,6.80486586 C44.1209798,6.91551408 44.3699383,7.05382436 44.5912348,7.16447259 L43.3464423,9.51574738 C43.1251458,9.40509915 42.9315114,9.32211298 42.737877,9.23912681 C42.5442426,9.15614064 42.3782703,9.10081653 42.212298,9.04549242 C42.0463256,8.99016831 41.8526912,8.96250625 41.6590568,8.93484419 C41.4654224,8.90718214 41.244126,8.90718214 41.0228295,8.90718214 C39.9993334,8.90718214 39.1694718,9.1838027 38.5885686,9.76470588 C38.0076654,10.3456091 37.7033828,11.1478087 37.7033828,12.1436427 C37.7033828,12.6138977 37.7863689,13.0564906 37.9246792,13.4437594 C38.0629895,13.8310282 38.284286,14.1629728 38.5609065,14.4672555 C38.8375271,14.743876 39.1694718,14.9651725 39.5567405,15.1311448 C39.9440093,15.2971171 40.3866022,15.3524413 40.8568572,15.3524413 C41.3271121,15.3524413 41.769705,15.2694551 42.1846359,15.1311448 C42.5995667,14.9651725 43.0144976,14.743876 43.4017664,14.4672555 L44.6188969,16.8185302 Z M11.0924846,0.165972338 C11.3967672,0.110648225 11.7010498,0.0553241126 12.0329945,-7.86202927e-15 L13.4990835,8.35394101 C13.1671388,8.38160307 12.8628562,8.43692718 12.5585736,8.51991335 L11.0924846,0.165972338 Z M10.7328779,9.37743709 C11.0371605,9.15614064 11.3691051,8.96250625 11.7287119,8.82419597 L7.52407932,1.46608899 C7.19213464,1.63206132 6.86018997,1.82569572 6.55590735,2.04699217 L10.7328779,9.37743709 Z M8.32627895,13.9970005 C8.32627895,13.6927179 8.35394101,13.3607732 8.40926512,13.0841526 L0.0276620563,13.0841526 C0,13.3884353 0,13.6650558 0,13.9693384 C0,14.245959 0,14.5225796 0.0276620563,14.7992001 L8.40926512,14.7992001 C8.35394101,14.5502416 8.32627895,14.2736211 8.32627895,13.9970005 M19.6953841,13.9970005 C19.6953841,17.1228129 17.1504749,19.667722 14.0246626,19.667722 C11.2031328,19.667722 8.87952008,17.6207299 8.43692718,14.9375104 L0.553241126,17.8143643 C0.719213464,18.4229295 0.940509915,19.0314948 1.18946842,19.6123979 L9.01783036,16.7355441 L2.62789535,22.1296451 C3.0428262,22.7105482 3.4854191,23.2361273 3.95567405,23.7340443 L9.93067822,18.671888 L6.03032828,25.5044159 C6.63889352,25.9470088 7.30278287,26.3342776 7.99433428,26.6385602 L11.6457257,20.2209632 L10.3732711,27.523746 C11.1478087,27.7450425 11.9776704,27.8833528 12.8075321,27.9386769 L13.9970005,21.106149 L15.1864689,27.9386769 C16.0439927,27.8556907 16.9015164,27.7173804 17.7313781,27.496084 L16.6248959,21.1614731 L19.8336944,26.7215464 C20.7188802,26.3342776 21.5487419,25.8363606 22.2956174,25.2831195 L19.3634394,20.1656391 L23.8446926,23.9553408 C24.563906,23.2361273 25.2001333,22.4615897 25.7533744,21.631728 L21.7423763,18.2569572 L26.6385602,20.0549908 C27.0811531,19.1144809 27.4407599,18.1186469 27.6897184,17.0674888 L23.3744376,15.4907515 L27.9386769,15.4907515 C27.994001,14.9651725 28.0216631,14.4395934 28.0216631,13.8863523 C28.0216631,13.250125 27.9663389,12.6415597 27.9110148,12.0329945 L19.3634394,12.0329945 C19.5847359,12.7245459 19.6953841,13.3607732 19.6953841,13.9970005 M8.46458924,12.7245459 C8.57523746,12.2266289 8.76887185,11.7563739 8.99016831,11.313781 L1.10648225,8.40926512 C0.912847859,8.87952008 0.746875521,9.34977504 0.580903183,9.84769205 L8.46458924,12.7245459 Z M24.563906,4.70254958 L18.1463089,10.1243126 C18.3122813,10.290285 18.4505916,10.4562573 18.5889018,10.6498917 L25.0064989,5.22812865 C24.8681886,5.03449425 24.7298784,4.86852191 24.563906,4.70254958 M21.3827695,1.964006 C21.1614731,1.82569572 20.9401766,1.68738544 20.6912181,1.54907515 L16.4865856,8.87952008 C16.7355441,8.99016831 16.9568405,9.12847859 17.178137,9.26678887 L21.3827695,1.964006 Z M10.1519747,9.84769205 L3.70671555,4.39826696 C3.40243293,4.73021163 3.12581236,5.06215631 2.8491918,5.42176304 L9.26678887,10.8435261 C9.54340943,10.4839193 9.82003,10.1519747 10.1519747,9.84769205 M14.5779037,8.35394101 C14.8545242,8.38160307 15.1588069,8.43692718 15.4077654,8.49225129 L16.8738544,0.138310282 C16.5972338,0.082986169 16.3206132,0.0276620563 16.0439927,-7.86202927e-15 L14.5779037,8.35394101 Z" id="Shape"></path></g></g></svg> 