<?xml version="1.0" encoding="UTF-8"?> <svg xmlns="http://www.w3.org/2000/svg" xmlns:xlink="http://www.w3.org/1999/xlink" width="1725px" height="454px" viewBox="0 0 1725 454" version="1.1"><title>cymstar</title><defs><polygon id="path-1" points="2.84217094e-14 0 170.432515 0 170.432515 247.074363 2.84217094e-14 247.074363"></polygon></defs><g id="cymstar" stroke="none" stroke-width="1" fill="none" fill-rule="evenodd"><g id="Group-20" transform="translate(-0.000000, 0.000000)"><path d="M1426.7387,182.5578 L1426.7387,246.7048 C1442.9267,246.7048 1458.7387,246.9258 1474.5407,246.6268 C1485.1197,246.4278 1495.7107,245.6388 1505.6747,241.4448 C1511.2477,239.0988 1516.1587,235.8958 1519.3327,230.5788 C1522.6737,224.9828 1523.6757,218.8308 1523.2947,212.4208 C1522.6377,201.3968 1517.7877,192.9528 1508.0067,187.4158 C1501.9057,183.9628 1495.1057,182.8618 1488.4577,182.7188 C1468.0107,182.2778 1447.5497,182.5578 1426.7387,182.5578 M1515.3167,275.9288 C1521.3907,281.0828 1527.8507,285.7198 1533.2877,291.3418 C1547.8657,306.4158 1559.7367,323.4978 1568.6927,342.4798 C1571.9187,349.3168 1575.0217,356.3018 1577.2057,363.5138 C1579.6397,371.5468 1575.5197,379.8928 1568.1077,383.9598 C1557.7347,389.6518 1544.1267,389.7248 1534.6737,378.8058 C1529.6247,372.9738 1525.5077,366.2888 1521.3467,359.7498 C1509.8087,341.6198 1498.6147,323.2708 1486.9737,305.2088 C1482.8497,298.8098 1477.4977,293.3618 1471.1097,288.9658 C1463.5437,283.7588 1455.0077,282.2868 1446.1597,281.9888 C1439.7157,281.7708 1433.2587,281.9458 1426.3587,281.9458 C1426.3587,284.1298 1426.3587,285.9218 1426.3587,287.7138 C1426.3577,310.9918 1426.4817,334.2718 1426.2557,357.5478 C1426.2077,362.4368 1425.4067,367.4698 1424.0217,372.1628 C1420.7557,383.2338 1409.7987,388.5338 1399.1017,387.5478 C1385.4437,386.2898 1378.5487,376.4658 1377.3767,365.1418 C1377.0367,361.8568 1376.7627,358.5458 1376.7607,355.2458 C1376.7237,295.0548 1376.6817,234.8628 1376.8337,174.6728 C1376.8457,169.9688 1377.9967,165.1988 1379.1207,160.5828 C1380.9947,152.8848 1386.6377,148.6308 1393.9017,146.7688 C1398.4897,145.5928 1403.3557,145.0348 1408.1017,145.0088 C1436.2457,144.8518 1464.3967,144.6198 1492.5357,145.0698 C1505.5527,145.2778 1518.7377,145.4328 1531.2487,150.2228 C1555.6267,159.5568 1570.2597,176.5998 1573.3067,202.8698 C1575.3497,220.4878 1572.2497,236.8048 1560.8157,250.9398 C1553.1737,260.3878 1543.0357,266.1848 1531.8667,270.3608 C1526.3757,272.4148 1520.7517,274.1128 1515.3167,275.9288" id="Fill-1" fill="#033296"></path><path d="M476.201099,230.2638 C483.113099,225.1188 489.715099,219.2468 497.191099,214.8568 C509.359099,207.7128 522.866099,205.7088 536.921099,207.1198 C546.621099,208.0938 555.652099,210.7758 563.670099,216.4578 C569.684099,220.7188 574.469099,226.1308 578.608099,232.6298 C581.691099,229.6888 584.605099,226.8498 587.583099,224.0798 C602.404099,210.2928 619.867099,205.0168 639.964099,207.2668 C650.024099,208.3938 659.406099,211.0988 667.802099,216.6518 C677.898099,223.3298 684.430099,232.7968 686.624099,244.6388 C688.214099,253.2168 689.208099,262.0208 689.306099,270.7368 C689.630099,299.6598 689.521099,328.5898 689.365099,357.5168 C689.324099,365.0878 688.772099,372.7088 683.675099,379.0618 C677.713099,386.4918 669.935099,388.9918 660.774099,387.3128 C651.421099,385.5988 645.359099,379.8808 642.919099,370.8348 C641.732099,366.4318 641.265099,361.7198 641.234099,357.1428 C641.074099,333.3708 641.268099,309.5958 641.099099,285.8228 C641.042099,277.8878 640.670099,269.9108 639.746099,262.0338 C637.812099,245.5408 626.362099,239.3918 610.955099,243.2598 C596.599099,246.8638 589.070099,257.0928 586.816099,271.4818 C585.118099,282.3238 584.740099,293.2258 584.797099,304.1768 C584.893099,322.4638 584.947099,340.7538 584.733099,359.0378 C584.682099,363.4388 584.051099,367.9918 582.751099,372.1868 C579.613099,382.3188 570.734099,388.2438 559.530099,387.7308 C548.065099,387.2058 540.101099,380.3108 537.919099,369.4798 C537.303099,366.4218 536.920099,363.2628 536.908099,360.1478 C536.808099,334.0478 537.070099,307.9428 536.656099,281.8488 C536.519099,273.1678 536.698099,264.3258 533.952099,255.8118 C531.140099,247.0968 524.452099,241.7278 515.521099,242.3628 C511.084099,242.6778 506.535099,242.6118 502.248099,243.6178 C490.634099,246.3428 485.540099,255.1338 482.941099,265.8078 C480.227099,276.9578 479.514099,288.3278 479.539099,299.7698 C479.579099,318.2228 479.697099,336.6788 479.460099,355.1288 C479.389099,360.6998 479.043099,366.4948 477.445099,371.7708 C473.943099,383.3318 464.575099,388.2908 454.141099,387.7328 C441.933099,387.0808 433.917099,378.7148 432.011099,367.3748 C431.438099,363.9668 431.314099,360.4518 431.310099,356.9858 C431.265099,315.4238 431.227099,273.8608 431.367099,232.2988 C431.381099,228.2458 432.146099,224.0608 433.340099,220.1738 C436.104099,211.1738 445.641099,205.9258 454.582099,206.3888 C463.480099,206.8488 471.768099,212.4608 474.364099,220.8498 C475.370099,224.1028 475.693099,227.5668 476.201099,230.2638" id="Fill-3" fill="#033295"></path><path d="M814.894599,387.8139 C794.040599,387.1859 774.861599,384.9399 757.480599,375.2099 C737.791599,364.1889 724.553599,347.9249 719.424599,325.7489 C717.768599,318.5889 718.037599,311.2759 722.587599,304.8769 C730.720599,293.4359 750.761599,290.4189 760.031599,308.3849 C763.730599,315.5529 766.937599,322.9809 770.787599,330.0639 C778.242599,343.7799 790.482599,349.9559 805.620599,351.1309 C814.580599,351.8269 823.513599,351.6139 832.216599,349.0949 C840.991599,346.5549 848.708599,342.1719 854.521599,334.9849 C864.372599,322.8019 864.018599,301.2739 843.887599,291.0989 C834.361599,286.2839 824.088599,283.9919 813.913599,281.2489 C800.737599,277.6969 787.460599,274.4199 774.503599,270.1819 C759.402599,265.2429 745.677599,257.7879 735.369599,245.1149 C728.127599,236.2119 724.559599,226.0859 723.634599,214.7169 C722.885599,205.5219 723.649599,196.7139 726.566599,187.8959 C730.803599,175.0859 738.757599,165.2999 749.664599,157.7699 C762.580599,148.8519 777.203599,144.3999 792.630599,142.6329 C801.179599,141.6529 809.831599,140.8999 818.417599,141.0569 C838.803599,141.4299 858.151599,145.9189 875.085599,157.9669 C887.514599,166.8079 896.373599,178.1909 899.291599,193.5309 C902.396599,209.8579 890.334599,223.1929 876.113599,222.4309 C869.628599,222.0829 864.633599,219.3209 861.181599,213.9479 C857.972599,208.9529 854.878599,203.8729 851.999599,198.6839 C848.316599,192.0429 843.505599,186.3099 837.398599,181.9789 C832.520599,178.5189 826.506599,177.1199 820.566599,176.6619 C809.479599,175.8059 798.439599,175.8289 787.839599,180.2109 C781.871599,182.6779 776.889599,186.3009 773.084599,191.4249 C767.386599,199.0979 767.627599,212.2809 777.099599,219.8679 C784.518599,225.8109 793.183599,228.8359 802.076599,231.3219 C819.429599,236.1719 836.957599,240.4199 854.224599,245.5499 C866.297599,249.1369 877.847599,254.3669 887.770599,262.2649 C898.683599,270.9519 906.066599,282.0319 908.770599,296.0479 C911.597599,310.7039 910.940599,325.0359 905.310599,338.8799 C897.689599,357.6189 883.702599,370.1269 865.398599,378.1259 C852.357599,383.8249 838.644599,386.5309 824.463599,387.1229 C820.825599,387.2749 817.197599,387.6439 814.894599,387.8139" id="Fill-5" fill="#023295"></path><path d="M1267.5432,289.4127 C1255.8292,257.4927 1244.2522,225.9457 1232.6742,194.3987 C1232.3622,194.4267 1232.0492,194.4547 1231.7362,194.4827 C1220.3632,226.0297 1208.9902,257.5777 1197.5132,289.4127 L1267.5432,289.4127 Z M1281.0832,326.8307 C1264.0282,326.8307 1247.3902,326.8307 1230.7522,326.8307 C1216.6012,326.8307 1202.4492,326.9437 1188.3012,326.7467 C1184.9992,326.7007 1183.6002,328.0367 1182.5212,330.8497 C1177.2772,344.5187 1171.9052,358.1397 1166.5462,371.7647 C1166.0112,373.1247 1165.1502,374.3557 1164.6142,375.7147 C1158.9972,389.9767 1141.6722,389.8037 1132.7122,383.7627 C1122.1922,376.6697 1118.9252,366.1627 1123.6222,354.2707 C1131.1252,335.2737 1138.6352,316.2797 1146.1892,297.3027 C1159.8332,263.0287 1173.5232,228.7737 1187.1652,194.4987 C1190.6932,185.6377 1193.8992,176.6427 1197.6532,167.8797 C1200.6472,160.8907 1203.9312,153.9427 1209.8302,148.7567 C1223.5412,136.7037 1252.4442,136.9167 1263.4272,159.2717 C1269.3092,171.2427 1274.2492,183.6847 1279.3732,196.0147 C1287.4552,215.4607 1295.3522,234.9817 1303.2922,254.4857 C1311.7292,275.2117 1320.1412,295.9477 1328.5322,316.6927 C1333.3492,328.6047 1338.2272,340.4947 1342.8052,352.4977 C1344.1442,356.0067 1344.9642,359.8357 1345.2982,363.5817 C1346.2322,374.0327 1337.5812,384.6357 1326.3772,387.0497 C1316.0482,389.2747 1305.9182,385.2177 1301.4142,375.4907 C1296.3672,364.5917 1291.8762,353.4347 1287.2252,342.3557 C1285.1262,337.3537 1283.2262,332.2677 1281.0832,326.8307 L1281.0832,326.8307 Z" id="Fill-7" fill="#033296"></path><path d="M50.8094995,269.0733 C50.9264995,281.5513 52.4494995,296.5783 58.1354995,310.9183 C66.0514995,330.8813 80.1014995,343.4753 101.648499,347.1743 C114.654499,349.4063 127.362499,348.5323 139.594499,343.5013 C153.010499,337.9833 161.761499,327.6723 167.839499,314.8913 C169.807499,310.7513 171.221499,306.3513 173.084499,302.1573 C174.211499,299.6203 175.627499,297.1973 177.066499,294.8153 C181.746499,287.0633 191.067499,284.6113 200.352499,287.4783 C208.399499,289.9633 213.731499,295.7723 215.108499,304.5123 C216.463499,313.1083 214.429499,321.2903 211.273499,329.0733 C198.883499,359.6293 175.503499,377.3823 144.006499,384.9383 C130.924499,388.0773 117.539499,388.3363 104.045499,387.2723 C92.6124995,386.3703 81.4184995,384.6833 70.6084995,380.9653 C51.4084995,374.3593 36.1414995,362.4853 24.2284995,346.0893 C11.6304995,328.7523 4.44549949,309.2643 1.48549949,288.2823 C-0.482500509,274.3253 -0.345500509,260.2453 1.02249949,246.1263 C2.86649949,227.0863 8.50349949,209.3653 18.2344995,193.0283 C27.2904995,177.8243 39.7074995,165.7633 55.0184995,156.7933 C70.4844995,147.7313 87.2134995,142.9503 105.099499,141.4273 C124.405499,139.7833 143.045499,142.0153 160.858499,149.5633 C183.201499,159.0323 201.446499,173.2163 211.084499,196.2783 C213.152499,201.2273 214.458499,206.7323 214.874499,212.0773 C215.563499,220.9223 211.354499,227.9113 203.758499,232.2943 C196.884499,236.2613 189.313499,236.3633 182.568499,232.1893 C179.104499,230.0453 176.377499,226.3593 173.998499,222.9033 C169.984499,217.0713 166.866499,210.6153 162.740499,204.8723 C153.639499,192.2033 142.022499,183.2883 125.899499,181.1673 C109.340499,178.9893 93.7604995,181.1463 80.0834995,191.1793 C67.0374995,200.7483 59.4754995,214.1733 55.2244995,229.5233 C51.8984995,241.5373 50.7244995,253.8533 50.8094995,269.0733" id="Fill-9" fill="#023195"></path><g id="Group-13" transform="translate(230.590326, 206.603237)"><mask id="mask-2" fill="white"><use xlink:href="#path-1"></use></mask><g id="Clip-12"></g><path d="M88.9441735,130.182163 C96.6001735,108.441163 103.888174,87.3531626 111.459174,66.3661626 C117.756174,48.9101626 124.374174,31.5691626 130.886174,14.1911626 C131.400174,12.8181626 132.231174,11.5661626 132.861174,10.2311626 C136.517174,2.48216264 143.083174,-0.592837362 151.121174,0.0931626381 C159.781174,0.831162638 166.288174,5.09516264 169.446174,13.7581626 C171.359174,19.0041626 170.179174,23.9671626 168.534174,28.7651626 C164.170174,41.5001626 159.579174,54.1611626 154.824174,66.7561626 C147.109174,87.1931626 139.266174,107.583163 131.338174,127.939163 C121.087174,154.265163 110.858174,180.602163 100.289174,206.802163 C96.3231735,216.631163 91.0911735,225.873163 83.2131735,233.290163 C74.6701735,241.332163 64.1951735,244.900163 52.7911735,246.288163 C41.3581735,247.679163 29.9771735,247.155163 18.6491735,245.264163 C12.8421735,244.295163 7.27517351,242.496163 3.50217351,237.687163 C-0.898826488,232.078163 -0.765826488,225.521163 1.77117351,219.391163 C4.30317351,213.275163 10.1731735,211.238163 16.3401735,210.836163 C19.7621735,210.612163 23.2431735,211.471163 26.7071735,211.646163 C31.3061735,211.878163 35.9461735,212.310163 40.5121735,211.946163 C46.4831735,211.471163 50.6211735,207.472163 53.2301735,202.581163 C57.3221735,194.910163 60.7461735,186.876163 64.2331735,178.901163 C64.7821735,177.645163 64.5751735,175.725163 64.0411735,174.381163 C46.7751735,130.911163 29.4191735,87.4761626 12.0981735,44.0281626 C10.2121735,39.2981626 8.27917351,34.5751626 6.66917351,29.7481626 C3.89417351,21.4271626 4.98817351,13.7371626 11.3841735,7.33916264 C17.8561735,0.865162638 25.6021735,-1.52883736 34.5211735,1.11716264 C38.4161735,2.27316264 41.5071735,4.73216264 43.8861735,8.12616264 C48.4021735,14.5691626 50.8191735,21.9261626 53.3591735,29.2321626 C64.1991735,60.4151626 75.0031735,91.6101626 85.8541735,122.789163 C86.6531735,125.084163 87.7251735,127.285163 88.9441735,130.182163" id="Fill-11" fill="#023195" mask="url(#mask-2)"></path></g><path d="M1002.9474,186.1411 L997.531399,186.1411 C982.045399,186.1411 966.553399,186.3951 951.078399,185.9981 C945.903399,185.8661 940.407399,184.9031 935.701399,182.8501 C927.653399,179.3391 924.205399,170.8611 925.798399,161.5891 C927.236399,153.2181 933.987399,146.9611 943.284399,145.6371 C946.553399,145.1721 949.885399,144.9601 953.188399,144.9571 C1003.6424,144.9161 1054.0954,144.8861 1104.5484,145.0061 C1108.8034,145.0161 1113.2174,145.5811 1117.2744,146.8171 C1126.0194,149.4821 1130.6964,156.6881 1130.5664,166.1211 C1130.4414,175.2221 1125.6144,181.8481 1116.6064,184.4201 C1112.8344,185.4971 1108.7864,186.0211 1104.8554,186.0661 C1089.2054,186.2481 1073.5514,186.1411 1057.8994,186.1411 L1052.6214,186.1411 C1052.6214,188.5831 1052.6214,190.5431 1052.6214,192.5031 C1052.6004,248.8601 1052.6494,305.2171 1052.4804,361.5741 C1052.4564,369.7221 1049.9624,377.2901 1043.1224,382.5731 C1030.1274,392.6091 1008.4644,387.4621 1004.6274,369.2521 C1003.6454,364.5931 1003.0274,359.7631 1003.0174,355.0091 C1002.9074,300.9801 1002.9474,246.9501 1002.9474,192.9201 L1002.9474,186.1411 Z" id="Fill-14" fill="#033396"></path><path d="M1618.8478,98.346 C1614.7238,99.246 1610.7208,100.119 1606.7178,100.992 C1609.7718,102.367 1612.8718,103.194 1616.0268,103.609 C1617.9668,103.863 1618.9518,104.462 1619.3248,106.489 C1619.9298,109.77 1620.8648,112.99 1621.8598,117.052 C1622.7698,113.725 1623.8268,111.155 1624.1078,108.503 C1624.4468,105.302 1625.7648,103.892 1629.0038,103.547 C1631.6308,103.266 1634.1758,102.214 1637.4148,101.322 C1633.9008,100.321 1631.2938,99.119 1628.6148,98.932 C1625.3978,98.708 1624.5578,97.137 1624.1688,94.364 C1623.8158,91.853 1622.9288,89.416 1622.2778,86.946 C1622.0488,87.015 1621.8188,87.085 1621.5898,87.154 C1620.6718,90.902 1619.7528,94.651 1618.8478,98.346 M1514.3468,102.005 C1519.8518,100.778 1524.3138,99.718 1528.8038,98.793 C1551.9658,94.021 1575.1258,89.245 1598.3108,84.59 C1600.7448,84.101 1601.8018,83.371 1602.3808,80.689 C1607.7228,55.987 1613.3118,31.337 1618.8368,6.674 C1619.3358,4.444 1619.8888,2.225 1620.9928,0 C1623.8208,11.687 1626.6648,23.37 1629.4718,35.062 C1633.0968,50.162 1636.7328,65.26 1640.2558,80.384 C1640.7588,82.544 1641.9158,83.266 1643.9248,83.707 C1666.3818,88.64 1688.8218,93.648 1711.2618,98.658 C1715.7598,99.662 1720.2378,100.755 1724.7908,102.383 C1717.4218,104.11 1710.0698,105.912 1702.6808,107.55 C1682.7028,111.978 1662.7188,116.381 1642.7088,120.667 C1640.2578,121.192 1639.6458,122.515 1639.1668,124.672 C1635.2598,142.248 1631.2428,159.8 1627.2398,177.355 C1625.1878,186.354 1623.0958,195.344 1620.3088,204.355 C1618.1728,194.737 1616.0208,185.123 1613.9018,175.502 C1610.1008,158.242 1606.2618,140.989 1602.5878,123.702 C1601.9938,120.909 1600.5638,120.108 1597.9438,119.579 C1571.6928,114.282 1545.4738,108.831 1519.2498,103.404 C1517.9648,103.138 1516.7188,102.688 1514.3468,102.005" id="Fill-16" fill="#D70342"></path><path d="M1618.8478,98.346 C1619.7528,94.651 1620.6718,90.902 1621.5898,87.154 C1621.8188,87.085 1622.0488,87.015 1622.2778,86.946 C1622.9288,89.416 1623.8158,91.853 1624.1688,94.364 C1624.5578,97.137 1625.3978,98.708 1628.6148,98.932 C1631.2938,99.119 1633.9008,100.321 1637.4148,101.322 C1634.1758,102.214 1631.6308,103.266 1629.0038,103.547 C1625.7648,103.892 1624.4468,105.302 1624.1078,108.503 C1623.8268,111.155 1622.7698,113.725 1621.8598,117.052 C1620.8648,112.99 1619.9298,109.77 1619.3248,106.489 C1618.9518,104.462 1617.9668,103.863 1616.0268,103.609 C1612.8718,103.194 1609.7718,102.367 1606.7178,100.992 C1610.7208,100.119 1614.7238,99.246 1618.8478,98.346" id="Fill-18" fill="#FED9E5"></path></g></g></svg> 