<?xml version="1.0" encoding="UTF-8"?> <svg xmlns="http://www.w3.org/2000/svg" xmlns:xlink="http://www.w3.org/1999/xlink" width="166px" height="50px" viewBox="0 0 166 50" version="1.1"><title>Artboard</title><g id="Artboard" stroke="none" stroke-width="1" fill="none" fill-rule="evenodd"><g id="Group-2" fill-rule="nonzero"><path d="M62.6693991,34.0950953 C61.9890248,34.0950953 61.57882,33.5441477 61.7669484,32.8517502 L66.175236,16.3890981 C66.3633645,15.7087239 67.067078,15.1464603 67.7474522,15.1464603 L83.08487,15.1464603 L83.5304373,13.4929105 C83.7772675,12.5784366 83.2376359,11.8400678 82.323162,11.8400678 L66.3287092,11.8400678 C65.0980947,11.8400678 63.8314104,12.8365827 63.5032465,14.0679045 L57.8388834,35.1750656 C57.5107195,36.4063874 58.2377722,37.4029023 59.469094,37.4029023 L75.4635468,37.4029023 C76.3780207,37.4029023 77.3165411,36.6638263 77.562664,35.7493524 L78.0082314,34.0958025 L62.6693991,34.0958025 L62.6693991,34.0950953 Z" id="Path" fill="#FFD532"></path><path d="M90.1198831,5.24850029 L61.4847558,5.24850029 C60.2541412,5.24850029 58.987457,6.24572242 58.6592931,7.47633696 L49.466461,41.7758274 C49.1375899,43.0064419 49.8646426,44.0029568 51.0959644,44.0029568 L79.7310917,44.0029568 C80.9624135,44.0029568 82.2283905,43.0064419 82.5565544,41.7758274 L84.0226831,36.3229319 C84.350847,35.0916101 83.6245015,34.0950953 82.3924725,34.0950953 L81.3139166,34.0950953 L79.8718344,39.4659498 C79.683706,40.146324 78.9799925,40.7092948 78.2996183,40.7092948 L54.2969767,40.7092948 C53.6166025,40.7092948 53.2063976,40.1583473 53.3945261,39.4659498 L61.3440131,9.78692184 C61.5321415,9.10725485 62.235855,8.54428406 62.9162293,8.54428406 L86.9188708,8.54428406 C87.599245,8.54428406 88.0094499,9.0952316 87.8220287,9.78692184 L86.3792392,15.1577763 L87.4577951,15.1577763 C88.6891169,15.1577763 89.9558012,14.1605542 90.283965,12.9299397 L91.7493865,7.47775146 C92.0789649,6.24572242 91.3519121,5.24850029 90.1198831,5.24850029" id="Path" fill="#202334"></path><polygon id="Path" fill="#202334" points="162.693607 30.7879955 159.386508 30.7879955 161.040058 24.6200706 155.646571 30.7879955 153.007115 30.7879955 150.909412 24.6200706 149.267178 30.7879955 145.960079 30.7879955 149.267178 18.4641689 152.574278 18.4641689 155.341039 26.8365912 162.693607 18.4641689 166 18.4641689"></polygon><path d="M140.449189,30.7879955 L131.689901,30.7879955 C130.458579,30.7879955 129.730819,29.7914806 130.05969,28.5608661 L132.170123,20.6927128 C132.498287,19.461391 133.764972,18.4648761 134.995586,18.4648761 L143.755581,18.4648761 C144.986903,18.4648761 145.714663,19.4620982 145.385792,20.6927128 L143.275359,28.5608661 C142.947195,29.7914806 141.680511,30.7879955 140.449189,30.7879955 M140.366441,27.1060534 L141.691827,22.146111 C141.879955,21.4657367 141.46975,20.9027659 140.788669,20.9027659 L136.661159,20.9027659 C135.981492,20.9027659 135.277779,21.4537135 135.090358,22.146111 L133.764972,27.1060534 C133.576843,27.7864276 133.987048,28.3493984 134.667422,28.3493984 L138.794932,28.3493984 C139.47672,28.3373752 140.179727,27.7864276 140.366441,27.1060534" id="Shape" fill="#202334"></path><path d="M126.75259,30.7879955 L116.856045,30.7879955 C115.636039,30.7879955 114.908986,29.7914806 115.237857,28.5721821 L117.348291,20.6686663 C117.676455,19.4493677 118.931116,18.4521456 120.162437,18.4521456 L130.058983,18.4521456 L129.730112,19.6601282 C129.542691,20.3405024 128.838977,20.9034732 128.15931,20.9034732 L121.826596,20.9034732 C121.146929,20.9034732 120.443216,21.4544207 120.255794,22.146111 L118.930408,27.1060534 C118.74228,27.7864276 119.153192,28.3493984 119.832859,28.3493984 L126.165573,28.3493984 C126.84524,28.3493984 127.255445,28.900346 127.068024,29.5920362 L126.75259,30.7879955 Z" id="Path" fill="#202334"></path><path d="M116.081606,18.4641689 L106.607289,30.800726 L102.421078,30.800726 L99.5595453,18.4641689 L102.56182,18.4641689 C103.030727,18.4641689 103.394253,18.7343383 103.488318,19.1565663 L105.41133,27.5169655 L111.802038,19.1565663 C112.118886,18.7343383 112.623155,18.4641689 113.092062,18.4641689 L116.081606,18.4641689 L116.081606,18.4641689 Z" id="Path" fill="#202334"></path><path d="M76.6121204,30.7879955 L65.6249957,30.7879955 L68.9313883,18.4521456 L79.9192202,18.4521456 C81.1498347,18.4521456 81.8775947,19.4486605 81.5487235,20.6799823 L79.4389976,28.5488428 C79.097396,29.7914806 77.8434422,30.7879955 76.6121204,30.7879955 M76.5180562,27.1060534 L77.8434422,22.146111 C78.0308634,21.4657367 77.6206585,20.9027659 76.9402843,20.9027659 L71.5694298,20.9027659 L69.5764,28.3373752 L74.9472545,28.3373752 C75.6382375,28.3373752 76.341951,27.7864276 76.5180562,27.1060534" id="Shape" fill="#202334"></path><path d="M94.2947783,30.7879955 L84.421572,30.7879955 C83.1902502,30.7879955 82.4631975,29.7914806 82.7913613,28.5608661 L84.9017945,20.6686663 C85.2306657,19.4373445 86.4966427,18.4408296 87.7159412,18.4408296 L97.5891476,18.4408296 C97.6011708,18.4408296 97.6011708,18.4521456 97.6011708,18.4641689 L97.2850302,19.6601282 C97.0969017,20.3405024 96.4059187,20.8914499 95.7255445,20.8914499 L88.1622158,20.8914499 C88.1501926,20.8914499 88.1388766,20.9034732 88.1388766,20.9147892 L87.66997,22.6624033 C87.66997,22.6744265 87.66997,22.6857425 87.6819933,22.6857425 L96.4533045,22.6857425 C96.4646205,22.6857425 96.4646205,22.6977658 96.4646205,22.7090818 L96.1484798,23.9050411 C95.9603514,24.5847081 95.2686612,25.1356556 94.5889942,25.1356556 L87.024251,25.1356556 C87.0122278,25.1356556 87.0009118,25.1476789 87.0009118,25.1589949 L86.1451396,28.3486912 L93.7197842,28.3486912 C94.4001585,28.3486912 94.7990473,28.8996387 94.6229422,29.580013 L94.3060943,30.775265 C94.3060943,30.7879955 94.3060943,30.7879955 94.2947783,30.7879955" id="Path" fill="#202334"></path><path d="M89.3581751,34.083072 L90.2139473,34.083072 L90.9289768,38.1985582 L89.9565084,38.1985582 L89.8157657,37.2840843 L88.0214731,37.2840843 L87.3877774,38.1985582 L86.437941,38.1985582 L89.3581751,34.083072 Z M89.6983622,36.4877211 L89.4876018,35.1623351 L88.5724207,36.4877211 L89.6983622,36.4877211 Z" id="Shape" fill="#202334"></path><path d="M92.348427,34.1064113 L94.2834623,34.1064113 C94.8223866,34.1064113 95.1979362,34.247154 95.4086966,34.5166161 C95.5848018,34.751423 95.6314803,35.0569549 95.5261001,35.4551365 L95.5261001,35.4671598 C95.4320359,35.7953236 95.2799772,36.065493 95.0571935,36.2762535 C94.8344098,36.4877211 94.5755564,36.6397798 94.2834623,36.7331368 L94.9277668,38.1985582 L93.8371877,38.1985582 L93.2862402,36.8859027 L93.2742169,36.8859027 L92.5591874,36.8859027 L92.2076843,38.1985582 L91.2804799,38.1985582 L92.348427,34.1064113 Z M93.685129,36.1001483 C93.9192287,36.1001483 94.1073571,36.054177 94.2594158,35.9367736 C94.4121817,35.8313934 94.506246,35.6899434 94.5529244,35.5145455 L94.5529244,35.501815 C94.5996029,35.3030778 94.5755564,35.1623351 94.4821995,35.0569549 C94.3768193,34.9621834 94.2127373,34.9162122 93.9772232,34.9162122 L93.0514332,34.9162122 L92.7352926,36.1001483 L93.685129,36.1001483 L93.685129,36.1001483 Z" id="Shape" fill="#202334"></path><polygon id="Path" fill="#202334" points="96.6166792 34.1064113 97.6252173 34.1064113 98.2695218 35.8427094 99.853054 34.1064113 100.849569 34.1064113 99.7589897 38.1992655 98.8331998 38.1992655 99.5475221 35.5258615 97.8953867 37.2727683 97.8713402 37.2727683 97.1563107 35.5492007 96.440574 38.1992655 95.5261001 38.1992655"></polygon><polygon id="Path" fill="#202334" points="102.268312 36.5810781 101.307159 34.1064113 102.385715 34.1064113 102.960709 35.7486451 104.426131 34.1064113 105.494078 34.1064113 103.206832 36.5690548 102.760558 38.1992655 101.834768 38.1992655"></polygon><path d="M107.580465,34.1064113 L109.5155,34.1064113 C110.055131,34.1064113 110.429974,34.247154 110.641441,34.5166161 C110.816839,34.751423 110.863518,35.0569549 110.758138,35.4551365 L110.758138,35.4671598 C110.664073,35.7953236 110.512015,36.065493 110.289231,36.2762535 C110.066447,36.4877211 109.808301,36.6397798 109.5155,36.7331368 L110.160512,38.1985582 L109.057202,38.1985582 L108.506962,36.8859027 L108.494938,36.8859027 L107.767886,36.8859027 L107.416383,38.1985582 L106.489178,38.1985582 L107.580465,34.1064113 Z M108.917874,36.1001483 C109.151973,36.1001483 109.340102,36.054177 109.492161,35.9367736 C109.644219,35.8313934 109.738284,35.6899434 109.784962,35.5145455 L109.784962,35.501815 C109.83164,35.3030778 109.808301,35.1623351 109.714237,35.0569549 C109.608857,34.9621834 109.444775,34.9162122 109.221991,34.9162122 L108.295494,34.9162122 L107.979353,36.1001483 L108.917874,36.1001483 L108.917874,36.1001483 Z" id="Shape" fill="#202334"></path><polygon id="Path" fill="#202334" points="111.848717 34.1064113 115.038413 34.1064113 114.815629 34.9034817 112.55243 34.9034817 112.329647 35.7366219 114.322676 35.7366219 114.111916 36.5343996 112.118886 36.5343996 111.884079 37.402195 114.182641 37.402195 113.971173 38.1992655 110.758138 38.1992655"></polygon><path d="M116.187694,38.2579672 C115.85953,38.2579672 115.566021,38.1992655 115.285243,38.0938853 C115.004465,37.9892123 114.769658,37.8244231 114.569506,37.6023467 L115.285243,36.9686509 C115.437302,37.1214169 115.601384,37.2381131 115.789512,37.3321773 C115.965617,37.4262415 116.176378,37.461604 116.423208,37.461604 C116.621945,37.461604 116.774711,37.4262415 116.904138,37.3562238 C117.032857,37.2854988 117.102875,37.1921419 117.138237,37.0754457 L117.138237,37.0634224 C117.150261,37.0047207 117.161577,36.9580422 117.150261,36.9106565 C117.138945,36.8632707 117.103582,36.8286155 117.056904,36.7812298 C117.010225,36.7458673 116.927477,36.6991888 116.822097,36.6638263 C116.716717,36.6284638 116.58729,36.5824926 116.423915,36.5471301 C116.224471,36.4884284 116.048366,36.4290194 115.884284,36.3710249 C115.731518,36.3123232 115.602798,36.2302822 115.496711,36.1482412 C115.403354,36.0548843 115.333336,35.9374808 115.30929,35.8087614 C115.273927,35.6680187 115.28595,35.5032295 115.344652,35.3044923 L115.344652,35.2924691 C115.390623,35.1043406 115.474079,34.9409659 115.590775,34.7882 C115.708179,34.6354341 115.837605,34.5067146 116.001687,34.4013344 C116.165062,34.2959542 116.341167,34.213206 116.541319,34.1545042 C116.740056,34.0958025 116.9395,34.06044 117.162284,34.06044 C117.467816,34.06044 117.748594,34.1071185 117.983401,34.1898667 C118.217501,34.2839309 118.428968,34.4013344 118.59305,34.5767323 L117.924699,35.2571066 C117.771933,35.1276799 117.608559,35.0343229 117.443769,34.9635979 C117.279687,34.8935802 117.114898,34.858925 116.928184,34.858925 C116.740056,34.858925 116.60002,34.8942875 116.49464,34.9635979 C116.38926,35.0343229 116.318535,35.1163639 116.295196,35.2217441 L116.295196,35.2337673 C116.283173,35.3044923 116.271857,35.363194 116.283173,35.4091653 C116.295196,35.456551 116.329851,35.5032295 116.388553,35.5392992 C116.446547,35.5739545 116.529295,35.609317 116.645992,35.6439722 C116.751372,35.6793347 116.892822,35.7146972 117.068927,35.7733989 C117.267664,35.8321006 117.443769,35.8908023 117.596535,35.9615273 C117.748594,36.031545 117.865997,36.113586 117.960062,36.2076502 C118.053419,36.3017144 118.11212,36.4191179 118.136167,36.5478373 C118.158799,36.6765568 118.147483,36.8286155 118.100097,37.0047207 L118.100097,37.0167439 C118.041395,37.2154811 117.960062,37.4036095 117.842658,37.5563755 C117.725255,37.7084342 117.584512,37.8491769 117.42043,37.9545571 C117.256348,38.0599373 117.068927,38.1426855 116.869483,38.20068 C116.633261,38.2226047 116.422501,38.2579672 116.187694,38.2579672" id="Path" fill="#202334"></path><polygon id="Path" fill="#202334" points="119.553495 34.1064113 122.731168 34.1064113 122.519701 34.9034817 120.257209 34.9034817 120.033718 35.7366219 122.027455 35.7366219 121.815987 36.5343996 119.810934 36.5343996 119.587443 37.402195 121.886005 37.402195 121.663929 38.1992655 118.450893 38.1992655"></polygon><path d="M124.841602,34.083072 L125.697374,34.083072 L126.412403,38.1985582 L125.439935,38.1985582 L125.299192,37.2840843 L123.505607,37.2840843 L122.871911,38.1985582 L121.921367,38.1985582 L124.841602,34.083072 Z M125.181789,36.4877211 L124.971028,35.1623351 L124.055847,36.4877211 L125.181789,36.4877211 Z" id="Shape" fill="#202334"></path><path d="M127.831854,34.1064113 L129.766889,34.1064113 C130.30652,34.1064113 130.681363,34.247154 130.89283,34.5166161 C131.068228,34.751423 131.103591,35.0569549 131.009527,35.4551365 L131.009527,35.4671598 C130.915462,35.7953236 130.763404,36.065493 130.54062,36.2762535 C130.317836,36.4877211 130.058983,36.6397798 129.766889,36.7331368 L130.411193,38.1985582 L129.320614,38.1985582 L128.770374,36.8859027 L128.758351,36.8859027 L128.042614,36.8859027 L127.690404,38.1985582 L126.763906,38.1985582 L127.831854,34.1064113 Z M129.168556,36.1001483 C129.402655,36.1001483 129.590784,36.054177 129.742842,35.9367736 C129.895608,35.8313934 129.989672,35.6899434 130.036351,35.5145455 L130.036351,35.501815 C130.083029,35.3030778 130.058983,35.1623351 129.965626,35.0569549 C129.860246,34.9621834 129.696164,34.9162122 129.461357,34.9162122 L128.53486,34.9162122 L128.218012,36.1001483 L129.168556,36.1001483 L129.168556,36.1001483 Z" id="Shape" fill="#202334"></path><path d="M132.897883,38.2692832 C132.592351,38.2692832 132.311573,38.2105815 132.076766,38.1059085 C131.842667,38.0005283 131.654538,37.8477624 131.50248,37.6603412 C131.362444,37.4722128 131.26838,37.2494291 131.233017,36.9919902 C131.197655,36.733844 131.209678,36.4643819 131.291719,36.1708732 L131.291719,36.15885 C131.37376,35.8660486 131.50248,35.5958792 131.678585,35.3384403 C131.85469,35.0802941 132.06545,34.8575105 132.312281,34.6700893 C132.558403,34.4819609 132.827866,34.3306094 133.13269,34.213206 C133.438222,34.1078258 133.74234,34.049124 134.070503,34.049124 C134.269948,34.049124 134.446053,34.0611473 134.598112,34.0958025 C134.750878,34.131165 134.89162,34.1665275 135.009024,34.2252292 C135.12572,34.2839309 135.2311,34.3426327 135.325164,34.4246736 C135.419229,34.5060074 135.50127,34.5880483 135.571995,34.6821125 L134.797556,35.3391476 C134.668129,35.1984049 134.527387,35.0810014 134.387351,34.9996677 C134.234585,34.9176267 134.05848,34.8822642 133.84772,34.8822642 C133.671615,34.8822642 133.496217,34.9176267 133.332135,34.9756212 C133.168053,35.0463462 133.003264,35.1283871 132.863228,35.2457906 C132.722485,35.363194 132.605082,35.4919135 132.498995,35.6559954 C132.393614,35.8087614 132.323597,35.9721361 132.276918,36.1482412 L132.276918,36.1602645 C132.23024,36.3363697 132.218216,36.4997444 132.23024,36.6532176 C132.253579,36.8052763 132.300965,36.946019 132.370982,37.0634224 C132.441,37.1808259 132.547087,37.2741828 132.687123,37.3442006 C132.81655,37.4149255 132.979924,37.4495808 133.15603,37.4495808 C133.402152,37.4495808 133.612913,37.4029023 133.801041,37.3201541 C133.988462,37.2260898 134.187907,37.1214169 134.387351,36.9686509 L134.820895,37.5429377 C134.680153,37.6603412 134.540117,37.7536981 134.398667,37.8477624 C134.257217,37.9418266 134.105159,38.0118443 133.9531,38.0825693 C133.800334,38.152587 133.636252,38.1992655 133.460147,38.234628 C133.284749,38.2579672 133.096621,38.2692832 132.897883,38.2692832" id="Path" fill="#202334"></path><polygon id="Path" fill="#202334" points="136.309656 34.1064113 137.247469 34.1064113 136.813925 35.7253059 138.526177 35.7253059 138.959721 34.1064113 139.886218 34.1064113 138.795639 38.1992655 137.869142 38.1992655 138.302686 36.5570316 136.590434 36.5570316 136.146281 38.1992655 135.219077 38.1992655"></polygon><polygon id="Path" fill="#202334" points="86.344584 39.9228331 87.2831044 39.9228331 86.4032857 43.1945704 88.5137189 43.1945704 88.2909353 44.0149801 85.2540049 44.0149801"></polygon><path d="M91.5393333,39.8994938 L92.3951055,39.8994938 L93.1108422,44.0149801 L92.1376666,44.0149801 L91.9969239,43.1005062 L90.2026313,43.1005062 L89.5689355,44.0149801 L88.6190992,44.0149801 L91.5393333,39.8994938 Z M91.8674972,42.3034357 L91.6567368,40.9780497 L90.7415556,42.3034357 L91.8674972,42.3034357 Z" id="Shape" fill="#202334"></path><path d="M94.6936671,39.9228331 L96.6520417,39.9228331 C97.1442875,39.9228331 97.4731586,40.0402365 97.6605798,40.2863595 C97.8013487,40.4744879 97.836685,40.7092948 97.76596,40.9787569 L97.76596,40.9907802 C97.7072583,41.2255871 97.601878,41.400985 97.4611353,41.5417277 C97.3203927,41.6824704 97.1556035,41.7885579 96.9794983,41.8698916 C97.0848785,41.9172773 97.1789427,41.9639558 97.2609837,42.0226576 C97.3430246,42.0813593 97.4137496,42.1520843 97.4604281,42.2341252 C97.5063993,42.3161662 97.5304458,42.4095232 97.5417618,42.5149034 C97.5530778,42.6202836 97.5297386,42.737687 97.4950833,42.8784297 L97.4950833,42.890453 C97.4484049,43.0785814 97.3656566,43.2426633 97.2489604,43.383406 C97.131557,43.5234415 97.0021303,43.640845 96.8380483,43.7349092 C96.6746736,43.8289734 96.4865452,43.8989911 96.2757848,43.9456696 C96.0643171,43.9923481 95.8415335,44.0163946 95.6074338,44.0163946 L93.6023808,44.0163946 L94.6936671,39.9228331 Z M95.8196087,43.2299329 C96.0303691,43.2299329 96.1944511,43.1945704 96.3351938,43.1245526 C96.4752292,43.0538277 96.5572702,42.9364242 96.6046559,42.7850728 L96.6046559,42.7730495 C96.6400184,42.6323068 96.6166792,42.5262194 96.5339309,42.4448856 C96.4398667,42.3628447 96.276492,42.3274822 96.0416851,42.3274822 L94.9631293,42.3274822 L94.7162991,43.2299329 L95.8196087,43.2299329 Z M96.0183459,41.576383 C96.2291063,41.576383 96.3938955,41.5410205 96.5339309,41.4710028 C96.6746736,41.4002778 96.7687379,41.2948976 96.8041003,41.1428389 L96.8041003,41.1308156 C96.8387556,40.9900729 96.8161236,40.8839855 96.7333754,40.8139678 C96.6513344,40.74395 96.5105917,40.7092948 96.31044,40.7092948 L95.3966734,40.7092948 L95.1618665,41.5770902 L96.0183459,41.5770902 L96.0183459,41.576383 Z" id="Shape" fill="#202334"></path><path d="M99.853054,44.085705 C99.5248901,44.085705 99.2434047,44.0277106 98.9972818,43.9223303 C98.7504516,43.8169501 98.5510072,43.6641842 98.4109717,43.4760558 C98.2582058,43.2886346 98.1641416,43.0658509 98.1294863,42.808412 C98.0828079,42.5502659 98.1061471,42.2808037 98.1881881,41.9872951 L98.1881881,41.9752718 C98.270229,41.6824704 98.3996557,41.412301 98.5750537,41.1548621 C98.7511589,40.896716 98.9739425,40.6739323 99.2200654,40.4865111 C99.4668956,40.2983827 99.7476737,40.1470313 100.053206,40.0296278 C100.35803,39.9242476 100.674171,39.8655459 101.003042,39.8655459 C101.331206,39.8655459 101.612691,39.9242476 101.858814,40.0296278 C102.105644,40.135008 102.305089,40.2870667 102.445124,40.4751951 C102.59789,40.6633236 102.691247,40.8854 102.737926,41.1435461 C102.785311,41.400985 102.761265,41.6711544 102.679931,41.9639558 L102.679931,41.9759791 C102.59789,42.2694877 102.468463,42.5389499 102.292358,42.797096 C102.11696,43.0545349 101.894177,43.2780258 101.648054,43.4647398 C101.401224,43.6528682 101.120445,43.8042196 100.814914,43.9223303 C100.510089,44.0390266 100.181925,44.085705 99.853054,44.085705 M100.087154,43.2532721 C100.275282,43.2532721 100.462703,43.2179096 100.626785,43.1592079 C100.80289,43.0884829 100.955656,43.0064419 101.095692,42.8890385 C101.236434,42.7723423 101.365861,42.6429156 101.459925,42.4788336 C101.565306,42.3267749 101.636031,42.162693 101.682002,41.9865878 L101.682002,41.9745646 C101.72868,41.7991666 101.740704,41.6350847 101.718072,41.4823188 C101.694025,41.3302601 101.647347,41.1895174 101.565306,41.0721139 C101.483265,40.9547105 101.365861,40.8606462 101.236434,40.7913358 C101.095692,40.7206108 100.93161,40.6859556 100.744189,40.6859556 C100.556767,40.6859556 100.380662,40.721318 100.204557,40.7800198 C100.028452,40.8507447 99.8763932,40.9320785 99.7236273,41.0494819 C99.5835918,41.1668854 99.4541651,41.3076281 99.3593936,41.4596868 C99.2547207,41.6124527 99.1839957,41.7765346 99.1373172,41.9519326 L99.1373172,41.9639558 C99.0906387,42.140061 99.0786155,42.3041429 99.1019547,42.4562016 C99.125294,42.6089676 99.1726797,42.7497103 99.2547207,42.8671137 C99.3367616,42.9838099 99.4541651,43.0778742 99.5835918,43.1478919 C99.7356505,43.2179096 99.9004397,43.2532721 100.087154,43.2532721" id="Shape" fill="#202334"></path><path d="M103.921862,39.9228331 L105.856897,39.9228331 C106.395821,39.9228331 106.771371,40.0635758 106.982839,40.3330379 C107.158236,40.5678448 107.204915,40.8726695 107.099535,41.2715583 L107.099535,41.2828743 C107.005471,41.6117455 106.853412,41.8812076 106.630628,42.0926753 C106.407845,42.3041429 106.149698,42.4562016 105.856897,42.5495586 L106.501909,44.0149801 L105.410622,44.0149801 L104.859675,42.7023246 L104.848359,42.7023246 L104.132622,42.7023246 L103.781119,44.0149801 L102.853915,44.0149801 L103.921862,39.9228331 Z M105.259271,41.9165701 C105.494078,41.9165701 105.681499,41.8578684 105.833558,41.7524882 C105.985616,41.6471079 106.079681,41.505658 106.126359,41.3302601 L106.126359,41.3182368 C106.173038,41.1187924 106.149698,40.9780497 106.055634,40.8719622 C105.950254,40.7786053 105.786172,40.7199035 105.551365,40.7199035 L104.624868,40.7199035 L104.308727,41.9045468 L105.258564,41.9045468 L105.258564,41.9165701 L105.259271,41.9165701 Z" id="Shape" fill="#202334"></path><path d="M109.596834,39.8994938 L110.453313,39.8994938 L111.16905,44.0149801 L110.195167,44.0149801 L110.055131,43.1005062 L108.260839,43.1005062 L107.627143,44.0149801 L106.677307,44.0149801 L109.596834,39.8994938 Z M109.925705,42.3034357 L109.714944,40.9780497 L108.799763,42.3034357 L109.925705,42.3034357 Z" id="Shape" fill="#202334"></path><polygon id="Path" fill="#202334" points="113.021337 40.755266 111.731313 40.755266 111.954097 39.9228331 115.459934 39.9228331 115.237857 40.755266 113.947834 40.755266 113.080039 44.0149801 112.142225 44.0149801"></polygon><path d="M116.844729,44.085705 C116.515858,44.085705 116.23508,44.0277106 115.988249,43.9223303 C115.742127,43.8169501 115.542682,43.6641842 115.402647,43.4760558 C115.249173,43.2886346 115.155816,43.0658509 115.121161,42.808412 C115.074483,42.5502659 115.097822,42.2808037 115.179863,41.9872951 L115.179863,41.9752718 C115.261904,41.6824704 115.390623,41.412301 115.566729,41.1548621 C115.742834,40.896716 115.965617,40.6739323 116.21174,40.4865111 C116.458571,40.2983827 116.739349,40.1470313 117.044173,40.0296278 C117.349705,39.9122243 117.666553,39.8655459 117.994717,39.8655459 C118.322881,39.8655459 118.604366,39.9242476 118.850489,40.0296278 C119.097319,40.135008 119.296056,40.2870667 119.436799,40.4751951 C119.589565,40.6633236 119.683629,40.8854 119.718285,41.1435461 C119.764256,41.400985 119.740917,41.6711544 119.659583,41.9639558 L119.659583,41.9759791 C119.577542,42.2694877 119.448115,42.5389499 119.27201,42.797096 C119.096612,43.0545349 118.873828,43.2780258 118.626998,43.4647398 C118.380875,43.6528682 118.09939,43.8042196 117.794565,43.9223303 C117.489741,44.0277106 117.172185,44.085705 116.844729,44.085705 M117.079536,43.2532721 C117.266957,43.2532721 117.454378,43.2179096 117.61846,43.1592079 C117.794565,43.0884829 117.947331,43.0064419 118.088074,42.8890385 C118.228109,42.7723423 118.357536,42.6429156 118.4516,42.4788336 C118.55698,42.3267749 118.626998,42.162693 118.674384,41.9865878 L118.674384,41.9745646 C118.720355,41.7991666 118.732378,41.6350847 118.709039,41.4823188 C118.6857,41.3302601 118.638314,41.1895174 118.55698,41.0721139 C118.474232,40.9547105 118.357536,40.8606462 118.228109,40.7913358 C118.088074,40.7206108 117.923285,40.6859556 117.735864,40.6859556 C117.548442,40.6859556 117.372337,40.721318 117.196232,40.7800198 C117.020834,40.8507447 116.868068,40.9320785 116.715302,41.0494819 C116.574559,41.1668854 116.445133,41.3076281 116.351776,41.4596868 C116.246396,41.6124527 116.175671,41.7765346 116.128992,41.9519326 L116.128992,41.9639558 C116.082314,42.140061 116.070998,42.3041429 116.09363,42.4562016 C116.116969,42.6089676 116.164355,42.7497103 116.246396,42.8671137 C116.328437,42.9838099 116.445133,43.0778742 116.574559,43.1478919 C116.738641,43.2179096 116.903431,43.2532721 117.079536,43.2532721" id="Shape" fill="#202334"></path><path d="M120.912829,39.9228331 L122.847865,39.9228331 C123.387496,39.9228331 123.762339,40.0635758 123.973099,40.3330379 C124.149204,40.5678448 124.195883,40.8726695 124.090502,41.2715583 L124.090502,41.2828743 C123.996438,41.6117455 123.844379,41.8812076 123.621596,42.0926753 C123.399519,42.3041429 123.140666,42.4562016 122.847865,42.5495586 L123.492169,44.0149801 L122.40159,44.0149801 L121.85135,42.7023246 L121.838619,42.7023246 L121.12359,42.7023246 L120.771379,44.0149801 L119.844882,44.0149801 L120.912829,39.9228331 Z M122.262262,41.9165701 C122.496361,41.9165701 122.68449,41.8578684 122.836549,41.7524882 C122.989315,41.6471079 123.083379,41.505658 123.130057,41.3302601 L123.130057,41.3182368 C123.176736,41.1187924 123.152689,40.9780497 123.059332,40.8719622 C122.953952,40.7786053 122.78987,40.7199035 122.555063,40.7199035 L121.628566,40.7199035 L121.311718,41.9045468 L122.262262,41.9045468 L122.262262,41.9165701 Z" id="Shape" fill="#202334"></path><polygon id="Path" fill="#202334" points="125.509953 42.3967927 124.548093 39.9228331 125.638672 39.9228331 126.201643 41.5643597 127.679088 39.9228331 128.734304 39.9228331 126.448473 42.3854767 126.013514 44.0149801 125.075701 44.0149801"></polygon><path d="M35.9834521,24.6023893 L35.9834521,1.90391629 L1.90320904,1.90391629 L1.90320904,24.6158271 C7.02157538,22.030122 12.8217305,20.5639933 18.9436842,20.5639933 C25.0783684,20.5639933 30.8650857,22.0173915 35.9834521,24.6023893" id="Path" fill="#FFFFFF"></path><path d="M7.0859351,41.5014145 C10.030923,44.176233 14.2234994,46.2336225 18.9436842,47.3143001 C23.6638689,46.2343297 27.8557381,44.176233 30.8014332,41.5014145 C34.2478612,38.3760779 35.9841593,34.5045929 35.9841593,29.9916323 L35.9841593,24.6023893 C30.865793,22.0173915 25.0656379,20.5512628 18.9436842,20.5512628 C12.809,20.5512628 7.02228263,22.004661 1.90320904,24.6023893 L1.90320904,29.990925 C1.90320904,34.4918624 3.63950714,38.3626402 7.0859351,41.5014145" id="Path" fill="#9FA1A2"></path><polygon id="Path" fill="#202334" points="1.90320904 24.6023893 1.90320904 10.4814411 18.9436842 1.90391629"></polygon><path d="M29.7851154,42.3621374 C24.641288,23.1624288 18.9436842,1.90320904 18.9436842,1.90320904 L8.10225297,42.3621374 C10.9574202,44.6253366 14.7511077,46.3616347 18.9436842,47.3135928 C23.1355534,46.3489042 26.9299482,44.6133133 29.7851154,42.3621374" id="Path" fill="#202334"></path><polygon id="Path" fill="#202334" points="35.9834521 24.6023893 35.9834521 10.4814411 18.9436842 1.90391629"></polygon><path d="M35.9834521,29.990925 C35.9834521,34.4918624 34.2337162,38.3626402 30.800726,41.5007072 C27.8550308,44.1755258 23.6631617,46.2329152 18.9429769,47.3135928 C14.2227922,46.2336225 10.0302158,44.1755258 7.08522785,41.5007072 C3.63879989,38.3753707 1.90250179,34.5038856 1.90250179,29.990925 L1.90250179,1.90391629 L35.9961826,1.90391629 L35.9961826,29.990925 L35.9834521,29.990925 Z M0,0 L0,29.990925 C0,40.8323562 9.16949283,47.1466819 18.9436842,49.2557006 C28.7178755,47.1466819 37.8873683,40.8443795 37.8873683,30.0029483 L37.8873683,0 L0,0 Z" id="Shape" fill="#202334"></path><path d="M29.7207556,42.1308668 C26.8910495,44.3820427 23.1100924,46.130364 18.9436842,47.0957599 C14.7638382,46.1310713 10.9963189,44.3947732 8.1666127,42.1308668 L8.10225297,42.3501142 C10.9574202,44.6133133 14.7511077,46.3489042 18.9436842,47.3008623 C23.1369679,46.3489042 26.9299482,44.6133133 29.7851154,42.3501142 L29.7851154,42.3366764 C29.7589471,42.2723167 29.7462166,42.2086642 29.7207556,42.1308668" id="Path" fill="#404040"></path><polygon id="Path" fill="#404040" points="2.10901871 10.3788899 1.90320904 10.4814411 1.90320904 24.6023893 2.10901871 24.3194894"></polygon><polygon id="Path" fill="#404040" points="35.7776424 10.3788899 35.9834521 10.4814411 35.9834521 24.6023893 35.7776424 24.3194894"></polygon><path d="M26.5699581,37.8484696 L26.5699581,36.7296005 L26.4030471,36.2790824 C24.9751099,36.2281605 22.8915522,34.9933024 21.8370428,33.3206568 L21.8370428,33.3079263 C21.8370428,31.5836515 24.023859,31.4556393 26.6986775,30.8509407 L34.0929735,26.646341 L33.8228041,26.2729132 L26.068518,26.2729132 L25.8881693,26.028912 L11.9984918,26.028912 L11.3683323,26.9030727 L3.79368758,26.9030727 C5.06744436,28.4724599 6.88012543,29.500801 9.00258189,30.2469495 C9.74873036,30.5043884 10.4814411,30.6974675 11.1886908,30.8643785 C13.8635093,31.4683697 16.0503255,31.6105269 16.0503255,33.3206568 L16.0503255,33.3340945 C14.9823784,34.9933024 12.9115512,36.2401837 11.4843212,36.2925202 L11.3174103,36.7430383 L11.3174103,37.8612001 C11.1759603,37.9128293 11.0217799,37.9644586 10.8548689,38.0160878 L10.713419,38.4142694 L10.713419,40.5487491 L14.7645455,40.5487491 C15.3565135,39.9574883 17.1182726,38.9680459 18.9443914,38.9680459 C20.7705102,38.9680459 22.5322693,39.9574883 23.1235301,40.5487491 L27.1753639,40.5487491 L27.1753639,38.4142694 L27.0339139,38.0160878 C26.8776117,37.9517281 26.7248458,37.9000988 26.5699581,37.8484696" id="Path" fill="#FCBF15"></path><path d="M12.6159208,36.9354102 C12.6159208,36.6652408 12.0628515,36.6008811 11.316703,36.7296005 L11.483614,36.2790824 C12.9115512,36.2281605 14.9944016,34.9933024 16.0496183,33.3206568 C16.0361805,35.9700143 12.6923038,38.3881012 10.7120045,38.3881012 L10.8534544,37.9892123 C11.8315808,37.7197502 12.6159208,37.2444783 12.6159208,36.9354102" id="Path" fill="#FECF0C"></path><path d="M27.1739494,40.6520076 L23.1221156,40.6520076 C23.0966546,40.6520076 23.0584631,40.6385698 23.0322949,40.6131088 C22.4148659,39.9829493 20.6785678,39.0698899 18.9429769,39.0698899 C17.2066788,39.0698899 15.4703807,39.9956798 14.853659,40.6131088 C14.828198,40.6385698 14.8020297,40.6520076 14.763131,40.6520076 L10.7120045,40.6520076 C10.6476448,40.6520076 10.5967228,40.6010856 10.5967228,40.5360186 L10.5967228,38.4008317 C10.5967228,38.3881012 10.5967228,38.3753707 10.6094533,38.3619329 L10.7509032,37.9637513 C10.7636337,37.9255598 10.789802,37.8993916 10.8279935,37.8873683 C10.9567129,37.8484696 11.0847251,37.8102781 11.2007141,37.7713794 L11.2007141,36.7430383 C11.2007141,36.7296005 11.2007141,36.71687 11.2134446,36.7041395 L11.3803555,36.2536215 C11.3937932,36.2019922 11.4454225,36.1765312 11.483614,36.1765312 C12.9497427,36.124902 14.9434797,34.839122 15.932922,33.3086336 C15.9081683,31.9705171 14.4151641,31.6628634 12.3584819,31.2378063 C11.9723235,31.1607161 11.5741419,31.0708954 11.1625226,30.9810747 C10.3138229,30.7879955 9.60657316,30.5949163 8.96368315,30.3636457 C6.59722554,29.514946 4.87436518,28.4081001 3.70315962,26.9681397 C3.67769863,26.9292409 3.66426088,26.878319 3.68972187,26.8394202 C3.71518286,26.8005215 3.75478885,26.7750605 3.79298033,26.7750605 L11.3039725,26.7750605 L11.8952333,25.9518218 C11.9206943,25.9263608 11.9461553,25.9001926 11.985054,25.9001926 L25.8747316,25.9001926 C25.9136303,25.9001926 25.9518218,25.9136303 25.9645523,25.9518218 L26.1060022,26.1576315 L33.7973431,26.1576315 C33.8355346,26.1576315 33.8737261,26.1710692 33.8864566,26.2092607 L34.1573332,26.5812741 C34.1827942,26.6074423 34.1827942,26.646341 34.1827942,26.671802 C34.1693565,26.7107008 34.1573332,26.7361618 34.1318723,26.7488923 L26.736869,30.9534919 C26.7234313,30.9534919 26.711408,30.9669297 26.711408,30.9669297 C26.2997887,31.0567504 25.9008998,31.1472784 25.5154487,31.2236613 C23.4580592,31.6487184 21.9657623,31.9570793 21.9395941,33.2944886 C22.9297437,34.824977 24.9234807,36.110757 26.3896094,36.1623862 C26.4405314,36.1623862 26.4801374,36.201285 26.4928679,36.2394765 L26.6597788,36.6899945 C26.6597788,36.7034323 26.6725093,36.7154555 26.6725093,36.7288933 L26.6725093,37.7572344 C26.7884982,37.7961331 26.9172177,37.8477624 27.0459371,37.8732234 C27.0841286,37.8866611 27.1102969,37.9121221 27.1223201,37.9503136 L27.2637701,38.3484952 C27.2637701,38.3612257 27.2772078,38.3739562 27.2772078,38.3873939 L27.2772078,40.5225809 C27.3026688,40.6010856 27.2383091,40.6520076 27.1739494,40.6520076 M23.1744521,40.4080064 L27.0579604,40.4080064 L27.0579604,38.4149767 L26.9426787,38.093178 C26.8005215,38.0549865 26.6597788,38.0033573 26.5310593,37.9524353 C26.4801374,37.9397048 26.4539691,37.8880756 26.4539691,37.8364464 L26.4539691,36.7437455 L26.3252497,36.3964859 C24.7947612,36.3059579 22.7501023,34.9685487 21.7465149,33.3871383 C21.7330771,33.3737005 21.7330771,33.3482395 21.7330771,33.3220713 C21.7330771,31.7533914 23.392285,31.4195695 25.4885732,30.9817819 C25.8612938,30.9046917 26.2608899,30.8268942 26.671802,30.7370735 L33.9380858,26.5961263 L33.7839054,26.3775861 L26.093979,26.3775861 C26.0550803,26.3775861 26.0168888,26.3641484 26.003451,26.3259569 L25.8620011,26.1201472 L12.050121,26.1201472 L11.4588602,26.9433859 C11.4333992,26.9688469 11.4079382,26.9943079 11.3683323,26.9943079 L4.05112649,26.9943079 C5.19545656,28.3062562 6.82920345,29.3218668 9.04077337,30.106914 C9.68366338,30.3381847 10.3654521,30.5312638 11.2141518,30.7109053 C11.6257712,30.800726 12.02466,30.8905467 12.4101111,30.9676369 C14.5063993,31.4047173 16.1656072,31.7392464 16.1656072,33.2951958 C16.1656072,33.3206568 16.1521695,33.3595555 16.1521695,33.372286 C15.1492893,34.9536964 13.1039231,36.2783752 11.5741419,36.3816337 L11.4454225,36.7288933 L11.4454225,37.8223014 C11.4454225,37.8732234 11.4192542,37.9121221 11.367625,37.9382903 C11.2389056,37.9885051 11.0974556,38.0274038 10.9567129,38.079033 L10.8414312,38.4001244 L10.8414312,40.3931542 L14.7249395,40.3931542 C15.4067282,39.7375337 17.1812178,38.8117438 18.9557074,38.8117438 C20.7181738,38.8258887 22.4926633,39.7644091 23.1744521,40.4080064" id="Shape" fill="#CE8A2A"></path><path d="M12.6159208,36.9354102 C12.6159208,37.2055796 12.0628515,37.5783002 11.316703,37.8484696 L11.316703,36.7296005 C12.0762892,36.5881506 12.6286513,36.6659481 12.6159208,36.9354102" id="Path" fill="#FECF0C"></path><path d="M11.3174103,37.9644586 C11.2919493,37.9644586 11.2664883,37.9517281 11.2530505,37.9389976 C11.2275896,37.9135366 11.2021286,37.8746379 11.2021286,37.8357391 L11.2021286,36.71687 C11.2021286,36.6659481 11.2410273,36.6136116 11.305387,36.6015883 C11.6137479,36.5499591 12.3464586,36.4346774 12.6427963,36.6779713 C12.7198865,36.7430383 12.7587852,36.8194212 12.7587852,36.909242 C12.7453475,37.2954003 12.0380978,37.6935819 11.3824772,37.9382903 C11.3428713,37.9644586 11.3301408,37.9644586 11.3174103,37.9644586 M11.4333992,36.832859 L11.4333992,37.6815587 C12.16611,37.385221 12.5006391,37.0768602 12.5006391,36.9354102 C12.5006391,36.9219725 12.5006391,36.909242 12.4751781,36.883781 C12.3584819,36.7812298 11.9984918,36.7430383 11.4333992,36.832859" id="Shape" fill="#CE8A2A"></path><path d="M25.2707403,36.9354102 C25.2707403,37.2055796 25.8238096,37.5783002 26.5699581,37.8484696 L26.5699581,36.7296005 C25.8110791,36.5881506 25.2573026,36.6659481 25.2707403,36.9354102" id="Path" fill="#FECF0C"></path><path d="M26.5699581,37.9000988 L26.5565203,37.9000988 C25.9397986,37.6688282 25.2191111,37.2826698 25.2191111,36.9361175 C25.2191111,36.8590272 25.2445721,36.7946675 25.3089318,36.7557688 C25.4892805,36.6015883 25.9645523,36.5754201 26.5819813,36.691409 C26.6081496,36.691409 26.6208801,36.71687 26.6208801,36.7430383 L26.6208801,37.8612001 C26.6208801,37.8746379 26.6081496,37.9000988 26.5954191,37.9000988 L26.5699581,37.9000988 M25.3216623,36.9354102 C25.3216623,37.1277821 25.7332816,37.475749 26.5176216,37.7841099 L26.5176216,36.7812298 C25.9645523,36.6779713 25.5281792,36.7048468 25.3732915,36.832859 C25.3351,36.85832 25.3216623,36.883781 25.3216623,36.9354102" id="Shape" fill="#CE8A2A"></path><path d="M25.2707403,36.9354102 C25.2707403,36.6652408 25.8238096,36.6008811 26.5699581,36.7296005 L26.4023399,36.2790824 C24.9751099,36.2281605 22.8915522,34.9933024 21.8370428,33.3206568 C21.8504806,35.9700143 25.1943573,38.3881012 27.1746566,38.3881012 L27.0324994,37.9892123 C26.0550803,37.7197502 25.2707403,37.2444783 25.2707403,36.9354102" id="Path" fill="#FECF0C"></path><path d="M27.1739494,38.5175279 C26.1576315,38.5175279 24.7947612,37.9000988 23.6886227,36.9488479 C22.4410341,35.8681704 21.7210539,34.5562221 21.7210539,33.3348018 C21.7210539,33.2838798 21.7599526,33.2315433 21.8115819,33.2188128 C21.8625038,33.2060823 21.9148403,33.2188128 21.9395941,33.2704421 C22.9297437,34.813661 24.9362112,36.124902 26.4150704,36.1638007 C26.4666996,36.1638007 26.5055984,36.2026995 26.5183288,36.240891 L26.6852398,36.691409 C26.6986775,36.7303078 26.6986775,36.7812298 26.6597788,36.8066908 C26.6336106,36.8455895 26.5954191,36.85832 26.5437898,36.8455895 C25.9136303,36.7303078 25.5281792,36.7812298 25.4121903,36.8717577 C25.3867293,36.8972187 25.3867293,36.9099492 25.3867293,36.9226797 C25.3867293,37.1284894 26.0296193,37.5910307 27.0713981,37.8746379 C27.1102969,37.8880756 27.1357579,37.9135366 27.1484884,37.9517281 L27.2892311,38.3499097 C27.3026688,38.3888084 27.3026688,38.4269999 27.2765006,38.4531681 C27.2510396,38.5040901 27.2128481,38.5175279 27.1739494,38.5175279 M21.9912233,33.7584444 C22.3130219,36.0732728 25.1554586,38.1575377 27.0070384,38.28555 L26.9426787,38.1052013 C26.0423498,37.8350319 25.1554586,37.3590528 25.1554586,36.9354102 C25.1554586,36.8448822 25.1943573,36.767792 25.2707403,36.7041395 C25.502011,36.4976226 26.0423498,36.5365214 26.4023399,36.5881506 L26.3379802,36.4078019 C24.9107502,36.3179812 23.0591704,35.1736511 21.9912233,33.7584444" id="Shape" fill="#CE8A2A"></path><path d="M18.9436842,38.9411705 C17.1175654,38.9411705 15.3558063,39.9313201 14.7645455,40.5232881 L14.7645455,38.3881012 C15.3558063,37.7961331 17.490286,34.9798647 18.9436842,34.9798647 C20.3970824,34.9798647 22.5315621,37.7961331 23.1228229,38.3881012 L23.1228229,40.5232881 C22.5315621,39.9447578 20.769803,38.9411705 18.9436842,38.9411705" id="Path" fill="#FECF0C"></path><path d="M23.1228229,40.5876478 C23.1100924,40.5876478 23.0973619,40.5876478 23.0846314,40.5742101 C22.4537646,39.9440506 20.6920055,39.0048229 18.9436842,39.0048229 C17.1819251,39.0048229 15.4328965,39.9440506 14.802737,40.5742101 C14.7892992,40.5876478 14.7645455,40.6003783 14.751815,40.5876478 C14.7390845,40.5749173 14.7129163,40.5621869 14.7129163,40.5360186 L14.7129163,38.4008317 C14.7129163,38.3881012 14.7129163,38.3753707 14.726354,38.3619329 C14.8296125,38.2586745 14.9965234,38.0797403 15.1888953,37.8477624 C16.0764937,36.8314445 17.7349944,34.9409659 18.9443914,34.9409659 C20.1530812,34.9409659 21.8129964,36.8321517 22.6998875,37.8477624 C22.9056972,38.079033 23.0598776,38.2586745 23.1624288,38.3619329 C23.1758666,38.3753707 23.1758666,38.3881012 23.1758666,38.4008317 L23.1758666,40.5360186 C23.1758666,40.5621869 23.1624288,40.5749173 23.1369679,40.5876478 C23.1355534,40.5749173 23.1355534,40.5876478 23.1228229,40.5876478 M18.9436842,38.8902485 C20.653814,38.8902485 22.3646511,39.7644091 23.0719009,40.4080064 L23.0719009,38.4277071 C22.9686424,38.3117182 22.814462,38.1448073 22.6220901,37.9262671 C21.7337844,36.909242 20.101452,35.0449317 18.9436842,35.0449317 C17.7859164,35.0449317 16.1528767,36.9099492 15.2652783,37.9135366 C15.0729064,38.1320768 14.9187259,38.3117182 14.8154675,38.4149767 L14.8154675,40.3952759 C15.5227172,39.7644091 17.2335543,38.8902485 18.9436842,38.8902485" id="Shape" fill="#CE8A2A"></path><path d="M11.3690395,26.8910495 L3.79368758,26.8910495 C5.06744436,28.4604366 6.88012543,29.489485 9.00258189,30.2356335 C9.74873036,30.4923651 10.4814411,30.6854443 11.1886908,30.8523552 L11.1886908,27.1357579 L11.3690395,26.8910495 Z" id="Path" fill="#FECF0C"></path><path d="M11.1886908,30.9810747 L11.1632298,30.9810747 C10.3145301,30.7879955 9.60728041,30.5949163 8.96368315,30.3636457 C6.59722554,29.514946 4.87507243,28.4081001 3.70386687,26.9681397 C3.67840588,26.9292409 3.66496813,26.878319 3.69042912,26.8394202 C3.71659736,26.8005215 3.75478885,26.7750605 3.79368758,26.7750605 L11.3690395,26.7750605 C11.407231,26.7750605 11.4588602,26.8005215 11.472298,26.8394202 C11.497759,26.878319 11.4850285,26.9292409 11.4588602,26.9681397 L11.3046798,27.1873871 L11.3046798,30.8650857 C11.3046798,30.9039845 11.291242,30.9294454 11.265781,30.9549064 C11.2403201,30.9683442 11.2141518,30.9810747 11.1886908,30.9810747 M4.05112649,27.0070384 C5.19545656,28.3182794 6.8284962,29.3345973 9.04148062,30.1189373 C9.6454719,30.3381847 10.2890692,30.5171189 11.0727019,30.6974675 L11.0727019,27.1350506 C11.0727019,27.1095896 11.0861396,27.0841286 11.0981629,27.0706909 L11.1377688,27.0063312 L4.05112649,27.0063312 L4.05112649,27.0070384 Z" id="Shape" fill="#CE8A2A"></path><polygon id="Path" fill="#FECF0C" points="26.6986775 27.1491956 26.6986775 30.8523552 34.0929735 26.6477555 26.3386874 26.6477555"></polygon><path d="M26.6986775,30.9039845 C26.6852398,30.9039845 26.6852398,30.9039845 26.6732165,30.8905467 C26.6597788,30.8778162 26.6470483,30.8650857 26.6470483,30.8396247 L26.6470483,27.1484884 L26.3004959,26.6597788 C26.2870582,26.6470483 26.2870582,26.6208801 26.3004959,26.6088568 C26.3132264,26.5954191 26.3259569,26.5833958 26.3514179,26.5833958 L34.1064113,26.5833958 C34.1318723,26.5833958 34.14531,26.5961263 34.1580405,26.6215873 C34.1580405,26.6477555 34.1580405,26.6732165 34.1318723,26.685947 L26.7375763,30.891254 C26.7248458,30.9039845 26.7107008,30.9039845 26.6986775,30.9039845 M26.4412386,26.6986775 L26.736869,27.1102969 C26.7495995,27.1237346 26.7495995,27.1357579 26.7495995,27.1357579 L26.7495995,30.7625345 L33.8878711,26.6986775 L26.4412386,26.6986775 Z" id="Shape" fill="#CE8A2A"></path><rect id="Rectangle" fill="#FECF0C" x="23.1235301" y="38.4015389" width="4.05112649" height="2.13518695"></rect><path d="M27.1732421,40.6520076 L23.1228229,40.6520076 C23.0577559,40.6520076 23.0068339,40.6010856 23.0068339,40.5360186 L23.0068339,38.4008317 C23.0068339,38.3364719 23.0577559,38.28555 23.1228229,38.28555 L27.1732421,38.28555 C27.2383091,38.28555 27.2892311,38.3364719 27.2892311,38.4008317 L27.2892311,40.5360186 C27.3026688,40.6010856 27.2383091,40.6520076 27.1732421,40.6520076 M23.2388118,40.4080064 L27.0579604,40.4080064 L27.0579604,38.5175279 L23.2388118,38.5175279 L23.2388118,40.4080064 Z" id="Shape" fill="#CE8A2A"></path><rect id="Rectangle" fill="#FECF0C" x="10.7127117" y="38.4015389" width="4.05112649" height="2.13518695"></rect><path d="M14.7638382,40.6520076 L10.7127117,40.6520076 C10.648352,40.6520076 10.59743,40.6010856 10.59743,40.5360186 L10.59743,38.4008317 C10.59743,38.3364719 10.648352,38.28555 10.7127117,38.28555 L14.7638382,38.28555 C14.828198,38.28555 14.8798272,38.3364719 14.8798272,38.4008317 L14.8798272,40.5360186 C14.8798272,40.6010856 14.8274907,40.6520076 14.7638382,40.6520076 M10.8287007,40.4080064 L14.6478493,40.4080064 L14.6478493,38.5175279 L10.8287007,38.5175279 L10.8287007,40.4080064 Z" id="Shape" fill="#CE8A2A"></path><polygon id="Path" fill="#FECF0C" points="34.0929735 26.6477555 33.8228041 26.2736204 26.068518 26.2736204 25.8881693 26.0303265 11.9984918 26.0303265 11.1886908 27.1491956 26.6986775 27.1491956 26.3386874 26.6477555"></polygon><path d="M26.6986775,27.2644773 L11.1886908,27.2644773 C11.1497921,27.2644773 11.0988701,27.2390163 11.0854324,27.2001176 C11.0599714,27.1619261 11.0727019,27.1102969 11.0988701,27.0713981 L11.9093783,25.9525291 C11.9348393,25.9270681 11.9603003,25.9008998 11.999199,25.9008998 L25.8881693,25.9008998 C25.9277753,25.9008998 25.9652596,25.9143376 25.9786973,25.9525291 L26.11944,26.1583387 L33.8107809,26.1583387 C33.8496796,26.1583387 33.8871638,26.1717765 33.9006016,26.209968 L34.170771,26.5819813 C34.1969392,26.6208801 34.1969392,26.6725093 34.1842087,26.711408 C34.1587477,26.7503068 34.1191418,26.7757677 34.0809503,26.7757677 L26.5565203,26.7757677 L26.7757677,27.0841286 C26.8005215,27.1237346 26.8005215,27.1746566 26.7884982,27.2135553 C26.7884982,27.2390163 26.7503068,27.2644773 26.6986775,27.2644773 M11.4199615,27.0204762 L26.4794301,27.0204762 L26.2608899,26.711408 C26.2347217,26.6725093 26.2347217,26.6208801 26.2474522,26.5819813 C26.2729132,26.5430826 26.3118119,26.5183288 26.3507107,26.5183288 L33.8609956,26.5183288 L33.7577371,26.3768789 L26.068518,26.3768789 C26.0296193,26.3768789 25.9914278,26.3634412 25.97799,26.3252497 L25.8365401,26.11944 L12.0508282,26.11944 L11.4199615,27.0204762 Z" id="Shape" fill="#CE8A2A"></path><path d="M11.1886908,27.1491956 L11.1886908,30.865793 C13.8635093,31.4697842 16.0503255,31.6119414 16.0503255,33.3220713 C16.0503255,35.9714288 12.6937183,38.4022462 10.7127117,38.4022462 L14.7645455,38.4022462 C15.3558063,37.8109854 17.490286,34.9947169 18.9436842,34.9947169 C20.3970824,34.9947169 22.5315621,37.8109854 23.1228229,38.4022462 L27.1746566,38.4022462 C25.1936501,38.4022462 21.8370428,35.9714288 21.8370428,33.3220713 C21.8370428,31.5985037 24.023859,31.4704915 26.6986775,30.865793 L26.6986775,27.1491956 L11.1886908,27.1491956 L11.1886908,27.1491956 Z" id="Path" fill="#FECF0C"></path><path d="M27.1739494,38.5175279 L23.1221156,38.5175279 C23.0966546,38.5175279 23.0584631,38.5040901 23.0322949,38.4786291 C22.9163059,38.3626402 22.7621255,38.1829987 22.5563158,37.9517281 C21.6828624,36.9615784 20.061846,35.1092914 18.9295392,35.1092914 C17.7979396,35.1092914 16.1776305,36.9608712 15.3027625,37.9517281 C15.0969529,38.1829987 14.9427724,38.3626402 14.8274907,38.4786291 C14.8013225,38.5040901 14.7758615,38.5175279 14.7369627,38.5175279 L10.7120045,38.5175279 C10.6476448,38.5175279 10.5967228,38.4666059 10.5967228,38.4015389 C10.5967228,38.3371792 10.6476448,38.2862572 10.7120045,38.2862572 C12.6795733,38.2862572 15.932922,35.8816081 15.932922,33.3213641 C15.932922,31.9584938 14.4420396,31.6501329 12.3584819,31.2250758 C11.9723235,31.1486929 11.5741419,31.0581649 11.1625226,30.9683442 C11.1108934,30.9549064 11.0727019,30.9039845 11.0727019,30.8523552 L11.0727019,27.1357579 C11.0727019,27.0713981 11.1236238,27.0204762 11.1879836,27.0204762 L26.7107008,27.0204762 C26.7743532,27.0204762 26.8259825,27.0713981 26.8259825,27.1357579 L26.8259825,30.8523552 C26.8259825,30.9039845 26.7870837,30.9556137 26.7361618,30.9683442 C26.3245424,31.0581649 25.9256536,31.1486929 25.5402025,31.2250758 C23.4693752,31.6501329 21.965055,31.9584938 21.965055,33.3213641 C21.965055,35.8809008 25.2184038,38.2862572 27.1859726,38.2862572 C27.2503323,38.2862572 27.3019673,38.3371792 27.3019673,38.4015389 C27.3026688,38.4658986 27.2383091,38.5175279 27.1739494,38.5175279 M23.1744521,38.2862572 L25.9525291,38.2862572 C23.9976908,37.6044685 21.7217611,35.521618 21.7217611,33.3213641 C21.7217611,31.7654146 23.380969,31.4308855 25.4772572,30.9938052 C25.8372473,30.916715 26.1979447,30.8396247 26.5833958,30.7625345 L26.5833958,27.2644773 L11.3046798,27.2644773 L11.3046798,30.7625345 C11.6901309,30.8523552 12.050121,30.9294454 12.4101111,30.9938052 C14.5063993,31.4308855 16.1656072,31.7654146 16.1656072,33.3213641 C16.1656072,35.5081802 13.8889703,37.5910307 11.9348393,38.2862572 L14.7129163,38.2862572 C14.8161747,38.1829987 14.9576247,38.0160878 15.1372661,37.8102781 C16.037595,36.7812298 17.6968029,34.8780207 18.9443914,34.8780207 C20.1792495,34.8780207 21.8504806,36.7805225 22.7515168,37.8102781 C22.9297437,38.0026501 23.0719009,38.1709755 23.1744521,38.2862572" id="Shape" fill="#CE8A2A"></path></g></g></svg> 