<?xml version="1.0" encoding="UTF-8"?> <svg xmlns="http://www.w3.org/2000/svg" xmlns:xlink="http://www.w3.org/1999/xlink" width="150px" height="31px" viewBox="0 0 150 31" version="1.1"><title>FlightSafety-Logo-Color</title><g id="Designs" stroke="none" stroke-width="1" fill="none" fill-rule="evenodd"><g id="Customers" transform="translate(-1243.000000, -457.000000)" fill="#205392" fill-rule="nonzero"><g id="FlightSafety-Logo-Color" transform="translate(1243.000000, 457.000000)"><path d="M133.750143,24.9257871 C132.982934,25.4202108 131.92589,25.6759472 130.579012,25.6759472 C130.169833,25.6759472 129.760655,25.6588981 129.368526,25.6247999 L128.15804,25.5225054 L128.15804,22.2661284 L129.30033,22.3854721 C129.691301,22.4223893 130.084264,22.4337795 130.476717,22.4195702 C130.935546,22.3988052 131.360946,22.1735937 131.636056,21.8058029 C131.883749,21.463916 132.015219,21.0515792 132.011136,20.6294154 C132.015731,20.3253305 131.957697,20.0235535 131.840645,19.7428625 L126.811162,6.22293086 L131.005239,6.22293086 L134.261616,16.0943563 L137.466846,6.22293086 L141.558628,6.22293086 L135.540298,22.4195702 C135.114071,23.5959577 134.517352,24.4313634 133.750143,24.9257871 Z M126.043953,6.22293086 L126.043953,8.84849135 L123.145607,8.84849135 L123.145607,16.02616 C123.145607,16.6910746 123.247901,17.1514002 123.469539,17.3730384 C123.691178,17.5946766 124.134454,17.7140203 124.799369,17.7140203 C125.021007,17.7140203 125.242645,17.6969712 125.430185,17.6799221 C125.617725,17.662873 125.822314,17.6287748 126.009854,17.5946766 L126.009854,20.6294154 C125.642953,20.6896892 125.272986,20.7295318 124.901663,20.748759 C124.492485,20.7658081 124.100356,20.7828572 123.708227,20.7828572 C123.126349,20.7879171 122.54495,20.7480172 121.969219,20.6635136 C121.458497,20.594972 120.96616,20.4269982 120.520046,20.1690898 C120.097146,19.9248976 119.753772,19.5637623 119.531199,19.1290951 C119.271124,18.5814688 119.148244,17.9787713 119.173168,17.3730384 L119.173168,8.86554044 L116.786295,8.86554044 L116.786295,6.23997995 L119.173168,6.23997995 L119.173168,1.94360824 L123.111508,1.94360824 L123.111508,6.22293086 L126.043953,6.22293086 Z M108.040109,16.946811 C108.636828,17.5264802 109.489282,17.8163148 110.597473,17.8163148 C111.329979,17.8331819 112.050025,17.6249042 112.660414,17.2195965 C113.240083,16.8274674 113.581065,16.40124 113.717458,15.9579636 L117.195473,15.9579636 C116.649902,17.6799221 115.780398,18.924506 114.638109,19.657617 C113.495819,20.390728 112.097794,20.7658081 110.461081,20.7658081 C109.418475,20.7785162 108.382918,20.5933885 107.409293,20.2202371 C106.537621,19.8780715 105.751856,19.3484078 105.107665,18.6687695 C104.463141,17.9766193 103.969632,17.1579738 103.658492,16.2648473 C103.309479,15.2797792 103.136353,14.2410251 103.147019,13.1960103 C103.136371,12.1661916 103.315535,11.1432226 103.675541,10.1783207 C104.008491,9.27900835 104.518689,8.45573515 105.175861,7.75734932 C105.831541,7.07080475 106.620565,6.52544953 107.494538,6.15473448 C108.438183,5.75694237 109.454184,5.55954789 110.47813,5.57506528 C111.588858,5.54970208 112.689026,5.79548435 113.683359,6.29112723 C114.566132,6.74538227 115.330848,7.39918508 115.916791,8.20062577 C116.509262,9.02007249 116.937672,9.94636359 117.178424,10.9284808 C117.44165,11.975182 117.533769,13.0575808 117.451209,14.1337105 L107.068311,14.1337105 C107.119458,15.4294417 107.443391,16.3671418 108.040109,16.946811 Z M112.506972,9.35996417 C112.029597,8.83144225 111.313535,8.55865675 110.358786,8.55865675 C109.817259,8.53594138 109.278494,8.64720805 108.790269,8.88258953 C108.407339,9.08371472 108.066012,9.3556187 107.784373,9.68389696 C107.542368,9.98662613 107.362736,10.334301 107.255851,10.7068426 C107.160335,11.0177118 107.097482,11.3376905 107.068311,11.6615919 L113.495819,11.6615919 C113.308279,10.6556953 112.967297,9.88848609 112.506972,9.35996417 L112.506972,9.35996417 Z M81.6310625,8.09833121 C82.0247932,7.49361076 82.5565471,6.99107411 83.1825301,6.63210911 C83.8450319,6.25179283 84.5647132,5.98119267 85.3136669,5.83080169 C86.0997502,5.67457273 86.8990863,5.59463912 87.70054,5.59211437 C88.4363187,5.59230156 89.1711966,5.64357211 89.8998732,5.74555622 C90.6029243,5.83843514 91.2873303,6.039731 91.9287154,6.34227451 C92.5242357,6.62639021 93.0397983,7.05407285 93.4290356,7.58685838 C93.8211648,8.1153803 94.0087048,8.81439316 94.0087048,9.70094605 L94.0087048,17.2025475 C94.0073766,17.8291106 94.0415294,18.4552463 94.1109994,19.0779478 C94.1447342,19.5496319 94.2784008,20.0087477 94.5031286,20.4248262 L90.4795424,20.390728 C90.411346,20.1690898 90.3431496,19.9474516 90.2920023,19.7258134 C90.2400486,19.4957735 90.2058497,19.2620812 90.1897078,19.0268005 C89.5813123,19.6654829 88.8176494,20.1354293 87.9733255,20.390728 C87.1276842,20.6483313 86.2488181,20.7804485 85.3648141,20.7828572 C84.7138772,20.787402 84.0654749,20.7013309 83.4382665,20.5271208 C82.8731071,20.3740629 82.3451627,20.1071899 81.8867989,19.7428625 C81.440684,19.3803277 81.0846983,18.919297 80.8468042,18.395984 C80.5804381,17.7895683 80.4523165,17.1314895 80.4717241,16.4694364 C80.4717241,15.6510799 80.6081169,14.9691161 80.8979515,14.4405942 C81.1683231,13.9377145 81.5467968,13.5010141 82.0061426,13.1619122 C82.4843976,12.8356596 83.0148637,12.5934903 83.5746593,12.4458502 C84.1579255,12.2865642 84.7499598,12.1613262 85.347765,12.0707701 C85.9444833,11.9855247 86.5241525,11.9002792 87.1038217,11.8491319 C87.6217302,11.8084407 88.1351296,11.7228741 88.6382402,11.5933955 C89.0229186,11.5090885 89.3840018,11.3401948 89.695284,11.0989718 C89.958397,10.8621129 90.0916127,10.5132146 90.053315,10.1612716 C90.0688885,9.80875897 89.9986832,9.45773241 89.8487259,9.13832595 C89.7213317,8.89465719 89.525864,8.69326631 89.2861058,8.55865675 C89.0349879,8.41240525 88.7563944,8.31954075 88.4677493,8.28587124 C88.1405753,8.23593432 87.8098336,8.21312455 87.4789018,8.21767487 C86.6946435,8.21767487 86.0808761,8.38816581 85.6375996,8.72914769 C85.1943232,9.07012957 84.9215377,9.63274968 84.8533413,10.417008 L80.9150006,10.417008 C80.9474106,9.5948974 81.1942655,8.79555758 81.6310625,8.09833121 L81.6310625,8.09833121 Z M89.4395476,13.7074832 C89.1773588,13.7936525 88.9096464,13.8620046 88.6382402,13.9120723 C88.3484056,13.9632196 88.0415219,14.0143669 87.7346382,14.048465 C87.4277545,14.0825632 87.1038217,14.1337105 86.7798889,14.1848578 C86.4801337,14.2406147 86.1840646,14.314632 85.8933361,14.406496 C85.6231044,14.4862662 85.3691311,14.6132529 85.1431759,14.7815761 C84.9293004,14.9387564 84.7543238,15.1428957 84.6317031,15.3782944 C84.4908497,15.6638729 84.4262447,15.9810245 84.4441631,16.2989455 C84.4362081,16.6050883 84.5004553,16.9088023 84.6317031,17.1854984 C84.7610329,17.4167387 84.9418805,17.6150877 85.160225,17.7651676 C85.4000997,17.9122918 85.6665817,18.0107743 85.9444833,18.0550022 C86.2483899,18.1095069 86.5563869,18.1380251 86.8651344,18.1402476 C87.6493927,18.1402476 88.246111,18.0038549 88.6893875,17.7481185 C89.0825865,17.5223377 89.4113086,17.1994857 89.6441368,16.8104183 C89.8367271,16.4735544 89.9639827,16.1033563 90.0192168,15.7192763 C90.0618274,15.4256249 90.0846111,15.1294369 90.0874132,14.8327234 L90.0874132,13.3665013 C89.8907703,13.5135831 89.6721179,13.6286633 89.4395476,13.7074832 L89.4395476,13.7074832 Z M67.9065418,15.4464908 C68.1339793,15.8900316 68.4607064,16.2751029 68.8612911,16.571731 C69.2899312,16.8714689 69.7693825,17.0909767 70.2763659,17.2195965 C70.8226721,17.3567717 71.3839135,17.4254952 71.9471771,17.4241857 C72.3640435,17.4219566 72.780125,17.3877581 73.191761,17.3218911 C73.6234757,17.2617638 74.043297,17.1352423 74.4363448,16.946811 C74.8152889,16.7697318 75.1479529,16.5071024 75.4081432,16.1796018 C75.6786269,15.8224568 75.8171772,15.38271 75.8002724,14.9350179 C75.8200733,14.4452854 75.6346984,13.9694898 75.2887995,13.6222377 C74.9023688,13.2537187 74.4437688,12.9692706 73.9419211,12.7868321 C73.3275339,12.5435609 72.6947075,12.3497222 72.0494717,12.2071629 C71.3504588,12.0366719 70.6343968,11.8491319 69.9012858,11.6445428 C69.1657552,11.4635609 68.4425374,11.2357758 67.7360508,10.962579 C67.0600762,10.7053125 66.4231603,10.3552957 65.8436014,9.92258427 C65.280724,9.49552929 64.8205244,8.94794995 64.496723,8.31996943 C64.1387789,7.60067605 63.9631348,6.80442265 63.9852501,6.00129263 C63.9644451,5.07328896 64.1878604,4.15611011 64.6331157,3.34163395 C65.0612556,2.60212986 65.6425502,1.96270586 66.3380251,1.4662336 C67.061901,0.958672288 67.8700313,0.583468932 68.7248983,0.358042487 C69.5973911,0.120931899 70.4974685,0.000539383849 71.4016061,5.72015062e-06 C72.4059113,-0.000932215293 73.4070019,0.113478134 74.3851975,0.340993393 C75.2935914,0.557761013 76.1545793,0.939138213 76.9255126,1.4662336 C77.6578436,1.99067253 78.2636557,2.67221114 78.6986183,3.46097761 C79.1494288,4.37137068 79.3717884,5.37784054 79.3464839,6.3934218 L75.1183086,6.3934218 C75.0997238,5.87801641 74.9718761,5.37243667 74.7432285,4.91015061 C74.5482205,4.53136246 74.2534645,4.21302594 73.8907738,3.98949953 C73.5175126,3.76239115 73.1080917,3.60092937 72.6802881,3.51212489 C72.1910831,3.42134377 71.6945738,3.37568774 71.1970169,3.37573214 C70.841174,3.37328296 70.4863122,3.41334799 70.1399731,3.4950758 C69.7989522,3.56145838 69.4744579,3.69473282 69.1852238,3.88720496 C68.9000895,4.06148694 68.660493,4.30108351 68.486211,4.58621782 C68.2904216,4.90284775 68.1953039,5.2714289 68.2134255,5.64326166 C68.1956065,5.9706374 68.2725595,6.29620793 68.4350637,6.58096183 C68.6600375,6.87655302 68.9603575,7.10620952 69.3045675,7.2458765 C69.8889324,7.50015931 70.4934126,7.70545448 71.1117715,7.85964389 L74.1294611,8.64390222 C74.6537766,8.7515387 75.1717261,8.88814078 75.6809287,9.05308048 C76.3786921,9.26326522 77.039973,9.57953001 77.6415745,9.99078065 C78.3138129,10.4389577 78.8880365,11.0189815 79.3294348,11.6956901 C79.8068095,12.411752 80.0454968,13.315354 80.0454968,14.4405942 C80.0566734,15.3102814 79.876228,16.171763 79.5169749,16.9638601 C79.1555377,17.7459944 78.6188286,18.4343821 77.9484582,18.9756532 C77.1766671,19.5790724 76.2972509,20.0303518 75.3569959,20.3054826 C73.1454028,20.9182066 70.8119955,20.941717 68.5885055,20.373679 C67.607786,20.1289487 66.6822238,19.7008762 65.8606505,19.112046 C65.0743191,18.5333234 64.4324655,17.7806041 63.9852501,16.9127129 C63.5249246,16.02616 63.3032864,14.9691161 63.3203355,13.7415814 L67.5485108,13.7415814 C67.5323944,14.3301077 67.655046,14.914163 67.9065418,15.4464908 L67.9065418,15.4464908 Z M63.2180409,6.22293086 L63.2180409,8.84849135 L60.3196949,8.84849135 L60.3196949,16.02616 C60.3196949,16.6910746 60.4219895,17.1514002 60.6606768,17.3730384 C60.8993641,17.5946766 61.3255915,17.7140203 61.9905061,17.7140203 C62.2121444,17.7140203 62.4337826,17.6969712 62.6213226,17.6799221 C62.8159849,17.6623453 63.0095107,17.6338857 63.2009918,17.5946766 L63.2009918,20.6294154 C62.83409,20.6896892 62.4641229,20.7295318 62.0928007,20.748759 C61.6836224,20.7658081 61.2914933,20.7828572 60.8993641,20.7828572 C60.3174865,20.7879171 59.7360876,20.7480172 59.1603565,20.6635136 C58.6496348,20.594972 58.1572977,20.4269982 57.7111835,20.1690898 C57.2844327,19.9298189 56.9397999,19.5673602 56.7223361,19.1290951 C56.4623264,18.581447 56.3394497,17.9787658 56.3643051,17.3730384 L56.3643051,8.86554044 L53.9774319,8.86554044 L53.9774319,6.23997995 L56.3643051,6.23997995 L56.3643051,1.94360824 L60.3026458,1.94360824 L60.3026458,6.22293086 L63.2180409,6.22293086 Z M44.2253501,0.920662592 L44.2253501,8.37111671 C44.8220684,7.5357111 45.4528849,6.92194371 46.2371432,6.54686364 C46.9461862,6.18859904 47.7273968,5.99621135 48.5217218,5.98424354 C49.5787656,5.98424354 50.4482694,6.12063629 51.1131841,6.41047089 C51.7430396,6.66043603 52.295833,7.07209069 52.7157989,7.60390748 C53.1261079,8.15320938 53.4059661,8.7887207 53.5341555,9.46225873 C53.6971337,10.2645937 53.7771174,11.0815699 53.7728428,11.9002792 L53.7728428,20.7658081 L49.834502,20.7658081 L49.834502,12.6333902 C49.834502,11.4399536 49.646962,10.5534008 49.2718819,9.97373156 C48.8968019,9.39406236 48.2489363,9.08717866 47.294187,9.08717866 C46.2200941,9.08717866 45.4358358,9.41111145 44.9584611,10.0419279 C44.4810865,10.6727444 44.2423992,11.7297882 44.2423992,13.1960103 L44.2423992,20.748759 L40.3040584,20.748759 L40.3040584,0.920662592 L44.2253501,0.920662592 Z M39.1958673,22.0444902 C39.030536,22.8078742 38.6857183,23.5208871 38.1899708,24.1244797 C37.678498,24.7552961 36.9283378,25.3008671 35.9394904,25.7441436 C34.9506429,26.18742 33.6378627,26.4090583 31.9841005,26.4090583 C31.2549923,26.4062077 30.5285756,26.3204105 29.8188656,26.1533219 C29.1084804,25.9909503 28.4290851,25.7145861 27.8070725,25.3349653 C27.2125879,24.9674138 26.7015419,24.4795971 26.3067522,23.9028414 C25.894004,23.2783477 25.6583199,22.5536191 25.6247884,21.8058029 L29.5460801,21.8058029 C29.7336201,22.555963 30.0916511,23.0674358 30.6372221,23.3572704 C31.2101512,23.6573233 31.8488926,23.8096836 32.4955733,23.8005469 C33.6037645,23.8005469 34.422121,23.459565 34.9335938,22.7946503 C35.4450666,22.1297356 35.6837539,21.2772809 35.6667048,20.2543353 L35.6667048,18.3618859 C35.2205984,19.0920648 34.567942,19.6735223 33.7913045,20.0326971 C33.0106994,20.3921255 32.1615163,20.5782479 31.3021368,20.5782681 C30.2280438,20.5782681 29.2903437,20.390728 28.5231344,19.9985989 C27.7693482,19.6378083 27.109794,19.1066629 26.5965868,18.4471313 C26.085387,17.758942 25.7146277,16.9768714 25.5054448,16.1455036 C25.2684961,15.2326931 25.153833,14.2924552 25.1644629,13.3494522 C25.1616541,12.441428 25.2996872,11.5384609 25.5736411,10.6727444 C25.8266286,9.84725426 26.2250124,9.07358146 26.7500286,8.38816581 C27.2663147,7.72732547 27.9247841,7.19122649 28.6765763,6.81964915 C29.5041382,6.41686512 30.4161181,6.21810026 31.3362349,6.23997995 C32.1958234,6.21959589 33.0482601,6.40059273 33.8254027,6.76850187 C34.5871722,7.16562696 35.2111612,7.7836732 35.6155576,8.54160765 L35.6667048,6.61506002 L39.4175056,6.61506002 L39.4175056,20.0838444 C39.4274394,20.7441656 39.3529568,21.4030498 39.1958673,22.0444902 L39.1958673,22.0444902 Z M33.7913045,17.2707438 C34.2082509,17.0621329 34.5703334,16.7584508 34.8483483,16.3841909 C35.1319801,16.0045099 35.3455991,15.577272 35.4791648,15.122558 C35.6174061,14.6345252 35.6862778,14.1294658 35.6837539,13.6222377 C35.6896193,13.0550393 35.6324381,12.4889454 35.513263,11.9343774 C35.4140906,11.432174 35.2233767,10.9524996 34.9506429,10.5193026 C34.6982849,10.1132958 34.3461035,9.77872343 33.9276973,9.5475042 C33.4270883,9.29223461 32.8695961,9.1689995 32.3080333,9.18947323 C31.8091367,9.17673364 31.3155354,9.29425776 30.8759094,9.53045511 C30.4797046,9.75605446 30.13665,10.0642221 29.8700129,10.4340571 C29.5923773,10.829294 29.3953974,11.2753955 29.2903437,11.7468373 C29.166174,12.2546621 29.1032131,12.7755201 29.1028036,13.2983049 C29.1031719,13.8192303 29.1545645,14.3388671 29.2562455,14.8497725 C29.3470928,15.3383746 29.5261906,15.8063397 29.7847674,16.2307491 C30.0326451,16.6376281 30.3710322,16.9818494 30.7736148,17.2366456 C31.2377101,17.509839 31.7697687,17.6458095 32.3080333,17.6287748 C32.8234601,17.6254839 33.3311313,17.5029426 33.7913045,17.2707438 L33.7913045,17.2707438 Z M20.3566184,4.17703956 L20.3566184,0.920662592 L24.2949591,0.920662592 L24.2949591,4.17703956 L20.3566184,4.17703956 Z M24.2949591,6.3763727 L24.2949591,20.7658081 L20.3566184,20.7658081 L20.3566184,6.3763727 L24.2949591,6.3763727 Z M18.9244944,0.920662592 L18.9244944,20.7658081 L14.9861537,20.7658081 L14.9861537,0.920662592 L18.9244944,0.920662592 Z M13.9802572,0.86951531 L13.9802572,4.56916873 L4.38161718,4.56916873 L4.38161718,9.13832595 L12.7015751,9.13832595 L12.7015751,12.5481448 L4.38161718,12.5481448 L4.38161718,20.7658081 L0,20.7658081 L0,0.86951531 L13.9802572,0.86951531 Z M110.631572,23.3402213 L110.631572,29.6995334 L109.369939,29.6995334 L109.369939,23.3402213 L110.631572,23.3402213 Z M104.868978,25.7611927 C104.99846,25.5691345 105.16692,25.4064833 105.363402,25.2838181 C105.574736,25.1608547 105.805288,25.0743979 106.045365,25.0280816 C106.298216,24.9800287 106.555212,24.9571847 106.812575,24.9598853 C107.046511,24.9599539 107.280132,24.9770481 107.511587,25.0110326 C107.735287,25.0427674 107.953392,25.1059029 108.159453,25.1985726 C108.346878,25.290425 108.510324,25.424684 108.636828,25.5907017 C108.766782,25.7875284 108.832321,26.0198927 108.824368,26.2556164 L108.824368,28.6595387 C108.824368,28.8641278 108.841417,29.0687169 108.858466,29.256257 C108.868025,29.4051114 108.908681,29.5503092 108.977809,29.6824843 L107.699127,29.6824843 L107.613882,29.2392079 C107.4149,29.4431309 107.169074,29.5953084 106.89782,29.6824843 C106.627144,29.7649827 106.345363,29.8052372 106.062414,29.801828 C105.854934,29.8009813 105.648505,29.7723105 105.448647,29.7165825 C105.266645,29.6697586 105.09761,29.5823266 104.954223,29.4608461 C104.813597,29.3426171 104.697718,29.1977675 104.613241,29.0346188 C104.526469,28.8420313 104.485615,28.6319217 104.493898,28.4208514 C104.489069,28.1972934 104.535737,27.9756212 104.63029,27.7729858 C104.711308,27.6073037 104.83486,27.4661013 104.988321,27.3638075 C105.139562,27.2627752 105.306694,27.1878543 105.482745,27.1421693 C105.670285,27.091022 105.857825,27.0569238 106.045365,27.0228257 L106.607985,26.9546293 C106.774528,26.9374036 106.939714,26.9089234 107.102409,26.8693838 C107.225557,26.8426663 107.341723,26.7903915 107.443391,26.715942 C107.529695,26.6384354 107.574,26.5245082 107.562735,26.4090583 C107.570277,26.2968601 107.546677,26.1847592 107.494538,26.0851255 C107.238802,25.8464382 107.153556,25.8293891 107.051262,25.81234 C106.943942,25.7977035 106.835592,25.7920009 106.727329,25.7952909 C106.517436,25.7844497 106.309239,25.837986 106.130611,25.9487327 C105.979707,26.084818 105.887939,26.2744728 105.874874,26.4772546 L104.613241,26.4772546 C104.66464,26.2277989 104.750722,25.9867707 104.868978,25.7611927 L104.868978,25.7611927 Z M107.375195,27.5513476 L107.119458,27.6195439 L106.829624,27.6706912 L106.52274,27.7218385 L106.249954,27.7900349 C106.165604,27.8194184 106.085384,27.8595286 106.011267,27.9093785 C105.806678,28.1821641 105.789629,28.2674095 105.789629,28.3867532 C105.783724,28.4879381 105.807421,28.5886521 105.857825,28.6765878 C106.096513,28.898226 106.181758,28.9323242 106.284053,28.9493733 C106.379492,28.9691283 106.476469,28.9805374 106.573887,28.9834715 C106.774421,28.9979412 106.975047,28.9566357 107.153556,28.8641278 C107.279874,28.7890669 107.385379,28.6835619 107.46044,28.5572441 C107.522877,28.4466863 107.563398,28.3251214 107.579784,28.1992131 L107.596833,27.9093785 L107.596833,27.4320039 L107.375195,27.5513476 Z M101.118177,25.096278 L101.118177,25.7441436 C101.2766,25.49492 101.500804,25.2943159 101.766043,25.1644744 C102.010239,25.044352 102.278179,24.9802793 102.550301,24.9769344 C102.834793,24.9705581 103.118015,25.0167984 103.385707,25.1133271 C103.587239,25.1893225 103.764122,25.319037 103.897179,25.4884072 C104.022713,25.6675215 104.109787,25.870695 104.152916,26.0851255 C104.203233,26.3434097 104.226092,26.6062912 104.221112,26.8693838 L104.221112,29.6995334 L102.959479,29.6995334 L102.959479,27.1080711 C102.959479,26.7329911 102.908332,26.4431565 102.771939,26.2556164 C102.635546,26.0680764 102.448006,25.9828309 102.141123,25.9828309 C101.856121,25.9575681 101.576541,26.0719418 101.390963,26.2897146 C101.237521,26.4943037 101.152275,26.8352856 101.152275,27.2956112 L101.152275,29.6995334 L99.8906423,29.6995334 L99.8906423,25.096278 L101.118177,25.096278 Z M94.9975523,26.3920092 C95.1053001,26.1076766 95.2674499,25.8470788 95.4749269,25.6247999 C95.6900456,25.4122793 95.9449619,25.2442663 96.2250871,25.1303762 C96.5346929,25.0103236 96.8649032,24.952392 97.1968854,24.9598853 C97.5342953,24.9539543 97.8697901,25.0117983 98.1857329,25.1303762 C98.4691505,25.2379199 98.7253083,25.4067511 98.935893,25.6247999 C99.152681,25.8398011 99.3161623,26.1025388 99.4132677,26.3920092 C99.5332914,26.7134843 99.5911475,27.0548352 99.5837586,27.3979057 C99.5927864,27.7355461 99.5348408,28.0716302 99.4132677,28.3867532 C99.3014692,28.6690631 99.1397659,28.9289433 98.935893,29.1539624 C98.7243936,29.3668217 98.4681346,29.5298956 98.1857329,29.6313371 C97.87061,29.7529102 97.5345258,29.8108558 97.1968854,29.801828 C96.8649032,29.8093213 96.5346929,29.7513896 96.2250871,29.6313371 C95.9458976,29.523441 95.6909131,29.3611781 95.4749269,29.1539624 C95.2581389,28.9389613 95.0946577,28.6762235 94.9975523,28.3867532 C94.8775126,28.0712087 94.8196196,27.7354298 94.8270614,27.3979057 C94.8211711,27.0549467 94.8789803,26.7138729 94.9975523,26.3920092 L94.9975523,26.3920092 Z M96.1398416,27.9264276 C96.1769066,28.0944111 96.2401952,28.2555094 96.3273816,28.4038023 C96.4140533,28.5415795 96.5305863,28.6581125 96.6683635,28.7447842 C96.8303976,28.8319119 97.0131344,28.8731751 97.1968854,28.8641278 C97.3859018,28.8710468 97.5735923,28.8299895 97.7424565,28.7447842 C97.8876586,28.66778 98.0064342,28.5490044 98.0834383,28.4038023 C98.1762971,28.2583345 98.2399918,28.0962024 98.2709784,27.9264276 C98.3056873,27.7466607 98.3228172,27.5639423 98.3221458,27.3808566 C98.3220134,27.1978079 98.3048907,27.0151656 98.2709784,26.8352856 C98.2369297,26.6663981 98.1734498,26.5048131 98.0834383,26.357911 C97.8987302,26.0473002 97.5578769,25.8637638 97.1968854,25.8805363 C97.0112884,25.8744785 96.8278522,25.9218169 96.6683635,26.0169291 C96.5305863,26.1036007 96.4140533,26.2201337 96.3273816,26.357911 C96.2345229,26.5033788 96.1708281,26.6655109 96.1398416,26.8352856 C96.1051326,27.0150525 96.0880028,27.1977709 96.0886943,27.3808566 C96.087178,27.5639784 96.1043156,27.7467786 96.1398416,27.9264276 L96.1398416,27.9264276 Z M93.2073974,24.5679631 L93.2073974,23.3402213 L94.4690304,23.3402213 L94.4690304,24.5679631 L93.2073974,24.5679631 Z M94.4690304,25.096278 L94.4690304,29.6995334 L93.2073974,29.6995334 L93.2073974,25.096278 L94.4690304,25.096278 Z M92.8664155,25.096278 L92.8664155,25.9487327 L91.9457645,25.9487327 L91.9457645,28.2162622 C91.9264007,28.3660773 91.9628097,28.5177817 92.048059,28.6424896 C92.1738764,28.7252076 92.3246315,28.7613888 92.4742864,28.7447842 L92.8664155,28.710686 L92.8664155,29.6995334 C92.7482481,29.7209836 92.6284767,29.7323904 92.5083846,29.7336316 L92.1333045,29.7336316 C91.9287154,29.7336316 91.7582244,29.7165825 91.5706844,29.6995334 C91.4110997,29.6690923 91.2562913,29.6174895 91.1103589,29.5460916 C90.9783133,29.4652127 90.867305,29.3542043 90.7864261,29.2221588 C90.695661,29.0491628 90.6543658,28.8544853 90.6670824,28.6595387 L90.6670824,25.9487327 L89.8998732,25.9487327 L89.8998732,25.096278 L90.6670824,25.096278 L90.6670824,23.7153014 L91.9287154,23.7153014 L91.9287154,25.096278 L92.8664155,25.096278 Z M85.8933361,25.7611927 C86.0228178,25.5691345 86.191278,25.4064833 86.3877598,25.2838181 C86.5990945,25.1608547 86.8296462,25.0743979 87.0697235,25.0280816 C87.3225747,24.9800287 87.5795702,24.9571847 87.8369328,24.9598853 C88.0708464,24.9605697 88.3044238,24.9776607 88.5359456,25.0110326 C88.7596457,25.0427674 88.9777501,25.1059029 89.1838112,25.1985726 C89.3712364,25.290425 89.5346822,25.424684 89.6611859,25.5907017 C89.7911405,25.7875284 89.8566791,26.0198927 89.8487259,26.2556164 L89.8487259,28.6595387 C89.8487259,28.8641278 89.865775,29.0687169 89.8828241,29.256257 C89.8923836,29.4051114 89.933039,29.5503092 90.0021677,29.6824843 L88.7234857,29.6824843 L88.6382402,29.2392079 C88.4392579,29.4431309 88.1934326,29.5953084 87.9221783,29.6824843 C87.6515024,29.7649827 87.369721,29.8052372 87.0867726,29.801828 C86.8792924,29.8009813 86.6728631,29.7723105 86.4730053,29.7165825 C86.2910033,29.6697586 86.121968,29.5823266 85.9785815,29.4608461 C85.8379556,29.3426171 85.7220759,29.1977675 85.6375996,29.0346188 C85.5508278,28.8420313 85.5099731,28.6319217 85.518256,28.4208514 C85.5134273,28.1972934 85.5600951,27.9756212 85.6546487,27.7729858 C85.7356662,27.6073037 85.8592184,27.4661013 86.0126797,27.3638075 C86.1639205,27.2627752 86.3310518,27.1878543 86.5071034,27.1421693 C86.6946435,27.091022 86.8821835,27.0569238 87.0697235,27.0228257 L87.6323437,26.9546293 C87.7988864,26.9374036 87.9640719,26.9089234 88.1267674,26.8693838 C88.2499149,26.8426663 88.3660812,26.7903915 88.4677493,26.715942 C88.5540529,26.6384354 88.5983579,26.5245082 88.5870929,26.4090583 C88.5946353,26.2968601 88.5710351,26.1847592 88.5188965,26.0851255 C88.2631601,25.8464382 88.1779147,25.8293891 88.0756201,25.81234 C87.9683003,25.7977035 87.8599506,25.7920009 87.7516873,25.7952909 C87.5417938,25.7844497 87.3335971,25.837986 87.154969,25.9487327 C87.0040652,26.084818 86.9122968,26.2744728 86.8992326,26.4772546 L85.6375996,26.4772546 C85.6732909,26.2236667 85.7603084,25.9800177 85.8933361,25.7611927 Z M88.3825038,27.5513476 L88.1267674,27.6195439 L87.8369328,27.6706912 L87.5300491,27.7218385 L87.2572636,27.7900349 C87.1729136,27.8194184 87.092693,27.8595286 87.0185763,27.9093785 C86.8139871,28.1821641 86.796938,28.2674095 86.796938,28.3867532 C86.7910328,28.4879381 86.8147302,28.5886521 86.8651344,28.6765878 C87.1038217,28.898226 87.1890672,28.9323242 87.2913618,28.9493733 C87.3868008,28.9691283 87.4837784,28.9805374 87.5811964,28.9834715 C87.7817301,28.9979412 87.9823567,28.9566357 88.1608656,28.8641278 C88.2871834,28.7890669 88.3926884,28.6835619 88.4677493,28.5572441 C88.5301859,28.4466863 88.5707075,28.3251214 88.5870929,28.1992131 L88.604142,27.9093785 L88.604142,27.4320039 L88.3825038,27.5513476 Z M82.1254863,25.096278 L82.1254863,25.7441436 C82.2839089,25.49492 82.5081136,25.2943159 82.7733518,25.1644744 C83.0175484,25.044352 83.2854885,24.9802793 83.5576102,24.9769344 C83.8421024,24.9705581 84.1253244,25.0167984 84.3930158,25.1133271 C84.5945479,25.1893225 84.7714313,25.319037 84.9044886,25.4884072 C85.0300218,25.6675215 85.1170962,25.870695 85.160225,26.0851255 C85.2105419,26.3434097 85.2334011,26.6062912 85.2284214,26.8693838 L85.2284214,29.6995334 L83.9667884,29.6995334 L83.9667884,27.1080711 C83.9878401,26.8137461 83.9289317,26.5192042 83.7962975,26.2556164 C83.6769538,26.0680764 83.4723647,25.9828309 83.165481,25.9828309 C82.8804792,25.9575681 82.600899,26.0719418 82.4153209,26.2897146 C82.261879,26.4943037 82.1766335,26.8352856 82.1766335,27.2956112 L82.1766335,29.6995334 L80.9150006,29.6995334 L80.9150006,25.096278 L82.1254863,25.096278 Z M79.005502,25.096278 L79.005502,25.9487327 C79.0745638,25.808155 79.1604376,25.6764819 79.2612385,25.5566036 C79.3621891,25.4410129 79.4766712,25.3379789 79.6022203,25.2497199 C79.7355317,25.1645951 79.8786459,25.0959003 80.0284477,25.0451307 C80.1771593,24.9975141 80.3326436,24.9744794 80.4887732,24.9769344 C80.5818852,24.9789675 80.6740348,24.9962455 80.7615587,25.0280816 L80.7615587,26.2044691 L80.3012332,26.1533219 C80.0956474,26.1448384 79.8910235,26.1857632 79.7045149,26.2726655 C79.5523392,26.3516538 79.4186793,26.4620684 79.3123857,26.5965983 C79.2102783,26.7326074 79.1403293,26.8899926 79.1077966,27.0569238 C79.0662922,27.2474735 79.0434522,27.4416137 79.0396002,27.636593 L79.0396002,29.7165825 L77.7779673,29.7165825 L77.7779673,25.1133271 L79.005502,25.1133271 L79.005502,25.096278 L79.005502,25.096278 Z M74.5215903,28.5913423 C74.7461393,28.7894108 75.0414665,28.8878532 75.3399468,28.8641278 C75.5750583,28.8672369 75.8060256,28.8020923 76.0048615,28.6765878 C76.1638379,28.5854092 76.2848274,28.4402218 76.3458434,28.2674095 L77.4540345,28.2674095 C77.2835435,28.8129805 77.010758,29.2221588 76.635678,29.4608461 C76.2363309,29.7062305 75.7744148,29.8305925 75.3058486,29.8188771 C74.9738664,29.8263704 74.6436561,29.7684387 74.3340503,29.6483861 C74.0557141,29.5406031 73.8051674,29.3716298 73.6009392,29.1539624 C73.3964723,28.9325265 73.2397786,28.6713702 73.1406137,28.3867532 C73.0301839,28.074543 72.9725641,27.7461103 72.9701227,27.4149548 C72.9641138,27.0886294 73.0220328,26.7642828 73.1406137,26.4602055 C73.2524122,26.1778957 73.4141154,25.9180155 73.6179883,25.6929963 C73.8276906,25.46977 74.0837446,25.2951877 74.3681484,25.1815235 C74.6711037,25.0572822 74.9954567,24.99357 75.3228977,24.9939835 C75.6769124,24.9826749 76.028257,25.0587996 76.3458434,25.2156217 C76.6283423,25.3627362 76.8733158,25.5727135 77.0619053,25.8293891 C77.2520169,26.0907636 77.3908604,26.3858061 77.4710836,26.6988929 C77.5601352,27.032087 77.589003,27.3785006 77.556329,27.7218385 L74.2317557,27.7218385 C74.2087864,28.0386971 74.3130997,28.351637 74.5215903,28.5913423 L74.5215903,28.5913423 Z M75.9537142,26.2319442 C75.7752865,26.0068921 75.5256766,25.890975 75.2717504,25.9152451 C75.1009842,25.9056496 74.9309988,25.9492028 74.7773267,26.0419247 C74.6524251,26.1178287 74.5420007,26.2257872 74.4533939,26.3586239 C74.3737768,26.4754746 74.3156055,26.6123474 74.282903,26.7597761 C74.2519794,26.8829865 74.2347717,27.0108447 74.2317557,27.1398151 L76.2946961,27.1398151 C76.2405812,26.8080682 76.1237249,26.4969361 75.9537142,26.2319442 Z M73.0553682,25.096278 L73.0553682,25.9487327 L72.1347171,25.9487327 L72.1347171,28.2162622 C72.0859536,28.36627 72.1254784,28.5309526 72.2370135,28.6424877 C72.3485487,28.7540229 72.5132313,28.7935476 72.663239,28.7447842 L73.0553682,28.710686 L73.0553682,29.6995334 C72.9372007,29.7209836 72.8174293,29.7323904 72.6973372,29.7336316 L72.3222572,29.7336316 C72.1347171,29.7336316 71.9471771,29.7165825 71.7596371,29.6995334 C71.6000523,29.6690923 71.445244,29.6174895 71.2993115,29.5460916 C71.167266,29.4652127 71.0562576,29.3542043 70.9753787,29.2221588 C70.8846136,29.0491628 70.8433184,28.8544853 70.8560351,28.6595387 L70.8560351,25.9487327 L70.0888258,25.9487327 L70.0888258,25.096278 L70.8560351,25.096278 L70.8560351,23.7153014 L72.117668,23.7153014 L72.117668,25.096278 L73.0553682,25.096278 Z M66.9517925,25.096278 L66.9517925,25.7441436 C67.1102152,25.49492 67.3344198,25.2943159 67.5996581,25.1644744 C67.8438547,25.044352 68.1117948,24.9802793 68.3839164,24.9769344 C68.6684086,24.9705581 68.9516306,25.0167984 69.219322,25.1133271 C69.4208542,25.1893225 69.5977376,25.319037 69.7307949,25.4884072 C69.8563281,25.6675215 69.9434024,25.870695 69.9865313,26.0851255 C70.0368481,26.3434097 70.0597074,26.6062912 70.0547276,26.8693838 L70.0547276,29.6995334 L68.7930947,29.6995334 L68.7930947,27.1080711 C68.8056542,26.8143429 68.7471695,26.5219196 68.6226037,26.2556164 C68.5032601,26.0680764 68.2986709,25.9828309 67.9917873,25.9828309 C67.7067855,25.9575681 67.4272052,26.0719418 67.2416271,26.2897146 C67.0881853,26.4943037 67.0029398,26.8352856 67.0029398,27.2956112 L67.0029398,29.6995334 L65.7413068,29.6995334 L65.7413068,25.096278 L66.9517925,25.096278 Z M63.9852501,24.5679631 L63.9852501,23.3402213 L65.2468831,23.3402213 L65.2468831,24.5679631 L63.9852501,24.5679631 Z M65.2468831,25.096278 L65.2468831,29.6995334 L63.9852501,29.6995334 L63.9852501,25.096278 L65.2468831,25.096278 Z M94.5372268,9.00193319 L94.5372268,6.3763727 L96.9070508,6.3763727 L96.9070508,5.26818159 C96.9070508,3.98949953 97.29918,2.94950479 98.1004874,2.14819737 C98.9017949,1.34688994 100.095231,0.937711686 101.714895,0.937711686 C102.072926,0.937711686 102.413908,0.95476078 102.771939,0.971809874 L103.794885,1.04000625 L103.794885,3.98949953 C103.314946,3.92031474 102.830611,3.88612637 102.345712,3.88720496 C101.800141,3.88720496 101.425061,4.00654862 101.186373,4.26228503 C100.947686,4.51802145 100.845392,4.9271997 100.845392,5.523918 L100.845392,6.3763727 L103.573247,6.3763727 L103.573247,9.00193319 L100.845392,9.00193319 L100.845392,20.7828572 L96.9070508,20.7828572 L96.9070508,9.00193319 L94.5372268,9.00193319 Z" id="Shape"></path><path d="M137.722582,19.5382733 C137.722582,20.5175326 138.516429,21.3113791 139.495688,21.3113791 C140.474947,21.3113791 141.268794,20.5175326 141.268794,19.5382733 C141.268794,18.4812295 140.433388,17.8163148 139.495688,17.8163148 C138.557988,17.8163148 137.722582,18.4982786 137.722582,19.5382733 Z M138.199957,19.5382733 C138.186522,19.1859836 138.317026,18.8433949 138.561443,18.58933 C138.80586,18.3352651 139.143142,18.1916021 139.495688,18.1913949 C140.054254,18.1634671 140.573267,18.4793552 140.805061,18.9883216 C141.036856,19.497288 140.934455,20.0961819 140.546723,20.4992195 C140.158991,20.902257 139.564508,21.0277556 139.046953,20.815829 C138.529398,20.6039025 138.193664,20.0975014 138.199957,19.5382733 L138.199957,19.5382733 Z M138.813724,20.5100717 L139.188804,20.5100717 L139.188804,19.6746661 L139.427492,19.6746661 L139.904866,20.5100717 L140.314044,20.5100717 L139.802572,19.657617 C140.092406,19.6405679 140.314044,19.5041752 140.314044,19.1461442 C140.314044,18.7199168 140.041259,18.566475 139.563884,18.566475 L138.830773,18.566475 L138.830773,20.5100717 L138.813724,20.5100717 Z M139.205853,18.8733587 L139.76126,18.8733587 C140.05358,18.8733587 140.433595,18.9552081 140.433595,19.4463048 C140.433595,20.019251 140.141276,20.1011005 139.790492,20.1011005 L139.205853,20.1011005 L139.205853,18.8733587 L139.205853,18.8733587 Z" id="Shape"></path></g></g></g></svg> 