<?xml version="1.0" encoding="UTF-8"?> <svg xmlns="http://www.w3.org/2000/svg" xmlns:xlink="http://www.w3.org/1999/xlink" width="167px" height="20px" viewBox="0 0 167 20" version="1.1"><title>logo</title><g id="Designs" stroke="none" stroke-width="1" fill="none" fill-rule="evenodd"><g id="Customers" transform="translate(-614.000000, -582.000000)" fill="#000000" fill-rule="nonzero"><g id="logo" transform="translate(614.000000, 582.000000)"><path d="M164.276749,7.1797535 L157.116939,7.1797535 L157.116939,5.52442144 L163.518886,5.52442144 C163.877874,5.52442144 164.266777,5.42470264 164.266777,4.99591181 C164.266777,4.5571491 163.887846,4.46740218 163.518886,4.46740218 L159.201062,4.46740218 C157.964549,4.46740218 156.987305,3.48018607 156.987305,2.23370109 C156.987305,0.987216106 157.954577,0.00997187986 159.201062,0.00997187986 L166.420703,0.00997187986 L166.420703,1.66530394 L159.968897,1.66530394 C159.639825,1.66530394 159.360612,1.79493838 159.360612,2.15392605 C159.360612,2.51291373 159.66974,2.64254816 159.968897,2.64254816 L164.276749,2.64254816 C165.593037,2.64254816 166.67,3.55996111 166.67,4.91613677 C166.67,6.27231243 165.603009,7.1797535 164.276749,7.1797535 L164.276749,7.1797535 Z M149.707832,7.1797535 C147.623709,7.1797535 145.858687,5.76374656 145.858687,3.58987675 C145.858687,1.40603506 147.613738,1.7963374e-16 149.707832,1.7963374e-16 L155.601213,1.7963374e-16 L155.601213,1.72513522 L150.395892,1.72513522 C149.259098,1.72513522 148.281854,2.37330741 148.281854,3.59984863 C148.281854,4.81641797 149.26907,5.46459016 150.395892,5.46459016 L155.601213,5.46459016 L155.601213,7.1797535 L149.707832,7.1797535 Z M142.218951,7.1797535 L144.592258,7.1797535 L144.592258,1.7963374e-16 L142.218951,1.7963374e-16 L142.218951,7.1797535 Z M138.389749,7.1797535 L138.389749,1.7351071 L138.329917,1.7351071 L135.258578,7.1797535 L132.965046,7.1797535 L129.96351,1.7351071 L129.903679,1.7351071 L129.903679,7.1797535 L127.640062,7.1797535 L127.640062,-7.0854468e-16 L131.409433,-7.0854468e-16 L134.141728,5.04577121 L134.191587,5.04577121 L136.903939,-7.0854468e-16 L140.643394,-7.0854468e-16 L140.643394,7.1797535 L138.389749,7.1797535 Z M120.430393,1.29634438 L120.350618,1.29634438 L118.595567,4.1084145 L122.205388,4.1084145 L120.430393,1.29634438 Z M124.040214,7.1797535 L123.152716,5.81360596 L117.568464,5.81360596 L116.740798,7.1797535 L114.028446,7.1797535 L118.735174,1.7963374e-16 L122.225331,1.7963374e-16 L126.912115,7.1797535 L124.040214,7.1797535 Z M110.59812,7.1797535 L105.921308,2.16389793 L105.891392,2.16389793 L105.891392,7.1797535 L103.627776,7.1797535 L103.617804,1.7963374e-16 L106.918496,1.7963374e-16 L111.246292,4.66683978 L111.276207,4.66683978 L111.276207,1.7963374e-16 L113.450077,1.7963374e-16 L113.450077,7.1797535 L110.59812,7.1797535 Z M98.2230166,4.67681165 L98.2230166,7.1797535 L95.8596811,7.1797535 L95.8596811,4.69675541 L91.2127851,1.7963374e-16 L94.2741522,1.7963374e-16 L97.1759692,2.85195764 L100.067814,1.7963374e-16 L102.9098,1.7963374e-16 L98.2230166,4.67681165 Z M87.0943987,1.72513522 L83.3250281,1.72513522 L83.3250281,5.45461828 L87.0943987,5.45461828 C88.231193,5.45461828 89.2084372,4.81641797 89.2084372,3.58987675 C89.2084372,2.37330741 88.231193,1.72513522 87.0943987,1.72513522 L87.0943987,1.72513522 Z M87.7724865,7.1797535 L80.9616926,7.1797535 L80.9616926,1.7963374e-16 L87.7724865,1.7963374e-16 C89.8765532,1.7963374e-16 91.6216322,1.40603506 91.6216322,3.58987675 C91.6216322,5.76374656 89.8665813,7.1797535 87.7724865,7.1797535 L87.7724865,7.1797535 Z M66.6819606,7.1797535 L66.6819606,1.7963374e-16 L69.055268,1.7963374e-16 L69.055268,5.45461828 L74.8987896,5.45461828 L74.8987896,7.1797535 L66.6819606,7.1797535 Z M59.4722915,1.29634438 L59.3925165,1.29634438 L57.6374656,4.1084145 L61.2472861,4.1084145 L59.4722915,1.29634438 Z M63.082112,7.1797535 L62.1946147,5.81360596 L56.610362,5.81360596 L55.7826959,7.1797535 L53.0703446,7.1797535 L57.7770719,1.7963374e-16 L61.2672299,1.7963374e-16 L65.9540134,7.1797535 L63.082112,7.1797535 Z M49.1613677,1.61544454 L45.2623627,1.61544454 L45.2623627,3.32063599 L49.1613677,3.32063599 C49.6998492,3.32063599 50.2283589,3.071339 50.2283589,2.47302621 C50.218387,1.85476965 49.7098211,1.61544454 49.1613677,1.61544454 L49.1613677,1.61544454 Z M50.7070091,4.71669917 C51.3252656,5.5443652 51.9534941,6.36205935 52.5617787,7.1797535 L49.8494274,7.1797535 L48.224011,4.93608053 L45.2623627,4.93608053 L45.2623627,7.1797535 L42.8790834,7.1797535 L42.8790834,1.7963374e-16 L49.6400179,1.7963374e-16 C51.2255468,1.7963374e-16 52.6914132,0.72794723 52.6914132,2.49296997 C52.6814413,3.76937059 51.8637472,4.44745842 50.7070091,4.71669917 L50.7070091,4.71669917 Z M33.1664724,7.1797535 L33.1664724,1.7963374e-16 L41.4331608,1.7963374e-16 L41.4331608,1.72513522 L35.5397798,1.72513522 L35.5397798,2.73229508 L41.4331608,2.73229508 L41.4331608,4.3078521 L35.5397798,4.3078521 L35.5397798,5.46459016 L41.4331608,5.46459016 L41.4331608,7.1797535 L33.1664724,7.1797535 Z M28.7888172,7.1797535 L23.9524554,1.56558514 L23.9325117,1.56558514 L23.9325117,7.1797535 L21.6589231,7.1797535 L21.6589231,1.7963374e-16 L25.3684624,1.7963374e-16 L29.3771581,4.66683978 L29.4070737,4.66683978 L29.4070737,1.7963374e-16 L31.5809435,1.7963374e-16 L31.5809435,7.1797535 L28.7888172,7.1797535 Z M11.9363402,7.1797535 L11.9363402,1.7963374e-16 L20.2130005,1.7963374e-16 L20.2130005,1.72513522 L14.3096476,1.72513522 L14.3096476,2.73229508 L20.2130005,2.73229508 L20.2130005,4.3078521 L14.3096476,4.3078521 L14.3096476,5.46459016 L20.2130005,5.46459016 L20.2130005,7.1797535 L11.9363402,7.1797535 Z M3.84914563,7.1797535 C1.75505086,7.1797535 0,5.76374656 0,3.58987675 C0,1.40603506 1.74507898,1.7963374e-16 3.84914563,1.7963374e-16 L10.3508113,1.7963374e-16 L10.3508113,1.72513522 L4.52723346,1.72513522 C3.39043915,1.72513522 2.41319493,2.37330741 2.41319493,3.59984863 C2.41319493,4.81641797 3.40041103,5.46459016 4.52723346,5.46459016 L7.97750389,5.46459016 L7.97750389,4.29788022 L5.41473076,4.29788022 L5.41473076,2.7223232 L10.3508113,2.7223232 L10.3508113,7.1797535 L3.84914563,7.1797535 Z M105.921308,12.3850748 L107.696303,16.7926457 L109.461325,12.3850748 L110.139413,12.3850748 L107.227624,19.6645471 L106.529593,19.6645471 L107.327343,17.6502274 L105.143501,12.3850748 L105.921308,12.3850748 Z M102.012331,12.8038937 C100.865565,12.8038937 100.386915,13.9606318 100.386915,14.9279042 C100.386915,15.8951765 100.875537,17.0618864 102.032275,17.0618864 C103.238872,17.0618864 103.697579,15.935064 103.697579,14.9079604 C103.697579,13.8908286 103.139153,12.8038937 102.012331,12.8038937 Z M103.727494,12.3850748 L104.375667,12.3850748 C104.355723,12.7440625 104.325807,13.1628814 104.325807,13.5717285 L104.325807,16.7328144 C104.325807,17.7798618 104.375667,18.8867405 103.208957,19.4351938 C102.790138,19.6346314 102.510925,19.674519 102.012331,19.674519 C101.055031,19.674519 99.9282081,19.3454469 99.9282081,18.258512 L100.606296,18.258512 C100.676099,18.8867405 101.42399,19.0961499 102.092106,19.0961499 C102.9098,19.0961499 103.667663,18.5177809 103.687607,17.6402555 L103.687607,16.6530394 L103.667663,16.6530394 C103.358535,17.2712959 102.640559,17.6402555 101.9525,17.6402555 C100.366971,17.6402555 99.688883,16.433658 99.688883,14.9877354 C99.688883,13.5617566 100.327083,12.2354966 101.932556,12.2354966 C102.700391,12.2354966 103.248844,12.6044561 103.667663,13.2127408 L103.687607,13.1728533 L103.727494,12.3850748 Z M96.3084157,12.8038937 C95.041987,12.8038937 94.5334211,14.0404068 94.5334211,15.0176511 C94.5334211,15.9948953 95.041987,17.2314084 96.3084157,17.2314084 C97.5848163,17.2314084 98.0834103,15.9948953 98.0834103,15.0176511 C98.0834103,14.0404068 97.5848163,12.8038937 96.3084157,12.8038937 Z M98.77147,15.0176511 C98.77147,16.4037424 97.9936634,17.8097774 96.3183876,17.8097774 C94.6431118,17.8097774 93.8653051,16.4037424 93.8653051,15.0176511 C93.8653051,13.6315598 94.6431118,12.2255247 96.3183876,12.2255247 C97.9936634,12.2255247 98.77147,13.6315598 98.77147,15.0176511 Z M91.9108167,17.6502274 L92.5390451,17.6502274 L92.5390451,10.0715987 L91.9108167,10.0715987 L91.9108167,17.6502274 Z M88.1414461,12.8038937 C86.8750174,12.8038937 86.3664515,14.0404068 86.3664515,15.0176511 C86.3664515,15.9948953 86.8750174,17.2314084 88.1414461,17.2314084 C89.4078748,17.2314084 89.9164407,15.9948953 89.9164407,15.0176511 C89.9164407,14.0404068 89.4178467,12.8038937 88.1414461,12.8038937 Z M90.6045004,15.0176511 C90.6045004,16.4037424 89.8266938,17.8097774 88.151418,17.8097774 C86.4761422,17.8097774 85.6983355,16.4037424 85.6983355,15.0176511 C85.6983355,13.6315598 86.4761422,12.2255247 88.151418,12.2255247 C89.8266938,12.2255247 90.6045004,13.6315598 90.6045004,15.0176511 Z M80.8619738,17.6502274 L80.2337454,17.6502274 L80.2337454,13.5717285 C80.2337454,13.1628814 80.2038297,12.7440625 80.183886,12.3850748 L80.8320582,12.3850748 L80.8619738,13.1628814 L80.8819176,13.1828252 C81.2508771,12.534653 81.8491899,12.2255247 82.5272777,12.2255247 C84.2524129,12.2255247 84.3820474,13.7512223 84.3820474,14.359507 L84.3820474,17.6502274 L83.753819,17.6502274 L83.753819,14.2498163 C83.753819,13.3324034 83.2253093,12.8038937 82.3677277,12.8038937 C81.3306521,12.8038937 80.8520019,13.6714473 80.8520019,14.6187759 L80.8520019,17.6502274 L80.8619738,17.6502274 Z M75.0284241,13.1828252 L75.0483678,13.1828252 C75.4173274,12.534653 76.0156402,12.2255247 76.693728,12.2255247 C78.4188632,12.2255247 78.5484977,13.7512223 78.5484977,14.359507 L78.5484977,17.6502274 L77.9202692,17.6502274 L77.9202692,14.2498163 C77.9202692,13.3324034 77.3917596,12.8038937 76.5341779,12.8038937 C75.4971024,12.8038937 75.0184522,13.6714473 75.0184522,14.6187759 L75.0184522,17.6502274 L74.3902238,17.6502274 L74.3902238,10.0715987 L75.0184522,10.0715987 L75.0184522,13.1828252 L75.0284241,13.1828252 Z M72.4756228,14.0005193 C72.4257634,13.1927971 71.9072257,12.8038937 71.0396721,12.8038937 C70.0723998,12.8038937 69.474087,13.8110536 69.474087,15.0076792 C69.474087,16.2142767 70.0723998,17.2314084 71.0396721,17.2314084 C71.8573663,17.2314084 72.4257634,16.7228425 72.4756228,16.0048672 L73.1537107,16.0048672 C72.9841887,17.2114646 72.296129,17.8097774 71.0995034,17.8097774 C69.5239464,17.8097774 68.7860273,16.4536018 68.7860273,15.0176511 C68.7860273,13.5916723 69.5738058,12.2255247 71.1393909,12.2255247 C72.216354,12.2255247 73.1038513,12.8736969 73.1537107,14.0005193 L72.4756228,14.0005193 Z M67.0708639,14.5888602 C67.0010608,13.5717285 66.4526074,12.8038937 65.3557006,12.8038937 C64.328597,12.8038937 63.7801436,13.6614754 63.7003686,14.5888602 L67.0708639,14.5888602 Z M63.6804248,15.1672293 C63.7003686,16.2940517 64.2189063,17.2314084 65.5052788,17.2314084 C66.2531698,17.2314084 66.8714263,16.6929269 67.0309764,15.9749515 L67.6891205,15.9749515 C67.3600485,17.2314084 66.57227,17.8097774 65.3058412,17.8097774 C63.7302842,17.8097774 62.9923651,16.4536018 62.9923651,15.0176511 C62.9923651,13.5916723 63.7801436,12.2255247 65.3457287,12.2255247 C67.1107515,12.2255247 67.7489518,13.5118972 67.7489518,15.1672293 L63.6804248,15.1672293 Z M59.2329664,10.6998271 L56.7898558,10.6998271 L56.7898558,10.0715987 L62.3242491,10.0715987 L62.3242491,10.6998271 L59.9210261,10.6998271 L59.9110542,17.6502274 L59.2429383,17.6502274 L59.2329664,10.6998271 Z M49.3508334,17.6502274 L48.722605,17.6502274 L48.722605,13.5717285 C48.722605,13.1628814 48.6926894,12.7440625 48.6727456,12.3850748 L49.3209178,12.3850748 L49.3508334,13.1628814 L49.3707772,13.1828252 C49.7397367,12.534653 50.3380495,12.2255247 51.0161374,12.2255247 C52.7412726,12.2255247 52.870907,13.7512223 52.870907,14.359507 L52.870907,17.6502274 L52.2526505,17.6502274 L52.2526505,14.2498163 C52.2526505,13.3324034 51.7241408,12.8038937 50.8665592,12.8038937 C49.8294837,12.8038937 49.3508334,13.6714473 49.3508334,14.6187759 L49.3508334,17.6502274 L49.3508334,17.6502274 Z M44.9632063,12.8038937 C43.6967776,12.8038937 43.1882117,14.0404068 43.1882117,15.0176511 C43.1882117,15.9948953 43.6967776,17.2314084 44.9632063,17.2314084 C46.229635,17.2314084 46.7382009,15.9948953 46.7382009,15.0176511 C46.7382009,14.0404068 46.229635,12.8038937 44.9632063,12.8038937 Z M47.4162887,15.0176511 C47.4162887,16.4037424 46.6384821,17.8097774 44.9632063,17.8097774 C43.2879305,17.8097774 42.5101238,16.4037424 42.5101238,15.0176511 C42.5101238,13.6315598 43.2879305,12.2255247 44.9632063,12.2255247 C46.648454,12.2255247 47.4162887,13.6315598 47.4162887,15.0176511 Z M40.5656073,17.6502274 L41.1938357,17.6502274 L41.1938357,12.3850748 L40.5656073,12.3850748 L40.5656073,17.6502274 Z M40.5157479,10.8593772 L41.253667,10.8593772 L41.253667,10.0715987 L40.5157479,10.0715987 L40.5157479,10.8593772 Z M37.514212,12.9534719 L36.4671647,12.9534719 L36.4671647,12.3751029 L37.514212,12.3751029 L37.514212,11.2482805 L38.1424405,10.9790397 L38.1424405,12.3751029 L39.3390661,12.3751029 L39.3390661,12.9534719 L38.1424405,12.9534719 L38.1424405,16.4835174 C38.1324686,16.9621676 38.3817656,17.2314084 38.8703877,17.2314084 C39.0598534,17.2314084 39.2493191,17.2214365 39.4188411,17.1715771 L39.4188411,17.7200305 C39.2194035,17.7698899 38.9900503,17.8097774 38.7806408,17.8097774 C37.4444089,17.8097774 37.5241839,16.9621676 37.5241839,16.2441923 L37.5241839,12.9534719 L37.514212,12.9534719 Z M33.2163318,17.2314084 C34.5924512,17.2314084 34.8517201,16.0946141 34.7918888,14.9977073 C33.9043915,15.027623 32.0296781,14.858101 32.0296781,16.184361 C32.0296781,16.8923645 32.5781315,17.2314084 33.2163318,17.2314084 Z M34.7918888,13.9307162 C34.7320576,13.0731345 34.283323,12.7939219 33.5454039,12.7939219 C32.8872598,12.7939219 32.3388064,12.9933595 32.2590314,13.7113348 L31.5909154,13.7113348 C31.7504655,12.6343718 32.5581877,12.2155528 33.5653476,12.2155528 C34.7320576,12.2155528 35.4500329,12.7540343 35.4300891,13.9606318 L35.4300891,16.4536018 C35.4201173,16.8624488 35.4600048,17.2812678 35.4799485,17.6402555 L34.8317764,17.6402555 L34.8118326,16.8624488 L34.7918888,16.8624488 L34.7619732,16.932252 C34.53262,17.3710147 33.8246165,17.7898337 33.116613,17.7898337 C32.1393688,17.7898337 31.3615622,17.1915209 31.3615622,16.1644173 C31.3615622,15.4464419 31.790353,14.9079604 32.4185814,14.6387196 C33.116613,14.3295914 34.034026,14.439282 34.8018607,14.3993945 L34.8018607,13.9307162 L34.7918888,13.9307162 Z M23.1048456,13.1628814 L23.1247894,13.1828252 C23.493749,12.534653 24.0920617,12.2255247 24.7701496,12.2255247 C25.5978156,12.2255247 26.2459878,12.6842312 26.4853129,13.3822628 C26.8742162,12.7640062 27.4825009,12.2255247 28.300195,12.2255247 C30.0253303,12.2255247 30.1549647,13.7512223 30.1549647,14.359507 L30.1549647,17.6502274 L29.5267363,17.6502274 L29.5267363,14.2498163 C29.5267363,13.3324034 28.9982266,12.8038937 28.140645,12.8038937 C27.1035695,12.8038937 26.6249192,13.6714473 26.6249192,14.6187759 L26.6249192,17.6502274 L25.9966908,17.6502274 L25.9966908,14.2498163 C25.9966908,13.3324034 25.4681812,12.8038937 24.6105995,12.8038937 C23.573524,12.8038937 23.0948738,13.6714473 23.0948738,14.6187759 L23.0948738,17.6502274 L22.4666453,17.6502274 L22.4666453,13.5717285 C22.4666453,13.1628814 22.4367297,12.7440625 22.4167859,12.3850748 L23.0649581,12.3850748 L23.1048456,13.1628814 Z M19.6146877,17.6502274 L18.9864593,17.6502274 L18.9864593,13.5717285 C18.9964311,13.1628814 18.9565436,12.7440625 18.9365999,12.3850748 L19.584772,12.3850748 L19.6146877,13.1628814 L19.6346314,13.1628814 C19.8240972,12.6243999 20.2927755,12.2454685 20.8212852,12.2255247 C21.0306946,12.2155528 21.2401041,12.2255247 21.4495136,12.2354966 L21.4495136,12.8437813 C21.3198791,12.8338094 21.1902447,12.8038937 21.0606103,12.8038937 C20.1232536,12.8038937 19.6346314,13.4720097 19.6146877,14.4791696 L19.6146877,17.6502274 Z M15.2270605,12.8038937 C13.9606318,12.8038937 13.4520659,14.0404068 13.4520659,15.0176511 C13.4520659,15.9948953 13.9606318,17.2314084 15.2270605,17.2314084 C16.4934893,17.2314084 17.0020552,15.9948953 17.0020552,15.0176511 C17.0020552,14.0404068 16.5034612,12.8038937 15.2270605,12.8038937 Z M17.680143,15.0176511 C17.680143,16.4037424 16.9023364,17.8097774 15.2270605,17.8097774 C13.5517847,17.8097774 12.7739781,16.4037424 12.7739781,15.0176511 C12.7739781,13.6315598 13.5517847,12.2255247 15.2270605,12.2255247 C16.9023364,12.2255247 17.680143,13.6315598 17.680143,15.0176511 Z M10.1114862,17.6502274 L10.1114862,12.9534719 L9.04449503,12.9534719 L9.04449503,12.3751029 L10.1015143,12.3751029 L10.1015143,11.2482805 C10.1015143,10.3408394 10.4704739,9.93199234 11.367943,9.93199234 C11.5673806,9.93199234 11.7767901,10.0017955 11.9662558,10.0516549 L11.9662558,10.5602208 C11.8366214,10.540277 11.706987,10.5203333 11.5773525,10.5203333 C10.7197709,10.5203333 10.6998271,10.9491241 10.7297427,11.706987 L10.7297427,12.3751029 L11.9263683,12.3751029 L11.9263683,12.9534719 L10.7297427,12.9534719 L10.7297427,17.6502274 L10.1114862,17.6502274 Z M4.44745842,17.6502274 L3.81922999,17.6502274 L3.81922999,13.5717285 C3.81922999,13.1628814 3.78931435,12.7440625 3.76937059,12.3850748 L4.41754278,12.3850748 L4.44745842,13.1628814 L4.46740218,13.1828252 C4.83636173,12.534653 5.43467452,12.2255247 6.11276235,12.2255247 C7.83789757,12.2255247 7.96753201,13.7512223 7.96753201,14.359507 L7.96753201,17.6502274 L7.33930358,17.6502274 L7.33930358,14.2498163 C7.33930358,13.3324034 6.81079395,12.8038937 5.95321228,12.8038937 C4.91613677,12.8038937 4.43748654,13.6714473 4.43748654,14.6187759 L4.43748654,17.6502274 L4.44745842,17.6502274 Z M1.1866537,17.6502274 L1.86474153,17.6502274 L1.86474153,10.041683 L1.1866537,10.041683 L1.1866537,17.6502274 L1.1866537,17.6502274 Z" id="Fill-1"></path></g></g></g></svg> 