<?xml version="1.0" encoding="UTF-8"?> <svg xmlns="http://www.w3.org/2000/svg" xmlns:xlink="http://www.w3.org/1999/xlink" width="196px" height="54px" viewBox="0 0 196 54" version="1.1"><title>Artboard</title><g id="Artboard" stroke="none" stroke-width="1" fill="none" fill-rule="evenodd"><g id="logo-1" fill-rule="nonzero"><path d="M27.1999,43.0172 L14.6461,43.0172 C14.5299,43.0172 14.4136,43.0172 14.2974,42.8977 L4.1846,35.1307 C4.0684,35.0112 3.9521,34.8917 3.9521,34.7722 L0,22.2255 L0,21.8671 L3.9521,8.245 C3.9521,8.1255 4.0684,8.006 4.1846,7.8865 L14.5299,0.1195 C14.6461,0 14.7623,0 14.8786,0 L26.9674,0 C27.0837,0 27.1999,0 27.3161,0.1195 L37.6614,7.8865 C37.7776,8.006 37.8939,8.1255 37.8939,8.245 L41.846,21.7476 L41.846,22.1061 L38.0101,34.7722 C38.0101,34.8917 37.8939,35.0112 37.7776,35.1307 L27.6649,42.8977 C27.4324,43.0172 27.3161,43.0172 27.1999,43.0172 Z M15.2273,41.7028 L25.5726,41.7028 C21.5042,37.64 17.4358,34.0553 13.2512,30.829 C13.5999,34.2943 14.2974,37.9985 15.2273,41.7028 Z M13.7162,29.5146 C18.2495,32.8603 22.4341,36.6841 26.8512,40.9858 C21.2717,42.1807 16.041,43.9731 11.8564,46.0045 L13.7162,29.5146 Z M29.8734,25.0934 C29.6409,30.112 29.0597,35.3697 28.1298,40.7468 L36.499,34.4137 C34.5229,30.59 32.4306,27.4832 29.8734,25.0934 L29.8734,25.0934 Z M5.5794,34.5332 L13.6,40.6273 C12.7864,37.1621 12.2052,33.6968 11.8565,30.351 C9.4155,31.6654 7.3231,33.0993 5.5795,34.5332 L5.5794,34.5332 Z M1.7437,23.4205 L4.882,33.4578 C6.6256,32.0239 8.718,30.59 11.1589,29.2756 C8.0205,27.1247 4.9983,25.0934 1.7436,23.4205 L1.7437,23.4205 Z M30.6872,24.0179 C33.1282,26.4078 35.3367,29.2756 37.1965,32.8603 L40.335,22.823 C37.1965,22.9425 33.9419,23.4205 30.6872,24.0179 Z M12.7863,15.295 C12.4376,19.4772 12.4376,23.8984 12.9025,28.3196 C17.2034,26.2883 22.3179,24.4959 27.7811,23.301 C24.5264,20.7916 21.1555,19.2382 17.6683,17.5653 C16.041,16.8484 14.4136,16.1314 12.7863,15.295 Z M1.7436,21.8671 C5.1146,23.6594 8.3692,25.6908 11.5076,27.9612 C11.1589,23.6595 11.1589,19.4772 11.3914,15.295 C7.6718,17.0874 4.4171,19.3577 1.7436,21.8671 Z M29.4084,10.8738 C29.8734,14.6975 29.9896,18.7603 29.9896,22.7035 C33.3606,21.9866 36.7315,21.5086 39.8699,21.2696 C36.7315,17.4459 33.3606,14.1001 29.4084,10.8738 Z M13.8324,14.2196 C15.2273,14.9365 16.6222,15.534 18.2495,16.2509 C21.7367,17.8043 25.2238,19.4772 28.711,22.1061 C28.711,18.0433 28.5948,13.9806 28.0136,10.0373 C22.7828,11.1128 18.017,12.4272 13.8324,14.2196 L13.8324,14.2196 Z M4.882,9.6789 L1.976,19.8357 C4.417,17.6848 7.4393,15.773 10.8102,14.1001 C8.4854,12.7857 6.6256,11.3518 4.882,9.6789 L4.882,9.6789 Z M30.2221,9.7984 C33.7093,12.5467 36.8477,15.6535 39.6375,18.9993 L36.8477,9.0814 L30.2221,9.7984 Z M15.2273,1.6729 C14.1811,5.3772 13.3675,9.2009 12.9025,13.1441 C17.0871,11.3518 21.7367,9.9178 26.8512,9.0814 C23.7127,6.5721 19.9931,4.3017 15.2273,1.6729 Z M5.5795,8.4839 C7.323,10.2763 9.2991,11.7102 11.6239,13.1441 C11.9726,9.5594 12.67,5.9746 13.5999,2.5093 L5.5795,8.484 L5.5795,8.4839 Z M28.0136,2.2704 C28.4785,4.3017 28.8272,6.4526 29.176,8.6034 L21.7367,2.9874 L28.0136,2.2704 Z M17.4358,1.3144 C21.388,3.5848 24.7589,5.7356 27.6649,7.8864 C27.3161,5.7356 26.9674,3.4653 26.3862,1.3144 L17.4358,1.3144 Z" id="Shape" fill="#FF000A"></path><path d="M59.1676,43.4946 L53.5882,43.4946 L53.5882,47.6768 L58.354,47.6768 L58.354,48.7523 L53.5882,48.7523 L53.5882,53.6515 L52.4258,53.6515 L52.4258,42.4192 L59.1676,42.4192 L59.1676,43.4946 Z M68.4651,53.6515 L67.1864,53.6515 L66.2565,51.1421 L61.607,51.1421 L60.6771,53.6515 L59.3984,53.6515 L63.4668,42.4192 L64.3967,42.4192 L68.4651,53.6515 L68.4651,53.6515 Z M61.9557,50.0667 L66.024,50.0667 L64.048,44.0921 L61.9557,50.0667 L61.9557,50.0667 Z M76.7204,43.6135 L76.023,44.3304 C75.3256,43.733 74.6281,43.3745 73.4657,43.3745 C71.9546,43.3745 71.141,44.2109 71.141,45.5254 C71.141,46.1228 71.2572,46.4813 71.6059,46.8398 C71.9546,47.0788 72.4196,47.3177 73.0008,47.4372 L74.2794,47.6762 C75.3256,47.7957 75.7905,48.0347 76.2555,48.5127 C76.8367,48.9906 77.1854,49.8271 77.1854,50.6635 C77.1854,52.5754 75.6743,53.8898 73.4657,53.8898 C71.8384,53.8898 70.7922,53.4118 69.7461,52.4559 L70.5598,51.6195 C71.4897,52.5754 72.3033,52.8144 73.582,52.8144 C75.2093,52.8144 76.1392,52.0974 76.1392,50.783 C76.1392,50.1855 76.023,49.7076 75.558,49.3491 C75.2093,48.9906 74.8606,48.8711 74.1632,48.7516 L72.8845,48.5127 C72.0709,48.3932 71.3734,48.1542 70.9085,47.6762 C70.3273,47.1982 70.0948,46.4813 70.0948,45.5254 C70.0948,43.6135 71.3734,42.4186 73.582,42.4186 C74.8606,42.2991 75.7905,42.777 76.7204,43.6135 Z M85.9042,43.4946 L82.7657,43.4946 L82.7657,53.6515 L81.6033,53.6515 L81.6033,43.4946 L78.4648,43.4946 L78.4648,42.4192 L85.9042,42.4192 L85.9042,43.4946 L85.9042,43.4946 Z M87.6449,53.6502 L86.25,53.6502 L86.25,52.2163 L87.6449,52.2163 L87.6449,53.6502 Z M101.48,43.4946 L95.9007,43.4946 L95.9007,47.6768 L100.666,47.6768 L100.666,48.7523 L95.9007,48.7523 L95.9007,53.6515 L94.7383,53.6515 L94.7383,42.4192 L101.48,42.4192 L101.48,43.4946 L101.48,43.4946 Z M109.499,43.4941 C110.545,44.5696 110.545,45.5255 110.545,48.1543 C110.545,50.7831 110.428,51.7391 109.499,52.8145 C108.801,53.5315 107.871,53.8899 106.825,53.8899 C105.663,53.8899 104.733,53.5315 104.152,52.8145 C103.105,51.7391 103.105,50.7831 103.105,48.1543 C103.105,45.5255 103.222,44.5696 104.152,43.4941 C104.849,42.7772 105.779,42.4187 106.825,42.4187 C107.987,42.2992 108.917,42.7772 109.499,43.4941 Z M104.965,44.2111 C104.268,44.928 104.152,45.7645 104.152,48.0348 C104.152,50.3052 104.268,51.1416 104.965,51.8586 C105.43,52.3365 106.128,52.695 106.825,52.695 C107.523,52.695 108.22,52.456 108.685,51.8586 C109.382,51.1416 109.499,50.3052 109.499,48.0348 C109.499,45.7645 109.382,44.928 108.685,44.2111 C108.22,43.7331 107.523,43.3746 106.825,43.3746 C106.128,43.3746 105.43,43.7331 104.965,44.2111 Z M117.521,42.4192 C119.38,42.4192 120.775,43.6141 120.775,45.526 C120.775,47.1989 119.845,48.2743 118.45,48.5133 L121.008,53.6515 L119.613,53.6515 L117.172,48.6328 L114.498,48.6328 L114.498,53.6515 L113.336,53.6515 L113.336,42.4192 L117.521,42.4192 Z M114.498,43.4946 L114.498,47.5574 L117.404,47.5574 C118.683,47.5574 119.613,46.8404 119.613,45.526 C119.613,44.2116 118.683,43.4946 117.404,43.4946 L114.498,43.4946 L114.498,43.4946 Z M132.631,53.6515 L131.585,53.6515 L129.144,44.6895 L126.703,53.6515 L125.657,53.6515 L122.867,42.4192 L124.146,42.4192 L126.238,51.5006 L128.679,42.4192 L129.725,42.4192 L132.166,51.5006 L134.259,42.4192 L135.537,42.4192 L132.631,53.6515 L132.631,53.6515 Z M145.067,53.6515 L143.788,53.6515 L142.858,51.1421 L138.092,51.1421 L137.162,53.6515 L136,53.6515 L140.068,42.4192 L140.998,42.4192 L145.067,53.6515 Z M138.557,50.0667 L142.626,50.0667 L140.65,44.0921 L138.557,50.0667 Z M151.692,42.5388 C153.552,42.5388 154.947,43.7337 154.947,45.6456 C154.947,47.3185 154.017,48.394 152.622,48.6329 L155.18,53.7711 L153.785,53.7711 L151.344,48.7524 L148.67,48.7524 L148.67,53.7711 L147.508,53.7711 L147.508,42.5388 L151.692,42.5388 L151.692,42.5388 Z M148.67,43.6143 L148.67,47.677 L151.576,47.677 C152.855,47.677 153.785,46.96 153.785,45.6456 C153.785,44.3312 152.855,43.6143 151.576,43.6143 L148.67,43.6143 Z M161.575,42.4192 C162.854,42.4192 163.667,42.7777 164.481,43.6141 C165.411,44.6895 165.411,46.3624 165.411,48.0353 C165.411,49.7082 165.411,51.3811 164.481,52.4565 C163.784,53.293 162.854,53.6515 161.575,53.6515 L157.855,53.6515 L157.855,42.4192 L161.575,42.4192 Z M159.018,43.4946 L159.018,52.576 L161.343,52.576 C162.156,52.576 162.97,52.337 163.435,51.7396 C164.132,51.0226 164.132,49.5887 164.132,48.0353 C164.132,46.4819 164.132,45.048 163.435,44.3311 C162.854,43.7336 162.156,43.4946 161.343,43.4946 L159.018,43.4946 L159.018,43.4946 Z M168.782,53.6502 L167.387,53.6502 L167.387,52.2163 L168.782,52.2163 L168.782,53.6502 Z M108.568,10.8728 L101.129,32.0229 L105.314,32.0229 L106.592,28.3186 L113.915,28.3186 L115.078,32.0229 L119.262,32.0229 L111.707,10.8728 L108.568,10.8728 Z M107.638,24.8534 L110.196,17.2059 L112.753,24.8534 L107.638,24.8534 L107.638,24.8534 Z M137.395,17.4448 C137.395,13.8601 134.954,10.9923 130.77,10.9923 L122.749,10.9923 L122.749,32.1424 L126.818,32.1424 L126.818,23.6584 L129.724,23.6584 L133.792,32.1424 L138.442,32.1424 L133.792,23.061 C135.536,22.2245 137.395,20.4321 137.395,17.4448 L137.395,17.4448 Z M130.421,20.1932 L126.585,20.1932 L126.585,14.577 L130.421,14.577 C132.165,14.577 133.327,15.772 133.327,17.3254 C133.327,18.9982 132.165,20.1932 130.421,20.1932 Z M156.691,17.4448 C156.691,13.8601 154.25,10.9923 150.066,10.9923 L142.045,10.9923 L142.045,32.1424 L146.113,32.1424 L146.113,23.6584 L149.019,23.6584 L153.088,32.1424 L157.737,32.1424 L153.088,23.061 C154.948,22.2245 156.691,20.4321 156.691,17.4448 L156.691,17.4448 Z M149.717,20.1932 L145.881,20.1932 L145.881,14.577 L149.717,14.577 C151.46,14.577 152.623,15.772 152.623,17.3254 C152.739,18.9982 151.577,20.1932 149.717,20.1932 Z M161.341,10.8728 L165.409,10.8728 L165.409,32.0229 L161.341,32.0229 L161.341,10.8728 Z M182.496,21.3881 C183.542,22.4635 184.123,24.0169 184.123,25.9288 C184.123,29.9915 180.753,32.3814 176.452,32.3814 C173.313,32.3814 170.989,31.6644 168.896,29.633 L171.453,27.0042 C172.732,28.3186 174.476,28.7966 176.452,28.7966 C178.777,28.7966 180.055,27.8407 180.055,26.1678 C180.055,25.4508 179.823,24.8534 179.474,24.3754 C179.125,24.0169 178.66,23.7779 177.614,23.6584 L175.173,23.3 C173.43,23.061 172.151,22.4635 171.221,21.5076 C170.291,20.5516 169.71,19.1177 169.71,17.3254 C169.71,13.5016 172.383,10.8728 176.917,10.8728 C179.706,10.8728 181.799,11.5897 183.542,13.3821 L180.985,16.0109 C179.706,14.6965 178.079,14.577 176.8,14.577 C174.708,14.577 173.662,15.772 173.662,17.2059 C173.662,17.6838 173.778,18.2813 174.243,18.7593 C174.592,19.1177 175.289,19.4762 176.103,19.5957 L178.544,19.9542 C180.404,19.9542 181.566,20.5516 182.496,21.3881 Z M78.3461,25.9288 C78.3461,30.111 75.3239,32.2619 71.8367,32.2619 C68.9308,32.2619 66.141,30.828 65.4436,27.6017 L69.047,26.0483 C69.047,27.9602 70.3256,28.7966 71.8367,28.7966 C73.4641,28.7966 74.6265,27.7212 74.6265,25.8093 C74.6265,24.0169 73.5803,22.9415 71.7205,22.9415 L71.6042,22.9415 L71.6042,19.5957 L71.7205,19.5957 C73.5803,19.5957 74.2777,18.4008 74.2777,16.9669 C74.2777,15.1745 73.1154,14.2186 71.7205,14.2186 C70.3256,14.2186 69.2795,15.1745 69.1632,16.7279 L65.5598,15.1745 C66.2573,12.3067 68.6983,10.6338 71.6042,10.6338 C75.2077,10.6338 77.8811,13.1431 77.8811,16.7279 C77.8811,18.9982 76.835,20.3127 75.5564,21.0296 C77.1837,21.9855 78.3461,23.4195 78.3461,25.9288 L78.3461,25.9288 Z M93.5734,10.8728 L97.6418,10.8728 L97.6418,32.0229 L93.5734,32.0229 L93.5734,23.1805 L86.5991,23.1805 L86.5991,32.0229 L82.5307,32.0229 L82.5307,10.8728 L86.5991,10.8728 L86.5991,19.4762 L93.5734,19.4762 L93.5734,10.8728 Z M56.377,28.4381 L62.7701,28.4381 L62.7701,32.1424 L52.3086,32.1424 L52.3086,10.8728 L56.377,10.8728 L56.377,28.4381 L56.377,28.4381 Z M187.262,11.4702 L190.633,11.4702 L190.633,12.1872 L189.354,12.1872 L189.354,16.3694 L188.657,16.3694 L188.657,12.1872 L187.378,12.1872 L187.378,11.4702 L187.262,11.4702 Z M195.515,11.4702 L195.515,16.3694 L194.817,16.3694 L194.817,13.1431 L193.771,15.4135 L193.19,15.4135 L192.144,13.1431 L192.144,16.3694 L191.447,16.3694 L191.447,11.4702 L192.144,11.4702 L193.539,14.4575 L194.817,11.4702 L195.515,11.4702 L195.515,11.4702 Z" id="Shape" fill="#000000"></path></g></g></svg> 