<?xml version="1.0" encoding="UTF-8"?> <svg xmlns="http://www.w3.org/2000/svg" xmlns:xlink="http://www.w3.org/1999/xlink" width="150px" height="57px" viewBox="0 0 150 57" version="1.1"><title>lsi</title><defs><path d="M0,24.384 C0,37.85 10.918,48.767 24.385,48.767 L24.385,48.767 C37.851,48.767 48.768,37.85 48.768,24.384 L48.768,24.384 C48.768,10.916 37.851,-1.13686838e-13 24.385,-1.13686838e-13 L24.385,-1.13686838e-13 C10.918,-1.13686838e-13 0,10.916 0,24.384" id="path-1"></path><path d="M0,24.384 C0,37.85 10.918,48.767 24.385,48.767 L24.385,48.767 C37.851,48.767 48.768,37.85 48.768,24.384 L48.768,24.384 C48.768,10.916 37.851,-1.13686838e-13 24.385,-1.13686838e-13 L24.385,-1.13686838e-13 C10.918,-1.13686838e-13 0,10.916 0,24.384" id="path-3"></path><path d="M0,24.384 C0,37.85 10.918,48.767 24.385,48.767 L24.385,48.767 C37.851,48.767 48.768,37.85 48.768,24.384 L48.768,24.384 C48.768,10.916 37.851,-1.13686838e-13 24.385,-1.13686838e-13 L24.385,-1.13686838e-13 C10.918,-1.13686838e-13 0,10.916 0,24.384" id="path-5"></path><path d="M0,24.384 C0,37.85 10.918,48.767 24.385,48.767 L24.385,48.767 C37.851,48.767 48.768,37.85 48.768,24.384 L48.768,24.384 C48.768,10.916 37.851,-1.13686838e-13 24.385,-1.13686838e-13 L24.385,-1.13686838e-13 C10.918,-1.13686838e-13 0,10.916 0,24.384" id="path-7"></path><path d="M0,24.384 C0,37.85 10.918,48.767 24.385,48.767 L24.385,48.767 C37.851,48.767 48.768,37.85 48.768,24.384 L48.768,24.384 C48.768,10.916 37.851,-1.13686838e-13 24.385,-1.13686838e-13 L24.385,-1.13686838e-13 C10.918,-1.13686838e-13 0,10.916 0,24.384" id="path-9"></path><path d="M0,24.384 C0,37.85 10.918,48.767 24.385,48.767 L24.385,48.767 C37.851,48.767 48.768,37.85 48.768,24.384 L48.768,24.384 C48.768,10.916 37.851,-1.13686838e-13 24.385,-1.13686838e-13 L24.385,-1.13686838e-13 C10.918,-1.13686838e-13 0,10.916 0,24.384" id="path-11"></path><path d="M0,24.384 C0,37.85 10.918,48.767 24.385,48.767 L24.385,48.767 C37.851,48.767 48.768,37.85 48.768,24.384 L48.768,24.384 C48.768,10.916 37.851,-1.13686838e-13 24.385,-1.13686838e-13 L24.385,-1.13686838e-13 C10.918,-1.13686838e-13 0,10.916 0,24.384" id="path-13"></path><path d="M0,24.384 C0,37.85 10.918,48.767 24.385,48.767 L24.385,48.767 C37.851,48.767 48.768,37.85 48.768,24.384 L48.768,24.384 C48.768,10.916 37.851,-1.13686838e-13 24.385,-1.13686838e-13 L24.385,-1.13686838e-13 C10.918,-1.13686838e-13 0,10.916 0,24.384" id="path-15"></path><path d="M0,24.384 C0,37.85 10.918,48.767 24.385,48.767 L24.385,48.767 C37.851,48.767 48.768,37.85 48.768,24.384 L48.768,24.384 C48.768,10.916 37.851,-1.13686838e-13 24.385,-1.13686838e-13 L24.385,-1.13686838e-13 C10.918,-1.13686838e-13 0,10.916 0,24.384" id="path-17"></path><path d="M0,24.384 C0,37.85 10.918,48.767 24.385,48.767 L24.385,48.767 C37.851,48.767 48.768,37.85 48.768,24.384 L48.768,24.384 C48.768,10.916 37.851,-1.13686838e-13 24.385,-1.13686838e-13 L24.385,-1.13686838e-13 C10.918,-1.13686838e-13 0,10.916 0,24.384" id="path-19"></path><path d="M0,24.384 C0,37.85 10.918,48.767 24.385,48.767 L24.385,48.767 C37.851,48.767 48.768,37.85 48.768,24.384 L48.768,24.384 C48.768,10.916 37.851,-1.13686838e-13 24.385,-1.13686838e-13 L24.385,-1.13686838e-13 C10.918,-1.13686838e-13 0,10.916 0,24.384" id="path-21"></path><path d="M0,24.384 C0,37.85 10.918,48.767 24.385,48.767 L24.385,48.767 C37.851,48.767 48.768,37.85 48.768,24.384 L48.768,24.384 C48.768,10.916 37.851,-1.13686838e-13 24.385,-1.13686838e-13 L24.385,-1.13686838e-13 C10.918,-1.13686838e-13 0,10.916 0,24.384" id="path-23"></path><path d="M0,24.384 C0,37.85 10.918,48.767 24.385,48.767 L24.385,48.767 C37.851,48.767 48.768,37.85 48.768,24.384 L48.768,24.384 C48.768,10.916 37.851,-1.13686838e-13 24.385,-1.13686838e-13 L24.385,-1.13686838e-13 C10.918,-1.13686838e-13 0,10.916 0,24.384" id="path-25"></path><path d="M0,24.384 C0,37.85 10.918,48.767 24.385,48.767 L24.385,48.767 C37.851,48.767 48.768,37.85 48.768,24.384 L48.768,24.384 C48.768,10.916 37.851,-1.13686838e-13 24.385,-1.13686838e-13 L24.385,-1.13686838e-13 C10.918,-1.13686838e-13 0,10.916 0,24.384" id="path-27"></path><path d="M0,24.384 C0,37.85 10.918,48.767 24.385,48.767 L24.385,48.767 C37.851,48.767 48.768,37.85 48.768,24.384 L48.768,24.384 C48.768,10.916 37.851,-1.13686838e-13 24.385,-1.13686838e-13 L24.385,-1.13686838e-13 C10.918,-1.13686838e-13 0,10.916 0,24.384" id="path-29"></path><path d="M0,24.384 C0,37.85 10.918,48.767 24.385,48.767 L24.385,48.767 C37.851,48.767 48.768,37.85 48.768,24.384 L48.768,24.384 C48.768,10.916 37.851,0 24.385,0 L24.385,0 C10.918,0 0,10.916 0,24.384 L0,24.384 Z" id="path-31"></path></defs><g id="lsi" stroke="none" stroke-width="1" fill="none" fill-rule="evenodd"><g id="Group-10" transform="translate(0.566999, 0.317000)" fill="#0D2C84"><path d="M136.221001,33.612 C136.127001,39.746 130.737001,44.375 124.649001,44.375 L85.7530008,44.306 L85.7530008,35.563 L127.345001,35.563 L127.345001,31.428 L95.2800008,31.428 C89.1000008,31.428 83.5690008,26.874 83.5690008,20.646 C83.5690008,14.094 89.9350008,9.912 96.4420008,9.912 L133.897001,9.921 L133.897001,18.407 L92.9560008,18.415 L92.9560008,22.599 L124.556001,22.599 C130.737001,22.599 136.221001,27.338 136.221001,33.612" id="Fill-2"></path><path d="M58.4170008,33.732 L58.4170008,9.903 L67.3860008,9.903 L67.3860008,35.555 L83.8330008,35.555 L83.8330008,44.375 L69.0590008,44.375 C66.6890008,44.375 63.9940008,43.399 61.7630008,41.26 C59.5320008,39.17 58.4170008,36.939 58.4170008,33.732" id="Fill-4"></path><polygon id="Fill-6" points="138.646001 44.411 148.266001 44.411 148.266001 9.915 138.646001 9.915"></polygon><path d="M30.1920008,54.084 C32.6680008,55.135 35.1950008,55.622 37.6200008,55.622 C41.7020008,55.622 45.4950008,54.243 48.2750008,51.84 C51.0550008,49.439 52.8170008,46.006 52.8150025,41.937 C52.8150025,37.9 51.0880008,33.251 46.9640008,28.352 C46.8790008,28.252 46.7300008,28.239 46.6300008,28.323 C46.5290008,28.407 46.5170008,28.557 46.6010008,28.657 C50.6730008,33.496 52.3410008,38.038 52.3410008,41.937 C52.3400008,45.867 50.6510008,49.158 47.9650008,51.482 C45.2800008,53.803 41.5950008,55.149 37.6200008,55.148 C35.2580008,55.148 32.7950008,54.674 30.3770008,53.648 C30.2570008,53.596 30.1170008,53.653 30.0660008,53.773 C30.0150008,53.894 30.0710008,54.033 30.1920008,54.084" id="Fill-8"></path><path d="M21.3290008,0.517 C19.7420008,0.165 18.1990008,0 16.7160008,0 C11.9020008,0 7.72200083,1.746 4.74700083,4.533 C1.77100083,7.32 -0.000999167624,11.149 0,15.3 C-0.000999167624,18.257 0.899000832,21.374 2.89100083,24.386 C6.16200083,29.329 12.2860008,34.215 21.1590008,39.348 C21.2720008,39.413 21.4170008,39.374 21.4830008,39.261 C21.5480008,39.148 21.5100008,39.003 21.3960008,38.937 C12.5530008,33.825 6.48200083,28.962 3.28600083,24.125 C1.34200083,21.183 0.474000832,18.161 0.474000832,15.3 C0.474000832,7.275 7.31900083,0.477 16.7160008,0.474 C18.1640008,0.474 19.6730008,0.635 21.2260008,0.98 C21.3540008,1.008 21.4810008,0.927 21.5090008,0.8 C21.5370008,0.672 21.4570008,0.545 21.3290008,0.517" id="Fill-9"></path></g><g id="Group-17" transform="translate(3.682000, 3.167000)"><g id="Group-13"><mask id="mask-2" fill="white"><use xlink:href="#path-1"></use></mask><g id="Clip-12"></g><path d="M46.637,13.532 C42.543,5.361 33.996,-0.259 24.116,-0.259 C20.387,-0.259 16.848,0.542 13.667,1.977 C13.73,2.448 13.64,2.585 13.609,2.868 C13.586,3.067 13.685,3.114 13.557,3.584 C13.366,3.809 13.799,4.004 14.067,4.042 C14.334,4.079 14.602,4.116 14.678,4.305 C14.755,4.493 15.175,5.057 15.519,4.869 C15.863,4.681 16.092,4.155 16.436,4.155 C16.78,4.155 17.238,4.343 17.352,4.042 C17.467,3.74 17.773,3.402 17.964,3.289 C18.155,3.177 18.537,3.101 18.499,2.951 C18.461,2.8 18.423,2.274 18.881,2.16 C19.34,2.048 20.409,2.236 20.792,1.86 C21.174,1.484 21.518,1.333 22.091,1.521 C22.664,1.709 23.237,1.634 23.543,1.371 C23.848,1.108 24.322,0.89 25.339,1.597 C25.988,2.048 26.37,1.935 26.715,1.935 C27.058,1.935 27.593,2.274 27.784,2.687 C27.975,3.101 28.433,3.364 28.739,3.251 C29.045,3.139 29.618,3.026 29.618,3.289 C29.618,3.552 29.542,3.74 29.427,3.778 C29.313,3.816 29.466,4.004 29.58,4.004 C29.695,4.004 29.924,4.079 30.154,4.343 C30.383,4.606 30.956,4.568 30.956,4.267 C30.956,3.966 31.108,3.74 31.376,3.703 C31.643,3.665 31.911,3.778 31.911,4.042 C31.911,4.305 31.643,4.681 31.872,4.794 C32.102,4.907 32.178,5.095 32.293,5.282 C32.407,5.471 32.599,5.997 32.942,5.885 C33.286,5.772 33.592,5.471 33.974,5.696 C34.357,5.922 34.739,5.885 35.158,5.847 C35.579,5.809 35.846,6.073 36.152,6.336 C36.458,6.599 36.955,7.239 36.458,7.503 C35.961,7.765 35.961,7.427 35.846,7.239 C35.732,7.051 35.388,6.863 35.082,6.975 C34.777,7.088 34.547,7.503 34.662,7.652 C34.777,7.803 35.015,8.217 34.28,8.217 C33.859,8.217 33.745,8.593 33.898,8.931 C34.051,9.27 34.357,9.834 34.394,10.135 C34.433,10.436 34.777,10.699 35.044,10.887 C35.311,11.076 35.35,11.527 35.427,11.678 C35.503,11.828 35.694,12.204 35.885,12.317 C36.075,12.43 36.496,12.618 36.687,12.768 C36.878,12.918 36.992,13.257 37.145,13.445 C37.298,13.634 37.909,13.897 37.909,13.595 C37.909,13.295 38.139,13.031 38.368,13.031 C38.597,13.031 39.133,12.805 38.942,12.543 C38.75,12.279 38.215,12.053 38.292,11.904 C38.368,11.753 38.178,11.113 37.68,11 C37.184,10.887 36.496,10.323 36.42,10.022 C36.344,9.722 36.84,9.157 37.337,9.383 C37.833,9.609 38.368,10.173 38.56,10.21 C38.75,10.248 39.209,10.399 39.171,10.097 C39.133,9.796 39.018,9.308 39.133,9.119 C39.247,8.931 39.553,8.743 39.973,9.082 C40.394,9.421 40.547,9.722 40.394,9.985 C40.241,10.248 40.241,10.661 40.508,10.812 C40.776,10.963 40.699,11.264 40.547,11.414 C40.394,11.565 40.164,11.79 40.355,12.016 C40.547,12.241 40.661,12.468 40.584,12.656 C40.508,12.843 40.623,13.333 40.279,13.22 C39.935,13.107 39.4,13.124 39.4,13.445 C39.4,13.784 39.285,14.084 39.553,14.235 C39.82,14.386 40.241,14.386 40.241,14.612 C40.241,14.837 40.241,15.364 40.508,15.552 C40.776,15.74 41.043,15.89 41.196,16.191 C41.349,16.492 41.578,16.906 41.501,17.282 C41.425,17.658 40.966,18.448 41.387,18.712 C41.807,18.975 41.922,19.389 41.731,19.689 C41.54,19.991 41.158,21.081 41.425,21.344 C41.693,21.608 41.884,21.909 42.189,22.21 C42.495,22.51 42.839,22.699 43.68,22.06 C44.52,21.419 44.635,20.818 44.52,20.405 C44.405,19.991 44.635,19.125 44.903,18.9 C45.169,18.674 45.59,18.561 45.704,18.298 C45.82,18.035 45.896,17.658 46.163,17.658 C46.431,17.658 46.89,17.583 47.08,17.545 C47.271,17.508 47.501,17.545 47.616,17.395 C47.73,17.244 47.883,17.018 47.997,16.981 C48.112,16.944 47.876,16.473 47.8,16.322 C47.545,15.57 47.083,14.378 46.637,13.532" id="Fill-11" fill="#0D2C84" mask="url(#mask-2)"></path></g><g id="Group-16"><mask id="mask-4" fill="white"><use xlink:href="#path-3"></use></mask><g id="Clip-15"></g><path d="M37.613,15.882 C37.613,15.58 37.995,15.656 38.301,15.882 C38.607,16.108 39.218,16.032 39.218,16.032 C39.218,16.032 39.753,15.957 40.058,16.258 C40.364,16.559 40.67,17.01 40.517,17.236 C40.364,17.462 40.632,17.988 40.479,18.064 C40.326,18.139 39.829,17.875 39.753,17.687 C39.677,17.5 39.447,17.161 39.103,17.199 C38.913,17.219 38.759,17.01 38.644,16.935 C38.53,16.86 38.339,16.747 38.148,16.822 C37.957,16.897 37.537,16.635 37.613,15.882" id="Fill-14" fill="#0D2C84" mask="url(#mask-4)"></path></g></g><path d="M42.709,21.081 C42.824,21.268 43.13,21.382 43.091,21.569 C43.053,21.758 42.938,22.059 42.748,22.059 C42.556,22.059 42.327,21.758 42.213,21.721 C42.098,21.682 41.639,21.644 41.716,21.532 C41.792,21.42 41.868,21.194 41.831,21.081 C41.792,20.968 41.984,20.855 42.098,20.817 C42.213,20.78 42.327,20.593 42.442,20.593 C42.556,20.593 42.862,20.78 42.709,21.081" id="Fill-18" fill="#0D2C84"></path><g id="Group-78" transform="translate(3.682000, 3.167000)"><g id="Group-22" transform="translate(0.000000, 0.000000)"><mask id="mask-6" fill="white"><use xlink:href="#path-5"></use></mask><g id="Clip-21"></g><path d="M32.722,14.415 C32.722,14.227 32.875,14.19 32.951,14.078 C33.028,13.964 33.028,13.588 33.333,13.701 C33.639,13.814 33.869,14.078 33.753,14.303 C33.639,14.528 33.6,15.093 33.6,15.28 C33.6,15.469 33.524,16.071 33.295,16.109 C33.066,16.146 32.569,16.071 32.531,15.883 C32.493,15.694 32.301,15.356 32.264,15.244 C32.225,15.13 32.111,15.168 31.996,15.28 C31.882,15.394 31.652,15.356 31.652,15.13 C31.652,14.905 31.652,14.717 31.766,14.641 C31.882,14.566 31.919,14.303 31.996,14.19 C32.072,14.078 32.264,14.378 32.34,14.491 C32.416,14.604 32.722,14.566 32.722,14.415" id="Fill-20" fill="#0D2C84" mask="url(#mask-6)"></path></g><g id="Group-25" transform="translate(0.000000, 0.000000)"><mask id="mask-8" fill="white"><use xlink:href="#path-7"></use></mask><g id="Clip-24"></g><path d="M26.762,11.519 C26.952,11.331 26.952,10.842 26.952,10.654 C26.952,10.466 27.067,10.353 27.335,10.278 C27.602,10.203 28.137,10.09 28.251,10.24 C28.367,10.391 29.169,10.315 29.169,10.466 C29.169,10.616 29.589,10.654 29.666,10.842 C29.742,11.031 29.933,11.294 30.086,11.444 C30.239,11.594 30.239,11.783 30.353,11.971 C30.468,12.158 30.773,12.46 31.041,12.648 C31.308,12.836 30.888,13.287 31.003,13.625 C31.141,14.033 30.753,14.565 30.926,14.905 C31.041,15.13 31.385,15.77 31.27,15.996 C31.156,16.222 30.926,16.56 31.003,16.748 C31.079,16.936 30.85,17.426 30.85,17.613 C30.85,17.801 30.697,18.628 30.353,18.253 C30.009,17.876 29.819,17.237 29.627,17.2 C29.436,17.162 28.978,16.973 28.939,16.861 C28.902,16.748 28.061,16.484 27.985,16.296 C27.908,16.109 27.755,15.694 27.679,15.544 C27.602,15.394 27.755,15.206 27.908,15.055 C28.061,14.905 27.87,14.528 27.64,14.491 C27.411,14.453 26.991,14.19 27.029,13.964 C27.067,13.739 26.991,13.475 26.914,13.325 C26.838,13.174 26.952,12.873 26.8,12.723 C26.647,12.573 26.533,11.67 26.762,11.519" id="Fill-23" fill="#0D2C84" mask="url(#mask-8)"></path></g><g id="Group-28" transform="translate(0.000000, 0.000000)"><mask id="mask-10" fill="white"><use xlink:href="#path-9"></use></mask><g id="Clip-27"></g><path d="M24.813,15.167 C25.004,15.054 25.31,14.979 25.424,14.83 C25.539,14.679 26.074,14.566 25.998,14.904 C25.921,15.243 25.998,15.581 26.227,15.807 C26.456,16.032 26.838,16.446 26.915,16.709 C26.991,16.973 27.029,17.801 26.838,17.914 C26.647,18.026 26.341,18.252 26.38,18.402 C26.417,18.553 25.763,19.264 25.692,18.628 C25.653,18.289 25.692,17.65 25.539,17.5 C25.387,17.349 25.042,16.897 25.081,16.635 C25.119,16.371 25.157,16.032 24.966,15.92 C24.775,15.807 24.278,15.318 24.813,15.167" id="Fill-26" fill="#0D2C84" mask="url(#mask-10)"></path></g><g id="Group-31" transform="translate(0.000000, 0.000000)"><mask id="mask-12" fill="white"><use xlink:href="#path-11"></use></mask><g id="Clip-30"></g><path d="M48.225,31.075 C48.801,28.998 49.109,26.811 49.109,24.554 C49.109,22.715 48.904,20.923 48.518,19.197 C47.548,19.117 46.937,19.493 46.937,19.944 C46.937,20.396 46.937,21.072 46.707,21.374 C46.479,21.675 45.79,21.975 45.638,21.675 C45.485,21.374 45.026,21.75 44.797,22.126 C44.568,22.503 44.109,22.728 43.88,22.953 C43.651,23.18 43.498,23.706 43.421,24.008 C43.345,24.308 42.886,24.685 42.81,24.986 C42.734,25.286 42.81,26.114 42.428,26.49 C42.046,26.866 42.122,27.505 42.313,27.656 C42.504,27.806 43.039,27.994 42.963,28.332 C42.886,28.672 43,29.048 42.924,29.311 C42.848,29.575 42.81,29.95 42.886,30.177 C42.963,30.402 42.848,30.74 43,30.929 C43.153,31.117 43.268,31.417 43.153,31.681 C43.039,31.944 43.116,32.358 43.23,32.471 C43.345,32.583 43.612,33.035 43.651,33.261 C43.688,33.486 43.956,34.013 44.339,33.975 C44.721,33.937 45.255,33.486 45.599,33.148 C45.943,32.809 46.822,32.583 47.013,31.982 C47.204,31.38 48.006,31.304 48.225,31.075" id="Fill-29" fill="#0D2C84" mask="url(#mask-12)"></path></g><g id="Group-34" transform="translate(0.000000, 0.000000)"><mask id="mask-14" fill="white"><use xlink:href="#path-13"></use></mask><g id="Clip-33"></g><path d="M30.459,48.458 C30.344,48.307 30.612,48.307 30.536,47.743 C30.489,47.399 30.383,47.442 30.306,47.254 C30.23,47.065 29.962,46.878 29.733,46.878 C29.504,46.878 29.198,46.615 29.007,46.539 C28.816,46.464 28.587,46.276 28.396,46.05 C28.205,45.825 27.938,45.711 27.708,45.449 C27.479,45.185 27.021,45.223 26.791,45.374 C26.562,45.524 26.447,45.411 26.218,45.411 C25.988,45.411 25.912,45.185 25.798,44.846 C25.683,44.508 25.53,44.433 25.339,44.132 C25.148,43.831 25.224,43.455 25.3,43.267 C25.377,43.078 24.728,42.326 24.27,41.875 C23.811,41.424 22.512,41.348 21.977,41.348 C21.442,41.348 20.601,41.198 20.295,41.085 C19.989,40.972 19.684,40.595 19.569,40.295 C19.455,39.994 18.996,40.333 18.69,40.107 C18.385,39.882 17.964,39.994 17.697,40.032 C17.429,40.069 17.2,40.069 17.162,40.371 C17.124,40.671 16.856,40.747 16.666,40.634 C16.474,40.52 16.398,40.295 16.207,40.069 C16.016,39.843 15.786,39.505 15.825,39.317 C15.863,39.13 15.901,38.904 15.786,38.79 C15.672,38.678 15.213,38.564 15.099,38.302 C14.984,38.038 14.984,37.511 15.519,37.174 C16.054,36.834 15.29,36.233 14.946,36.081 C14.602,35.932 13.799,35.97 13.494,35.894 C13.188,35.819 13.303,35.368 13.532,35.143 C13.761,34.916 13.723,34.54 13.647,34.352 C13.57,34.165 13.723,33.788 13.685,33.524 C13.592,32.89 12.844,33.336 12.539,33.449 C12.233,33.562 12.118,32.961 12.195,32.546 C12.271,32.133 12.08,31.907 11.965,31.606 C11.851,31.305 11.927,30.967 11.965,30.779 C12.003,30.59 12.195,30.364 12.156,30.102 C12.118,29.838 12.271,29.5 12.462,29.349 C12.653,29.198 13.035,29.198 13.265,29.01 C13.494,28.823 13.952,28.973 14.143,29.198 C14.334,29.425 14.755,29.048 15.06,29.01 C15.366,28.973 15.672,29.425 15.825,29.65 C15.978,29.875 16.13,30.026 16.436,30.177 C16.742,30.327 16.666,30.816 16.666,30.967 C16.666,31.118 16.78,31.606 16.666,31.907 C16.551,32.208 16.742,32.546 17.009,32.772 C17.276,32.998 17.467,32.358 17.544,32.169 C17.621,31.982 17.926,31.644 17.85,31.23 C17.773,30.816 18.232,30.59 18.538,30.402 C18.843,30.214 19.187,30.063 19.722,29.726 C20.257,29.386 20.351,28.883 20.639,28.145 C20.83,27.657 21.06,27.769 21.595,27.807 C22.129,27.845 22.113,27.331 22.397,27.018 C22.702,26.678 23.009,26.827 23.429,26.942 C23.848,27.057 24.02,27.018 24.383,26.904 C24.383,26.904 24.632,26.753 24.747,26.716 C24.861,26.678 25.243,26.528 25.396,26.471 C25.549,26.415 25.759,26.208 25.951,26.076 C26.017,26.031 26.007,25.87 25.931,25.757 C25.855,25.644 25.798,25.701 25.683,25.701 C25.568,25.701 25.473,25.757 25.281,25.738 C25.09,25.719 25.09,25.644 24.919,25.681 C24.747,25.719 24.623,25.663 24.566,25.568 C24.556,25.287 25.224,25.212 25.645,25.362 C26.237,25.574 26.579,24.641 27.173,24.572 C27.822,24.497 28.281,23.594 28.396,22.804 C28.51,22.014 28.014,22.052 27.67,22.089 C27.326,22.127 27.058,21.825 26.868,21.562 C26.676,21.3 26.905,20.885 26.868,20.661 C26.829,20.434 26.753,20.133 26.868,19.945 C26.982,19.757 26.523,19.456 26.294,19.494 C26.065,19.531 26.065,19.794 25.874,20.171 C25.683,20.547 24.88,19.794 25.071,19.118 C25.154,18.825 24.651,18.44 24.383,18.102 C24.117,17.763 23.734,18.402 23.696,18.666 C23.658,18.93 23.543,19.344 23.466,19.606 C23.39,19.87 23.466,20.623 23.505,20.885 C23.543,21.149 22.856,21.413 22.512,21.413 C22.167,21.413 21.977,21.601 22.015,22.014 C22.053,22.428 21.595,21.788 21.518,21.45 C21.442,21.111 21.098,21.036 21.021,20.81 C20.945,20.584 20.907,20.397 20.907,20.171 C20.907,19.945 20.983,19.757 20.754,19.644 C20.524,19.531 20.41,19.418 20.372,19.193 C20.333,18.967 20.754,18.779 21.021,18.628 C21.289,18.477 21.632,18.178 21.595,17.989 C21.556,17.801 21.862,17.613 22.053,17.575 C22.244,17.538 22.702,17.613 22.97,17.5 C23.237,17.388 23.237,16.785 23.123,16.56 C23.008,16.333 23.237,15.808 23.161,15.431 C23.085,15.055 22.817,14.679 22.626,14.453 C22.435,14.227 22.626,13.927 22.741,13.739 C22.856,13.55 22.779,13.249 22.549,13.1 C22.32,12.949 22.091,13.1 21.709,13.137 C21.327,13.174 21.479,12.761 21.556,12.535 C21.632,12.309 21.518,12.158 21.366,12.008 C21.212,11.858 21.098,11.632 21.366,11.519 C21.632,11.406 21.862,11.444 22.167,11.557 C22.473,11.67 22.741,11.369 22.741,11.144 C22.741,10.917 22.512,10.805 22.244,10.466 C21.977,10.127 21.709,9.864 21.595,9.413 C21.479,8.961 21.06,9.225 20.868,9.413 C20.678,9.601 20.601,9.526 20.562,9.112 C20.524,8.698 20.142,8.585 19.836,8.736 C19.531,8.886 19.455,9.337 19.416,9.601 C19.378,9.864 19.34,10.278 18.996,10.052 C18.652,9.827 18.728,9.225 18.843,8.849 C18.958,8.473 18.767,8.209 18.652,8.021 C18.538,7.833 18.423,7.795 18.499,7.644 C18.576,7.494 18.576,7.344 18.499,7.231 C18.423,7.118 18.423,6.893 18.232,6.666 C18.041,6.441 17.467,6.554 17.276,6.479 C17.085,6.404 17.009,6.14 17.009,5.839 C17.009,5.539 16.551,5.614 16.359,5.727 C16.169,5.839 15.901,5.764 15.786,5.651 C15.672,5.539 15.213,5.801 14.984,5.952 C14.755,6.102 14.602,6.027 14.449,5.915 C14.296,5.801 14.029,5.915 13.837,6.102 C13.647,6.291 13.456,6.629 13.456,6.968 C13.456,7.306 12.958,7.005 12.577,6.329 C12.195,5.651 11.889,6.404 11.965,6.855 C12.041,7.306 12.729,8.058 13.073,8.359 C13.417,8.585 13.341,9.112 13.341,9.3 C13.341,9.488 13.837,9.714 14.22,9.864 C14.602,10.015 14.678,10.579 14.755,10.729 C14.831,10.879 15.022,11.293 14.984,11.519 C14.946,11.745 14.793,12.008 14.793,12.234 C14.793,12.46 14.64,12.723 14.563,12.873 C14.487,13.023 14.563,13.437 14.487,13.625 C14.411,13.814 14.334,14.189 14.373,14.528 C14.398,14.753 14.296,15.018 14.105,15.13 C13.914,15.244 13.952,15.619 13.99,15.732 C14.029,15.845 13.99,16.071 13.876,16.146 C13.761,16.222 13.723,16.635 13.647,16.823 C13.57,17.011 13.303,16.861 13.111,16.41 C12.92,15.958 12.577,16.748 12.501,17.011 C12.424,17.274 12.348,17.35 12.195,17.538 C12.051,17.714 11.965,17.914 11.698,17.952 C11.431,17.989 10.819,18.215 10.552,18.328 C10.284,18.44 9.749,18.704 9.481,18.854 C9.214,19.005 8.717,19.569 8.603,19.794 C8.488,20.02 8.565,20.697 8.603,20.81 C8.641,20.923 8.297,21.524 8.183,21.825 C8.068,22.127 8.183,22.729 8.183,22.879 C8.183,23.03 8.145,23.482 8.106,23.669 C8.068,23.857 7.905,24.316 7.838,24.497 C7.686,24.911 7.838,25.438 7.762,25.663 C7.686,25.889 7.533,26.265 7.533,26.491 C7.533,26.716 7.838,27.469 7.838,27.469 L8.068,27.393 C8.068,27.393 8.221,26.791 8.145,26.491 C8.068,26.19 8.068,25.738 8.374,25.588 C8.679,25.438 8.603,25.889 8.603,26.114 L8.603,27.167 C8.603,27.393 8.832,27.769 8.756,28.07 C8.679,28.371 8.756,28.634 8.756,28.634 C8.794,28.973 8.947,29.312 8.985,29.537 C9.023,29.763 8.985,30.102 8.832,30.29 C8.679,30.478 8.679,30.741 8.794,30.93 C8.909,31.118 9.062,31.38 8.985,31.644 C8.909,31.907 9.023,32.283 9.138,32.546 C9.252,32.81 9.481,33.036 9.749,33.148 C10.176,33.328 10.169,33.487 10.207,33.638 C10.246,33.788 10.399,34.014 10.59,34.089 C10.781,34.165 10.934,34.24 11.163,34.39 C11.392,34.54 11.507,34.803 11.622,35.029 C11.736,35.254 11.812,35.519 11.927,35.706 C12.041,35.894 12.424,36.12 12.691,36.196 C12.958,36.27 13.111,36.27 13.188,36.421 C13.265,36.571 13.265,36.834 13.723,37.023 C14.182,37.211 13.876,37.663 13.799,37.963 C13.723,38.264 13.99,38.641 14.143,38.904 C14.296,39.167 14.793,39.205 15.099,39.242 C15.404,39.28 15.366,39.542 15.29,39.731 C15.213,39.919 15.213,40.069 15.328,40.258 C15.47,40.49 15.672,40.86 15.519,41.161 C15.366,41.461 14.64,41.461 14.105,41.461 C13.57,41.461 12.882,42.063 12.577,42.44 C12.271,42.815 12.424,43.794 12.577,44.32 C12.729,44.846 13.265,45.374 13.494,45.75 C13.723,46.125 14.334,46.653 14.946,46.802 C15.557,46.954 16.016,47.329 16.631,48.145 C18.995,48.872 21.509,49.262 24.117,49.262 C26.341,49.262 28.498,48.977 30.551,48.443" id="Fill-32" fill="#0D2C84" mask="url(#mask-14)"></path></g><g id="Group-37" transform="translate(0.000000, 0.000000)"><mask id="mask-16" fill="white"><use xlink:href="#path-15"></use></mask><g id="Clip-36"></g><path d="M24.486,48.902 C27.858,47.374 30.655,43.928 32.619,39.532 C34.581,35.133 35.711,29.773 35.711,24.385 L35.711,24.376 C35.711,18.987 34.581,13.627 32.619,9.229 C30.655,4.832 27.858,1.386 24.486,-0.142 L24.296,0.277 C27.517,1.731 30.266,5.083 32.198,9.416 C34.132,13.748 35.251,19.051 35.251,24.376 L35.251,24.385 C35.251,29.709 34.132,35.012 32.198,39.344 C30.266,43.678 27.517,47.029 24.296,48.483 L24.486,48.902" id="Fill-35" fill="#0D2C84" mask="url(#mask-16)"></path></g><g id="Group-40" transform="translate(0.000000, 0.000000)"><mask id="mask-18" fill="white"><use xlink:href="#path-17"></use></mask><g id="Clip-39"></g><path d="M24.443,48.916 C29.832,47.66 33.936,44.279 36.681,39.841 C39.428,35.402 40.826,29.905 40.826,24.38 C40.826,18.855 39.428,13.358 36.681,8.919 C33.936,4.481 29.832,1.1 24.443,-0.157 L24.339,0.291 C29.596,1.519 33.594,4.807 36.29,9.161 C38.984,13.514 40.366,18.932 40.366,24.38 C40.366,29.828 38.984,35.246 36.29,39.598 C33.594,43.952 29.596,47.24 24.339,48.468 L24.443,48.916" id="Fill-38" fill="#0D2C84" mask="url(#mask-18)"></path></g><g id="Group-43" transform="translate(0.000000, 0.000000)"><mask id="mask-20" fill="white"><use xlink:href="#path-19"></use></mask><g id="Clip-42"></g><path d="M24.412,48.921 C31.603,48.252 36.84,44.998 40.26,40.469 C43.682,35.94 45.295,30.148 45.295,24.384 L45.295,24.375 C45.295,18.611 43.682,12.818 40.26,8.29 C36.84,3.761 31.603,0.507 24.412,-0.162 L24.369,0.296 C31.443,0.958 36.542,4.136 39.893,8.567 C43.243,12.999 44.835,18.695 44.835,24.375 L44.835,24.384 C44.835,30.064 43.243,35.76 39.893,40.192 C36.542,44.623 31.443,47.801 24.369,48.463 L24.412,48.921" id="Fill-41" fill="#0D2C84" mask="url(#mask-20)"></path></g><g id="Group-46" transform="translate(0.000000, 0.000000)"><mask id="mask-22" fill="white"><use xlink:href="#path-21"></use></mask><g id="Clip-45"></g><path d="M24.55,48.859 C25.979,47.484 27.337,44.144 28.382,39.744 C29.42,35.346 30.116,29.903 30.116,24.385 L30.116,24.376 C30.116,18.858 29.42,13.414 28.382,9.017 C27.337,4.616 25.979,1.276 24.55,-0.099 L24.232,0.234 C25.521,1.45 26.911,4.766 27.934,9.122 C28.964,13.482 29.656,18.897 29.656,24.376 L29.656,24.385 C29.656,29.864 28.964,35.278 27.934,39.638 C26.911,43.994 25.521,47.31 24.232,48.526 L24.55,48.859" id="Fill-44" fill="#0D2C84" mask="url(#mask-22)"></path></g><g id="Group-49" transform="translate(0.000000, 0.000000)"><mask id="mask-24" fill="white"><use xlink:href="#path-23"></use></mask><g id="Clip-48"></g><path d="M24.486,48.482 C21.266,47.029 18.517,43.677 16.585,39.343 C14.651,35.012 13.532,29.708 13.532,24.384 L13.532,24.375 C13.532,19.051 14.651,13.747 16.585,9.416 C18.517,5.082 21.266,1.73 24.486,0.277 L24.296,-0.143 C20.924,1.385 18.128,4.831 16.164,9.228 C14.201,13.627 13.072,18.986 13.072,24.375 L13.072,24.384 C13.072,29.772 14.201,35.132 16.164,39.531 C18.128,43.927 20.924,47.373 24.296,48.901 L24.486,48.482" id="Fill-47" fill="#0D2C84" mask="url(#mask-24)"></path></g><g id="Group-52" transform="translate(0.000000, 0.000000)"><mask id="mask-26" fill="white"><use xlink:href="#path-25"></use></mask><g id="Clip-51"></g><path d="M24.443,48.468 C19.186,47.241 15.188,43.952 12.492,39.598 C9.798,35.246 8.416,29.828 8.417,24.38 C8.416,18.932 9.798,13.514 12.492,9.161 C15.188,4.807 19.186,1.519 24.443,0.292 L24.339,-0.157 C18.951,1.1 14.846,4.481 12.101,8.919 C9.355,13.358 7.957,18.855 7.957,24.38 C7.957,29.905 9.355,35.402 12.101,39.841 C14.846,44.279 18.951,47.66 24.339,48.916 L24.443,48.468" id="Fill-50" fill="#0D2C84" mask="url(#mask-26)"></path></g><g id="Group-55" transform="translate(0.000000, 0.000000)"><mask id="mask-28" fill="white"><use xlink:href="#path-27"></use></mask><g id="Clip-54"></g><path d="M24.412,48.463 C17.339,47.801 12.24,44.623 8.889,40.192 C5.539,35.76 3.947,30.064 3.947,24.384 L3.947,24.375 C3.947,18.695 5.539,12.999 8.889,8.568 C12.24,4.136 17.339,0.959 24.412,0.297 L24.369,-0.162 C17.179,0.507 11.941,3.761 8.521,8.29 C5.1,12.819 3.488,18.611 3.487,24.375 L3.487,24.384 C3.488,30.148 5.1,35.94 8.521,40.469 C11.941,44.998 17.179,48.252 24.369,48.921 L24.412,48.463" id="Fill-53" fill="#0D2C84" mask="url(#mask-28)"></path></g><g id="Group-58" transform="translate(0.000000, 0.000000)"><mask id="mask-30" fill="white"><use xlink:href="#path-29"></use></mask><g id="Clip-57"></g><path d="M24.55,48.526 C23.262,47.31 21.872,43.994 20.849,39.638 C19.819,35.278 19.126,29.864 19.127,24.385 L19.127,24.376 C19.126,18.897 19.819,13.482 20.849,9.122 C21.872,4.766 23.262,1.45 24.55,0.234 L24.232,-0.099 C22.803,1.276 21.446,4.616 20.401,9.017 C19.363,13.414 18.667,18.858 18.666,24.376 L18.666,24.385 C18.667,29.903 19.363,35.346 20.401,39.743 C21.446,44.144 22.803,47.484 24.232,48.859 L24.55,48.526" id="Fill-56" fill="#0D2C84" mask="url(#mask-30)"></path></g><mask id="mask-32" fill="white"><use xlink:href="#path-31"></use></mask><g id="Clip-60"></g><polygon id="Fill-59" fill="#0D2C84" mask="url(#mask-32)" points="24.166 48.689 24.626 48.689 24.626 0.077 24.166 0.077"></polygon><path d="M48.377,18.833 C42.421,16.997 35.796,16.939 26.489,16.938 L24.396,16.938 L23.494,16.938 C13.537,16.939 6.332,16.963 0.124,18.876 L0.259,19.316 C6.368,17.43 13.535,17.397 23.494,17.399 L24.396,17.399 C25.109,17.399 25.806,17.398 26.489,17.398 C35.797,17.397 42.38,17.464 48.241,19.273 L48.377,18.833" id="Fill-61" fill="#0D2C84" mask="url(#mask-32)"></path><path d="M46.052,12.575 C41.529,11.169 33.18,10.447 24.396,10.445 C15.608,10.447 6.779,11.28 2.256,12.684 L2.393,13.124 C6.817,11.745 15.644,10.904 24.396,10.905 C33.149,10.904 41.492,11.635 45.915,13.014 L46.052,12.575" id="Fill-62" fill="#0D2C84" mask="url(#mask-32)"></path><path d="M42.036,6.99 C37.223,6.067 31.26,6.053 24.391,6.052 L24.391,6.512 L24.399,6.512 L24.399,6.052 C17.528,6.053 11.299,6.157 6.488,7.079 L6.574,7.531 C11.321,6.62 17.534,6.512 24.399,6.512 L24.399,6.052 L24.391,6.052 L24.391,6.512 C31.259,6.512 37.204,6.531 41.949,7.442 L42.036,6.99" id="Fill-63" fill="#0D2C84" mask="url(#mask-32)"></path><path d="M36.655,2.958 C32.968,2.572 28.626,2.246 24.396,2.246 C20.164,2.246 15.291,2.602 11.603,2.987 L11.651,3.445 C15.326,3.061 20.19,2.706 24.396,2.706 C28.603,2.706 32.93,3.031 36.607,3.416 L36.655,2.958" id="Fill-64" fill="#0D2C84" mask="url(#mask-32)"></path><path d="M48.242,29.487 C42.38,31.296 35.798,31.362 26.49,31.361 L24.396,31.361 L24.164,31.361 C13.857,31.362 6.564,31.35 0.319,29.423 L0.184,29.862 C6.529,31.818 13.859,31.82 24.164,31.821 L24.396,31.821 L26.49,31.821 C35.797,31.821 42.421,31.762 48.378,29.927 L48.242,29.487" id="Fill-65" fill="#0D2C84" mask="url(#mask-32)"></path><path d="M45.915,35.745 C41.492,37.123 33.149,37.856 24.395,37.854 C15.643,37.856 6.906,37.022 2.482,35.644 L2.345,36.083 C6.868,37.488 15.608,38.313 24.395,38.314 C33.18,38.313 41.529,37.589 46.052,36.184 L45.915,35.745" id="Fill-66" fill="#0D2C84" mask="url(#mask-32)"></path><path d="M41.92,41.296 C37.174,42.206 31.258,42.248 24.391,42.247 L24.391,42.707 L24.399,42.707 L24.399,42.247 C17.532,42.247 11.589,42.177 6.841,41.267 L6.754,41.719 C11.567,42.64 17.529,42.707 24.399,42.707 L24.399,42.247 L24.391,42.247 L24.391,42.707 C31.261,42.707 37.194,42.67 42.007,41.748 L41.92,41.296" id="Fill-67" fill="#0D2C84" mask="url(#mask-32)"></path><path d="M36.518,45.382 C32.843,45.766 28.604,46.053 24.396,46.053 C20.19,46.053 15.832,45.707 12.155,45.322 L12.107,45.78 C15.794,46.166 20.165,46.513 24.396,46.513 C28.625,46.513 32.878,46.225 36.566,45.84 L36.518,45.382" id="Fill-68" fill="#0D2C84" mask="url(#mask-32)"></path><polyline id="Fill-69" fill="#0D2C84" mask="url(#mask-32)" points="-0.371 24.61 48.929 24.606 48.929 24.146 -0.371 24.15"></polyline><path d="M-0.558,21.095 C2.217,25.898 12.289,36.337 18.898,39.236 L19.087,38.801 C12.661,36.011 2.529,25.534 -0.147,20.859 L-0.558,21.095" id="Fill-70" fill="#0D2C84" mask="url(#mask-32)"></path><path d="M48.779,33.225 C44.488,26.146 33.319,18.898 27.324,16.274 L27.134,16.708 C33.045,19.282 44.205,26.557 48.373,33.47 L48.779,33.225" id="Fill-71" fill="#0D2C84" mask="url(#mask-32)"></path><polygon id="Fill-72" fill="#0D2C84" mask="url(#mask-32)" points="17.317 40.227 18.841 39.081 19.074 37.187 21.797 40.79"></polygon><polygon id="Fill-73" fill="#0D2C84" mask="url(#mask-32)" points="29.775 15.773 28.251 16.92 28.017 18.813 25.295 15.21"></polygon><path d="M-0.216,21.546 C3.312,26.284 9.167,31.363 18.044,36.497 L18.282,36.087 C9.443,30.976 3.638,25.93 0.164,21.263 L-0.216,21.546" id="Fill-74" fill="#0D2C84" mask="url(#mask-32)"></path><path d="M48.579,33.179 C46.093,26.995 39.583,19.923 27.169,12.743 C27.055,12.677 26.91,12.716 26.845,12.829 C26.779,12.943 26.818,13.088 26.931,13.153 C39.295,20.301 45.718,27.323 48.139,33.356 C48.188,33.477 48.326,33.536 48.447,33.487 C48.569,33.439 48.628,33.3 48.579,33.179" id="Fill-75" fill="#0D2C84" mask="url(#mask-32)"></path><polygon id="Fill-76" fill="#0D2C84" mask="url(#mask-32)" points="16.132 37.146 17.656 35.999 17.89 34.107 20.613 37.709"></polygon><polygon id="Fill-77" fill="#0D2C84" mask="url(#mask-32)" points="29.081 12.094 27.557 13.241 27.323 15.134 24.6 11.531"></polygon></g><path d="M28.066,51.934 L28.066,52.164 C41.66,52.164 52.679,41.144 52.679,27.551 C52.679,13.956 41.66,2.937 28.066,2.937 C14.472,2.937 3.452,13.956 3.452,27.551 C3.452,41.144 14.472,52.164 28.066,52.164 L28.066,51.704 C21.395,51.704 15.358,49.001 10.986,44.63 C6.615,40.258 3.912,34.221 3.912,27.551 C3.912,20.88 6.615,14.843 10.986,10.471 C15.358,6.1 21.395,3.397 28.066,3.397 C34.736,3.397 40.773,6.1 45.145,10.471 C49.516,14.843 52.219,20.88 52.219,27.551 C52.219,34.221 49.516,40.258 45.145,44.63 C40.773,49.001 34.736,51.704 28.066,51.704 L28.066,51.934" id="Fill-79" fill="#0D2C84"></path></g></svg> 