<?xml version="1.0" encoding="UTF-8"?> <svg xmlns="http://www.w3.org/2000/svg" xmlns:xlink="http://www.w3.org/1999/xlink" width="180px" height="33px" viewBox="0 0 180 33" version="1.1"><title>navair</title><g id="navair" stroke="none" stroke-width="1" fill="none" fill-rule="evenodd"><polyline id="Fill-1" fill="#A8A9AD" points="0 25.041 0 10.117 2.491 10.117 15.155 20 15.155 10.117 18.436 10.117 18.436 25.041 15.945 25.041 3.28 14.95 3.28 25.041 0 25.041"></polyline><path d="M31.525,19.083 L38.421,19.083 L35.024,13.009 L31.525,19.083 Z M24.488,25.041 L33.389,10.117 L36.918,10.117 L45.936,25.041 L41.828,25.041 L39.939,21.772 L29.967,21.772 L28.134,25.041 L24.488,25.041 L24.488,25.041 Z" id="Fill-2" fill="#A8A9AD"></path><path d="M129.751,19.06 L136.647,19.06 L133.25,13.002 L129.751,19.06 Z M122.713,25.003 L131.615,10.118 L135.144,10.118 L144.162,25.003 L140.054,25.003 L138.165,21.743 L128.193,21.743 L126.359,25.003 L122.713,25.003 L122.713,25.003 Z" id="Fill-3" fill="#A8A9AD"></path><polyline id="Fill-4" fill="#A8A9AD" points="56.963 25.041 47.902 10.118 52.183 10.118 58.423 20.859 64.409 10.117 68.109 10.117 59.496 25.041 56.963 25.041"></polyline><polygon id="Fill-5" fill="#A8A9AD" points="149.536 25.003 153.209 25.003 153.209 10.118 149.536 10.118"></polygon><path d="M173.28,12.685 L165.102,12.685 L165.102,16.839 L173.28,16.839 C173.911,16.839 174.34,16.753 174.573,16.579 C174.805,16.402 174.921,16.094 174.921,15.651 L174.921,13.858 C174.921,13.425 174.805,13.123 174.573,12.945 C174.34,12.772 173.911,12.685 173.28,12.685 Z M161.526,25.003 L161.526,10.118 L174.891,10.118 C176.138,10.118 177.042,10.343 177.598,10.8 C178.159,11.253 178.436,11.983 178.436,12.997 L178.436,16.498 C178.436,17.502 178.157,18.232 177.598,18.69 C177.041,19.145 176.138,19.378 174.891,19.378 L173.083,19.378 L180,25.003 L174.843,25.003 L168.388,19.378 L165.102,19.378 L165.102,25.003 L161.526,25.003 L161.526,25.003 Z" id="Fill-6" fill="#A8A9AD"></path><path d="M96.878,1.723 C104.236,0.158 110.587,1.129 114.335,3.676 C116.897,5.417 118.298,7.797 118.298,11.177 C118.298,15 115.786,18.79 112.13,22.025 C107.826,25.833 101.72,28.937 95.021,30.362 C85.08,32.498 77.22,30.526 74.323,25.528 C72.281,22.004 73.159,18.597 75.088,15.253 C78.623,9.129 87.289,3.762 96.878,1.723 Z M113.115,6.356 C120.955,16.2 102.153,27.002 94.413,28.738 C85.577,30.752 77.68,29.557 75.178,25.069 C73.428,21.928 74.243,18.749 76.23,15.831 C78.897,11.916 83.774,8.529 88.315,6.28 C94.61,3.162 108.501,0.563 113.115,6.356 L113.115,6.356 Z" id="Fill-7" fill="#A8A9AD"></path><path d="M67.95,28.421 L88.939,9.691 C89.657,9.011 90.441,9.099 90.995,9.709 L97.364,17.35 C97.756,17.82 97.928,17.647 98.414,17.277 L118.323,2.066 C120.488,0.219 123.411,0.541 124.53,1.948 C125.509,3.177 125.382,5.116 123.319,6.801 L98.414,23.307 C97.201,24.124 96.781,24.105 95.932,23.156 L88.876,14.97 L68.496,29.071 C68.028,29.353 67.779,29.351 67.663,29.13 C67.573,28.958 67.67,28.668 67.95,28.421" id="Fill-8" fill="#007AC3"></path></g></svg> 