<?xml version="1.0" encoding="UTF-8"?> <svg xmlns="http://www.w3.org/2000/svg" xmlns:xlink="http://www.w3.org/1999/xlink" width="839px" height="142px" viewBox="0 0 839 142" version="1.1"><title>Artboard</title><defs><polygon id="path-1" points="0 -1.42108547e-14 31.8937462 -1.42108547e-14 31.8937462 47.8530323 0 47.8530323"></polygon><polygon id="path-3" points="0 0 59.727 0 59.727 59.1898 0 59.1898"></polygon></defs><g id="Artboard" stroke="none" stroke-width="1" fill="none" fill-rule="evenodd"><g id="Group-41"><path d="M565.99198,141.245 C565.80898,139.538 563.75898,139.283 563.36998,137.737 C562.49298,132.305 564.50098,130.278 569.74398,131.19 C571.69598,131.529 573.44098,132.792 576.24898,132.344 C581.60998,129.426 581.92998,122.815 584.88998,117.593 C579.20598,105.853 573.49298,94.077 567.80798,82.289 C566.16798,78.887 563.43498,76.647 559.67298,75.079 C563.78398,73.581 578.10998,73.565 582.06498,74.946 C580.25398,76.647 576.64798,75.523 576.19298,78.867 C575.98898,80.213 576.46498,81.518 577.01198,82.684 C580.73598,90.624 584.55998,98.517 588.39898,106.523 C592.27498,100.993 599.66298,81.059 599.33498,77.263 C598.51998,75.365 596.03798,76.765 594.74198,74.307 C599.98198,73.64 604.87098,73.993 609.73498,74.08 C609.79098,74.706 609.91098,75.244 609.83198,75.275 C605.94798,76.789 604.33498,79.98 602.87998,83.659 C597.46398,97.346 591.56898,110.846 586.27298,124.578 C583.42498,131.964 579.48298,138.024 571.99198,141.245 L565.99198,141.245 Z" id="Fill-1" fill="#2B2728"></path><g id="Group-5" transform="translate(807.097934, 72.699260)"><mask id="mask-2" fill="white"><use xlink:href="#path-1"></use></mask><g id="Clip-4"></g><path d="M31.8940462,37.5457403 C31.0420462,37.8227403 30.5410462,38.4607403 30.1680462,39.2287403 C27.1210462,45.5087403 21.8510462,47.9837403 15.1560462,47.8477403 C13.1740462,47.8077403 11.1420462,47.6067403 9.23404622,47.0997403 C6.35804622,46.3367403 3.55404622,45.7737403 0.451046223,47.2807403 L0.451046223,30.7767403 C2.90004622,31.8307403 2.70104622,33.9397403 3.34804622,35.4087403 C6.04004622,41.5197403 10.5440462,44.8797403 16.1950462,44.7677403 C19.8490462,44.6947403 22.6020462,42.8927403 23.5850462,39.9297403 C24.4550462,37.3087403 23.3970462,34.0957403 20.7840462,31.9687403 C18.4550462,30.0727403 15.7890462,28.6887403 13.1380462,27.2897403 C10.6380462,25.9707403 8.08104622,24.7207403 5.72804622,23.1687403 C0.996046223,20.0467403 -0.838953777,15.4187403 0.353046223,10.2717403 C1.57704622,4.98174032 5.58804622,1.24774032 10.9180462,0.246740317 C13.7870462,-0.292259683 16.5560462,0.134740317 19.3280462,0.732740317 C20.7850462,1.04674032 22.2160462,1.48174032 23.6730462,1.77274032 C25.1940462,1.92374032 25.6680462,-0.0942596833 27.5130462,0.130740317 L27.5130462,15.4797403 C25.0090462,14.7227403 25.3170462,12.4197403 24.6400462,10.7777403 C22.2560462,4.99174032 17.8480462,2.32574032 12.1510462,3.18674032 C9.47304622,3.59074032 7.32604622,4.77374032 6.50004622,7.41374032 C5.62404622,10.2107403 6.57004622,12.6577403 8.77304622,14.5697403 C10.4190462,15.9997403 12.3650462,16.9437403 14.3270462,17.8587403 C21.2270462,21.0777403 28.1030462,24.3337403 31.8940462,31.5457403 L31.8940462,37.5457403 Z" id="Fill-3" fill="#2F2B2C" mask="url(#mask-2)"></path></g><path d="M97.54418,100.2471 C102.42418,100.0971 107.00818,98.4991 111.62618,97.1981 C126.38518,93.0401 140.51618,87.3131 154.50618,79.4271 C139.41418,64.5741 124.49118,49.8861 108.88718,34.5271 L165.71818,34.5271 L165.71818,72.2471 C171.67818,69.0271 176.08818,64.7881 181.30218,61.6451 C180.20018,65.3051 176.88818,66.9881 174.43518,69.3741 C171.82118,71.9171 168.92518,74.1711 166.04218,76.6461 L166.04218,89.9831 C162.64118,88.2211 160.88118,85.0661 157.58418,82.8591 C141.97418,93.9071 124.76818,102.3781 106.51218,108.7311 C95.48318,112.0551 84.30018,114.7021 72.89218,116.3541 C66.07918,116.5501 59.30318,117.5731 52.46118,117.1891 C41.28818,116.5611 30.27918,115.1751 20.02918,110.2871 C17.63518,109.1451 15.24218,107.9081 13.08118,106.3861 C1.45418002,98.1901 -2.48981998,86.5651 1.52118002,72.6851 C2.86318002,68.0391 4.78718002,63.6331 7.29418002,59.5061 C14.88318,47.0141 24.50818,36.2981 35.79918,27.0521 C36.09218,27.2761 36.38618,27.4991 36.67918,27.7231 C29.94818,36.4101 23.30718,45.1511 19.11118,55.4491 C17.27818,59.9481 15.95818,64.5571 15.60918,69.4291 C14.85018,80.0311 19.07318,88.1821 27.70818,94.1711 C32.56518,97.5401 38.00218,99.6411 43.68318,101.0511 C53.29518,103.4351 63.06718,104.1471 72.94218,103.3581 C81.30218,103.5751 89.61218,103.4081 97.54418,100.2471" id="Fill-6" fill="#E3222B"></path><path d="M801.66028,118.9754 L779.61528,118.9754 C779.52328,117.1574 780.67928,117.4064 781.63228,117.2304 C785.51328,116.5174 786.73128,115.4274 786.78828,111.8174 C786.91428,103.6594 787.06128,95.4884 786.75928,87.3394 C786.46728,79.4924 781.05928,76.5554 773.97428,80.0504 C771.57228,81.2354 769.46528,82.8424 767.56228,85.1074 C767.91628,94.8964 767.25028,104.8604 767.94028,114.0844 C769.52228,117.6784 772.90828,116.5714 775.11228,118.1354 C772.04628,119.4744 758.33028,119.8034 751.84528,118.7604 C753.34028,115.8584 757.82428,118.4444 758.71028,114.7094 C759.39228,105.1254 759.48628,95.3094 758.97828,85.5164 C758.69928,80.1274 754.19628,77.4294 749.04028,78.9454 C745.86028,79.8804 743.93128,81.1414 740.40128,84.5934 C739.48628,93.8254 739.90928,111.1734 740.68328,113.7854 C742.33028,118.2034 745.81228,116.3254 747.66528,118.2974 C744.09128,119.5144 729.59028,119.6574 725.14728,118.6154 C725.08928,117.4724 725.87328,117.4134 726.73428,117.2324 C730.48328,116.4464 731.58428,115.6724 731.68328,112.1794 C731.96128,102.3674 732.30628,92.5414 731.43228,82.7364 C731.36128,81.9304 730.99728,81.1514 730.88828,80.7734 C729.02128,78.5064 726.80028,79.5534 724.63028,79.4794 C729.13828,75.7044 734.27228,74.1574 739.60028,72.3444 C740.56028,75.5894 739.75528,78.4294 740.28328,81.4694 C742.23628,80.6514 743.27428,79.1054 744.52628,77.8904 C746.59028,75.8884 748.86028,74.2174 751.58828,73.3274 C758.33428,71.1244 763.18928,73.5924 767.34728,81.3944 C769.10628,80.7754 769.95428,79.0704 771.23128,77.9394 C774.14728,75.3554 777.22528,73.2354 781.25828,72.8044 C787.41428,72.1464 792.05528,74.9714 793.99828,80.8174 C794.78928,83.1944 795.08028,85.6684 795.06428,88.1914 C795.02428,94.6864 795.05028,101.1814 795.06028,107.6764 C795.07228,115.4944 795.07728,115.4944 801.66028,118.9754" id="Fill-8" fill="#2A2627"></path><path d="M264.31358,52.2481 C277.92458,68.8641 291.27558,85.1631 304.71358,101.5691 C305.97058,99.9951 305.44158,98.6301 305.44758,97.3861 C305.50258,86.7231 305.48358,76.0591 305.47258,65.3951 C305.47158,64.0631 305.45858,62.7261 305.34058,61.4011 C304.83458,55.7261 303.80558,54.7401 297.96258,54.2391 C297.17058,54.1711 296.29258,54.3331 295.97258,53.2911 C298.84958,51.9351 315.31758,51.7651 319.57558,53.1021 C318.78858,54.7491 317.29958,54.1191 316.12758,54.2451 C312.06458,54.6781 310.47458,56.1261 310.01858,60.0991 C309.84958,61.5811 309.90858,63.0941 309.90858,64.5921 C309.90158,81.4221 309.90458,98.2511 309.90458,115.0801 C309.90458,116.7321 309.90458,118.3841 309.90458,120.0511 C307.20658,120.7261 306.57258,118.5471 305.52858,117.2821 C293.86558,103.1601 282.27058,88.9831 270.65158,74.8241 C268.58158,72.3021 266.48958,69.7981 263.87658,66.6441 C263.87658,81.8711 263.79058,96.1601 263.92358,110.4461 C263.96958,115.4211 265.61358,116.8441 270.56058,117.2641 C271.51658,117.3451 272.58958,116.9751 273.31758,117.9631 C271.19758,119.5151 256.14858,119.9821 249.95758,118.6831 C250.00558,116.7841 251.48558,117.2541 252.48658,117.2961 C257.01658,117.4851 259.24358,114.8771 259.27858,110.5591 C259.29858,108.2271 259.40758,105.8971 259.41058,103.5651 C259.42258,89.4151 259.41658,75.2641 259.41658,61.3451 C256.05958,56.5351 251.76358,53.8701 245.93258,53.3961 C249.02458,51.7301 252.09658,52.3841 255.06358,52.2731 C258.05258,52.1601 261.04758,52.2481 264.31358,52.2481" id="Fill-10" fill="#2B2728"></path><path d="M546.45648,54.0092 C548.14948,53.4012 547.43348,50.8822 549.80048,50.8432 L549.80048,73.8732 C547.47448,73.5062 548.10548,71.8502 547.86548,70.6762 C545.95948,61.3272 540.02948,55.6832 531.12848,54.8272 C528.07048,54.5332 525.15448,55.0192 522.57348,56.8032 C516.79848,60.7952 516.29048,67.3022 521.49848,71.9912 C525.22748,75.3492 529.63748,77.7282 534.02048,80.1122 C538.68948,82.6522 543.52148,84.9512 547.67948,88.3052 C558.03348,96.6582 556.83248,111.3252 545.27748,117.9252 C542.97048,119.2432 540.46048,120.0642 537.78048,120.4672 C532.37348,121.2812 527.21548,120.4792 522.09048,118.7372 C519.62248,117.8982 517.16248,116.6142 514.02548,117.4032 C512.61148,117.5462 513.51948,120.2882 511.16348,120.3692 L511.16348,97.7102 C513.70348,98.9922 513.16448,101.2182 513.50548,102.7092 C516.24548,114.7082 528.73348,118.5122 537.15048,116.3092 C545.92448,114.0132 548.64248,104.6652 542.36048,98.0982 C540.84648,96.5172 539.02748,95.3492 537.15348,94.2642 C532.69648,91.6822 528.23248,89.1132 523.76748,86.5462 C521.02248,84.9692 518.34748,83.2772 516.00048,81.1462 C510.92648,76.5382 508.56048,70.8862 510.49248,64.1282 C512.48848,57.1472 517.41748,52.9332 524.42448,51.3012 C529.76948,50.0562 534.96748,50.9132 540.03648,52.9272 C541.99948,53.7072 543.93148,54.9642 546.45648,54.0092" id="Fill-12" fill="#2A2627"></path><g id="Group-16" transform="translate(189.463380, 0.000000)"><mask id="mask-4" fill="white"><use xlink:href="#path-3"></use></mask><g id="Clip-15"></g><path d="M59.727,0.9748 C48.771,20.3798 37.815,39.7848 26.859,59.1898 C26.524,59.1608 26.189,59.1328 25.855,59.1038 C25.333,51.0428 25.869,42.9318 25.565,34.4628 L0.324,34.4628 C0.216,34.1378 0.108,33.8128 0,33.4878 C19.596,22.3258 39.191,11.1628 58.787,-0.0002 C59.101,0.3248 59.414,0.6498 59.727,0.9748" id="Fill-14" fill="#282526" mask="url(#mask-4)"></path></g><path d="M454.59958,92.8761 C450.72158,93.7481 447.09958,95.2661 443.74258,97.3591 C441.63258,98.6761 439.78358,100.3061 438.72258,102.7051 C437.23858,106.0621 437.79158,109.7231 440.33058,112.3001 C442.64458,114.6491 445.39258,115.0131 448.98258,113.2921 C451.20658,112.2251 453.36758,111.0161 454.93658,109.0281 C454.93658,103.9621 454.94158,98.9931 454.92558,94.0241 C454.92358,93.7121 454.75358,93.4011 454.59958,92.8761 M454.97358,89.0381 C454.56458,84.0501 455.48258,78.9771 450.18258,76.4371 C446.75858,74.7961 443.18858,76.0131 440.14658,79.4501 C439.62858,81.0821 440.06158,82.7651 439.89258,84.4071 C439.58558,87.3951 437.48958,89.2011 434.95958,88.7981 C432.53058,88.4101 430.89558,85.9301 431.39858,83.1111 C432.13058,79.0061 434.73658,76.1921 438.38258,74.6001 C444.59758,71.8881 451.03858,71.9061 457.30858,74.4111 C461.03758,75.9001 462.87858,79.0281 462.93058,83.0631 C463.03258,91.0451 463.04258,99.0271 463.15958,107.0081 C463.19258,109.2591 462.82958,111.6761 464.59558,113.3671 C467.66958,114.3691 468.47258,111.0661 470.66358,110.5961 C470.24558,115.1851 463.95958,120.7451 459.81458,120.0981 C456.22658,119.5391 455.05658,116.8811 454.82258,113.3551 C452.85858,113.8371 451.76358,115.3691 450.29758,116.2621 C448.46558,117.3781 446.83858,118.7751 444.71258,119.4571 C439.43658,121.1501 434.81158,119.9111 431.83158,115.8071 C428.99758,111.9031 429.00458,105.7411 431.86658,101.8271 C433.98158,98.9351 436.85058,96.9641 440.00558,95.4101 C442.38458,94.2381 444.83858,93.2141 447.28158,92.1771 C449.71658,91.1431 452.17858,90.1751 454.97358,89.0381" id="Fill-17" fill="#2B2728"></path><path d="M358.98298,99.9189 C358.96598,91.8089 357.19598,85.1519 354.02298,80.9379 C351.44898,77.5189 348.14398,75.6009 343.71598,76.0649 C339.38798,76.5179 336.51098,79.1579 335.34898,82.9829 C332.18898,93.3789 333.16298,103.4229 339.48498,112.5259 C341.81298,115.8779 345.27598,117.6209 349.44598,116.9309 C354.03098,116.1719 356.69398,113.0899 357.92898,108.7749 C358.80198,105.7259 359.21198,102.5839 358.98298,99.9189 M368.18898,95.4239 C368.29398,101.3069 366.61398,106.3079 363.76298,110.8859 C359.10698,118.3639 350.79898,121.9969 341.79098,120.2429 C332.60598,118.4549 327.62698,112.0559 325.20898,103.5329 C322.81498,95.0949 325.00698,87.3409 330.16598,80.5469 C335.40998,73.6399 342.76598,71.5769 351.05998,73.1659 C359.35398,74.7549 364.28998,80.2989 367.06398,87.9769 C367.97198,90.4919 368.36698,93.1269 368.18898,95.4239" id="Fill-19" fill="#2B2728"></path><path d="M689.21838,88.0441 L709.69438,88.0441 C709.93338,81.2311 706.57438,76.7711 700.96938,76.2261 C695.38338,75.6841 690.99138,79.9191 689.21838,88.0441 M719.72038,101.8681 C720.95438,104.7951 719.51938,106.8461 718.60338,108.8351 C714.84738,116.9951 708.64438,120.9551 700.64838,120.5381 C693.07138,120.1441 686.00438,114.5461 683.49938,106.6631 C681.26538,99.6341 681.42638,92.5501 684.08038,85.6591 C687.84638,75.8851 697.78838,70.7771 707.92138,73.2231 C715.34238,75.0141 719.64338,80.9251 720.42338,91.0711 C710.06038,91.3331 699.69638,91.0061 689.26838,91.2591 C689.27938,96.5701 690.10638,101.2681 692.98038,105.3471 C696.49438,110.3331 701.25838,112.9091 707.50638,112.2641 C711.61738,111.8391 714.58338,109.6901 716.77338,106.2641 C717.64438,104.9031 717.74738,103.0601 719.72038,101.8681" id="Fill-21" fill="#2C2829"></path><path d="M639.32098,74.4232 C640.85998,74.3432 641.18498,72.4962 642.82098,72.9992 L642.82098,88.4292 C640.50098,87.0692 640.72198,84.9912 640.07298,83.4512 C638.33898,79.3382 635.74798,76.4262 631.04898,75.8692 C627.30198,75.4252 624.09798,76.1252 622.07398,79.5732 C620.88098,84.1562 623.01598,87.0342 626.75198,89.0222 C629.83498,90.6622 633.00298,92.1432 636.11998,93.7222 C637.30598,94.3232 638.49398,94.9372 639.61198,95.6542 C645.30998,99.3082 647.55598,104.1962 646.24298,109.9682 C644.99498,115.4512 639.85298,119.7822 633.65798,120.4132 C630.32798,120.7532 627.03498,120.4782 623.76698,119.5742 C621.39698,118.9182 618.91398,118.2032 616.21498,120.3722 L616.21498,104.2392 C617.79598,103.9342 617.80198,105.0632 618.08698,106.0022 C619.06898,109.2402 620.64098,112.1212 623.22698,114.3892 C626.02098,116.8392 629.25298,117.7552 632.92798,117.3852 C635.67398,117.1082 637.76098,115.7412 638.74098,113.2822 C639.77998,110.6762 639.38298,108.0542 637.40598,105.8342 C635.24798,103.4102 632.37198,102.0432 629.62798,100.4882 C626.88198,98.9312 623.99098,97.6052 621.34998,95.8912 C616.36398,92.6552 614.64398,88.1272 615.98598,82.5642 C617.22198,77.4412 621.46198,73.7292 626.83698,72.8632 C631.11398,72.1742 635.06098,73.7332 639.32098,74.4232" id="Fill-23" fill="#2C2829"></path><path d="M400.22668,120.4469 C397.34968,120.5509 397.55668,118.3409 396.97668,117.0019 C392.89768,107.5889 389.01768,98.0889 384.89268,88.6969 C380.13368,77.8589 382.88568,80.3779 374.30868,74.7639 C377.82868,73.6949 391.24768,73.6039 395.94668,74.6619 C395.14668,76.7329 392.87268,75.4209 392.17168,76.2479 C389.91268,78.1309 390.17268,80.1059 390.96168,82.0189 C394.46068,90.4969 398.03168,98.9459 401.71068,107.7259 C407.32668,97.5489 413.40368,80.9959 413.05568,77.1359 C411.99968,75.2289 409.35068,76.9119 407.96768,74.3169 C413.21368,73.6349 418.12468,74.0079 423.31168,74.5439 C416.98068,76.9899 416.20568,82.9629 414.08368,87.9409 C409.98868,97.5479 406.08368,107.2369 402.10568,116.8939 C401.60868,118.1009 401.33168,119.4179 400.22668,120.4469" id="Fill-25" fill="#2B2728"></path><path d="M72.89248,116.3543 C84.30048,114.7013 95.48348,112.0543 106.51248,108.7313 C106.74348,109.0693 106.97448,109.4073 107.20448,109.7453 C107.16848,110.6433 107.59448,111.0693 108.49748,111.0063 C113.27548,115.3913 117.86948,119.9603 122.23948,124.7533 C122.04448,125.5413 122.04648,126.4173 120.85048,127.2413 L73.01348,127.2413 C72.97348,123.6123 72.93248,119.9833 72.89248,116.3543" id="Fill-27" fill="#15478B"></path><path d="M658.19548,77.4849 C655.40848,77.3429 653.30948,77.2359 650.46648,77.0899 C653.55548,73.7049 657.27548,72.0879 659.68948,68.9679 C662.02448,65.9499 663.24748,62.3169 665.53148,58.7719 C667.52048,61.2989 666.47348,63.8059 666.65148,66.0729 C666.84248,68.5149 666.69448,70.9849 666.69448,73.7939 L675.95848,73.7939 C677.53148,74.9169 676.92948,75.9219 677.14148,77.3349 L666.95248,77.3349 L666.95248,111.2939 C670.70348,115.1839 670.70348,115.1839 677.57848,110.2479 C677.30248,115.2629 672.43548,119.9299 667.30848,120.0969 C662.77448,120.2449 659.23948,116.9119 658.48748,111.7009 C657.89048,107.5629 658.24348,103.3949 658.21048,99.2399 C658.15548,92.1159 658.19548,84.9899 658.19548,77.4849" id="Fill-29" fill="#312E2F"></path><path d="M97.54418,100.2471 C89.61218,103.4081 81.30218,103.5751 72.94218,103.3581 L72.94218,75.6081 C81.61618,84.0521 89.80118,91.9221 97.54418,100.2471" id="Fill-31" fill="#154589"></path><path d="M73.01368,127.2412 L120.84968,127.2412 C122.04668,126.4172 122.04468,125.5422 122.23868,124.7532 C123.66168,125.8142 125.17168,126.7962 125.89668,128.2512 C125.55668,129.2192 125.00668,129.1192 124.56368,129.1192 C108.41068,129.1242 92.25768,129.1322 76.10568,129.0732 C74.85768,129.0682 72.79268,129.9362 73.01368,127.2412" id="Fill-33" fill="#315996"></path><path d="M36.84718,26.1029 C37.06518,25.3259 37.54818,25.1409 38.29918,25.4869 C38.63818,26.2809 37.87218,26.4289 37.48718,26.7979 C37.29218,26.5499 37.07818,26.3179 36.84718,26.1029" id="Fill-35" fill="#E3222B"></path><path d="M37.48738,26.798 L36.67938,27.723 C36.38538,27.5 36.09238,27.276 35.79938,27.052 C35.93638,26.501 36.29238,26.193 36.84738,26.103 C37.07838,26.318 37.29138,26.55 37.48738,26.798" id="Fill-37" fill="#E3222B"></path><path d="M108.49728,111.0061 C107.59428,111.0691 107.16928,110.6441 107.20528,109.7451 L108.49728,111.0061 Z" id="Fill-39" fill="#315996"></path></g></g></svg> 