<?xml version="1.0" encoding="UTF-8"?> <svg xmlns="http://www.w3.org/2000/svg" xmlns:xlink="http://www.w3.org/1999/xlink" width="2047px" height="327px" viewBox="0 0 2047 327" version="1.1"><title>Artboard</title><defs><polygon id="path-1" points="0 0 187.908 0 187.908 326.092869 0 326.092869"></polygon></defs><g id="Artboard" stroke="none" stroke-width="1" fill="none" fill-rule="evenodd"><g id="Group-22"><path d="M214.8951,326.092869 L214.8951,297.563869 C223.8581,297.563869 232.2931,297.662869 240.7241,297.545869 C267.8451,297.169869 294.9671,296.776869 322.0861,296.252869 C330.2451,296.094869 335.1171,292.648869 336.6651,284.645869 C338.2901,276.243869 339.2261,267.592869 339.3331,259.035869 C339.6621,232.623869 339.4521,206.203869 339.4521,179.787869 C339.4521,177.979869 339.4521,176.172869 339.4521,173.880869 L364.3881,173.880869 C362.9901,170.000869 361.9261,166.796869 360.6891,163.660869 C354.1141,146.993869 347.4271,130.368869 340.9611,113.658869 C339.9741,111.106869 339.5611,108.194869 339.5161,105.439869 C339.2321,88.1718686 339.2671,70.8978686 338.8641,53.6338686 C338.7651,49.3898686 337.7221,45.0968686 336.6011,40.9648686 C334.6211,33.6628686 330.1841,30.1148686 322.5721,29.9118686 C304.6151,29.4318686 286.6521,29.1258686 268.6891,28.8758686 C252.2321,28.6458686 235.7721,28.5878686 219.3141,28.4328686 C218.0111,28.4198686 216.7091,28.2388686 215.2451,28.1228686 L215.2451,0.0848686497 L220.7641,0.0848686497 C254.0781,0.0848686497 287.3921,0.0268686497 320.7061,0.15086865 C325.4981,0.16786865 330.3421,0.75286865 335.0671,1.60486865 C357.1261,5.58286865 367.5401,22.5928686 369.7191,45.1888686 C371.1011,59.5188686 371.1431,74.1218686 370.1911,88.4968686 C368.9461,107.273869 373.1781,124.434869 380.6831,141.424869 C388.1861,158.408869 394.4901,175.920869 401.2931,193.211869 C401.7591,194.396869 402.0031,195.668869 402.4751,197.342869 L370.4181,197.342869 L370.4181,202.910869 C370.4181,226.336869 370.4441,249.762869 370.4071,273.188869 C370.3921,282.934869 368.5391,292.325869 364.5301,301.251869 C358.8181,313.972869 349.2831,321.907869 335.4131,324.482869 C333.5211,324.833869 331.6951,325.546869 329.8391,326.092869 L214.8951,326.092869 Z" id="Fill-1" fill="#03A2C5"></path><g id="Group-5"><mask id="mask-2" fill="white"><use xlink:href="#path-1"></use></mask><g id="Clip-4"></g><path d="M0,195.492269 C2.57,189.434269 5.262,183.424269 7.687,177.309269 C15.455,157.719269 23.167,138.107269 30.776,118.456269 C31.649,116.199269 32.111,113.641269 32.124,111.219269 C32.222,92.6232686 31.876,74.0192686 32.29,55.4322686 C32.459,47.8782686 33.291,40.1092686 35.351,32.8722686 C41.394,11.6532686 54.926,0.70526865 77.136,0.32926865 C113.432,-0.28473135 149.747,0.14726865 186.053,0.15226865 C186.366,0.15226865 186.678,0.33826865 187.341,0.54926865 L187.341,27.9392686 C185.798,28.0602686 184.364,28.2592686 182.929,28.2742686 C154.135,28.5802686 125.34,28.8382686 96.546,29.1782686 C90.895,29.2452686 85.243,29.5462686 79.598,29.8582686 C72.974,30.2242686 67.727,33.6462686 66.455,40.0742686 C64.728,48.8022686 63.616,57.7392686 63.252,66.6272686 C62.73,79.3972686 63.285,92.2082686 63.015,104.993269 C62.937,108.700269 62.098,112.565269 60.772,116.041269 C53.914,134.019269 46.78,151.893269 39.762,169.811269 C39.359,170.840269 39.125,171.935269 38.655,173.534269 L62.861,173.534269 C62.96,175.704269 63.108,177.457269 63.109,179.209269 C63.124,204.294269 62.877,229.382269 63.239,254.461269 C63.382,264.352269 64.142,274.359269 65.954,284.066269 C67.686,293.341269 72.398,296.220269 81.987,296.344269 C115.44,296.776269 148.894,297.174269 182.348,297.600269 C183.965,297.621269 185.581,297.783269 187.908,297.921269 L187.908,326.093269 L70.965,326.093269 C69.168,325.422269 67.419,324.534269 65.564,324.117269 C53.204,321.339269 44.462,314.172269 38.943,302.853269 C34.197,293.117269 32.147,282.816269 32.136,272.071269 C32.116,253.166269 32.168,234.262269 32.186,215.358269 C32.192,209.467269 32.187,203.575269 32.187,197.486269 L0,197.486269 C0,196.821269 0,196.157269 0,195.492269" id="Fill-3" fill="#808182" mask="url(#mask-2)"></path></g><path d="M1167.8673,176.612869 C1188.1493,176.612869 1207.9193,176.758869 1227.6853,176.544869 C1236.2783,176.451869 1244.4353,174.057869 1251.8683,169.648869 C1263.0113,163.038869 1268.3263,153.081869 1268.0443,140.259869 C1267.7583,127.244869 1261.6853,117.534869 1249.6283,112.573869 C1243.4463,110.030869 1236.5533,108.177869 1229.9173,107.959869 C1210.1353,107.307869 1190.3203,107.613869 1170.5183,107.566869 C1169.7253,107.564869 1168.9303,107.776869 1167.8673,107.926869 L1167.8673,176.612869 Z M1137.9163,79.3388686 C1139.6433,79.2398686 1141.1043,79.0838686 1142.5653,79.0828686 C1170.5423,79.0688686 1198.5203,78.9078686 1226.4943,79.1298686 C1245.5863,79.2808686 1263.4683,83.7788686 1278.4723,96.2968686 C1293.4193,108.766869 1298.9343,125.325869 1297.9293,144.220869 C1296.4213,172.547869 1280.2323,189.228869 1254.2643,197.882869 C1252.8793,198.343869 1251.5293,198.910869 1249.4283,199.705869 C1269.3253,226.165869 1288.9053,252.204869 1309.1753,279.161869 C1296.4693,279.161869 1284.8983,279.233869 1273.3313,279.044869 C1272.2363,279.026869 1270.9413,277.541869 1270.1203,276.452869 C1252.9303,253.631869 1235.7553,230.800869 1218.7113,207.872869 C1216.9313,205.477869 1215.1603,204.466869 1212.1553,204.502869 C1199.0013,204.659869 1185.8413,204.743869 1172.6913,204.469869 C1168.3713,204.379869 1167.4603,205.895869 1167.4933,209.885869 C1167.6703,230.979869 1167.5793,252.074869 1167.5813,273.169869 C1167.5813,274.957869 1167.5813,276.745869 1167.5813,278.859869 L1137.9163,278.859869 L1137.9163,79.3388686 Z" id="Fill-6" fill="#808182"></path><path d="M871.6074,171.483069 C871.0394,150.850069 859.9324,127.716069 834.1514,112.840069 C805.2564,96.1660686 766.4884,103.665069 745.8224,129.862069 C732.5054,146.744069 728.0584,165.981069 729.5144,187.251069 C732.6614,233.190069 778.8204,264.786069 822.7294,250.617069 C852.3244,241.066069 871.5844,213.161069 871.6074,171.483069 M799.4614,282.275069 C741.6524,281.826069 697.7004,237.118069 698.3594,179.432069 C699.0434,119.557069 743.1544,75.3410686 801.6684,75.8770686 C859.4354,76.4070686 903.1754,121.314069 902.6094,179.513069 C902.0404,238.188069 857.3364,282.724069 799.4614,282.275069" id="Fill-8" fill="#808182"></path><polygon id="Fill-10" fill="#808183" points="1541.3456 106.698569 1541.3456 164.305569 1645.5946 164.305569 1645.5946 192.305569 1541.5116 192.305569 1541.5116 251.111569 1659.1786 251.111569 1659.1786 278.816569 1511.5426 278.816569 1511.5426 79.4865686 1657.8366 79.4865686 1657.8366 106.698569"></polygon><path d="M528.4242,227.933669 C539.6882,233.941669 550.3232,241.000669 561.9532,245.496669 C579.9662,252.460669 598.8942,253.902669 617.7592,248.307669 C637.5272,242.444669 647.8702,224.688669 642.6252,206.468669 C639.6192,196.027669 631.9312,189.997669 622.4152,186.654669 C610.2242,182.371669 597.7192,178.890669 585.1952,175.659669 C568.4292,171.333669 551.6542,167.238669 536.6342,158.122669 C515.0562,145.025669 507.1462,124.238669 510.4322,100.614669 C514.3202,72.6696686 534.1612,52.5066686 563.7752,46.4526686 C593.4472,40.3866686 622.0392,44.1596686 648.6612,59.3776686 C649.6482,59.9416686 650.5532,60.6506686 651.7392,61.4576686 C648.3922,71.0906686 645.0962,80.5766686 641.9872,89.5216686 C632.3802,85.1706686 623.4882,80.1406686 613.9642,77.0496686 C596.3532,71.3336686 578.3522,69.9826686 560.7722,77.5976686 C544.0632,84.8366686 536.9522,102.064669 543.5392,118.954669 C547.3062,128.614669 555.6052,133.666669 564.6862,136.608669 C579.8342,141.516669 595.3432,145.319669 610.7052,149.567669 C626.3282,153.888669 641.5152,159.186669 654.5822,169.176669 C670.0262,180.983669 675.5912,197.039669 675.1762,215.917669 C674.4362,249.511669 648.7422,274.427669 611.9752,278.951669 C580.2712,282.851669 550.4112,277.054669 523.1722,259.608669 C519.5582,257.293669 518.6952,255.373669 520.2782,251.340669 C523.4222,243.328669 525.9712,235.084669 528.4242,227.933669" id="Fill-12" fill="#808182"></path><path d="M2017.187,164.011069 L2017.187,79.3090686 L2046.697,79.3090686 L2046.697,278.895069 L2017.177,278.895069 L2017.177,193.446069 C2015.078,193.263069 2013.494,193.004069 2011.909,193.003069 C1981.384,192.999069 1950.858,193.133069 1920.334,192.932069 C1915.602,192.901069 1914.523,194.361069 1914.558,198.830069 C1914.755,223.585069 1914.65,248.341069 1914.649,273.097069 C1914.648,274.897069 1914.649,276.698069 1914.649,278.810069 L1884.668,278.810069 L1884.668,79.0800686 C1893.907,79.0800686 1903.02,78.9430686 1912.113,79.2950686 C1913.017,79.3300686 1914.527,82.3450686 1914.537,83.9850686 C1914.696,108.241069 1914.647,132.499069 1914.65,156.756069 C1914.651,164.136069 1914.655,164.116069 1921.803,164.127069 C1952.518,164.177069 1983.234,164.242069 2013.949,164.289069 C2014.758,164.291069 2015.568,164.155069 2017.187,164.011069" id="Fill-14" fill="#808183"></path><path d="M1047.1547,200.243069 C1034.3687,171.599069 1021.8027,143.448069 1008.8447,114.421069 C995.7027,143.438069 982.9667,171.557069 969.9737,200.243069 L1047.1547,200.243069 Z M1114.5887,279.168069 C1103.9437,279.168069 1093.8547,279.269966 1083.7757,279.022069 C1082.7027,278.996069 1081.2847,277.128069 1080.6937,275.816069 C1074.4227,261.895069 1068.1757,247.961069 1062.1857,233.919069 C1060.5037,229.976069 1058.6027,228.203069 1053.8367,228.249069 C1023.3547,228.542069 992.8687,228.474069 962.3847,228.305069 C958.5987,228.284069 956.8207,229.539069 955.3637,232.912069 C949.4457,246.620069 943.1077,260.147069 937.2207,273.867069 C935.5697,277.715069 933.6267,279.469069 929.1747,279.252069 C920.8717,278.848069 912.5357,279.136069 903.7387,279.136069 C904.1237,277.880069 904.3247,276.828069 904.7557,275.880069 C932.2797,215.306069 959.8217,154.740069 987.3637,94.1750686 C989.3557,89.7950686 991.5707,85.5000686 993.2867,81.0160686 C994.3137,78.3330686 995.8287,77.6520686 998.5247,77.7360686 C1004.6817,77.9290686 1010.8897,78.2370686 1017.0007,77.6690686 C1022.1007,77.1950686 1024.2167,79.3420686 1026.1417,83.6540686 C1039.4707,113.500069 1053.0347,143.241069 1066.5417,173.009069 C1082.1037,207.307069 1097.6847,241.596069 1113.2517,275.892069 C1113.6457,276.760069 1113.9747,277.657069 1114.5887,279.168069 L1114.5887,279.168069 Z" id="Fill-16" fill="#808182"></path><path d="M1839.243,131.726969 C1832.362,126.456969 1826.056,121.044969 1819.188,116.470969 C1791.906,98.3039686 1758.63,99.8219686 1733.516,120.642969 C1720.676,131.287969 1713.018,145.364969 1709.844,161.698969 C1705.368,184.743969 1708.709,206.503969 1722.821,225.626969 C1745.913,256.917969 1788.339,263.500969 1820.513,241.087969 C1827.432,236.268969 1833.772,230.622969 1840.604,225.177969 C1846.767,231.692969 1853.002,238.284969 1859.301,244.942969 C1824.473,288.229969 1755.949,295.761969 1712.505,258.812969 C1667.502,220.538969 1665.37,146.951969 1707.181,104.734969 C1747.2,64.3259686 1820.251,66.2529686 1859,110.455969 C1852.413,117.547969 1845.794,124.673969 1839.243,131.726969" id="Fill-18" fill="#808182"></path><polygon id="Fill-20" fill="#808183" points="1412.3545 276.793369 1380.9595 276.793369 1380.9595 76.8573686 1305.9045 76.8573686 1305.9045 47.3723686 1487.4275 47.3723686 1487.4275 76.5303686 1412.3545 76.5303686"></polygon></g></g></svg> 