<?xml version="1.0" encoding="UTF-8"?> <svg xmlns="http://www.w3.org/2000/svg" xmlns:xlink="http://www.w3.org/1999/xlink" width="999px" height="159px" viewBox="0 0 999 159" version="1.1"><title>Artboard</title><g id="Artboard" stroke="none" stroke-width="1" fill="none" fill-rule="evenodd"><g id="Group-95" transform="translate(-0.000000, 0.000000)"><path d="M977.9978,92.3180734 C977.9918,92.3180734 977.9848,92.3180734 977.9788,92.3180734 C977.9788,88.5210734 977.9888,84.7230734 977.9748,80.9260734 C977.9648,78.1160734 977.2788,75.4450734 976.1448,72.8900734 C974.4298,69.0230734 973.2298,68.3140734 968.9058,68.5080734 C965.7948,68.6470734 964.1648,69.9740734 962.9608,73.3810734 C961.7548,76.7940734 961.3128,80.3800734 961.1878,83.9320734 C960.9548,90.5290734 961.0808,97.1390734 961.0898,103.743073 C961.0938,106.719073 961.7898,109.584073 963.0938,112.232073 C964.5448,115.178073 967.1008,116.387073 970.3948,116.298073 C973.5228,116.214073 975.1318,114.295073 976.2248,111.762073 C977.3278,109.204073 977.9658,106.509073 977.9898,103.710073 C978.0218,99.9130734 977.9978,96.1160734 977.9978,92.3180734 L977.9978,92.3180734 Z M961.0388,158.019073 C960.1138,156.324073 958.2098,156.535073 956.7898,156.176073 C947.5028,153.831073 943.4468,147.344073 942.1408,138.531073 C941.9058,136.942073 942.3748,136.106073 944.2418,136.138073 C949.5668,136.232073 954.8938,136.187073 960.2198,136.159073 C961.3878,136.152073 962.0518,136.446073 962.1528,137.771073 C962.2258,138.724073 962.6928,139.642073 962.9368,140.587073 C963.9018,144.333073 965.7028,145.903073 969.3718,146.163073 C973.5748,146.461073 975.6848,145.209073 977.0438,141.530073 C977.4368,140.466073 977.9198,139.356073 977.9558,138.254073 C978.0908,134.119073 978.0998,129.978073 978.0668,125.839073 C978.0558,124.401073 978.4358,122.908073 977.7288,121.491073 C969.9488,132.209073 953.2418,130.746073 946.5818,122.436073 C945.0048,120.470073 943.8398,118.319073 943.1248,115.979073 C941.9798,112.230073 941.0908,108.404073 941.0958,104.438073 C941.1058,96.8230734 940.8418,89.1950734 941.1958,81.5950734 C941.4838,75.4160734 942.3928,69.2870734 945.9138,63.8290734 C949.3408,58.5190734 954.3368,56.2120734 960.3648,55.6870734 C968.0388,55.0180734 974.3878,57.2840734 979.0898,65.4060734 C979.0898,62.5530734 979.0888,60.8850734 979.0898,59.2170734 C979.0908,57.5810734 979.9758,56.7960734 981.5598,56.7900734 C986.5528,56.7720734 991.5468,56.7640734 996.5398,56.7950734 C998.1388,56.8050734 998.9518,57.6830734 998.9348,59.2940734 C998.9258,60.1220734 998.9338,60.9500734 998.9338,61.7780734 C998.9338,85.6190734 998.9218,109.460073 998.945811,133.302073 C998.9488,136.777073 998.3298,140.135073 997.2208,143.392073 C994.4278,151.594073 988.0528,155.400073 979.9788,157.014073 C979.1938,157.171073 978.2838,156.919073 978.0218,158.019073 L961.0388,158.019073 Z" id="Fill-1" fill="#727171"></path><path d="M536.3353,92.0629734 C537.0363,87.6319734 535.5113,82.6439734 535.3873,77.5619734 C535.3363,75.4589734 534.5003,73.4389734 533.4833,71.5639734 C532.6823,70.0849734 531.6563,68.8879734 529.8273,68.5529734 C524.5433,67.5869734 522.1843,69.0079734 520.4483,74.0919734 C519.8013,75.9849734 519.4583,77.8679734 519.4713,79.8549734 C519.4863,82.1639734 519.7443,84.5409734 519.2983,86.7699734 C517.8583,93.9779734 518.7143,101.119973 519.5583,108.262973 C519.9933,111.952973 522.1683,114.770973 525.5493,116.111973 C529.1733,117.549973 533.2473,115.279973 534.3823,111.203973 C536.0553,105.195973 536.4723,98.9889734 536.3353,92.0629734 L536.3353,92.0629734 Z M519.4803,158.018973 C519.2113,156.948973 518.3093,157.158973 517.5253,156.976973 C511.8093,155.648973 506.5493,153.525973 503.2523,148.278973 C501.3843,145.306973 500.4033,142.077973 500.3833,138.529973 C500.3743,136.923973 500.6973,136.111973 502.5343,136.141973 C507.6893,136.226973 512.8483,136.263973 518.0013,136.125973 C520.1403,136.067973 520.3443,137.056973 520.4683,138.799973 C520.7893,143.294973 522.4183,145.381973 525.7563,146.080973 C530.8783,147.152973 534.4063,144.759973 535.5023,139.634973 C536.7863,133.625973 536.2193,127.575973 536.4143,121.449973 C534.8593,121.827973 534.3253,122.962973 533.4843,123.731973 C528.5513,128.239973 522.8903,129.949973 516.2213,128.624973 C512.9583,127.976973 509.7753,127.351973 507.1103,125.242973 C503.6023,122.467973 501.9643,118.586973 500.4633,114.527973 C499.0023,110.577973 499.1093,106.390973 498.8573,102.414973 C498.4133,95.3989734 498.2293,88.3109734 499.2263,81.2049734 C499.8613,76.6709734 499.9413,72.0259734 501.6403,67.7519734 C504.3373,60.9719734 508.8233,56.2319734 518.5473,55.6769734 C526.1513,55.2429734 532.4963,57.5279734 536.6943,64.2939734 C537.7123,64.0809734 537.3453,63.3239734 537.3533,62.8449734 C537.4563,56.7839734 537.4473,56.7829734 543.3323,56.7829734 C546.6593,56.7829734 549.9863,56.7559734 553.3123,56.7909734 C556.4243,56.8229734 556.4283,56.8509734 556.4943,60.1309734 C556.5113,60.9579734 556.4973,61.7859734 556.4973,62.6129734 C556.4913,86.4389734 556.1433,110.271973 556.6213,134.088973 C556.8683,146.425973 547.8883,156.623973 536.4533,157.075973 C535.9423,157.095973 535.5973,157.498973 535.4643,158.018973 L519.4803,158.018973 Z" id="Fill-3" fill="#727171"></path><path d="M0,73.5504734 C9.455,73.2114734 18.837,73.8904734 28.195,75.2804734 C33.402,76.0544734 38.648,76.5524734 44.475,77.9784734 C39.32,80.2624734 34.342,80.1324734 29.585,80.8964734 C24.703,81.6804734 19.786,82.3244734 14.812,82.4964734 C9.869,82.6674734 4.937,83.1454734 0,83.4884734 L0,73.5504734 Z" id="Fill-5" fill="#FB0A0A"></path><path d="M0,84.4817734 C7.634,84.5577734 15.302,84.2147734 22.892,84.8287734 C30.44,85.4387734 38.091,85.0857734 45.903,86.9097734 C39.758,88.9627734 33.73,90.2047734 27.687,91.2537734 C20.879,92.4357734 14.003,93.2337734 7.155,94.1867734 C6.499,94.2787734 5.804,94.1847734 5.175,94.3537734 C2.879,94.9697734 1.832,93.8227734 1.244,91.8187734 C0.994,90.9657734 1.394,89.7247734 0,89.4507734 L0,84.4817734 Z" id="Fill-7" fill="#FB0A0A"></path><path d="M224.5807,131.157873 C219.7907,131.256873 215.0077,131.450873 210.2797,130.200873 C200.6857,127.664873 195.1717,121.328873 192.9017,112.003873 C191.8897,107.843873 191.6157,103.563873 191.8667,99.2648734 C191.9367,98.0528734 192.3627,97.4738734 193.6397,97.4788734 C199.7977,97.5038734 205.9557,97.5038734 212.1147,97.4788734 C213.3937,97.4738734 214.0017,98.0948734 213.8467,99.2688734 C213.5367,101.628873 214.7157,103.772873 214.7137,106.076873 C214.7047,112.769873 221.3467,117.081873 228.8327,115.857873 C237.9537,114.365873 239.8637,102.395873 234.3667,96.3878734 C230.2687,91.9078734 225.0667,89.0838734 219.9577,86.0728734 C212.9927,81.9678734 205.8947,78.0578734 200.4767,71.8398734 C196.3477,67.1008734 193.6317,61.7968734 193.7517,55.3898734 C193.8257,51.4648734 193.6407,47.5888734 194.6177,43.6268734 C197.0127,33.9168734 203.4917,28.5848734 212.6017,25.9328734 C218.8077,24.1268734 225.2587,23.3748734 231.7027,24.0228734 C237.5557,24.6108734 243.3447,25.5568734 248.5187,28.9258734 C253.2417,32.0008734 256.1607,36.2968734 257.3837,41.4678734 C258.2747,45.2328734 259.0437,49.1698734 258.7097,53.1698734 C258.5847,54.6608734 258.4817,55.6538734 256.5647,55.6258734 C250.5737,55.5378734 244.5807,55.5788734 238.5887,55.6038734 C237.3247,55.6088734 236.8377,55.0688734 236.8157,53.8318734 C236.7727,51.3788734 236.5837,48.9958734 235.9447,46.5428734 C234.2047,39.8588734 228.2687,38.7998734 222.5717,40.3558734 C214.9867,42.4278734 213.3367,53.4548734 219.2717,59.5128734 C221.4697,61.7558734 224.0767,63.5008734 226.7577,65.1368734 C232.6497,68.7288734 238.9437,71.6218734 244.6827,75.4888734 C249.8247,78.9528734 254.0717,83.0308734 256.9237,88.7078734 C259.9727,94.7758734 260.2907,101.127873 259.4717,107.464873 C258.7657,112.929873 257.0007,118.269873 252.9697,122.522873 C247.6837,128.098873 240.8677,130.222873 233.5597,131.099873 C230.6067,131.453873 227.5757,131.157873 224.5807,131.157873" id="Fill-9" fill="#727171"></path><path d="M367.6305,77.9591734 C367.6305,61.7391734 367.6425,45.5181734 367.621013,29.2981734 C367.6165,25.5341734 367.5885,25.8241734 371.1375,25.8271734 C387.7765,25.8391734 404.4155,25.8321734 421.0545,25.8321734 C421.5535,25.8321734 422.0555,25.8681734 422.5515,25.8281734 C423.9645,25.7151734 424.6745,26.1951734 424.6485,27.7531734 C424.5805,31.7241734 424.5505,35.6991734 424.6595,39.6691734 C424.7115,41.5381734 423.8195,41.8141734 422.2445,41.8071734 C412.4285,41.7631734 402.6105,41.8101734 392.7945,41.7721734 C389.5105,41.7601734 389.5865,41.7541734 389.6035,45.0871734 C389.6355,51.5421734 389.6385,57.9971734 389.6015,64.4521734 C389.5835,67.6771734 389.6225,67.5791734 392.9955,67.5641734 C401.4815,67.5281734 409.9675,67.5711734 418.4535,67.5431734 C421.5885,67.5321734 421.7825,67.3921734 421.7235,70.8031734 C421.6635,74.2771734 421.6355,77.7561734 421.7395,81.2291734 C421.7915,82.9511734 421.1835,83.5321734 419.4645,83.5151734 C412.8095,83.4481734 406.1535,83.4891734 399.4985,83.4901734 C397.0025,83.4901734 394.5045,83.5491734 392.0115,83.4691734 C390.4565,83.4201734 389.5615,83.6681734 389.5795,85.5711734 C389.6595,94.3421734 389.6775,103.116173 389.5705,111.887173 C389.5425,114.121173 390.6775,114.191173 392.3565,114.183173 C401.5075,114.140173 410.6585,114.163173 419.8105,114.163173 C420.9755,114.163173 422.1445,114.228173 423.3035,114.149173 C424.9145,114.040173 425.7565,114.499173 425.7115,116.320173 C425.6165,120.125173 425.5845,123.937173 425.7235,127.739173 C425.8005,129.841173 424.8485,130.191173 423.0315,130.158173 C418.0415,130.068173 413.0485,130.127173 408.0565,130.127173 C395.5775,130.127173 383.0985,130.141173 370.6185,130.117173 C367.7115,130.111173 367.6455,130.053173 367.6415,127.117173 C367.6185,110.731173 367.6305,94.3451734 367.6305,77.9591734" id="Fill-11" fill="#727171"></path><path d="M454.496,63.9336734 C461.783,54.7336734 471.096,54.3126734 478.951,56.7406734 C486.148,58.9656734 490.221,63.7496734 490.33,72.1456734 C490.567,90.3506734 490.394,108.560673 490.412,126.768673 C490.415,129.819673 490.743,130.181673 487.248,130.141673 C482.256,130.084673 477.264,130.155673 472.272,130.115673 C469.65,130.094673 469.579,130.041673 469.574,127.329673 C469.547,114.418673 469.562,101.506673 469.561,88.5956734 C469.561,85.1196734 469.463,81.6406734 469.589,78.1686734 C469.657,76.2966734 469.16,74.5966734 468.588,72.8946734 C467.501,69.6616734 466.178,68.6846734 462.883,68.5016734 C457.871,68.2236734 455.122,70.4806734 454.601,75.4666734 C454.412,77.2696734 454.501,79.1046734 454.5,80.9246734 C454.494,96.1536734 454.507,111.382673 454.489,126.610673 C454.485,130.071673 454.441,130.099673 451.007,130.120673 C446.348,130.148673 441.688,130.150673 437.029,130.119673 C433.723,130.097673 433.665,130.065673 433.662,126.991673 C433.645,104.810673 433.64,82.6296734 433.666,60.4496734 C433.67,57.0886734 433.96,56.8316734 437.384,56.7956734 C442.209,56.7456734 447.036,56.8436734 451.86,56.7516734 C453.676,56.7176734 454.741,57.0636734 454.521,59.1706734 C454.386,60.4716734 454.496,61.7976734 454.496,63.9336734" id="Fill-13" fill="#727171"></path><path d="M621.2893,63.7571734 C621.6393,63.1891734 621.9233,62.5651734 622.3493,62.0621734 C628.5543,54.7451734 636.5843,54.2931734 644.9313,56.7911734 C651.8223,58.8521734 656.0823,63.4881734 656.1893,72.2671734 C656.4113,90.4591734 656.2463,108.656173 656.2673,126.852173 C656.2703,130.008173 656.4563,130.176173 653.0253,130.140173 C648.2033,130.090173 643.3813,130.152173 638.5583,130.118173 C635.4743,130.097173 635.4263,130.058173 635.4223,126.769173 C635.4023,112.709173 635.4153,98.6491734 635.4113,84.5891734 C635.4113,81.9421734 635.3403,79.2951734 635.3943,76.6491734 C635.4253,75.1211734 634.9653,73.7661734 634.4093,72.3791734 C633.0843,69.0731734 630.4963,68.2691734 627.2363,68.4821734 C624.3113,68.6741734 622.4493,70.0251734 621.3013,72.8171734 C620.3983,75.0101734 620.3423,77.2811734 620.3443,79.5851734 C620.3533,94.6381734 620.3483,109.690173 620.3483,124.743173 C620.3483,125.735173 620.2473,126.740173 620.3683,127.718173 C620.6263,129.803173 619.5873,130.193173 617.7473,130.159173 C612.5933,130.067173 607.4373,130.157173 602.2833,130.115173 C599.5903,130.093173 599.5323,130.036173 599.5183,127.388173 C599.4833,120.606173 599.5073,113.824173 599.5073,107.042173 C599.5073,92.1551734 599.5063,77.2681734 599.5073,62.3811734 C599.5073,61.2231734 599.4473,60.0611734 599.5253,58.9081734 C599.6163,57.5561734 600.4633,56.8041734 601.7913,56.7961734 C607.4453,56.7651734 613.0993,56.7961734 618.7523,56.7821734 C620.1243,56.7791734 620.3533,57.6211734 620.3463,58.7111734 C620.3373,60.1891734 620.3443,61.6661734 620.3443,63.1431734 C620.6593,63.3481734 620.9743,63.5521734 621.2893,63.7571734" id="Fill-15" fill="#727171"></path><path d="M286.6219,86.7484734 C286.6219,73.4994734 286.6379,60.2494734 286.6129,47.0004734 C286.6049,43.0074734 286.4789,42.9034734 282.3509,42.8834734 C276.3579,42.8534734 270.3629,42.8284734 264.3709,42.9024734 C262.4829,42.9264734 261.7109,42.3794734 261.7819,40.3594734 C261.9279,36.2234734 261.8649,32.0794734 261.8049,27.9394734 C261.7849,26.5254734 262.1869,25.7384734 263.7389,25.8294734 C264.5689,25.8774734 265.4039,25.8324734 266.2359,25.8324734 C287.0479,25.8324734 307.8589,25.8324734 328.6709,25.8324734 C329.5029,25.8324734 330.3349,25.8454734 331.1679,25.8414734 C332.1709,25.8364734 332.6589,26.3284734 332.6579,27.3224734 C332.6569,31.9594734 332.6439,36.5964734 332.667951,41.2334734 C332.6769,42.9834734 331.4919,42.8794734 330.2989,42.8784734 C324.3059,42.8694734 318.3119,42.8884734 312.3179,42.8704734 C308.8009,42.8604734 308.5689,42.3784734 308.5729,46.6994734 C308.5969,72.3704734 308.5849,98.0404734 308.5849,123.711473 C308.5849,124.705473 308.5699,125.699473 308.5879,126.692473 C308.6499,130.259473 308.6859,130.158473 305.0039,130.135473 C300.0089,130.103473 295.0139,130.095473 290.0199,130.137473 C286.3729,130.168473 286.6129,130.126473 286.6169,126.496473 C286.6299,113.247473 286.6219,99.9974734 286.6219,86.7484734" id="Fill-17" fill="#727171"></path><path d="M760.7325,85.4399734 C761.2285,85.4399734 761.7285,85.4829734 762.2185,85.4329734 C764.8015,85.1659734 768.3135,86.6789734 769.7615,84.7929734 C771.4255,82.6259734 770.4155,79.0959734 770.0995,76.2109734 C769.5925,71.5809734 766.6855,68.8119734 762.6185,68.5189734 C757.2805,68.1349734 754.9915,69.8779734 753.0315,74.8569734 C752.0065,77.4609734 752.3015,80.0109734 752.2065,82.5909734 C752.1045,85.3309734 752.2275,85.3659734 754.7855,85.4299734 C756.7665,85.4789734 758.7505,85.4399734 760.7325,85.4399734 M771.3605,96.5179734 C765.8735,96.5179734 760.3855,96.4879734 754.8985,96.5309734 C752.2495,96.5509734 752.2335,96.6129734 752.1675,99.3239734 C752.0485,104.267973 752.2835,109.152973 754.3625,113.778973 C755.8255,117.031973 758.3015,118.471973 761.8365,118.267973 C765.3245,118.066973 767.0075,116.508973 768.5895,112.842973 C769.2895,111.219973 768.9985,109.587973 769.4645,108.041973 C769.9265,106.507973 770.4425,105.164973 772.7425,105.275973 C777.7195,105.513973 782.7165,105.313973 787.7045,105.362973 C790.2955,105.388973 790.3955,105.460973 790.2425,108.230973 C789.6805,118.348973 783.8215,125.779973 775.2875,128.970973 C765.7825,132.525973 755.8165,132.457973 746.2415,128.991973 C739.2555,126.463973 735.3465,120.660973 733.4115,113.772973 C732.0455,108.911973 731.3015,103.852973 731.324937,98.7579734 C731.3565,92.0189734 731.1565,85.3039734 732.1525,78.5589734 C733.8235,67.2389734 740.2255,58.5829734 751.9295,56.4969734 C758.8985,55.2559734 765.7735,55.1319734 772.5175,56.8629734 C782.9255,59.5349734 788.1625,67.0329734 790.1655,77.1409734 C791.2605,82.6679734 791.2695,88.2589734 791.1685,93.8539734 C791.1215,96.4289734 791.0655,96.4859734 788.3215,96.5049734 C782.6685,96.5459734 777.0145,96.5169734 771.3605,96.5179734" id="Fill-19" fill="#727171"></path><path d="M694.4565,85.4378734 C696.9495,85.4378734 699.4435,85.4378734 701.9365,85.4378734 C702.1025,85.4378734 702.2695,85.4298734 702.4355,85.4348734 C703.6795,85.4758734 704.0725,84.8778734 704.2005,83.6498734 C704.4805,80.9638734 703.3855,78.4928734 703.2135,75.8678734 C702.9495,71.8408734 700.0985,69.0028734 696.4525,68.5448734 C691.4345,67.9128734 688.6935,69.3428734 686.8015,73.4918734 C685.3245,76.7338734 685.2815,80.1568734 685.282485,83.6168734 C685.282485,85.2528734 686.1325,85.4868734 687.4755,85.4538734 C689.8015,85.3968734 692.1295,85.4378734 694.4565,85.4378734 M704.8055,96.5158734 C699.1475,96.5178734 693.4885,96.6038734 687.8335,96.4718734 C685.8245,96.4248734 685.2755,97.1018734 685.2685,99.0098734 C685.2505,103.632873 685.6505,108.180873 687.2695,112.536873 C688.4105,115.609873 690.2435,118.051873 693.9165,118.259873 C698.0715,118.495873 701.2515,116.228873 702.2265,112.066873 C702.5245,110.795873 703.1575,109.497873 703.1165,108.281873 C703.0335,105.828873 703.9115,105.206873 706.2995,105.290873 C711.6175,105.477873 716.9475,105.351873 722.2725,105.350873 C723.3645,105.350873 724.3735,105.549873 724.1165,106.956873 C722.9295,113.460873 721.2235,119.584873 715.9465,124.364873 C711.4145,128.470873 706.0455,130.364873 700.3605,130.987873 C694.8245,131.594873 689.1545,131.711873 683.5755,130.237873 C674.3975,127.812873 668.5705,122.024873 666.5125,112.993873 C664.5765,104.494873 663.6985,95.7398734 664.5805,87.0438734 C665.0845,82.0678734 665.3335,77.0238734 666.9695,72.1008734 C669.7915,63.6078734 675.5405,58.7588734 683.9935,56.6808734 C691.3585,54.8708734 698.8905,54.9198734 706.0575,56.9148734 C713.1935,58.9008734 718.8095,63.0558734 721.5435,70.7348734 C724.3325,78.5728734 724.3195,86.4988734 724.330512,94.5368734 C724.3335,96.0188734 723.7555,96.5478734 722.2775,96.5348734 C716.4545,96.4838734 710.6295,96.5138734 704.8055,96.5158734" id="Fill-21" fill="#727171"></path><path d="M876.0881,93.4165734 C876.0881,82.1585734 876.0691,70.8995734 876.1021,59.6415734 C876.1101,56.8785734 876.1861,56.8185734 878.7621,56.7955734 C883.7551,56.7515734 888.7511,56.8825734 893.7401,56.7365734 C895.8501,56.6755734 896.3431,57.5845734 896.2271,59.3765734 C896.1741,60.1955734 896.1391,61.0485734 896.3111,61.8405734 C896.4551,62.5015734 896.9661,63.0155734 897.7491,62.4445734 C898.1471,62.1535734 898.5331,61.8215734 898.8481,61.4455734 C904.4761,54.7165734 917.4671,53.8025734 924.8551,58.5365734 C929.3161,61.3965734 932.1071,65.1765734 932.1121,70.6245734 C932.1311,89.4985734 932.1441,108.372573 932.1271,127.247573 C932.1251,130.025573 932.0481,130.090573 929.4941,130.113573 C924.3351,130.158573 919.1741,130.092573 914.0161,130.145849 C912.5101,130.160573 911.9621,129.564573 911.9841,128.106573 C912.0361,124.796573 911.9971,121.484573 911.9961,118.173573 C911.9961,106.749573 911.9981,95.3255734 911.9951,83.9015734 C911.9951,80.6185734 911.9871,77.3675734 911.1931,74.1115734 C910.2981,70.4375734 908.5291,68.6345734 904.8831,68.5015734 C900.3711,68.3375734 897.7731,69.8515734 897.2111,73.6825734 C896.7861,76.5805734 896.1261,79.4485734 896.1541,82.4595734 C896.2901,97.1935734 896.2271,111.928573 896.2061,126.664573 C896.2021,130.073573 896.1511,130.099573 892.6441,130.120573 C888.1511,130.147573 883.6561,130.153573 879.1631,130.117573 C876.1761,130.094573 876.1161,130.055573 876.1011,127.191573 C876.0631,120.403573 876.0881,113.615573 876.0881,106.827573 C876.0881,102.356573 876.0881,97.8865734 876.0881,93.4165734" id="Fill-23" fill="#727171"></path><path d="M819.0944,64.1866734 C822.3384,60.0616734 826.3934,57.4996734 831.3364,56.1896734 C831.6494,56.1066734 831.9294,55.8866734 832.2434,55.8236734 C837.4274,54.7736734 838.1594,55.3766734 838.1634,60.6756734 C838.1654,64.1466734 838.0804,67.6196734 838.1964,71.0876734 C838.2594,72.9516734 837.7954,73.9126734 835.7214,73.6366734 C833.2014,73.3016734 830.8244,74.2576734 828.4744,74.8536734 C823.5094,76.1116734 820.4384,80.0896734 820.2044,85.2306734 C820.0324,89.0256734 820.1014,92.8326734 820.0974,96.6336734 C820.0864,106.881673 820.1104,117.128673 820.0814,127.376673 C820.0744,130.038673 820.0084,130.093673 817.3354,130.115673 C812.1854,130.155673 807.0334,130.157673 801.8834,130.113673 C799.3364,130.092673 799.2734,130.029673 799.2614,127.257673 C799.2274,119.324673 799.2494,111.390673 799.2494,103.456673 C799.2494,89.7386734 799.2494,76.0196734 799.2494,62.3006734 C799.2494,61.1436734 799.2994,59.9846734 799.2404,58.8306734 C799.1694,57.4036734 799.6824,56.7456734 801.2234,56.7636734 C806.2074,56.8216734 811.1934,56.7256734 816.1764,56.8076734 C818.5984,56.8476734 818.9594,57.2996734 819.0814,59.7616734 C819.1534,61.2336734 819.0944,62.7116734 819.0944,64.1866734" id="Fill-25" fill="#727171"></path><path d="M865.0485,93.9426734 C865.0485,105.020673 865.0645,116.098673 865.0375,127.176673 C865.0305,130.049673 864.9665,130.094673 861.9915,130.116673 C857.0045,130.154673 852.0175,130.155673 847.0315,130.115673 C844.2955,130.094673 844.2445,130.043673 844.2165,127.446673 C844.1725,123.313673 844.2045,119.179673 844.2045,115.045673 C844.2045,97.3536734 844.2045,79.6616734 844.2045,61.9706734 C844.2045,60.8126734 844.2275,59.6546734 844.2045,58.4986734 C844.1805,57.2506734 844.7665,56.7646734 846.0145,56.7716734 C851.6655,56.8036734 857.3185,56.8436734 862.9685,56.7529718 C864.8995,56.7226734 865.0725,57.7216734 865.0645,59.2206734 C865.0275,66.1646734 865.0485,73.1096734 865.0485,80.0536734 C865.0485,84.6836734 865.0485,89.3126734 865.0485,93.9426734" id="Fill-27" fill="#727171"></path><path d="M588.4473,93.9664734 C588.4473,104.878473 588.4623,115.789473 588.4383,126.701473 C588.4313,130.077473 588.3843,130.103473 584.8753,130.121473 C580.0563,130.145473 575.2353,130.095473 570.4163,130.143781 C568.9833,130.157473 568.2313,129.696473 568.3173,128.181473 C568.3643,127.357473 568.3203,126.528473 568.3203,125.702473 C568.3203,104.209473 568.3203,82.7164734 568.3213,61.2244734 C568.3213,60.2324734 568.2973,59.2384734 568.3493,58.2494734 C568.4003,57.2964734 568.9283,56.7894734 569.9273,56.7904734 C575.5783,56.7964734 581.2293,56.7964734 586.8803,56.7874676 C587.8923,56.7854734 588.3913,57.2994734 588.4233,58.2564734 C588.4623,59.4124734 588.4463,60.5704734 588.4463,61.7274734 C588.4483,72.4734734 588.4473,83.2204734 588.4473,93.9664734" id="Fill-29" fill="#727171"></path><path d="M24.6832,33.1003734 C24.9372,33.5043734 25.2752,34.0253734 25.7492,33.5853734 C26.2022,33.1653734 25.6902,32.7593734 25.3722,32.4253734 C24.7042,31.8453734 23.7652,31.4073734 23.2842,32.2283734 C22.9992,32.7153734 24.1202,32.8983734 24.6832,33.1003734 M32.5802,25.2563734 C32.9232,25.5593734 33.3282,26.0893734 33.7512,25.6243734 C34.1802,25.1523734 33.6652,24.8173734 33.2452,24.5813734 C32.6672,23.8613734 31.7842,23.4643734 31.2752,24.2723734 C30.9652,24.7623734 32.0872,24.9523734 32.5802,25.2563734 M60.2622,48.2503734 C53.2722,42.5323734 47.1152,37.3173734 41.2752,31.7363734 C40.4362,30.9353734 39.6432,30.0793734 38.7512,29.3413734 C38.3072,28.9743734 37.7602,28.3473734 37.0702,29.0853734 C36.4852,29.7103734 36.7522,30.3023734 37.1662,30.8313734 C40.5212,35.1263734 43.9112,39.3933734 47.2542,43.6983734 C49.5822,46.6973734 51.8492,49.7443734 54.1512,52.7643734 C54.4452,53.1503734 54.8152,53.5443734 54.4862,54.0283734 C54.1312,54.5503734 53.6922,54.4133734 53.2372,54.0493734 C46.7782,48.8883734 39.7972,44.4063734 33.5162,39.0043734 C32.3252,37.9803734 30.8002,35.4953734 29.2342,37.2073734 C28.1532,38.3893734 30.7052,39.7053734 31.7232,40.8573734 C35.9992,45.6953734 40.3712,50.4483734 44.6772,55.2593734 C45.4442,56.1163734 46.0842,57.0893734 46.7392,58.0393734 C47.0282,58.4583734 47.0742,58.9373734 46.6652,59.3673734 C46.2052,59.8503734 45.7802,59.5443734 45.3762,59.3103734 C40.0852,56.2393734 34.9482,52.9373734 30.0692,49.2423734 C24.9312,45.3513734 19.7802,41.4763734 14.6252,37.6083734 C13.4512,36.7283734 12.9352,35.9523734 13.7882,34.3503734 C15.3542,31.4063734 18.1662,29.5123734 19.9082,26.9203734 C21.8112,24.0883734 23.6842,21.5343734 26.7542,20.0913734 C27.5782,19.7033734 27.9762,19.2983734 28.4022,18.5723734 C29.5292,16.6513734 31.4952,15.6023734 33.2882,14.4393734 C36.0442,12.6513734 36.0512,12.7493734 38.2832,15.5043734 C45.2502,24.1053734 51.9612,32.8903734 57.8562,42.2653734 C58.7982,43.7633734 59.9562,45.1803734 60.2622,48.2503734" id="Fill-31" fill="#FB0A0A"></path><path d="M132.5032,124.600773 C132.8962,124.931773 133.2542,125.577773 133.7902,124.842773 C133.8452,124.767773 133.3442,124.290773 133.1012,124.000773 C132.7782,123.657773 132.4562,123.313773 132.1332,122.970773 C131.6802,122.250773 130.9042,121.454773 130.2892,122.292773 C129.4652,123.415773 131.0732,123.156773 131.4692,123.638773 C131.8132,123.959773 132.1582,124.279773 132.5032,124.600773 M124.5932,132.463773 C124.9032,132.686773 125.3952,133.162773 125.4922,133.092773 C126.2462,132.552773 125.5742,132.213773 125.2232,131.839773 C124.9082,131.492773 124.5922,131.144773 124.2762,130.797773 C123.9282,130.519773 123.5372,129.978773 123.1112,130.418773 C122.6692,130.874773 123.2002,131.213773 123.5662,131.489773 C123.9092,131.814773 124.2512,132.139773 124.5932,132.463773 M103.0542,103.672773 C104.4232,102.608773 105.3012,103.527773 106.2142,104.215773 C111.7642,108.394773 117.3122,112.575773 122.8532,116.764773 C123.3822,117.163773 123.8322,117.669773 124.3772,118.041773 C125.0712,118.514773 125.8882,118.925773 126.6062,118.174773 C127.4482,117.294773 126.5712,116.680773 126.0502,116.146773 C120.0492,109.984773 114.5272,103.410773 108.8972,96.8157734 C111.0022,95.6367734 112.2662,97.2707734 113.5172,98.0427734 C121.1252,102.739773 128.4392,107.865773 135.4292,113.445773 C137.7552,115.302773 140.1522,117.075773 142.5552,118.835773 C143.8542,119.787773 144.0662,120.732773 143.2222,122.191773 C141.7232,124.784773 140.1532,127.222773 137.1632,128.319773 C136.7602,131.552773 134.5812,133.965773 132.0392,135.083773 C129.6262,136.145773 128.5622,138.087773 126.8782,139.607773 C125.6442,140.721773 124.3372,141.684773 122.8612,142.493773 C121.4302,143.277773 120.4772,143.213773 119.4652,141.899773 C112.1092,132.342773 104.6312,122.875773 98.2262,112.636773 C97.8772,112.078773 97.5942,111.478773 97.2922,110.892773 C97.0812,110.482773 96.6922,110.073773 97.2322,109.622773 C97.6732,109.255773 98.1402,109.277773 98.5652,109.605773 C99.8762,110.615773 101.2272,111.583773 102.4592,112.682773 C107.5322,117.207773 112.5682,121.773773 117.6132,126.328773 C118.1062,126.772773 118.5282,127.307773 119.0622,127.689773 C119.5392,128.032773 120.0472,128.692773 120.7462,127.964773 C121.3592,127.326773 121.0332,126.712773 120.6122,126.225773 C115.6362,120.462773 111.0302,114.415773 106.5472,108.270773 C105.4142,106.717773 104.2222,105.206773 103.0542,103.672773" id="Fill-33" fill="#FB0A0A"></path><path d="M25.8477,123.727673 C25.7037,123.508673 25.5097,123.066673 25.4087,123.086673 C24.9737,123.173673 24.5657,123.395673 24.1477,123.568673 C24.3047,123.785673 24.4257,124.139673 24.6257,124.191673 C25.0847,124.311673 25.5537,124.211673 25.8477,123.727673 L25.8477,123.727673 Z M47.9327,96.3896734 C45.9177,100.653673 42.1167,103.506673 39.2807,107.126673 C36.5287,110.637673 33.3247,113.797673 30.3207,117.114673 C29.8767,117.605673 29.4357,118.100673 29.0107,118.607673 C28.6447,119.044673 28.7267,119.487673 29.0247,119.935673 C29.3927,120.486673 29.9167,120.369673 30.2937,120.094673 C31.0947,119.509673 31.8337,118.835673 32.5727,118.170673 C38.3687,112.951673 44.8767,108.652673 51.1127,104.002673 C51.5527,103.674673 52.0777,102.899673 52.7337,103.731673 C53.2107,104.336673 53.0187,105.058673 52.6357,105.569673 C49.1637,110.197673 45.6577,114.801673 42.1427,119.397673 C38.8147,123.750673 35.0127,127.692673 31.2897,131.701673 C30.6207,132.420673 29.8067,133.072673 29.9057,134.214673 L30.0267,134.107673 C29.2617,134.088673 28.9397,134.509673 28.9057,135.218673 L29.0197,135.097673 C27.5797,136.107673 26.1657,136.696673 24.6727,135.132673 C22.9777,133.357673 20.6777,132.024673 20.0727,129.454673 C19.8337,128.441673 19.1067,128.321673 18.5077,127.834673 C17.4867,127.004673 16.4987,126.084673 15.6937,125.050673 C12.6047,121.083673 12.6107,120.419673 16.5387,117.396673 C25.5647,110.449673 34.4487,103.294673 44.3677,97.5826734 C45.4987,96.9316734 46.4867,95.9216734 47.9807,96.4336734 L47.9327,96.3896734 Z" id="Fill-35" fill="#FB0A0A"></path><path d="M124.8642,24.6093734 C124.6942,24.3883734 124.5072,24.1453734 124.3212,23.9013734 C124.1162,24.3073734 123.8292,24.6973734 123.7472,25.1263734 C123.7112,25.3123734 124.2352,25.7973734 124.2682,25.7763734 C124.6702,25.5223734 124.9802,25.1763734 124.8642,24.6093734 L124.8642,24.6093734 Z M96.9312,47.7423734 C96.5672,46.7013734 96.9992,45.8573734 97.5212,44.9793734 C104.0222,34.0483734 111.9432,24.1393734 119.7902,14.1713734 C120.5812,13.1683734 121.1812,12.9403734 122.1962,13.6493734 C122.4592,13.8333734 122.8282,13.8623734 123.1062,14.0313734 C124.0912,14.6303734 125.3442,15.0513734 125.9802,15.9143734 C128.6392,19.5243734 132.9872,21.1563734 135.8432,24.5363734 C137.2222,26.1673734 136.7882,27.4453734 135.7982,28.8823734 L135.9212,28.7673734 C135.2022,28.7943734 134.7732,29.1093734 134.8042,29.8803734 L134.9092,29.7613734 C132.9812,29.8003734 132.0992,31.4103734 130.9482,32.5073734 C123.8582,39.2683734 116.0262,45.1033734 108.0892,50.8093734 C107.1542,51.4813734 106.1612,52.0793734 105.1522,52.6343734 C104.9482,52.7463734 104.5432,52.5303734 104.2442,52.4283734 C103.8402,52.2913734 103.7592,52.0033734 104.0112,51.6353734 C104.3842,51.0923734 104.7582,50.5503734 105.1532,50.0223734 C109.8032,43.8073734 114.1452,37.3543734 119.4702,31.6593734 C119.9212,31.1763734 120.3702,30.6763734 120.7232,30.1223734 C120.9822,29.7173734 121.0782,29.2113734 120.5322,28.8673734 C120.0872,28.5863734 119.6332,28.4823734 119.1962,28.8703734 C116.4722,31.2883734 113.7612,33.7203734 111.0292,36.1283734 C107.4232,39.3063734 103.8152,42.4823734 100.1782,45.6243734 C99.1962,46.4723734 98.2342,47.4003734 96.8852,47.6933734 L96.9312,47.7423734 Z" id="Fill-37" fill="#FB0A0A"></path><path d="M112.2645,77.6548734 C121.2315,76.3908734 130.1855,75.0188734 139.1725,73.9168734 C142.7865,73.4728734 146.4755,73.6398734 150.1285,73.4808734 C150.8605,73.4488734 152.0635,73.6698734 151.9175,72.4688734 C151.7935,71.4498734 150.6575,71.7178734 149.9035,71.7058734 C146.4145,71.6488734 142.9225,71.5548734 139.4335,71.6178734 C130.3235,71.7818734 121.3275,70.2868734 112.3145,70.2468734 C111.9675,68.5468734 113.0295,68.7778734 113.7285,68.5928734 C122.4975,66.2738734 131.3675,64.5118734 140.4055,63.5728734 C144.1655,63.1828734 147.8865,62.4358734 151.6345,61.9208734 C154.6495,61.5068734 155.1955,61.7798734 155.7375,64.6518734 C156.1775,66.9808734 157.5695,69.3728734 155.9075,71.7648734 C155.4215,72.4638734 155.7575,72.8818734 156.1835,73.4498734 C156.5535,73.9418734 156.8485,74.6298734 156.8485,75.2308734 C156.8475,77.8238734 158.0105,80.9568734 156.1195,82.8318734 C154.5905,84.3478734 151.6125,83.4638734 149.4205,83.0768734 C143.5365,82.0368734 137.5435,82.7378734 131.6655,81.5238734 C125.2495,80.1998734 118.6325,79.9418734 112.2645,77.6548734" id="Fill-39" fill="#FB0A0A"></path><path d="M854.6028,41.7812734 C851.7838,41.7812734 848.9638,41.7352734 846.1458,41.7992734 C844.6178,41.8342734 844.1648,41.1572734 844.1868,39.7292734 C844.2458,35.7712734 844.2488,31.8112734 844.1848,27.8532734 C844.1618,26.3882734 844.6858,25.8062734 846.1788,25.8182734 C851.8168,25.8652734 857.4548,25.8622734 863.0928,25.8212734 C864.5938,25.8102734 865.0918,26.4332734 865.0688,27.8842734 C865.0038,31.8422734 865.0038,35.8022734 865.0688,39.7602734 C865.0928,41.2362734 864.5368,41.8252734 863.0598,41.7972734 C860.2418,41.7432734 857.4218,41.7812734 854.6028,41.7812734" id="Fill-41" fill="#727171"></path><path d="M578.5208,41.7819734 C575.6978,41.7809734 572.8738,41.7649734 570.0508,41.7879734 C568.8048,41.7989734 568.3018,41.2439734 568.3118,40.0059734 C568.3468,35.8759734 568.3478,31.7459734 568.310622,27.6159734 C568.2998,26.3799734 568.7968,25.8259734 570.0418,25.8299519 C575.6888,25.8489734 581.3358,25.8429734 586.9818,25.8469734 C587.9928,25.8479734 588.4398,26.3819734 588.4388,27.3599734 C588.4348,31.6549734 588.4308,35.9499734 588.440808,40.2459734 C588.4438,41.6049734 587.5938,41.7999734 586.4928,41.7899734 C583.8358,41.7669734 581.1778,41.7829734 578.5208,41.7819734" id="Fill-43" fill="#727171"></path><path d="M78.1886,110.712973 C80.4386,114.102973 79.9116,117.890973 80.5276,121.394973 C82.3186,131.568973 82.9516,141.901973 83.6686,152.204973 C83.9076,155.625973 83.7876,155.631973 80.0516,156.312973 C79.4136,156.429973 78.7776,156.710973 78.1476,156.689973 C74.3486,156.563973 73.7446,155.858973 73.7756,152.053973 C73.8606,141.686973 74.8876,131.417973 76.7866,121.221973 C77.4156,117.843973 77.7066,114.402973 78.1886,110.712973" id="Fill-45" fill="#FB0A0A"></path><path d="M87.434,110.318773 C89.847,119.363773 91.922,128.105773 92.91,137.087773 C93.376,141.326773 94.181,145.528773 94.682,149.765773 C95.217,154.293773 95.121,154.235773 90.701,155.431773 C89.543,155.744773 88.42,155.708773 87.279,155.823773 C85.638,155.988773 84.817,155.411773 84.883,153.630773 C85.208,144.726773 84.623,135.812773 85.743,126.908773 C86.418,121.535773 85.903,116.027773 87.434,110.318773" id="Fill-47" fill="#FB0A0A"></path><path d="M78.2448,43.6292734 C76.5548,37.5692734 76.2138,31.3252734 75.1318,25.2102734 C73.8928,18.2042734 73.9878,11.0942734 73.7938,4.01227339 C73.6978,0.528273388 74.0148,0.118273388 77.1968,0.0322733883 C85.0878,-0.181726612 83.9398,0.514273388 83.4818,6.87927339 C83.3058,9.31527339 82.9638,11.7772734 82.9068,14.2342734 C82.7458,21.3232734 81.4768,28.2842734 80.4308,35.2612734 C80.1628,37.0492734 79.9788,38.8462734 79.7488,40.6372734 C79.5998,41.7902734 79.5208,42.9282734 78.2448,43.6292734" id="Fill-49" fill="#FB0A0A"></path><path d="M110.4532,86.8423734 C115.0082,86.2963734 118.7472,85.8403734 122.5192,85.4953734 C132.6222,84.5703734 142.7392,84.5373734 152.8622,84.4793734 C156.8052,84.4573734 157.1442,84.9123734 156.4842,88.7723734 C155.4872,94.5913734 154.8312,95.0343734 149.0532,94.1433734 C142.8612,93.1893734 136.6482,92.3643734 130.4602,91.3823734 C123.9622,90.3503734 117.5602,88.8683734 110.4532,86.8423734" id="Fill-51" fill="#FB0A0A"></path><path d="M87.2083,45.6800734 C86.7393,41.9010734 86.2623,38.3630734 85.9413,34.7800734 C85.0293,24.5820734 84.9723,14.3710734 84.8773,4.15207339 C84.8403,0.165073388 85.4753,0.931073388 88.1123,0.894073388 C88.9403,0.882073388 89.7763,0.922073388 90.5983,1.02407339 C94.7763,1.54107339 95.2373,1.92807339 94.7243,5.94507339 C93.0633,18.9390734 91.4903,31.9560734 87.8253,44.5990734 C87.7393,44.8980734 87.5123,45.1570734 87.2083,45.6800734" id="Fill-53" fill="#FB0A0A"></path><path d="M135.7984,28.8821734 C139.9104,27.7911734 141.2314,30.9321734 142.7854,33.5541734 C144.2774,36.0701734 144.2314,36.1731734 141.9134,37.9431734 C131.9634,45.5391734 122.1894,53.3811734 111.2724,59.6251734 C110.2954,60.1841734 109.4274,61.1491734 108.1534,60.3071734 C116.4764,50.7561734 124.6494,41.0721734 133.7634,32.2371734 C134.4434,31.5781734 135.3724,30.9711734 134.9094,29.7611734 L134.8044,29.8801734 C135.6664,29.9961734 136.0404,29.6261734 135.9214,28.7671734 L135.7984,28.8821734 Z" id="Fill-55" fill="#FB0A0A"></path><path d="M29.9059,134.214773 C32.0119,134.613773 32.7369,132.752773 33.8059,131.675773 C41.6139,123.803773 50.0859,116.668773 58.4969,109.465773 C59.0559,108.987773 59.5479,108.112773 60.8529,108.801773 C58.1719,114.185773 54.7689,119.121773 51.2849,123.965773 C47.0559,129.847773 42.5319,135.520773 38.0869,141.246773 C36.2809,143.572773 36.0499,143.572773 33.6389,142.132773 C32.7899,141.625773 31.9969,141.027773 31.1579,140.503773 C29.1009,139.221773 28.3419,137.443773 29.0199,135.097773 L28.9059,135.218773 C29.7679,135.335773 30.1439,134.968773 30.0259,134.107773 L29.9059,134.214773 Z" id="Fill-57" fill="#FB0A0A"></path><path d="M44.854,69.0920734 C44.581,70.1920734 43.956,70.2360734 43.261,70.2750734 C30.166,71.0100734 17.08,71.9820734 3.947,71.7130734 C0.88,71.6510734 0.871,71.6600734 0.883,68.7680734 C0.886,67.9420734 0.912,67.1110734 1.003,66.2910734 C1.506,61.7970734 2.137,61.4550734 6.702,62.1650734 C12.736,63.1040734 18.82,63.7270734 24.85,64.6860734 C31.601,65.7590734 38.325,67.0160734 44.854,69.0920734" id="Fill-59" fill="#FB0A0A"></path><path d="M69.1843,111.294773 C70.3413,112.383773 70.5823,113.096773 70.6643,113.968773 C71.8663,126.800773 72.0863,139.666773 72.0443,152.540773 C72.0353,155.343773 71.9603,155.344773 69.3163,155.350773 C68.9843,155.350773 68.6523,155.333773 68.3203,155.315773 C61.3163,154.922773 61.6353,154.122773 62.6863,148.364773 C64.0103,141.120773 64.3923,133.701773 65.9303,126.463773 C66.9833,121.503773 68.0573,116.546773 69.1843,111.294773" id="Fill-61" fill="#FB0A0A"></path><path d="M69.9578,44.3033734 C66.8778,35.3283734 64.8728,26.1103734 63.9008,16.6743734 C63.4988,12.7743734 62.8218,8.89837339 62.1498,5.03237339 C61.8078,3.05837339 62.5018,1.92537339 64.4008,1.45137339 C65.0358,1.29337339 65.6738,1.12537339 66.3208,1.03737339 C72.0788,0.258373388 72.0958,0.267373388 72.0538,6.08537339 C72.0188,11.0333734 71.9858,15.9813734 71.8938,20.9293734 C71.7758,27.3043734 71.5288,33.6633734 70.0068,39.9153734 C69.6698,41.3013734 69.9578,42.8373734 69.9578,44.3033734" id="Fill-63" fill="#FB0A0A"></path><path d="M47.9802,96.4341734 C48.0482,96.1661734 48.1152,95.8971734 48.1832,95.6291734 C48.3642,95.7531734 48.5462,95.8761734 48.7282,96.0001734 C48.4622,96.1301734 48.1972,96.2591734 47.9322,96.3891734 C47.9322,96.3891734 47.9802,96.4341734 47.9802,96.4341734" id="Fill-65" fill="#FB0A0A"></path><path d="M96.8853,47.6931734 C96.7543,47.9581734 96.6223,48.2231734 96.4913,48.4881734 C96.3663,48.3061734 96.2413,48.1251734 96.1163,47.9431734 C96.3883,47.8761734 96.6593,47.8091734 96.9313,47.7421734 L96.8853,47.6931734 Z" id="Fill-67" fill="#FB0A0A"></path><path d="M24.6832,33.1003734 C24.1202,32.8983734 22.9992,32.7153734 23.2842,32.2283734 C23.7652,31.4073734 24.7042,31.8453734 25.3722,32.4253734 C25.1382,32.6453734 24.9082,32.8703734 24.6832,33.1003734" id="Fill-69" fill="#FB0A0A"></path><path d="M32.5804,25.2566734 C32.0864,24.9516734 30.9654,24.7626734 31.2744,24.2726734 C31.7834,23.4646734 32.6674,23.8616734 33.2454,24.5806734 C33.0194,24.8016734 32.7974,25.0276734 32.5804,25.2566734" id="Fill-71" fill="#FB0A0A"></path><path d="M25.3722,32.4249734 C25.6902,32.7599734 26.2022,33.1649734 25.7492,33.5849734 C25.2752,34.0249734 24.9362,33.5049734 24.6832,33.0999734 C24.9082,32.8709734 25.1382,32.6459734 25.3722,32.4249734" id="Fill-73" fill="#FB0A0A"></path><path d="M33.2454,24.5811734 C33.6654,24.8181734 34.1804,25.1521734 33.7514,25.6241734 C33.3284,26.0891734 32.9234,25.5601734 32.5804,25.2571734 C32.7974,25.0271734 33.0194,24.8021734 33.2454,24.5811734" id="Fill-75" fill="#FB0A0A"></path><path d="M131.4688,123.638873 C131.0728,123.156873 129.4648,123.415873 130.2888,122.292873 C130.9038,121.454873 131.6798,122.250873 132.1338,122.970873 C131.9118,123.192873 131.6898,123.415873 131.4688,123.638873" id="Fill-77" fill="#FB0A0A"></path><path d="M132.5032,124.600773 C132.1582,124.279773 131.8132,123.959773 131.4692,123.638773 C131.6902,123.415773 131.9112,123.192773 132.1332,122.970773 C132.4562,123.313773 132.7782,123.657773 133.1012,124.000773 C132.8992,124.198773 132.7002,124.398773 132.5032,124.600773" id="Fill-79" fill="#FB0A0A"></path><path d="M133.1007,124.000873 C133.3437,124.290873 133.8447,124.766873 133.7907,124.842873 C133.2537,125.577873 132.8957,124.931873 132.5027,124.600873 C132.7007,124.398873 132.8997,124.198873 133.1007,124.000873" id="Fill-81" fill="#FB0A0A"></path><path d="M123.5663,131.489873 C123.2003,131.213873 122.6693,130.874873 123.1113,130.418873 C123.5373,129.978873 123.9283,130.519873 124.2763,130.797873 C124.0393,131.027873 123.8023,131.258873 123.5663,131.489873" id="Fill-83" fill="#FB0A0A"></path><path d="M124.5937,132.464173 C124.2517,132.139173 123.9087,131.814173 123.5667,131.490173 C123.8027,131.259173 124.0397,131.028173 124.2767,130.798173 C124.5927,131.145173 124.9077,131.492173 125.2237,131.839173 C125.0117,132.046173 124.8017,132.254173 124.5937,132.464173" id="Fill-85" fill="#FB0A0A"></path><path d="M125.2233,131.839473 C125.5743,132.213473 126.2463,132.552473 125.4923,133.093473 C125.3953,133.162473 124.9023,132.687473 124.5933,132.464473 C124.8023,132.254473 125.0123,132.046473 125.2233,131.839473" id="Fill-87" fill="#FB0A0A"></path><path d="M25.8477,123.727673 C25.5537,124.211673 25.0847,124.311673 24.6257,124.191673 C24.4257,124.139673 24.3047,123.785673 24.1477,123.568673 C24.5657,123.395673 24.9737,123.173673 25.4087,123.086673 C25.5097,123.066673 25.7037,123.508673 25.8477,123.727673" id="Fill-89" fill="#FB0A0A"></path><path d="M30.0262,134.108073 C30.1442,134.969073 29.7682,135.336073 28.9052,135.219073 C28.9392,134.509073 29.2622,134.088073 30.0262,134.108073" id="Fill-91" fill="#FB0A0A"></path><path d="M124.8642,24.6093734 C124.9802,25.1763734 124.6702,25.5223734 124.2682,25.7763734 C124.2352,25.7973734 123.7112,25.3123734 123.7472,25.1263734 C123.8292,24.6973734 124.1162,24.3073734 124.3212,23.9013734 C124.5072,24.1453734 124.6942,24.3883734 124.8642,24.6093734" id="Fill-93" fill="#FB0A0A"></path></g></g></svg> 